<svg width="141" height="106" fill="none" xmlns="http://www.w3.org/2000/svg"><path d="M51.408 68.225C23.59 54.444 28.468 36.767 61.755 36.767c8.386 0 20.191 3.239 29.322 2.536 8.371-.642 25.084-7.12 6.518-17.31-15.132-8.312-27.302-8.129-32.346-8.48l2.796-1.91L86.094 1s20.829 3.743 36.235 12.192c18.49 10.13 25.965 25.973 4.892 35.11-21.088 9.136-36.508 6.63-45.867 4.415-13.416-3.193-20.465-.214-18.095 3.361.73 1.1 3.069 3.362 3.737 3.5L51.41 68.224z" fill="#C882FF"/><path d="M51.408 68.224c-27.818-13.78-22.94-31.458 10.347-31.458 8.386 0 20.191 3.24 29.322 2.537 8.371-.642 25.084-7.12 6.518-17.31-15.132-8.312-27.302-8.129-32.346-8.48" stroke="#fff"/><path d="M68.048 11.603 86.097 1s20.829 3.743 36.235 12.192c18.49 10.13 25.965 25.973 4.892 35.11-21.088 9.136-36.508 6.63-45.867 4.415-13.415-3.193-20.465-.214-18.095 3.361.608.932 2.385 2.69 3.327 3.285M139.956 55.91c.274 5.546-3.479 10.848-12.732 14.866-21.087 9.136-36.508 6.63-45.867 4.415-5.697-1.36-10.24-1.604-13.4-1.16M67.258 82.755l.137-21.726M51.578 90.837l.274-20M32.996 65.337l.258-15.263M65.402 33.252l.274-20M140 42.128v14.347M51.063 68.362l15.587-9.167M51.668 91.478l15.603-9.152M38.39 82.037s5.592 5.27 13.234 9.335M5.787 101.944c-2.963-1.696-4.756-3.941-4.756-6.432M37.082 95.512c0 5.241-8.067 9.488-18.034 9.488-2.628 0-5.12-.29-7.368-.825M37.082 73.144v22.689M1.016 73.374v22.612" stroke="#fff"/><path d="M19.201 83.076c10.052 0 18.201-4.748 18.201-10.604 0-5.856-8.149-10.603-18.2-10.603C9.148 61.87 1 66.616 1 72.472s8.149 10.604 18.201 10.604z" fill="#C882FF" stroke="#fff"/></svg>