<svg width="215" height="245" fill="none" xmlns="http://www.w3.org/2000/svg"><mask id="a" style="mask-type:alpha" maskUnits="userSpaceOnUse" x="0" y="0" width="215" height="245"><path d="M215 137.541 107.5 245 0 137.541S28.67 52.625 69.049 37.16C64.526 18.687 86.184 0 99.732 0c12.649 0 51.317 14.333 43.825 36.275C190.152 40.365 215 137.541 215 137.541z" fill="#C882FF"/></mask><g mask="url(#a)"><path d="m215.25 137.364-107.5 107.459L.25 137.364l107.5-107.46 107.5 107.46z" fill="#E8E8ED"/><path d="M134.566 63.052c3.254-1.627 12.612-8.54 7.323 15.453-.012 2.679-7.73 5.287-9.106 6.1.041 12.983.337 28.395 1.376 41.482-1.395 9.412-7.661 12.362-10.578 18.707-2.575 5.603-8.358 165.72-13.425 165.112-5.449-.655-14.646-150.472-13.019-162.265-8.55 0-14.646-23.181-12.205-37.821.814-6.1 1.29-7.216.814-10.98-2.441-2.847-6.55-8.913-6.916-13.014-7.73-6.1-8.543-19.928-3.255-21.148 0-16.171 8.513-35.787 28.072-35.787 16.177 0 30.919 6.507 30.919 34.16z" fill="#fff"/><path d="M115.193 174.497c3.67-10.337 7.852-6.523 7.852-18.658 0-12.135-.732-16.316 1.285-20.497 2.018-4.18 9.92-8.502 9.92-13.634 0-5.133-1.223-12.397-1.223-12.397s.701-1.127 2.158.329c1.456 1.456 7.795 6.759 7.795 9.069 0 2.31.089 4.197.854 4.197s31.424 10.102 36.468 10.956c5.053.854 24.402 16.69 27.226 28.411 2.823 11.728 6.851 20.797 8.218 24.815 1.367 4.018 1.367 4.449 1.367 11.981s.171 11.899.683 18.227c.513 6.336 2.571 4.881 3.849 6.759 1.277 1.879 2.481 3.506 2.4 8.728-.089 5.221 1.025 6.848 1.88 10.183.854 3.335 2.229 2.912 2.31 9.158.09 6.247 3.597 8.898 2.572 13.437-1.026 4.539-1.709 3.335-3.166-.431-1.456-3.766-6.68-8.646-12.245-8.386-5.566.261-11.815 1.285-15.842 4.962-4.028 3.676-4.793 10.956-6.339 9.069-1.546-1.887-1.603-9.411-1.79-12.323-.187-2.912-5.321-11.81-6.859-13.949-1.538-2.139-7.632 79.034 1.196 98.823 8.828 19.781-77.029 23.132-77.029 0s-1.522-120.222 1.22-138.783c2.742-18.569 5.224-30.062 5.224-30.062l.016.016zM100.468 163.796c.804-12.592 6.499-18.754-2.077-20.027-4.423-4.287-13.97-17.459-15.263-20.697 2.09-6.363 2.285-11.374 2.09-12.537-.147-.894-.634-1.456-2.09 0-1.457 1.456-7.834 6.985-7.834 6.985l-.537 4.837c-.765 0-33.233 10.936-37.88 13.091-7.558 3.514-20.577 10.72-23.4 22.441-2.824 11.729-7.307 23.368-9.325 30.623-2.856 10.273-4.76 18.642-5.305 28.793-.342 6.344-2.571 4.88-3.849 6.759-1.277 1.879-2.481 3.505-2.4 8.727.09 5.222-2.522 2.855-4.809 10.11-1.033 3.286.546 10.728-2.09 16.389-9.781 21.026 2.815 26.678 3.84 31.217.691 3.074 12.424 9.297 14.833 6.946 1.147-1.122-4.573-10.061-5.997-11.241-3.108-2.578-3.287-17.894 3.906-18.943 5.516-.805 9.804 0 14.8-5.563 3.646-4.051 4.793 10.956 6.339 9.069 1.546-1.887 1.603-9.411 1.79-12.323.179-2.911 5.321-11.809 6.859-13.949 1.538-2.139-2.514 83.304-11.343 103.085-8.828 19.781 87.177 18.87 87.177-4.262s-2.629-105.98-5.371-124.549c-1.225-16.69-5.041-42.546-2.064-54.981z" fill="#C882FF"/><path d="M128.098 92.454c-2.229 5.718-10.724 10.338-13.743 13.323-4.125 4.075-13.1 4.758-19.65-.39-4.808-3.783-7.705-4.856-11.651-9.55-3.947-4.692-4.581-12.013-4.581-16.706M77.512 84.996c-4.02-3.725-4.678-5.466-5.11-8.085-.43-2.619 0-5.457 0-8.727 0-3.27 3.272-2.4 4.15-1.31M133.997 84.345c4.89-1.814 8.096-4.685 8.592-7.645.497-2.96 1.18-8.419 1.18-12.12 0-3.7-6.33-4.912-8.682-.731M133.997 79.131c-1.579 6.556-1.424 33.12 0 40.961" stroke="#000" stroke-miterlimit="10"/><path d="M137.203 61.213c2.091-10.923 6.558-23.66 1.684-28.8-4.873-5.141-8.413-8.028-10.016-10.761-1.603-2.733-12.05-8.996-17.03-9.793-4.979-.797-13.173-1.448-14.621 0-1.449 1.448-3.857-.48-9.48 2.407-5.622 2.888-11.57 6.906-12.213 11.404-.642 4.497-4.174 9.638-5.46 13.493-1.285 3.856-2.042 6.035 0 12.526 2.832 8.987 4.419 11.37 5.127 14.201 1.953-.284 3.018-5.19 3.287-9.044.268-3.856.407-8.036 1.456-10.77.847-2.203 1.237-4.278 7.104-8.247 5.712-3.855 12.953-2.44 15.207-2.594 2.254-.155 8.08-.448 13.222-.61 5.142-.163 10.594 2.936 12.644 7.108 2.051 4.173 1.522 7.093 2.97 11.754 1.449 4.66-.455 13.875 2.368 11.305 2.824-2.57 3.767-3.57 3.767-3.57l-.016-.009z" fill="#000"/><path d="M92.089 19.33c-.5 10.995 3 15.493 7 16.993M77.088 30.825c0 3.284 5.822 9.889 10 8.996M98.12 23.327c-.5 10.996 5 15.994 8.5 15.994" stroke="#fff"/><path d="M124.323 58.757c-3.19-2.286-9.919-2.505-15.655-1.342-3.255.659-4.5-.407-4.418-2.774a1.177 1.177 0 0 1 1.318-1.114c5.801.732 8.861-.927 14.654 1.041 2.563.87 4.093 4.189 4.093 4.189h.008zM82.582 58.367c.57.951 3.198-.09 4.207-.212a34.2 34.2 0 0 1 5.842-.179c3.311.18 4.394-1.057 3.962-3.383a1.127 1.127 0 0 0-1.35-.895c-2.05.44-6.526 1.017-7.087 1.082-1.22.138-2.645.073-3.784.585-.838.374-2.465 1.88-1.79 3.002z" fill="#000"/><path d="M139.645 64.5c-5.191 4.668-5.744 7.612-5.639 8.824" stroke="#000" stroke-miterlimit="10"/><path d="M140.434 68.053c-1.171-.252-4.214.537-5.069 1.27M74 68.915c2.758 3.58 2.766 5.515 2.554 6.271" stroke="#000" stroke-miterlimit="10"/><path d="M73.535 71.282c.66-.016 2.238.717 2.628 1.197" stroke="#000" stroke-miterlimit="10"/><path d="M115.194 67.614a2.579 2.579 0 1 0 0-5.158 2.579 2.579 0 0 0 0 5.158z" fill="#000"/><path d="M120.694 64.5c-3.767-2.596-7.852-2.034-9.374-.993" stroke="#000" stroke-miterlimit="10"/><path d="M90.376 68.46a2.579 2.579 0 1 0 .001-5.157 2.579 2.579 0 0 0 0 5.157z" fill="#000"/><path d="M84.868 65.346c3.767-2.596 7.852-2.035 9.374-.993M101.476 62.54c1.538 5.977-1.83 8.946-2.669 10.8a3.366 3.366 0 0 0-.195 2.327M102.558 77.033c1.521.204 2.213.545 2.213.545M106.756 75.016c.862 1.399.455 4.066-1.026 3.944M97.716 78.27c-.911-.31-1.497-1.424-1.18-1.936M113.785 86.671c-3.067 2.629-8.73-.13-12.286 0-3.556.13-8.007 2.848-10.781 1.066M107.96 90.12c-3.572 1.391-9.886.895-10.879.448M85.812 98.725c.016 7.182-.458 16.671-2.74 24M122.673 161.636c-1.168 6.376-3.81 2.524-7.48 12.862 0 0-2.498 11.476-5.24 30.045-2.742 18.561-1.22 115.651-1.22 138.783 0 23.132 85.857 19.781 77.029 0-8.828-19.789-2.734-100.962-1.196-98.823 1.538 2.14 6.672 11.038 6.859 13.949.187 2.912.244 10.436 1.79 12.323 1.546 1.887 2.311-5.393 6.339-9.069 4.027-3.676 10.276-4.701 15.842-4.962 5.565-.26 10.789 4.62 12.245 8.386 1.457 3.766 2.14 4.97 3.166.431 1.025-4.538-2.482-7.19-2.572-13.436-.081-6.247-1.456-5.824-2.31-9.159-.855-3.335-1.969-4.961-1.88-10.183.081-5.222-1.123-6.849-2.4-8.727-1.278-1.879-3.336-.423-3.849-6.759-.512-6.328-.683-10.696-.683-18.228 0-7.531 0-7.962-1.367-11.98-1.367-4.018-5.395-13.087-8.218-24.816-2.824-11.72-22.173-27.557-27.226-28.411-5.044-.854-36.255-11.051-37.02-11.051 0 0 .362-1.246-.302-4.101-1.747-3.613-6.339-7.613-7.795-9.069" stroke="#000" stroke-miterlimit="10"/><path d="M85.218 110.535c-.147-.895-1.358-.766-2.124 0-1.456 1.456-8.288 6.759-8.288 9.069v2.863c-1.557.456-33.282 10.826-37.928 12.981-7.56 3.514-20.578 10.72-23.401 22.44-2.824 11.729-7.307 23.368-9.325 30.623-2.856 10.273-4.76 18.642-5.305 28.793-.342 6.344-2.571 4.88-3.849 6.759-1.277 1.879-2.481 3.506-2.4 8.728.09 5.221-2.522 2.854-4.809 10.11-1.033 3.286.546 10.728-2.09 16.389-9.781 21.025 2.815 26.678 3.84 31.216.691 3.075 12.424 9.297 14.833 6.946 1.147-1.122-4.573-10.061-5.997-11.24-3.108-2.579-3.287-17.894 3.906-18.943 5.516-.805 9.804 0 14.8-5.564 3.646-4.05 4.793 10.956 6.339 9.069 1.546-1.887 1.603-9.41 1.79-12.322.179-2.912 5.321-11.81 6.859-13.949 1.538-2.139-2.514 83.304-11.343 103.085-8.828 19.781 87.177 18.87 87.177-4.262s-2.629-105.981-5.371-124.55M184.704 241.218c-.146-13.535.961-31.38 2.254-38.765M122.915 145.624c-5.305 3.308-13.654 3.742-20.232 2.843" stroke="#000" stroke-miterlimit="10"/><path d="M197.462 177.026c-2.97 7.796-9.209 45.678-8.479 61.268.714 15.607.797 24.58 5.841 47.303 5.044 22.722-14.203 23.95.597 48.878 11.949 18.874 15.809 27.341 10.019 37.522-3.645-4.287-18.879-20.306-32.501-26.99-13.622-6.684-40.419 3.865-47.238-6.8-1.423-2.226-2.141-8.644-2.4-17.58m-.378-160.196c-1.129-17.249.87-17.091 2.38-20.159 1.526-3.068 9.391 4.665 12.991 10.818 1.201-5.576 1.439-7.023 1.472-13.558.033-6.535 3.84-9.439 3.275-16.851M136.027 113.582c-1.158 17.367-14.307 18.243-13.221 29.241M76.768 129.685c.713 5.722 7.401 16.187 8.695 27.25 3.127-3.223 8.082-9.664 13.292-12.865-5.218-3.735-12.962-17.82-17.303-23.128m-5.238 7.301c-.735-1.956-1.096-3.643-1.458-5.873M100.244 144.604c6.421-2.618-2.135 20.713-1.52 33.998.613 13.285 2.919 27.632 2.919 27.632" stroke="#000" stroke-miterlimit="10" stroke-linejoin="bevel"/><path d="M122.915 152.049c-5.54 3.455-14.401 3.776-21.098 2.716M31.785 245.268c.147-13.534-.96-31.379-2.254-38.765" stroke="#000" stroke-miterlimit="10"/><path d="M185.799 101.851c-3.171-7.214-5.752-13.511-8.68-18.445-2.075-3.481-5.815-5.242-7.139-1.325-1.218 3.618 7.544 19.605 5.974 17.89-12.963-14.156-14.953-19.17-19.353-15.87-4.145 3.098 4.892 9.275 14.664 25.913-.98 1.428-5.529-1.324-9.623-.534-3.917.758-3.154 11.831-4.985 12.066-1.401.183-6.945 1.815-4.316 4.331 4.961 4.762 9.322 10.327 13.856 15.379 7.253 7.133 11.816 5.06 14.424 8.655 3.089 9.999 5.687 18.058 4.598 33.982-.455 6.654-17.204 15.71-15.376 21.365 6.038 18.729 37.553 35.501 44.561 30.409 8.311-6.041 10.703-20.735 8.998-40.112-1.019-11.593-16.983-36.348-23.458-57.661-.823-2.064-.987-16.59-3.067-22.352-.989-2.736-3.111-6.411-3.992-10.238-1.286-5.588-2.18-12.804-2.542-15.248 0-3.185-5.772-3.974-5.124 1.945-.111 2.646-.402 3.296.58 8.555v1.295zm-13.054 26.051c-3.354 4.646-9.179-.745-10.125-2.657 1.985-4.178 1.249-6.561 3.366-7.523 3.772-1.714 9.186 6.823 6.759 10.18z" fill="#fff"/><path d="M210.494 158.474c9.078 8.936 17.374 29.226 2.125 44.705-16.543 28.121-34.968 20.782-44.047 11.846-9.078-8.937 11.442-61.555 17.441-28.703 9.406-2.894 18.21-12.297 24.481-22.182 0-3.979-2.533-5.235 0-5.666z" fill="#C882FF"/><path d="M185.792 185.623c-.685-7.784.103-33.954-7.282-37.22-2.307-1.023-10.388-4.782-13.358-8.155-6.472-7.343-8.652-11.46-11.936-13.573-3.284-2.112-.144-6.593 4.634-4.312 4.519 2.159 8.823 8.337 11.744 7.743 2.92-.595 4.982-3.334 3.874-5.77M172.97 122.605c-.909-2.931-5.547-5.373-6.991-4.88" stroke="#000" stroke-miterlimit="10"/><path d="M166.719 113.882c-1.058.981-2.441 9.136-4.252 10.431" stroke="#000" stroke-miterlimit="10"/><path d="M156.658 121.546c.859-4.727 1.812-8.08 2.122-9.223.309-1.142 1.884-3.149 4.368-2.986 2.908.182 6.112 1.059 9.068 2.048" stroke="#000" stroke-miterlimit="10"/><path d="M172.617 112.985c-3.182-8.018-12.331-19.85-14.175-21.72-4.996-5.074-1.792-11.069 3.449-6.453 4.408 3.885 11.809 11.47 15.707 18.749" stroke="#000" stroke-miterlimit="10"/><path d="M179.401 109.902c-.886-3.664-7.112-20.582-8.859-24-2.695-5.271 3.005-9.528 6.578-2.497 4.451 8.772 6.864 14.229 8.251 17.617M186.352 111.283c-.654-11.807-1.054-14.545-1.151-20.08-.071-4.002 4.37-4.836 4.845-1.896.836 5.165 1.351 7.963 1.738 10.214 1.013 5.886 2.225 10.009 4.161 15.008 1.935 4.999 4.696 15.715 4.003 23.373-.215 2.345 5.084 13.288 10.804 25.772m-35.199 23.561a161.207 161.207 0 0 0 1.974 7.103m34.441-27.037c6.397 14.021 12.53 27.463 12.449 34.876-.154 14.333-5.742 30.586-8.379 32.526-2.637 1.94-7.132 3.057-11.199.644-3.799-2.253-17.642-9.13-27.312-41.009m-6.292-7.103 6.292 7.103" stroke="#000" stroke-miterlimit="10"/><path d="M178.515 127.906c3.745 1.802 9.087 11.211 8.799 15.582m-2.421 37.936c-3.983 3.299-5.008 6.826 3.073 4.323 8.08-2.503 21.623-18.316 22.647-21.502 1.025-3.185 1.025-7.394-1.252-4.778m-27.897 28.212c1.932 6.983 5.139 7.862 6.502 7.429m-3.694.763c3.042 6.834 5.35 9.706 7.134 10.202m.595-10.965c8.521-2.605 14.169-5.904 14.565-6.666m-28.963-66.992c3.505 0 10.627.907 13.75 1.36" stroke="#000" stroke-miterlimit="10"/></g></svg>