<svg width="439" height="626" fill="none" xmlns="http://www.w3.org/2000/svg"><path d="M412.23 471.419c-38.334 41.804-107.962 41.258-181.222 41.278-144.166.029-229.354-26.869-229.983-83.034C-.13 327.259 38.553 289.717 117.24 273.669c58.693-11.97 136.831-94.482 185.025-76.468 37.056 13.845 27.053 64.315 84.103 102.466 67.893 45.397 60.341 134.157 25.862 171.762v-.01z" fill="#1F2229"/><path d="M412.23 471.429v-.01c-38.334 41.804-107.962 41.258-181.222 41.278-144.166.029-229.354-26.869-229.983-83.034-.748-66.22 15.164-105.317 47.78-129.018m373.467 157.141c25.19-42.379 24.757-117.558-35.904-158.119-57.05-38.151-47.047-88.621-84.103-102.466-48.194-18.014-126.332 64.498-185.025 76.468-22.845 4.659-42.319 11.13-58.424 20.474" stroke="#fff" stroke-miterlimit="10" stroke-linejoin="bevel"/><path d="M289.385 350.601c34.699-7.911 61.023 0 72.305 4.602m-29.043-9.873c9.48-8.738 17.271-10.767 19.981-10.689m-278.367-5.925c11.526 0 23.911 1.434 29.65 2.869m-15.917-11.332c5.531 2.943 8.876 6.868 9.857 8.463" stroke="#fff"/><path fill-rule="evenodd" clip-rule="evenodd" d="M232.35 487.649a2300.34 2300.34 0 0 0 5.325-14.535l11.387-21.682 25.656-40.751c7.767-13.984 10.588-37.69 8.517-40.797 4.918-20.933-2.303-38.446-2.303-38.446.905.51 1.672.797 2.439.797 5.068-9.143-.477-18.29-6.038-27.464-4.644-7.662-9.3-15.342-7.794-23.054.634-3.244 1.644-6.806 2.578-10.095 1.45-5.112 2.713-9.564 2.083-11.14-.357-2.318-.871-5.206-1.455-8.478-2.801-15.718-7.181-40.297-3.206-53.155 4.26 3.587 9.095 8.253 14.21 13.187 18.515 17.863 40.682 39.249 52.381 25.775 3.49-6.108 4.095-16.81 1.896-28.465 1.568-1.736 2.217-3.321 1.568-5.662l-.14-.502c-.786-2.838-3.031-10.936-3.786-13-.533-2.998-2.131-2.613-3.524-2.278-.61.147-1.18.284-1.605.124-2.425-4.126-5.402-8.195-8.421-12.319-4.299-5.876-8.681-11.865-11.669-18.294-.495-5.688-.52-13.2-.543-20.079-.028-8.084-.052-15.293-.833-17.638-1.358-4.076-1.861-7.438-2.337-10.626-.442-2.958-.862-5.765-1.921-8.853 0-2.646-1.658-5.941-1.658-5.941.491-10.43-5.684-8.556-5.684-2.011v.266c0 6.342 0 8.647 1.046 13.738.226 2.565.195 4.254.172 5.517-.018 1.008-.031 1.745.094 2.439-1.072-.06-2.138-.142-3.19-.222-9.172-.702-17.262-1.321-19.12 12.619-20.916-5.058-42.873-10.455-50.953-19.448-.617-.857-1.141-2.09-1.669-3.331-1.037-2.438-2.087-4.907-3.877-4.624-1.577.249-.785-11.588.885-24.675 8.734-2.911 9.424-7.894 9.771-10.405.024-.168.046-.326.068-.471.073-.711.154-1.415.234-2.103.781-6.747 1.396-12.064-8.002-8.774 2.072-33.665-30.517-32.099-38.838-31.593-6.895.418-21.75 8.286-20.714 35.737-4.143-2.072-4.143 1.553-4.143 7.769 0 4.986 1.958 9.903 7.706 13.159 1.284 5.011 2.371 7.797 5.841 11.633 0 5.026-.043 12.766-1.119 17.16-1.323-.331-2.221 1.609-3.312 3.967-.618 1.335-1.298 2.803-2.152 4.07-5.881 3.175-10.965 6.36-15.352 9.11-5.205 3.262-9.43 5.91-12.844 7.195-1.439.541-2.812.848-4.181 1.154-4.96 1.11-9.858 2.205-17.569 14.383-.858 3.218-2.871 8.124-5.229 13.872-3.336 8.129-7.362 17.942-9.789 27.044H64.47c0 7.769 6.732 61.116 11.393 91.156 1.92.96 8.808.734 14.428.549 3.474-.114 6.464-.213 7.498-.005 2.224 3.554 3.792 6.429 5.11 8.843 2.667 4.888 4.305 7.89 8.269 10.827 3.86 2.564 12.696 7.947 18.962 10.036.898.449 1.76.707 2.646.973 2.182.653 4.503 1.348 7.819 5.032-16.054 3.108-57.891 32.95-90.516 57.81-9.904 10.704-17.482 32.338 9.213 58.206 16.571 14.628 80.805 78.967 97.376 99.684-.344.282-.706.555-1.073.831-1.831 1.378-3.778 2.844-4.224 6.049-.502 3.604.085 8.064.678 12.575.488 3.705.98 7.444.877 10.772-9.793 42.165-.572 58.615 15.632 58.615 1.559 0 6.453 0 9.759-9.074 1.664 12.527 4.295 12.19 7.699 11.754.31-.039.628-.08.951-.112 13.1-4.553 14.441-9.14 19.383-26.048a744.994 744.994 0 0 1 2.51-8.451c.624-2.048 1.312-3.79 2.057-5.678.967-2.448 2.03-5.141 3.176-9.062 8.223-16.769 11.854-32.47 11.213-35.567-1.815-2.67-6.604-6.327-6.604-6.327 0-6.195 6.632-24.171 13.648-43.192zm-47.896 14.497c4.143-25.896 16.082-65.177 27.179-87.664 2.137-4.331 4.534-8.175 6.605-11.496 2.907-4.663 5.172-8.295 5.172-10.797-1.554-1.554-1.814-1.994 2.328-4.066-2.589-.518-2.806-2.302-1.77-4.892-5.468-8.332-23.421-20.815-29.518-21.753-13.62 10.454-32.901 16.368-53.17 22.585-12.868 3.947-26.135 8.016-38.603 13.447 2.972.33 11.899 4.916 8.278 8.408 8.221 8.156 19.573 22.098 31.429 39.714 6.847 12.753 16.616 24.729 26.701 37.091 5.156 6.321 10.395 12.744 15.369 19.423z" fill="#fff"/><path d="m192.437 201.172-1.133 3.439 3.293 1.502-2.7 2.411 2.101 2.948-3.544.737.346 3.604-3.438-1.134-1.502 3.294-2.411-2.701-2.947 2.102-.738-3.545-3.603.346 1.133-3.438-3.293-1.502 2.701-2.411-2.101-2.948 3.543-.738-.345-3.603 3.437 1.133 1.502-3.294 2.411 2.701 2.947-2.101.738 3.544 3.603-.346z" fill="#FFAE2A"/><path d="M201.207 591.729c-2.179 9.996-8.09 23.865-14.21 29.967 0 0 7.521-1.557 11.102-6.345 8.901-11.899 5.015-12.611 13.607-36.34 2.207-6.103 14.677-35.605 13.954-41.315-2.076-3.128-7.173-7.312-14.075-10.604-3.71 7.597-5.116 16.391-4.357 33.294.239 5.327-.704 17.225-6.021 31.343zM155.783 570.591c-2.336 7.965-4.352 15.247-4.017 22.429.491 10.529 5.032 20.152 12.775 25.709 0 0-6.856-.887-11.972-7.726-6.818-9.115-4.533-29.569-.803-43.971 2.984-8.515.803-11.839 0-18.254 0-.918-2.985-11.825 2.984-17.106-3.636 12.423 5.632 23.234 1.033 38.919z" fill="#D8D8D8"/><path d="M169.633 556.004c1.029 15.441-2.928 25.59-4.477 40.32-.541 5.145 7.07 7.808 13.006 7.384" stroke="#000" stroke-miterlimit="10" stroke-linejoin="bevel"/><path d="M177.199 571.302c-5.475 2.668-9.47 7.49-9.624 9.922-.173 2.69 4.716 1.3 10.749 7.603" stroke="#000" stroke-miterlimit="10" stroke-linejoin="bevel"/><path d="M169.804 567.356c2.909.702 5.317 2.105 8.447 4.878m-12.975 25.79c4.665-8.22 9.764-10.945 13.722-12.069" stroke="#000" stroke-miterlimit="10" stroke-linejoin="bevel"/><path d="M195.895 525.526s-.781 5.495-1.999 13.929c-1.218 8.434-10.857 9.485-13.557 7.648-2.7-1.837-9.985-1.14-12.125 1.91-2.14 3.051 4.437 10.151 8.847 20.241 4.41 10.09-.253 22.55.97 39.084 1.223 16.533 5.661 15.847 15.096 11.411s13.436-24.197 15.624-31.479c2.192-7.273 19.119-47.109 16.732-51.125-2.388-4.016-26.012-18.357-29.593-11.607l.005-.012zm0 0c-.833-.487-2.696-1.772-3.493-3.011" stroke="#000" stroke-miterlimit="10" stroke-linejoin="bevel"/><path d="M211.599 528.128c-7.895 16.475-2.073 22.205-4.722 41.053-2.653 18.86-12.558 48.835-20.659 53.144M192.692 543.01c3.592 8.218 1.319 8.092-4.967 12.427-6.281 4.322-2.142 11.088-3.327 22.017s-.411 21.831-6.574 24.525" stroke="#000" stroke-miterlimit="10" stroke-linejoin="bevel"/><path d="M182.868 595.117c-2.501-3.303-4.047-7.646-3.977-11.14.095-4.884 5.346-3.52 5.632-7.917.252-3.812-7.95-7.588-7.95-7.588" stroke="#000" stroke-miterlimit="10" stroke-linejoin="bevel"/><path d="M188.103 129.476c5.294-2.537 2.537 9.707-.662 27.949 0 13.45 3.697 29.864 3.697 29.864h-90.61c2.236-8.042 11.663-24.954 14.791-37.953 5.826-16.586 19.265-17.174 27.639-21.069 5.147-2.389 17.29-11.37 22.606-12.813 2.363-2.101 1.696-3.671 3.31-5.285 0-1.805.366-4.824 3.168-2.139.217 1.289 5.694 8.761 10.216 14.497 1.433 3.588 3.088 5.295 5.845 6.949zM111.352 299.307c-8.312-6.25-12.729-17.914-13.702-20.712 8.838 1.111 15.063 0 19.815 1.111-1.07 4.101 1.612 8.479 5.57 14.256 3.316 4.841 5.851 10.489 9.339 11.634 14.158 4.648 29.499-4.498 38.47-11.644 5.731-5.292 8.494-10.56 9.73-12.241.747.619 12.259-.41 15.276 0-2.54 3.269-4.604 13.273-11.035 22.245-3.602-1.044-15.785-1.915-24.957.835-10.455 7.202-20.287 11.287-22.525 9.494 0-4.765-11.913-6.694-25.981-14.978zM210.122 122.115c-.658.99 1.324 12.945 1.324 32.805 2.648 26.186 0 60.462 0 60.462l-1.575 44.654h16.468v6.292l-16.791 17.992s.32 9.593 1.655 16.938c.43 2.368 1.92 3.048 3.849 4.487 2.828 2.111 5.374 1.279 8.881 1.666 7.329.808 12.278-.915 18.86-.915 11.241 0 17.085 5.451 26.068 12.21 6.314 4.75 9.953 9.309 14.243 14.371 4.075-9.617 2.186-13.358 0-18.542-4.941-11.713-12.314-17.538-13.801-27.924-1.752-12.246 8.519-15.269 4.29-31.01-2.733-10.17-3.7-15.975-4.566-26.47-.998-12.108 0-31.11 0-31.11s9.257 8.569 15.235 14.01c6.546 5.957 10.023 9.524 16.848 15.16 5.592 4.617 8.101 8.36 14.722 11.316 4.62 2.063 7.816 4.782 12.762 3.718 8.176-1.758 10.355-7.003 10.355-19.05 0-5.826-1.46-14.846-1.46-14.846l2.312-4.015s-1.34-6.745-2.92-10.831c-.906-2.34-.168-5.84-2.677-5.84-5.84 0-.933 2.971-1.825 4.745-14.843 11.926-18.737 11.926-27.862 13.751-.619-2.226-7.521-39.57-10.325-46.063-4.299-6.61-5.252-9.91-4.299-14.369-.34-.766.995-9.544 0-9.933-1.921 0-1.921 1.944-1.921 5.897-1.814 4.342-3.946 3.766-4.989 1.555-.655-1.387-.298-6.146-.872-7.452-1.607-3.662-4.698-6.219-5.324-8.821-6.369-2.787-16.65-4.668-31.825-8.782-5.147-2.389-14.063-7.268-18.004-9.893-2.362-2.101-2.412-5.816-4.025-7.43 0-1.805-3.904-4.002-3.026-.585-.216 1.289 1.757 6.047-.878 10.64-1.434 3.588-6.357 7.378-8.907 11.212z" fill="#C882FF"/><path d="M221.384 98.794c3.412 3.116 3.067 8.444 6.732 10.358 3.665 1.914 12.396 8.591 21.713 10.549 9.317 1.944 26.513 7.108 26.513 7.108M310.568 157.228c4.912 12.251 16.383 22.051 21.639 34.586m-62.677 6.13c.994 2.345 14.347 14.231 18.665 17.599 4.317 3.383 21.245 21.946 33.93 25.819 12.671 3.888 16.051-6.052 16.184-9.628.115-3.064 2.743-12.746-.847-23.559" stroke="#000" stroke-miterlimit="10" stroke-linejoin="bevel"/><path d="M276.044 158.667c-2.656 6.974-8.234 40.865-7.581 54.813.638 13.963.712 21.991 5.222 42.32 4.51 20.328-12.7 21.426.534 43.729 10.685 16.885 14.136 24.46 8.96 33.569-3.26-3.835-16.882-18.167-29.063-24.147-12.181-5.98-36.141 3.458-42.239-6.084-1.273-1.991-1.915-7.733-2.146-15.727m15.553-178.074c.505 6.63-.801 8.42-.831 14.267-.029 5.846-.242 7.141-1.316 12.129-3.219-5.505-10.251-12.423-11.616-9.678-1.35 2.745-1.009 5.698 0 21.13 1.009 15.432-.119 16.976 1.261 33.877.774 9.489-1.528 43.796-2.618 73.75" stroke="#000" stroke-miterlimit="10" stroke-linejoin="bevel"/><path d="M221.11 101.906c-1.035 15.538-11.347 16.8-11.347 22.258 0 3.813.108 6.491.9 9.236M169.599 108.116c-2.686 6.233-2.409 6.926-8.833 9.597-6.424 2.671-19.065 12.494-24.673 13.339-5.608.861-18.426 7.108-21.661 20.641-3.249 13.547-12.433 27.065-12.759 33.03M133.942 310.049c-10.252-2.804-14.911-7.048-21.305-10.327-6.395-3.28-14.263-17.16-14.694-20.113M194.963 284.602c-4.377 8.235-8.353 18.845-10.103 19.513-1.751.667-17.491-5.151-32.454 5.158-8.291 5.713-17.504 5.713-17.504 5.713M147.383 306.251c-5.771 1.276-15.86.534-17.996-2.181-2.137-2.715-3.59-5.884-5.771-9.4-2.181-3.517-5.609-6.166-5.98-9.771-.371-3.606.994-6.361.994-13.325 0-4.749 5.386-4.978 6.544 1.554.044 5.431 1.074 8.139 5.614 10.543M138.467 283.117c4.303-1.617 7.626-4.733 11.276-8.917 2.611-2.998 6.379-7.331 8.13-9.794 3.843-5.446 8.353-4.036 5.252 1.81-3.101 5.847-6.483 11.485-8.145 13.682-1.662 2.196-2.804 3.739-3.828 4.733" stroke="#000" stroke-miterlimit="10" stroke-linejoin="bevel"/><path d="M161.196 288.237c1.113-3.027 7.552-9.155 9.406-13.102 1.425-3.027 3.828-8.473 4.6-12.108.771-3.636-4.095-3.947-6.929.756-2.774 4.6-2.938 5.832-5.297 8.74-2.373 2.909-4.94 4.912-7.996 7.375M167.191 291.739c2.952-3.769 8.679-10.788 9.821-14.378 1.143-3.591 2.675-7.666 4.01-11.033.729-1.84-2.055-4.991-5.508.809" stroke="#000" stroke-miterlimit="10" stroke-linejoin="bevel"/><path d="M149.773 305.554c8.427-3.117 17.447-8.681 19.88-10.61 2.434-1.929 8.22-7.746 9.214-10.313.994-2.567 3.115-6.9 2.626-8.591-.475-1.692-1.573-2.063-2.597-1.588M142.132 279.141l-13.575.623" stroke="#000" stroke-miterlimit="10" stroke-linejoin="bevel"/><path d="m116.286 279.022-40.414.045-11.231-90.931 140.441-1.231 4.391 95.026-27.655.415M211.228 276.22l14.806-16.752-14.673.682M211.749 282.637l14.807-16.752v-4.06M128.319 158.816c1.884 4.882 2.27 21.812 2.67 26.264M169.598 107.081c1.553-3.626 11.91 17.609 18.184 22.102-4.658 2.864-9.089 8.626-11.885 11.509-1.157-9.897-7.138-19.26-7.776-24.379M189.113 129.66c5.742-2.342-1.909 18.531-1.36 30.417.549 11.885 2.611 24.721 2.611 24.721M304.441 205.862c-3.668-11.921-2.751-20.48-8.864-41.266" stroke="#000" stroke-miterlimit="10" stroke-linejoin="bevel"/><path d="M302.837 201.503c-3.383 0-3.521 2.641-1.132 3.709 5.118 2.291 17.645-.033 31.055-13.416 2.929-2.922 1.316-5.164-.675-3.589" stroke="#000" stroke-miterlimit="10" stroke-linejoin="bevel"/><path d="M335.52 189.535c1.842 4.488 3.24 10.428 3.956 14.267.568 3.045-3.853 10.227-12.045 13.889-6.342 2.834-22.744 5.453-24.152.726-.905-3.036-1.914-6.798-3.498-12.804M310.346 152.242c-1.749-11.809 2.358-28.977-1.843-35.404m-.708-1.084c-1.124-5.121-.84-7.244-1.215-8.868-1.209-5.236-3.099-10.796-3.457-16.165-.453-6.8-5.694-3.993-5.694 0 0 4.291.376 5.812.376 7.06 0 4.623 1.297 11.961 1.297 15.928M294.422 159.796c-2.775-4.511-4.674-4.585-4.896-9.556-.223-4.971 1.142-8.636.668-15.135M284.221 144.854c-2.311-1.578-.75-4.478-2.004-9.022 0 0-2.863-3.992-3.234-5.95-.893-.983-2.212-3.119-2.687-4.528 1.218-4.49 4.084-9.092 6.58-10.936 3.903-1.256 12.292-.059 14.71 0" stroke="#000" stroke-miterlimit="10" stroke-linejoin="bevel"/><path d="M285.908 144.416c2.957-1.664 2.219-6.377 2.218-7.394 1.068-.502 1.979-2.163 3.105-3.533.521 1.089 1.977 3.996 2.532 4.365" stroke="#000" stroke-linejoin="bevel"/><path d="M298.524 122.223c-4.88-2.211-13.074-2.537-13.564-2.211-3.209 2.14-5.697 9.66-5.697 9.66" stroke="#000" stroke-miterlimit="10" stroke-linejoin="bevel"/><path d="m299.106 120.984-.484 2.687m.751 4.771-.752 2.7" stroke="#000" stroke-linejoin="bevel"/><path d="M298.793 129.663c-4.198-1.632-6.666-2.982-8.712-3.316-2.819.386-7.7 8.464-7.997 9.651M281.014 332.886c7.24 25.982 2.39 27.15 2.39 41.177 1.81 3.561-1.603 23.548-7.686 34.277-6.083 10.728-32.132 51.852-38.664 68.242-6.532 16.391-15.86 40.836-16.513 45.347M198.553 362.104c8.769 6.514 18.375 11.063 22.306 16.984 1.7 2.56 4.143 4.661 2.155 6.733 0 2.072 3.073 1.667 3.024 2.072-.215 1.785-3.85 1.036-3.85 2.835-.293.79 1.299 1.023 1.261 1.826-.187 3.847-4.989 7.612-9.322 16.574-5.252 10.832-25.892 60.079-29.517 90.637M194.45 362.514c-8.323 4.867-19.678 10.658-38.343 16.609-22.625 7.215-49.37 17.308-54.578 19.178m9.402 7.754c3.252 1.001 24.376 25.345 31.111 38.877 6.736 13.533 16.676 25.829 28.694 40.331 9.214 11.119 18.887 22.615 19.94 26.651 1.053 4.021 4.292 9.604-5.547 24.623-4.332 6.613-10.714 9.936-14.393 9.698-5.804-6.072-9.66-11.013-20.207-23.089-17.29-19.794-65.173-66.061-84.346-86.051m-7.98-9.034c-16.519-12.719-23.769-32.4-10.194-53.27 16.499-12.984 73.218-54.28 85.473-57.693m-24.233 91.099c6.607-7.021-4.134-9.159-5.944-10.409M229.902 321.921c-10.163 3.695-23.352 17.687-27.18 24.795M173.719 337.857c-5.905-7.983-9.985-10.565-16.632-12.568M154.875 531.116c-2.626 11.646 1.424 17.164 1.78 24.761.356 7.597 0 12.896-2.707 20.763-2.775 8.062-2.798 13.312-1.699 21.768 1.698 13.051 11.632 23.044 18.65 20.759 4.388-1.438 6.288-4.681 7.218-8.176" stroke="#000" stroke-miterlimit="10" stroke-linejoin="bevel"/><path d="M156.418 530.03c-7.738 6.974-4.984 13.593-4.435 20.196 1.449 8.746 1.578 11.454-1.388 22.029M150.207 573.931c-2.166 5.639-3.298 26.591.989 34.5 4.303 7.909 7.766 9.321 14.681 10.925M215.617 83.257c-2.24 5.773-12.26 12.31-15.316 15.337-4.169 4.125-16.508 4.394-20.611-1.754-3.005-4.502-5.036-5.614-9.026-10.363-3.273-3.894-4.098-10.517-5.135-16.678M221.566 69.814c-1.588 6.618-3.175 22.625-1.736 30.533m-28.481 34.184c10.357 2.071 17.607-2.072 18.124-2.072m-19.678 7.251c10.357 2.072 18.125-.518 19.678-1.554" stroke="#000" stroke-miterlimit="10" stroke-linejoin="bevel"/><path d="M224.8 51.71c2.107-11.025 6.617-23.89 1.692-29.083-4.926-5.194-8.487-8.102-10.104-10.862-1.617-2.76-12.166-9.081-17.181-9.897-5.014-.817-13.293-1.455-14.762 0-1.454 1.454-3.887-.49-9.569 2.433s-11.676 6.974-12.329 11.515c-.653 4.54-4.214 9.734-5.519 13.622-1.306 3.887-2.063 6.098 0 12.642 2.863 9.081 4.451 11.485 5.163 14.334 1.973-.297 3.041-5.238 3.308-9.126.267-3.887.416-8.116 1.469-10.876.846-2.226 1.246-4.318 7.166-8.325 5.757-3.902 13.071-2.463 15.341-2.626 2.27-.163 8.16-.46 13.338-.623 5.192-.164 10.682 2.967 12.759 7.181 2.077 4.215 1.528 7.168 2.997 11.871 1.454 4.704-.46 14.008 2.389 11.411 2.848-2.597 3.798-3.606 3.798-3.606l.044.015z" fill="#000"/><path d="M216.388 11.765c-1.617-2.76-12.166-9.081-17.181-9.897-5.014-.817-13.293-1.455-14.762 0-1.454 1.454-3.887-.49-9.569 2.433s-11.676 6.974-12.329 11.515c-.653 4.54-4.214 9.734-5.519 13.622-1.306 3.887-2.063 6.098 0 12.642 2.863 9.081 4.451 11.485 5.163 14.334m58.767-1.113c2.848-2.597 3.798-3.606 3.798-3.606l.044.015c2.107-11.025 6.617-23.89 1.692-29.083-3.008-3.171-5.507-5.49-7.365-7.444m-30.268 10.7c-5.791-1.844-9.475-9.214-8.159-16.322m7.238 7.503c-.617 1.687.394 6.975 2.763 8.818m-25.363-4.917c3.02 4.917 8.951 6.034 11.409 6.495" stroke="#fff" stroke-linejoin="bevel"/><path d="M211.803 49.23c-3.219-2.314-10.014-2.521-15.801-1.364-3.278.668-4.54-.416-4.451-2.804.03-.683.653-1.202 1.336-1.128 5.845.742 8.946-.934 14.792 1.054 2.581.875 4.124 4.228 4.124 4.228v.015zM169.683 48.846c.579.964 3.22-.09 4.243-.208a35.673 35.673 0 0 1 5.905-.178c3.353.178 4.436-1.069 4.006-3.413a1.143 1.143 0 0 0-1.365-.905c-2.062.445-6.587 1.024-7.151 1.098-1.231.134-2.671.074-3.813.594-.846.385-2.493 1.899-1.81 3.026l-.015-.014z" fill="#000"/><path d="M227.264 55.034c-5.238 4.72-5.801 7.687-5.697 8.918" stroke="#000" stroke-miterlimit="10" stroke-linejoin="bevel"/><path d="M228.064 58.626c-1.187-.253-4.258.549-5.119 1.276M161.004 59.485c2.789 3.62 2.789 5.564 2.582 6.335" stroke="#000" stroke-miterlimit="10" stroke-linejoin="bevel"/><path d="M160.544 61.889c.668-.015 2.255.712 2.656 1.202" stroke="#000" stroke-miterlimit="10" stroke-linejoin="bevel"/><path d="M202.591 58.179a2.596 2.596 0 1 0 0-5.193 2.596 2.596 0 0 0 0 5.193z" fill="#000"/><path d="M208.139 55.033c-3.798-2.626-7.923-2.047-9.466-1.009" stroke="#000" stroke-miterlimit="10" stroke-linejoin="bevel"/><path d="M177.546 59.024a2.596 2.596 0 1 0 0-5.192 2.596 2.596 0 0 0 0 5.192z" fill="#000"/><path d="M171.983 55.894c3.799-2.626 7.923-2.047 9.466-1.009M188.747 53.06c1.543 6.04-1.839 9.037-2.7 10.907-.386.86-.386 1.647-.193 2.345M189.83 67.69c1.528.208 2.241.55 2.241.55M194.074 65.658c.875 1.41.46 4.11-1.039 3.976M184.949 68.937c-.919-.312-1.513-1.44-1.186-1.959M201.166 77.426c-3.101 2.656-8.694 1.558-12.284 1.691-3.591.134-8.19 1.187-10.994-.608" stroke="#000" stroke-miterlimit="10" stroke-linejoin="bevel"/><path d="M198.673 79.132c-2.195 4.57-8.1 11.661-17.225.4M172.933 89.593c0 7.256.133 11.431-1.262 18.005M164.55 75.733c-4.065-3.754-4.717-5.52-5.163-8.16-.445-2.642 0-5.506 0-8.815 0-3.309 3.309-2.419 4.184-1.32M221.567 75.08c4.925-1.824 8.174-4.733 8.679-7.715.504-2.983 1.187-8.503 1.187-12.242 0-3.74-6.395-4.956-8.769-.742" stroke="#000" stroke-miterlimit="10" stroke-linejoin="bevel"/><path d="M198.673 78.85c-6.602-2.834-15.311-3.116-17.225.697" stroke="#000" stroke-miterlimit="10" stroke-linejoin="bevel"/><path d="m181.51 79.63 5.295 5.273 3.264.668 4.451-.534 3.486-4.184v-1.72l-16.496.497z" fill="#000"/><path d="M190.572 88.866c1.692.208 4.793-.311 5.401-1.142" stroke="#000" stroke-miterlimit="10" stroke-linejoin="bevel"/></svg>