<svg width="356" height="392" fill="none" xmlns="http://www.w3.org/2000/svg"><path d="M0 166.777 356 0l-4.714 392L0 166.777z" fill="#C882FF"/><mask id="a" style="mask-type:alpha" maskUnits="userSpaceOnUse" x="128" y="16" width="212" height="349"><path d="m251.995 47.907 39.199 32.358-26 72.305 47.999 18.376 20.4 74.302 6.4 63.916-24 13.982-8.257 40.965-179.607-115.025 6.65-40.632.11-61.025 36.307-58.776 10.8-31.958 18.4-30.76 27.999-9.587 23.6 31.56z" fill="#D9D9D9"/></mask><g mask="url(#a)"><path d="M259.847 122.593c-.286 4.955-2.138 11.029-11.579 22.155-.07 1.207 0 10.466 1.699 16.5 12.119 3.121 44.165 4.554 54.947 25.085 5.469 10.413 17.195 39.887 21.086 55.893.213 1.821-3.804 1.421-3.631 3.196 1.235 12.663 2.482 18.003 2.482 31.173-1.292 16.026-33.839 18.045-32.944 27.664-1.624 28.286 9.743 51.12 6.344 64.582-28.098 3.657-93.654-44.328-121.733-57.804-8.36-9.883-11.292-33.543-13.518-43.432-5.491-1.841-10.989-.633-16.338-6.324-2.689-9.03-2.88-36.048 5.654-67.579 4.379-25.613 39.546-23.573 51.14-30.358 2.401-4.373 3.26-15.93 1.69-25.235-3.739-5.465-5.001-10.829-5.917-12.635-39.603-2.283-4.118-59.6 31.829-57.528 24.854 1.432 51.652 50.139 28.789 54.647z" fill="#fff"/><path d="M198.198 122.222c1.413 6.119 5.756 15.935 12.347 21.64 14.987 12.971 26.517 14.817 39.016-.39 6.694-8.144 10.521-16.89 11.205-28.715M194.888 107.691c-4.192-3.738-12.851.554-8.083 10.589 2.529 5.325 8.99 7.381 11.187 7.507" stroke="#000" stroke-miterlimit="10"/><path d="M260.156 107.632c3.733-2.617 10.069 2.442 5.968 9.182-.895 1.47-2.242 4.03-5.814 5.831M189.917 109.573c4.591 2.175 6.312 8.57 6.296 10.528" stroke="#000" stroke-miterlimit="10"/><path d="M189.289 112.887c2.439.141 4.365.478 5.507 2.033" stroke="#000" stroke-miterlimit="10"/><path d="M257.678 130.547c20.972-20.552 15.702-38.65 11.807-43.325 2.287-18.838-14.99-33.989-24.998-37.462.694-12.008-6.536-15.386-10.166-16.604-12.176-13.526-32.821-6.657-36.375 8.118-6.267-.361-10.981 8.486-7.915 15.715-1.903 3.011-5.251 5.04-4.034 9.508-5.163-1.934-11.997 11.945-6.789 21.485-3.729 9.659-10.422 29.73 26.244 50.46-3.1-4.662-3.966-6.859-6.682-12.995-2.065-.119-8.862-2.573-10.965-4.879-2.234-5.098-3.164-10.04.123-12.796 1.192-1 3.581-.83 5.374-1.277 5.764 12.99 11.741.048 11.978-4.062.707-12.236 4.598-12.49 8.68-19.61 5.893-10.276 18.786-13.311 22.475-6.748 4.528-1.936 10.942 1.552 11.747 10.797.206 12.97 10.478 10.963 11.408 20.687 6.337-3.571 8.532 3.253 7.936 5.843-.172 2.984-2.86 7.562-7.159 9.046-.777 2.077-.777 4.303-2.689 8.099z" fill="#000"/><path d="M260.334 127.286c18.248-18.35 12.775-35.984 8.88-40.66 1.559-12.84-5.867-24.34-16.031-31.764m-62.346 2.61c-6.934-8.864 2.962-17.105 7.082-16.867 2.847-12.058 22.941-22.877 36.693-7.373 4.13 1.006 10.825 8.686 9.615 16.206 1.607.57 4.686 2.334 6.277 3.414m-47.08 84.392c-30.337-16.922-30.308-38.108-24.177-49.066-5.095-10.024 1.803-23.386 6.588-22.326.134-2.314.546-4.332 1.799-5.952" stroke="#fff"/><path d="M232.482 113.127c-.143 2.468.436 5.35 1.568 6.516 1.713 1.766 1.819 4.135.516 6.213M232.521 124.507c-1.679-.097-1.7-.017-2.52.422M236.753 124.751c.692-.753.816-1.782.816-1.782" stroke="#000" stroke-miterlimit="10"/><path d="M246.46 112.769a2.732 2.732 0 1 0 .315-5.452 2.733 2.733 0 0 0-2.887 2.569 2.732 2.732 0 0 0 2.572 2.883z" fill="#000"/><path d="M241.032 110.129c5.88-6.084 8.493-.524 13.554-.233" stroke="#000" stroke-miterlimit="10"/><path d="M218.046 114.463a2.732 2.732 0 1 0 .315-5.453 2.732 2.732 0 1 0-.315 5.453z" fill="#000"/><path d="M195.354 129.042a3.564 3.564 0 0 0 3.766-3.351 3.567 3.567 0 0 0-7.122-.41 3.564 3.564 0 0 0 3.356 3.761zM262.624 126.642a3.34 3.34 0 0 0 3.529-3.14 3.339 3.339 0 0 0-3.144-3.524 3.338 3.338 0 1 0-.385 6.664z" fill="#FFAE2A"/><path d="M222.282 111.001c-5.197-5.386-8.896.594-12.847.366" stroke="#000" stroke-miterlimit="10"/><path d="M255.56 101.1c-4.425 1.098-6.295-1.357-13.596.781-1.421.404-5.369 1.678-5.284.203.085-1.475-.402-3.66 6.167-4.868 1.306-.241 6.592-.846 12.692 3.883l.021.001zM205.184 103.603c4.878.395 6.459-2.519 14.582-1.482 1.584.206 5.99.869 5.647-.676-.344-1.545-.205-3.95-7.399-4.114-1.434-.037-7.147.225-12.831 6.295l.001-.023z" fill="#000"/><path d="M222.034 133.598c5.531 5.41 9.766 1.421 12.332 1.617 2.565.196 4.937 2.21 8.149-1.557" stroke="#000" stroke-miterlimit="10"/><path d="M225.824 136.358c6.888-8.408 11.88-5.903 13.495-.744M226.389 139.343c3.713 4.179 10.052 5.934 12.756-3.208" stroke="#000" stroke-miterlimit="10"/><path d="M226.655 136.236c3.713 4.18 9.499 3.898 12.412-1.356" stroke="#000" stroke-miterlimit="10"/><path d="M207.758 38.379c2.824 8.061 16.779 8.331 17.247-3.134" stroke="#fff" stroke-miterlimit="10"/><path d="M218.195 43.999c-7.054-2.171-5.625-11.201-.338-13.227M222.409 49.89c4.38-.638 8.884-4.83 7.885-12.22" stroke="#fff" stroke-miterlimit="10"/><path d="M226.545 48.138c2.962-1.334 9.151-1.301 11.335-.674M201.376 54.311c2.968-2.564 11.593-3.46 13.793-2.83M194.704 86.696c-3.122-2.378-6.168-10.082-5.702-16.569M191.412 103.031c-5.575-3.93-7.484-8.475-7.872-14.956M222.372 56.977c3.849 2.957 7.107 8.276 8.639 11.78M261.859 97.285c2.443-1.664 4.763-5.698 5.831-7.749" stroke="#fff" stroke-miterlimit="10"/><path d="M205.098 137.884c1.384 10.843 1.49 21.165-1.759 27.468M250.255 161.253c-2.527-5.066-1.748-10.411-1.768-16.805M160.916 252.797c1.244 6.238 8.768 46.278 9.985 50.46 1.7 5.924 4.011 6.867 10.733 9.747" stroke="#000" stroke-miterlimit="10"/><path d="M203.725 164.042c-18.96 6.389-43.424 6.231-49.413 24.176-8.511 25.498-10.804 48.037-7.999 72.704M196.26 249.459c2.172 15.146 4.355 28.139 5.437 39.418M195.043 214.444c2.122 19.367 4.612 27.604 7.93 37.506.266 2.962-1.278 6.401-3.386 8.384" stroke="#000" stroke-miterlimit="10"/><path d="M149.576 261.11c13.007-15.598 42.504-14.206 50.561-10.31M147.183 263.27c4.992 2.797 10.716 3.871 16.504 3.832M250.566 161.395c20.648 5.026 39.932 7.28 49.049 17.776 12.582 14.499 20.077 42.296 26.866 62.862M298.735 361.182c0-16.983-6.772-19.663-6.772-56.056-1.552-26.716 4.779-44.231 6.772-60.551 1.838-15.052-3.127-27.786-21.507-49.813M203.751 165.845c20.083 25.63 47.665 7.096 46.583-4.75" stroke="#000" stroke-miterlimit="10"/><path d="M199.287 167.517c23.99 33.987 54.395 11.7 55.79-5.293" stroke="#000" stroke-miterlimit="10"/><path d="m208.152 213.769 1.897-3.271 3.851-.686 78.853 3.242 2.128 2.39-7.007 95.706-.482 2.887-2.249.562-75.141-5.683-2.766-.817-1.321-2.448-2.749-2.135v-2.327l4.986-87.42z" fill="#D8D8D8"/><path d="M204.92 269.448s-1.532 28.757-1.742 30.649c-.372 3.373.873 5.429 3.88 6.096M290.153 275.951l5.062-60.802s-73.331-3.001-77.101-3.077c-4.392-.096-7.569-.01-7.541 5.744.029 5.753-.679 24.208-.679 24.208" stroke="#000" stroke-linejoin="bevel"/><path d="m295.017 215.223-2.068-2.178s-73.33-3.001-77.101-3.077c-4.392-.096-7.569-.01-7.54 5.743.028 5.754-1.149 29.446-1.149 29.446M207.059 278.638s-1.024 22.249-1.235 24.151c-.421 3.823 1.235 5.954 5.177 6.288 3.024.258 72.317 5.734 73.895 5.62 1.579-.115 3.257-1.801 3.257-3.932l.534-5.367" stroke="#000" stroke-linejoin="bevel"/><path d="M323.334 242.113c-3.568-3.11-9.423-6.602-23.582 0-.997 15.876-2.189 25.54-2.954 29.569-24.491 0-50.575-4.908-52.134-13.197-1.315-2.62-1.756-6.349-3.041-8.949-1.984-4.012-4.635-7.015-4.635-7.015-4.631-5.239-7.082-7.394-13.11-10.867-.478-.704-3.116-3.007-4.331-4.642-3.954-5.32-6.878-1.636-6.091 2.105.468 2.202 1.617 3.015 2.853 4.721.982 1.358 2.467 3.137 2.825 3.444 2.063 2.59 2.352 3.533 4.175 6.321a52.57 52.57 0 0 1-15.572-6.321c-2.853-1.974-5.191-3.105-7.134-1.974-1.753 1.022-.648 4.468.578 6.244-3.329.969-3.775 2.595-2.261 4.957.379.595 1.285 2.581 1.683 3.166-.518.605-1.654 1.488-1.684 2.501-.049 1.617.16 3.204.728 4.722.538 1.429 1.654 2.65 2.142 4.059.438 1.28-.439 2.742 0 4.062.528 1.637.558 2.74 4.971 5.423 2.84 1.726 4.892 4.316 8.071 5.507 3.009 1.131 6.276 1.151 9.425 1.617 7.691 1.121 14.845 4.068 20.384 9.585 1.415 1.399 2.581 1.647 4.344 2.381 14.907 4.781 62.595 23.31 68.746 19.844 4.862.346 6.537-7.3 7.721-16.334 3.668-15.921.365-41.8-2.117-50.929z" fill="#fff"/><path d="M323.919 244.209c9.604-3.497-9.08-6.458-22.963-2.555" stroke="#000" stroke-miterlimit="10"/><path d="M248.571 264.265c5.053 1.859 17.982 6.036 39.199 6.645 9.182.264 22.744 0 28.259 3.719" stroke="#000" stroke-linejoin="bevel"/><path d="M322.886 241.78c3.129 13.693 5.689 34.023 3.129 48.071-1.887 10.352-.593 25.058-19.998 18.513-19.405-6.545-41.74-12.599-60.685-20.437M246.853 261.449c-7.681-8.721-.674-9.833-10.322-19.657-8.705-8.862-12.631-8.521-16.677-14.61-3.946-5.938-8.193-2.553-5.422 3.886 1.466 3.394 6.577 7.34 7.29 9.483" stroke="#000" stroke-linejoin="bevel"/><path d="M226.518 243.181c-4.803 1.566-17.606-5.188-21.326-7.583-5.424-3.502-8.251 1.836-3.499 6.305 4.652 4.38 7.851 5.927 9.966 6.815M200.075 242.239c-1.788.938-3.654.938 0 6.42 3.653 5.482 5.094 5.4 5.686 7.832M199.275 251.309c.089 6.925 1.834 5.704 2.359 8.976.526 3.273-1.1 6.445 3.401 9.287 4.947 3.122 10.379 8.206 17.606 7.976 9.349-.29 14.124 5.641 19.774 9.214" stroke="#000" stroke-linejoin="bevel"/><path d="m285.674 223.944-3.569 4.468 3.152 4.77-5.357-2.009-3.568 4.468.257-5.709-5.357-2.009 5.516-1.52.257-5.709 3.152 4.77 5.517-1.52zM260.083 236.218l9.55 1.531-16.452 13.53 8.365-11.441-7.946-1.203 5.087-10.632 9.828-1.671-8.432 9.886z" fill="#FFAE2A" stroke="#fff" stroke-linejoin="round"/><path d="M169.956 158.291c-.104-.731.533-3.291.343-4.165-.338-1.579-.095-2.919.518-3.981-.737-.678-.801-3.387.407-4.826 1.057-1.259 1.398-.869 2.54-2.067.064-.198-.05-.686.073-.868 2.302-3.37 2.91-5.552 4.889-9.209.835-1.314 1.171-3.086 2.283-2.911 1.071.172 1.488 2.151 1.33 3.285-.294 2.166-.62 2.964-1.354 5.01.425-.025.845-.009 1.264.017.203.023.409.026.613.038 0 0 .155-.003.207-.008 1.51-.067 2.818-.538 3.963-1.386.886-.651 2.162-.56 2.876.321.668.836.575 2.213-.322 2.873-1.402 1.035-2.965 1.847-4.7 2.085-4.576.619-4.39 2.633-4.599 2.939.7-.004 3.861-.576 4.57-.383 1.137.322 1.378.38 2.318 1.081.579.435 1.134.897 1.701 1.351.7.366 2.055 1.07 2.055 1.07s.833.425.988.421c1.076.038 1.973 1.218 1.805 2.257a2.329 2.329 0 0 1-.358.906c.129.312-1.001.577-.896.917.516 1.733 3.001 1.877 4.15 3.742.227.365 1.241 1.598 1.458 1.962 1.106 2.888 1.549 3.893 3.694 7.164 1.037 1.576 3.16 5.502 3.665 7.326.563 2.047 1.648 5.313.935 8.193.245 8.834-.593 10.83 0 18.491.39 5.059 6.003 56.733 8.699 81.473 1.354 12.426.573 29.696-17.257 35.17-7.791-1.165-15.565-27.09-15.565-37.379.82-19.409 9.67-69.755 7.232-83.94-.529-3.08-.8-7.55-4.25-10.104-2.466-1.869-4.954-3.719-7.385-5.625-1.345-1.044-3.566-2.063-4.628-3.333-1.595-1.103-2.39-1.901-3.535-3.622-2.044-3.065-1.007-7.09.86-10.345.638-1.1-.712-3.009-.567-3.938l-.02-.002z" fill="#fff"/><path d="m162.67 126.688-1.208-4.768 4.417 2.174 31.947 39.426-3.209 2.594-31.947-39.426z" fill="#FFAE2A"/><path d="m162.67 126.688-1.208-4.768 4.417 2.174 31.947 39.426-3.209 2.594-31.947-39.426z" fill="#FFAE2A"/><path d="m162.67 126.687-1.208-4.768 4.417 2.174-.565 1.31-1.241 1.01-1.403.274z" fill="#fff"/><path d="m162.67 126.687-1.208-4.768 4.417 2.174-.565 1.31-1.241 1.01-1.403.274z" fill="#fff"/><path d="m162.105 124.493-.643-2.573 2.471 1.168-1.828 1.405z" fill="#000"/><path d="m173.435 143.052 1.246-1.532 4.218-2.585 3.164 4.117-2.589 2.489 4.506-.574 4.794 6.511-5.656-.575h-1.726l3.835 3.639 5.656 5.17v1.915l-1.438.67-9.971-10.819-6.039-8.426z" fill="#fff"/><path d="M169.707 161.243s.729-9.075.91-10.412c.18-1.336.615-4.021 2.999-4.269 2.374-.248 7.522-1.379 8.767-1.466 1.233-.078 2.715-.446 4.483.768 1.767 1.215 2.923 2.105 4.71 2.87 3.966 1.707 2.194 4.202-1.095 3.526-3.218-.668-4.153-1.142-5.502-1.499-1.349-.356-5.695-.42-7.335 1.637" stroke="#000" stroke-miterlimit="10"/><path d="M170.605 150.841c-.31-1.823-1.137-3.899.609-5.523 1.746-1.624 5.527-4.695 6.462-5.506.934-.81 1.664-1.263 3.795-1.364 2.131-.1 4.005-.384 5.73-1.271 2.696-1.374 5.09 1.412 1.349 3.851-3.475 2.263-4.963 1.675-6.257 2.209-.756.316-1.983 1.166-2.877 2.35" stroke="#000" stroke-miterlimit="10"/><path d="M176.946 137.398s1.24-2.328 1.673-3.801c1.354-4.555 3.745-4.401 3.812-.406.066 3.995-1.831 5.314-1.831 5.314M186.565 161.411c-.137.674-1.956 2.3-5.709-1.491" stroke="#000" stroke-miterlimit="10"/><path d="M192.449 153.056c2.737 2.208 5.683 4.757 6.116 7.045.434 2.279 4.49 7.131 5.664 10.427 1.174 3.297 2.941 4.707 2.314 10.299-2.345 20.929 6.928 76.473 9.011 108.49 1.976 9.553-4.932 22.058-16.988 27.75-10.394-7.245-11.563-13.676-13.89-23.124-7.554-30.575 8.999-68.338 4.214-103.239-.167-3.842-9.001-10.769-13.448-13.147-4.447-2.377-6.487-5.103-6.659-7.794-.172-2.691 1.733-8.398 2.562-11.018.829-2.621 1.889-6.12 6.425-5.459 2.622.386 6.336 1.315 6.906 1.368.57.054 2.69 1.709 5.534 4.431 2.843 2.723-1.222 3.194-2.42 2.587-1.567-.802-3.123-2.25-4.516-2.766-2.17-.016-2.92.25-4.257.336-2.343.16-2.208 1.706-1.986 4.228.282 3.269 2.321 3.25 4.324 3.834 1.803.53 9.953 3.836 11.376 6.934" stroke="#000" stroke-miterlimit="10"/></g></svg>