<svg width="450" height="451" fill="none" xmlns="http://www.w3.org/2000/svg"><path fill="#E8E8ED" d="m226.506 55.61 197.196 197.196-197.196 197.196L29.31 252.806z"/><mask id="a" style="mask-type:alpha" maskUnits="userSpaceOnUse" x="29" y="32" width="395" height="418"><path d="M207.524 32.449h48.419l24.391 30.706 5.245 33.57 2.009 15.737 136.113 140.342L226.506 450 29.31 252.804 79.214 202.9l-2.995-34.011 5.006-26.619 23.206 12.513h10.238l68.65-64.41 2.926-34.764 21.279-23.16z" fill="#E8E8ED"/></mask><g mask="url(#a)"><path d="M270.966 102.618c4.217-2.108 16.34-11.07 9.488 20.03-.015 3.472-10.015 6.853-11.798 7.907.053 16.827.436 36.803 1.783 53.766-1.808 12.199-9.927 16.023-13.705 24.247-3.337 7.262-10.83 214.797-17.395 214.008-7.06-.848-18.976-195.032-16.868-210.318-11.077 0-18.976-30.046-15.813-49.022 1.054-7.907 1.67-9.353 1.054-14.232-3.163-3.69-8.487-11.551-8.961-16.868-10.015-7.906-11.069-25.828-4.217-27.41 0-20.96 11.03-46.386 36.371-46.386 20.96 0 40.061 8.434 40.061 44.278z" fill="#fff"/><path d="M245.864 247.067c4.755-13.399 10.174-8.454 10.174-24.184 0-15.729-.949-21.147 1.665-26.566 2.615-5.419 12.852-11.021 12.852-17.673 0-6.652-1.584-16.067-1.584-16.067s.909-1.461 2.796.426c1.887 1.887 10.099 8.761 10.099 11.755 0 2.994.116 5.44 1.107 5.44s40.715 13.093 47.251 14.2c6.547 1.107 31.616 21.633 35.274 36.824 3.658 15.202 6.774 22.659 8.545 27.867 1.756 8.402 2.884 10.428 2.884 20.19 1.129 12.039 1.211 15.06 1.876 23.262.664 8.212 3.331 6.325 4.986 8.761 1.655 2.435 3.216 4.543 3.11 11.311-.116 6.769 1.328 8.877 2.435 13.199 1.107 4.323 2.889 3.775 2.994 11.871.116 8.096 4.66 11.533 3.332 17.416-1.329 5.882-2.214 4.322-4.101-.559s-8.655-11.206-15.866-10.869c-7.211.337-15.308 1.666-20.526 6.431-5.219 4.765-6.21 14.2-8.213 11.754-2.003-2.445-2.076-12.197-2.319-15.971-.242-3.774-6.895-15.307-8.887-18.08-1.993-2.773-9.889 102.439 1.55 128.089 11.438 25.638-99.804 29.982-99.804 0 0-29.983-1.971-155.826 1.581-179.883 3.553-24.068 6.768-38.965 6.768-38.965l.021.021zM226.786 233.196c1.042-16.321 8.421-24.308-2.691-25.957-5.73-5.556-18.099-22.63-19.776-26.826 2.708-8.247 2.961-14.742 2.708-16.25-.189-1.16-.821-1.887-2.708 0-1.887 1.887-10.149 9.053-10.149 9.053l-.696 6.269c-.991 0-43.059 14.175-49.078 16.969-9.794 4.554-26.662 13.895-30.32 29.086-3.658 15.202-9.467 30.288-12.081 39.692-3.7 13.315-6.168 24.163-6.874 37.319-.443 8.223-6.441-2.435-8.096 0-1.656 2.436-.106 13.305 0 20.073.115 6.768-3.269 3.7-6.231 13.104-1.339 4.259.706 13.905-2.71 21.243-12.671 27.252 3.648 34.578 4.977 40.461.896 3.985 16.098 12.05 19.218 9.003 1.487-1.455-5.925-13.041-7.77-14.569-4.027-3.342-4.258-23.193 5.06-24.553 7.149-1.044 12.704 0 19.177-7.211 4.723-5.25 6.21 14.2 8.213 11.754 2.003-2.445 4.92-6.27 5.163-10.044.231-3.774 6.457-19.39 6.043-24.007 1.993-2.773-3.257 107.974-14.696 133.613-11.438 25.639 112.95 24.458 112.95-5.524 0-29.983-3.405-137.366-6.958-161.434-1.587-21.633-6.532-55.146-2.675-71.264z" fill="#C882FF"/><path d="M262.585 140.728c-2.889 7.412-13.895 13.4-17.806 17.269-5.345 5.281-17.348 7.61-25.46-.506-6.23-4.902-11.393-8.22-15.609-14.189-4.215-5.97-4.137-14.147-6.019-19.827M197.043 131.061c-5.208-4.828-6.062-7.085-6.62-10.479-.559-3.395 0-7.074 0-11.312 0-4.238 4.238-3.11 5.376-1.697M270.229 130.218c6.336-2.351 10.489-6.073 11.132-9.91.643-3.838 1.529-10.911 1.529-15.708 0-4.797-8.202-6.368-11.249-.949M270.228 123.46c-2.045 8.497-1.845 42.928 0 53.091" stroke="#000" stroke-miterlimit="10"/><path d="M274.382 100.235c2.71-14.158 8.497-30.667 2.183-37.33-6.315-6.663-10.901-10.405-12.978-13.947-2.077-3.543-15.613-11.66-22.065-12.693-6.452-1.034-17.068-1.877-18.944 0-1.877 1.876-4.997-.622-12.282 3.12-7.285 3.743-14.991 8.95-15.824 14.78-.833 5.83-5.408 12.493-7.074 17.49-1.666 4.997-2.646 7.823 0 16.235 3.669 11.65 5.725 14.738 6.642 18.407 2.53-.369 3.911-6.726 4.259-11.723.348-4.997.527-10.416 1.887-13.958 1.096-2.857 1.602-5.545 9.203-10.69 7.401-4.997 16.784-3.163 19.704-3.363 2.92-.2 10.468-.58 17.131-.79 6.663-.211 13.726 3.805 16.383 9.213 2.656 5.409 1.971 9.193 3.848 15.234 1.876 6.04-.591 17.985 3.067 14.654 3.659-3.332 4.881-4.628 4.881-4.628l-.021-.011z" fill="#000"/><path d="M263.587 48.958c-2.077-3.543-15.613-11.66-22.065-12.693-6.452-1.034-17.068-1.877-18.944 0-1.877 1.876-4.997-.622-12.282 3.12-7.285 3.743-14.991 8.95-15.824 14.78-.833 5.83-5.408 12.493-7.074 17.49-1.666 4.997-2.646 7.823 0 16.235 3.669 11.65 5.725 14.738 6.642 18.407m80.363-6.051-.021-.011c2.71-14.158 8.497-30.667 2.183-37.33-4.604-4.857-8.288-8.162-10.752-10.969" stroke="#fff"/><path d="M215.93 45.947c-.648 14.252 3.887 20.083 9.069 22.026M196.493 60.847c0 4.257 7.544 12.818 12.957 11.66M223.744 51.13c-.648 14.252 6.478 20.73 11.013 20.73" stroke="#fff"/><path d="M257.221 94.213c-4.133-2.962-12.851-3.247-20.284-1.74-4.217.855-5.83-.526-5.724-3.594-.282-1.193-.44-3.646.428-3.692.449-.024 1.801 2.205 3.766 2.454 6.507 0 8.994-1.408 16.5 1.143 3.321 1.128 5.303 5.43 5.303 5.43h.011zM203.006 98.92c1.556-1.347 4.868-1.19 6.175-1.347a44.305 44.305 0 0 1 7.57-.232c4.29.232 7.395-4.008 5.429-8.05-.862-.368-.952 2.56-2.355 2.86-2.657.57-8.145.962-8.873 1.047-1.581.179-3.426.095-4.902.759-1.086.485-2.698 3.384-3.044 4.964z" fill="#000"/><path d="M277.544 104.494c-6.726 6.051-7.442 9.867-7.305 11.438" stroke="#000" stroke-miterlimit="10"/><path d="M278.567 109.1c-1.518-.326-5.461.696-6.567 1.645M192.491 110.219c3.574 4.638 3.585 7.147 3.311 8.128" stroke="#000" stroke-miterlimit="10"/><path d="M191.89 113.287c.854-.021 2.899.928 3.405 1.55" stroke="#000" stroke-miterlimit="10"/><path d="M245.866 108.532a3.342 3.342 0 1 0 0-6.685 3.342 3.342 0 0 0 0 6.685z" fill="#000"/><path d="M252.992 104.494c-4.881-3.363-10.174-2.635-12.145-1.286" stroke="#000" stroke-miterlimit="10"/><path d="M213.712 109.629a3.341 3.341 0 1 0 0-6.683 3.341 3.341 0 0 0 0 6.683z" fill="#000"/><path d="M206.575 105.591c4.881-3.363 10.173-2.635 12.145-1.286M228.09 101.954c1.992 7.749-2.372 11.597-3.458 14a4.37 4.37 0 0 0-.253 3.015M229.492 120.74c1.972.264 2.868.706 2.868.706M234.932 118.125c1.117 1.814.59 5.272-1.329 5.113M223.22 122.342c-1.181-.4-1.94-1.844-1.529-2.509" stroke="#000" stroke-miterlimit="10"/><path d="M217.752 134.683c7.296 15.674 18.046 15.428 27.09-1.728-6.512 2.602-17.626 1.93-27.09 1.728z" fill="#000"/><path d="M220.418 135.091c3.471 4.737 14.039 3.435 21.658-1.382-9.39-.296-15.515.21-21.658 1.382z" fill="#fff"/><path d="M207.798 148.856c.021 9.309-.594 21.608-3.55 31.108M255.557 230.397c-1.514 8.264-4.938 3.271-9.692 16.67 0 0-3.237 14.876-6.79 38.944-3.552 24.057-1.581 149.9-1.581 179.882 0 29.983 111.242 25.639 99.804 0-11.438-25.649-3.542-130.861-1.55-128.088 1.993 2.772 8.645 14.306 8.887 18.08.243 3.774.317 13.525 2.32 15.971 2.003 2.446 2.994-6.989 8.212-11.754s13.315-6.094 20.526-6.431c7.211-.337 13.979 5.988 15.866 10.869 1.887 4.881 2.773 6.441 4.101.559 1.328-5.883-3.215-9.32-3.331-17.416-.106-8.097-1.887-7.548-2.994-11.871-1.107-4.322-2.552-6.431-2.436-13.199.106-6.768-1.455-8.876-3.11-11.312-1.655-2.435-4.322-.548-4.986-8.76-.664-8.202-1.343-21.726-3.11-35.479s-6.536-20.638-10.194-35.84c-3.659-15.191-28.728-35.717-35.275-36.824-6.536-1.107-46.974-14.325-47.965-14.325 0 0 .468-1.614-.392-5.315-2.264-4.683-8.213-9.868-10.1-11.755" stroke="#000" stroke-miterlimit="10"/><path d="M207.027 164.163c-.189-1.159-1.758-.992-2.751.001-1.887 1.887-10.739 8.761-10.739 11.755v3.711c-2.017.59-43.122 14.031-49.141 16.824-9.794 4.555-26.662 13.895-30.32 29.087-3.658 15.202-9.467 30.288-12.081 39.691-3.7 13.315-7.697 12.33-8.403 25.486-.443 8.223-4.912 8.254-6.567 10.689-1.655 2.436-.106 14.449 0 21.217.116 6.769-3.268 3.701-6.23 13.105-1.34 4.259.706 13.905-2.71 21.242-12.672 27.252 3.648 34.579 4.976 40.461.896 3.985 16.098 12.05 19.218 9.004 1.487-1.455-5.924-13.041-7.77-14.57-4.026-3.342-4.258-23.193 5.061-24.553 7.148-1.044 12.703 0 19.176-7.211 4.723-5.25 6.21 14.201 8.213 11.755 2.003-2.446 5.666-11.112 5.908-14.886.232-3.774 5.46-12.665 5.113-23.83 1.441 3.386-3.072 112.638-14.511 138.277-11.438 25.639 112.95 24.458 112.95-5.524s-3.405-137.366-6.958-161.434M335.929 333.547c-.19-17.543 1.244-40.672 2.92-50.245M255.87 209.644c-6.873 4.288-17.69 4.851-26.213 3.686" stroke="#000" stroke-miterlimit="10"/><path d="M272.858 168.112c-1.501 22.511-18.536 23.646-17.13 37.901M196.079 188.984c.925 7.417 9.59 20.982 11.267 35.32 4.051-4.177 10.471-12.525 17.222-16.674-6.762-4.841-16.795-23.098-22.42-29.977m-6.786 9.463c-.952-2.535-1.421-4.722-1.889-7.612M226.497 208.321c8.319-3.393-2.767 26.847-1.971 44.066.795 17.22 3.783 35.815 3.783 35.815" stroke="#000" stroke-miterlimit="10" stroke-linejoin="bevel"/><path d="M255.871 217.972c-7.179 4.478-18.659 4.894-27.336 3.52M137.798 338.797c.19-17.542-1.244-40.672-2.92-50.245M214.4 132.775c6.562 4.955 9.851 1.331 15.602.924 7.867-.557 15.98 1.399 18.428-3.095m-27.634 4.523c3.402-3.468 10.338-4.523 22.026-1.266m-10.521 14.091c3.848-.246 6.773-2.861 8.563-5.957m7.955-13.901c2.374.626 3.045 2.641 2.009 5.751" stroke="#000" stroke-miterlimit="10"/><path d="M311.342 179.398c7.929 2.22 18.271 5.169 22.077 16.269-3.622-2.093-12.394-4.113-20.145-6.323-5.391-.317-29.526 12.67-35.551 17.744-1.298-14.837 4.783-21.161 4.125-27.69.496-2.99-.421-8.407-7.715-14.115 8.563 1.476 29.28 11.895 37.209 14.115z" fill="#1F2229"/><path d="M333.564 195.373c-5.292-11.175-14.294-13.755-22.223-15.975-7.6-2.128-26.952-11.79-36.084-13.887m33.602 22.159c5.02-2.793 12.908-.281 15.385 1.223" stroke="#fff"/><path d="M163.272 179.526c-7.929 2.22-19.053 7.478-22.858 18.578 3.622-2.093 12.315-5.554 20.065-7.764 5.392-.317 35.449 11.456 41.475 16.53-5.218-13.276-7.599-17.178-8.872-28.066 0-2.026-.179-3.036.282-4.212 1.196-2.221 3.1-4.058 7.533-7.819-8.563 1.476-29.697 10.533-37.625 12.753z" fill="#1F2229"/><path d="M140.573 197.546c3.172-10.557 14.77-15.8 22.699-18.02 7.289-2.041 26.102-9.802 35.744-12.189m-37.353 22.259c-6.119-1.628-9.776-.028-11.576 1.118" stroke="#fff"/><path d="M352.457 250.346c-3.848 10.103-11.931 59.204-10.985 79.411.924 20.23 1.031 31.86 7.567 61.311 6.535 29.452-18.402 31.043.774 63.354 15.482 24.463 20.483 35.437 12.982 48.633-4.723-5.556-24.462-26.319-42.112-34.982-17.649-8.664-52.368 5.009-61.203-8.814-1.844-2.886-2.774-11.205-3.11-22.786m-.49-207.637c-1.462-22.358 1.128-22.153 3.084-26.13 1.978-3.977 12.167 6.047 16.832 14.022 1.556-7.227 1.864-9.103 1.907-17.573.043-8.47 4.976-12.235 4.244-21.841" stroke="#000" stroke-miterlimit="10" stroke-linejoin="bevel"/><path d="M130.393 191.565c1.98-3.402-.526-5.223-4.262-3.265-2.529 1.329-5.477 3.524-8.564 4.11-1.417-2.948-3.568-5.191-4.713-6.402 1.338-1.364 7.576-8.126 9.138-10.866 1.102-1.94 1.608-2.997 2.406-5.279.309-3.826-2.168-5.877-8.629 1.706-2.795 2.263-9.047 7.673-11.538 9.916-1.319-1.121-3.191-2.924-4.007-3.666 3.412-4.236 10.188-11.296 11.908-13.779 4.427-6.382-1.646-9.82-5.728-3.86-2.027 2.955-4.549 3.668-9.551 7.723-1.375 1.111-2.27 1.851-3.907 3.424-.674-1.806-3.148-4.683-4.26-8.273-.366-1.19-.348-9.288-1.172-11.795-2.331-7.058-5.885-2.698-6.06-1.316-.504 3.926-1.605 10.743-1.878 11.024-2.866 2.949 4.277 10.626 4.22 21.462.215 1.632-.638 5.204 1.904 10.034 1.295 2.456 3.987 4.699 6.412 7.569 1.625 1.918 2.5 4.603 4.161 6.775.58 5.653 1.28 10.467 1.036 12.287-1.071 24.85-9.432 69.274-9.432 69.274s9.896 17.125 16.653 26.961c5.393 7.839 13.408 16.497 23.542 18.863 11.828 2.758 8.024 5.473 10.302-1.595 3.081-34.15-9.286-89.612-14.617-106.637-.789-10.573-1.269-23.901-2.156-26.568 5.616-4.285 8.344-7.05 8.798-7.844l-.006.017z" fill="#fff"/><path d="M134.6 274.49c11.388-5.156 10.839 25.167 3.453 28.997 1.555 6.21 1.006 29.51-3.452 44.727-14.918-1.198-50.136-44.699-50.136-50.648 0-9.317-2.186-33.282 6.087-29.093-.102 1.76-.657 5.427 0 6.966 14.081 10.122 39.347 10.851 45.096 5.021.972-2.025-1.048-3.644-1.048-5.97z" fill="#C882FF"/><path d="M95.782 238.496c-.623 10.931-4.216 29.767-5.942 36.296m40.967 71.536c7.904-4.32 8.945-22.522 7.904-41.974m-2.819-23.49c-4.544-25.143-8.968-44.904-12.091-55.002-1.56-12.575-.879-19.021-1.56-24.439" stroke="#000" stroke-linejoin="bevel"/><path d="M135.118 273.981c4.725-1.79 5.854 2.196 2.896 5.102-6.339 6.228-24.664 9.284-48.144-4.188-5.127-2.942-3.668-7.24-.328-5.874" stroke="#000" stroke-miterlimit="10" stroke-linejoin="bevel"/><path d="M85.214 272.879c-.983 7.871-.83 17.739-.47 24.018.286 4.98 9.008 13.679 21.751 14.972 9.866 1.001 33.709-3.653 34.001-11.662.187-5.145.264-11.46.348-21.528" stroke="#000" stroke-miterlimit="10" stroke-linejoin="bevel"/><path d="M96.048 234.871c1.75-10.048 1.632-22.064-.065-25.815M107.306 213.243c-2.766-.177-4.787-1.059-6.069-2.641M96.775 207.335c-1.56-1.34-3.08-5.269-4.642-7.313-1.572-2.044-6.546-6.214-7.252-9.505-.707-3.291-1.69-14.06-2.405-17.054-.715-2.995-4.184-8.761-2.907-12.49 1.362-3.97 1.319-7.462 1.7-10.214.381-2.752 3.478-6.401 5.988-.165 2.44 6.059 1.02 11.171 1.434 12.477.413 1.306 2.865 4.907 3.496 6.85" stroke="#000" stroke-linejoin="bevel"/><path d="M86.998 183.995c3.189-4.697 3.46-11.443 12.248-18.082 4.553-3.438 5.294-3.659 8.411-7.06 4.104-4.486 8.935-.319 3.163 7.113-3.561 4.579-11.938 9.088-13.94 20.912M94.933 194.201c3.144-5.05 3.675-7.645 8.754-12.232s11.259-9.278 13.715-12.362c4.073-5.097 9.197-3.866 6.194 2.533-3.734 7.946-10.38 13.057-11.417 14.669-1.645 2.572-5.029 7.518-7.476 13.967M107.81 201.845c2.125-2.728 4.078-5.805 8.493-8.707 2.371-1.552 6.909-3.054 9.21-4.487 5.524-3.429 7.665 1.002 2.717 5.614-2.663 2.481-11.876 7.611-11.632 13.581" stroke="#000" stroke-linejoin="bevel"/><path d="M113.549 186.748c1.776 1.861 3.83 4.57 4.013 5.667" stroke="#000" stroke-linejoin="bevel"/><path d="M352.087 333.909c17.589 12.718-18.262 47.92-39.28 42.5-18.246-4.707-51.048-26.671-66.617-28.892-10.583-1.509-7.281-1.146-13.91-2.264-6.63-1.117-9.66-1.428-25.797 6.782-4.612.623-14.114-.076-26.946-2.221-3.016-.979-3.691-2.527-2.774-4.425-4.271-.832-11.185-1.233-14.25-1.972-7.388-1.78-2.934-6.514.098-6.342 32.702 1.785 58.223-17.206 56.8-19.353-1.37-.548-5.503-.285-8.409-3.095-6.834-6.615.69-8.189 2.396-7.257 5.392 2.932 21.376-.68 29.279 3.544 2.543 1.363 5.323 4.522 6.708 6.964 21.889 19.197 53.119 4.44 102.702 16.031z" fill="#fff"/><path fill-rule="evenodd" clip-rule="evenodd" d="M155.722 256.701c15.883-6.504 42.215-6.462 58 0 10.97 4.49 12.71 12.126 11.688 14.171-1.729 3.458-5.26 51.722-9.351 60.027-13.216 13.924-56.544 11.24-62.919-.951-2.781-12.64-7.547-53.032-8.668-56.592-2.483-7.889.121-12.1 11.25-16.655z" fill="#FFAE2A"/><path fill-rule="evenodd" clip-rule="evenodd" d="M160.738 264.481c13.373-5.477 35.02-5.504 48.311-.064 9.236 3.781 12.022 9.222 8.369 14.025-2.314 1.212-6.055 3.296-12.997 4.694-14.852 2.989-27.448 2.401-38.851.271-5.131-.959-10.314-2.826-13.335-4.771-3.704-4.821-.867-10.32 8.503-14.155z" fill="#000" stroke="#000" stroke-miterlimit="10"/><path d="M152.557 326.865c-.286 3.517 2.833 7.065 9.361 9.74 12.561 5.147 33.022 5.12 45.659-.058 6.519-2.671 9.694-6.192 9.517-9.682" stroke="#000" stroke-miterlimit="10"/><path clip-rule="evenodd" d="M156.04 256.711c15.981-6.548 41.854-6.58 57.732-.072 15.885 6.503 15.802 17.099-.178 23.648-15.981 6.548-41.854 6.58-57.732.072-15.885-6.503-15.802-17.099.178-23.648z" stroke="#000" stroke-miterlimit="10"/><path clip-rule="evenodd" d="M177.923 270.154c3.824-2.215 10.02-2.221 13.825-.026 3.806 2.196 3.787 5.782-.044 7.99-3.825 2.214-10.021 2.221-13.826.026-3.805-2.196-3.786-5.782.045-7.99z" stroke="#000" stroke-miterlimit="10"/><path d="m144.114 270.11 8.35 57.127M225.366 271.016l-8.351 57.128" stroke="#000" stroke-miterlimit="10"/><path fill-rule="evenodd" clip-rule="evenodd" d="M200.793 221.132c6.387-13.261 22.985-13.178 36.856-17.811 18.326-6.114 22.354.612 15.967 13.873-6.387 13.261-23.412 24.914-37.99 25.999-14.578 1.085-21.227-8.801-14.833-22.068v.007z" fill="#E8E8ED" stroke="#000" stroke-miterlimit="10"/><path d="M188.625 250.398c7.649-23.325 34.128-23.325 57.853-39.866M211.527 225.797c-.21-4.876 6.566-10.179 13.559-12.725" stroke="#000" stroke-miterlimit="10"/><path d="M221.732 223.244c3.276 3.618 11.818 2.61 18.575-.504" stroke="#000" stroke-miterlimit="10"/><path fill-rule="evenodd" clip-rule="evenodd" d="M179.147 216.204c-5.106-10.593-16.299-13.127-27.97-13.127-22.514 0-20.424 11.883-7.853 16.95 10.9 4.397 12.34 12.935 23.98 13.803 11.639.868 16.949-7.032 11.849-17.626h-.006z" fill="#E8E8ED" stroke="#000" stroke-miterlimit="10"/><path d="M188.863 239.574c-10.684-23.682-27.257-18.628-46.207-31.844M172.696 218.405c0-5.833-2.971-3.771-5.291-8.341" stroke="#000" stroke-miterlimit="10"/><path d="M166.187 218.866c-2.62 2.891-7.203 1.378-12.105 2.284" stroke="#000" stroke-miterlimit="10"/><path fill-rule="evenodd" clip-rule="evenodd" d="M187.688 182.619c-.019-3.031-2.346-4.856-5.061-6.145-5.24-2.489-6.062.51-3.697 3.076 2.052 2.227 1.447 4.371 4.06 5.864 2.613 1.487 4.723.236 4.698-2.795z" fill="#E8E8ED" stroke="#000" stroke-miterlimit="10"/><path d="M187.739 189.039c-1.32-6.528-4.66-10.057-6.948-11.398" stroke="#000" stroke-miterlimit="10"/><path fill-rule="evenodd" clip-rule="evenodd" d="M191.04 189.963c.427-4.696 4.271-7.23 8.65-8.876 8.452-3.178 9.338 1.576 5.335 5.252-3.474 3.191-2.811 6.598-7.056 8.564-4.252 1.965-7.356-.249-6.929-4.946v.006z" fill="#E8E8ED" stroke="#000" stroke-miterlimit="10"/><path d="M190.129 199.919c2.894-9.955 8.529-14.997 12.251-16.784" stroke="#000" stroke-miterlimit="10"/><path fill-rule="evenodd" clip-rule="evenodd" d="M190.11 195.866c-.446-2.348-2.671-9.865-2.97-9.176-.166.383.235 3.529.707 6.005 5.335 28.155 1.364 50.995-5.112 78.901-1.116 4.793 6.259 6.841 7.375 2.036 6.801-29.311 5.603-48.213.006-77.772l-.006.006z" fill="#fff"/><path d="M315.169 372.923c-16.495 2.13-42.339-14.629-51.198-18.667-8.86-4.039-14.172-6.506-19.031-7.77" stroke="#000" stroke-linejoin="bevel"/><path d="M237.783 310.042c-.137 1.778-2.671 9.463-8.139 9.043-5.467-.419-19.357-3.515-19.22-5.293-4.551-6.199-.537-8.114 9.77-5.1 5.468.42 17.725-.428 17.589 1.35z" fill="#fff"/><path d="M220.595 345.646c4.586-1.091 15.507-.787 19.309 1.482M226.448 340.286c-5.676 1.663-12.151 6.875-14.806 8.655-2.655 1.773-4.742 3.91-9.772 3.715-5.029-.195-16.046-1.933-20.16-2.432-6.684-.811-7.302-4.491-1.897-6.396 4.565-1.611 10.771.055 14.933-.167 4.161-.223 6.084-1.418 9.799-3.881.907-.6 1.906-1.356 2.909-2.178" stroke="#000" stroke-linejoin="bevel"/><path d="M176.756 345.372c-4.861-.602-10.232-1.419-12.834-1.733-6.684-.811-7.302-4.491-1.897-6.396M251.676 324.403c-1.797-5.213-2.817-13.313-14.854-15.282-8.78-1.437-14.017.672-20.017-1.01-5.998-1.689-10.806-1.501-7.352 4.71 3.461 6.21 18.284 4.593 24.644 8.637m24.812 2.945c19.251 3.946 34.291 4.783 51.057 4.783 15.625 0 32.584 2.087 42.21 4.18" stroke="#000" stroke-linejoin="bevel"/></g></svg>