<svg width="926" height="600" fill="none" xmlns="http://www.w3.org/2000/svg"><path d="M71.5 14a6.5 6.5 0 1 1 0 12.999A6.5 6.5 0 0 1 71.5 14z" stroke="#000" stroke-linejoin="round"/><path d="M96.485 14c1.282 0 2.536.381 3.602 1.095a6.495 6.495 0 0 1 2.389 2.917 6.51 6.51 0 0 1-1.406 7.084 6.48 6.48 0 0 1-7.067 1.41 6.488 6.488 0 0 1-2.91-2.395 6.51 6.51 0 0 1 .806-8.207A6.477 6.477 0 0 1 96.485 14zm25.03 0c1.283 0 2.537.381 3.603 1.095a6.506 6.506 0 0 1-2.338 11.78 6.484 6.484 0 0 1-6.656-2.764 6.507 6.507 0 0 1 .806-8.207A6.477 6.477 0 0 1 121.515 14z" stroke="#C882FF" stroke-miterlimit="1.5"/><path d="M924.106 53.49V579.887c-.024 5.062-2.566 9.909-7.067 13.479-2.205 1.79-4.836 3.21-7.739 4.178a28.93 28.93 0 0 1-9.167 1.456H31.502c-8.09 0-15.848-2.562-21.568-7.123C4.214 587.316 1 581.131 1 574.681V242.554m0-24.676V25.319c0-6.45 3.214-12.635 8.934-17.196C15.654 3.563 23.412 1 31.502 1h864.696c7.638 0 14.965 2.42 20.366 6.726C921.965 12.033 925 17.874 925 23.964" stroke="#000" stroke-linejoin="round"/><path stroke="#000" d="M1 40.5h924"/></svg>