<svg width="565" height="477" fill="none" xmlns="http://www.w3.org/2000/svg"><path d="M369.712 378.381c-.146 30.202-10.387 65.552-102.573 68.404-92.185 2.852-95.165.571-131.543-4.563-36.377-5.133-98.423-1.345-117.78-38.29-19.358-36.93-19.358-70.569-13.105-109.328 6.267-38.758 22.776-56.996 30.168-84.932 7.407-27.935 21.929-39.05 52.52-22.304 30.608 16.747 231.414 111.712 248.068 133.431 16.655 21.719 34.332 34.356 34.23 57.567l.015.015z" fill="#C882FF"/><path d="M34.88 209.672c7.406-27.935 21.928-39.05 52.52-22.304 30.607 16.747 231.413 111.712 248.067 133.431 16.655 21.719 34.332 34.356 34.23 57.567l.015.015c-.099 20.432-4.818 43.221-36.405 56.71M31.217 221.117c-8.23 22.108-21.132 40.255-26.506 73.487-6.253 38.759-6.253 72.398 13.104 109.328 19.358 36.945 81.404 33.157 117.781 38.29 36.378 5.134 39.358 7.415 131.543 4.563 24.05-.744 42.523-3.7 56.694-8.199" stroke="#fff"/><path d="M111.325 301.881c18.608-5.323 45.191 3.041 53.545 8.364M91.2 244.094c16.328 7.984 25.463 25.432 26.223 29.234m-17.066 18.398c13.279 0 25.385 6.707 28.339 8.559" stroke="#fff"/><path d="M558.099 381.744c-3.506-2.062-9.028-2.793-16.786-2.72-11.425.205-26.808 1.843-40.03.556-11.965-1.156-18.495-.951-18.378 3.276-10.139-3.993-25.757-9.083-39.694-14.319 2.191-6.391-18.291-13.996-25.713-21.339-2.746-9.653-11.38-16.746-16.377-25.214-15.398-26.107-26.487-42.678-37.648-49.172-8.021-4.666-15.457-2.355-27.495-2.969 1.227-1.697 6.048-1.931 7.524-3.949 12.593-17.273 31.541-48.061 43.375-61.136 5.917-4.007 3.185-7.152-4.324-4.929-8.664 2.56-29.088 4.183-37.21 5.982-5.041 1.112-4.223-.175-7.802 5.47-10.183 16.001-28.985 40.309-32.856 47.124-15.238-1.55-31.235-3.671-46.473-6.947-.497-.673-6.983-27.394-13.251-31.255-4.397-15.343-5.142-22.948-5.142-26.473 11.79 0-19.117-72.115-38.197-74.206-9.555-2.999-18.561 1.18-23.455-9 .658 1.375-.891-8.57.366-9.316 13.265-7.87 18.729-35.629-1.33-45.91-16.582-14.378-39.226-17.99-45.873 7.312-26.37 5.748-34.157 29.266-11.074 45.676.058.761.204 1.99.292 1.258-.555 3.978-1.987 7.796-3.959 11.321-26.809 3.393-33.076 29.324-33.923 52.389-.512 10.297-3.112 31.972.95 42.195 2.527 6.392 9.072 4.183 15.982 4.681 4.47 17.697 5.888 40.206 18.568 40.542 7.904.205 22.236 10.195 32.842 9.156-5.171 35.716 25.844 46.086 67.73 50.781 36.552 4.08 77.181 3.788 89.847 1.93 16.743 26.107 47.978 43.863 72.814 55.842 8.502 7.02 33.777 42.063 46.297 50.824 1.782 1.258 2.41.804 3.462.57.789 1.946 2.747 3.876 3.156 6.216-1.286 5.836-1.169 16.747-1.417 20.403-5.128 20.476 21.943 25.493 39.927 9.8 6.238-5.441 16.319-10.619 24.515-13.851 15.807-6.216 30.022-10.121 33.967-29.369 8.254 2.809 47.29-30.275 26.837-41.244l-.044.014z" fill="#fff"/><path d="M147.169 156.852c-.743-2.776-3.421-4.467-5.981-3.781-1.768.475-2.626 1.679-3.013 3.485-1.185-1.228-2.484-2.01-4.167-1.559-2.561.687-4.035 3.493-3.292 6.268.564 2.109 2.325 3.306 4.106 4.095 1.947.874 3.923 1.663 5.868 2.531 0 0 .293.149.304.14 1.091-1.352 2.143-2.732 3.261-4.058 1.674-1.963 3.716-4.128 2.914-7.121z" fill="#FFAE2A"/><path d="M417.499 347.199c7.421 7.342 30.605 18.054 26.321 21.8-12.661-.652-22.226 21.432-16.546 24.993 1.376 3.306 10.984 2.362 14.168 5.127-19.205 5.822-18.123 30.086-10.283 30.657 1.366.099-1.68.687-3.463-.571-12.52-8.761-37.794-43.804-46.297-50.824-24.836-11.979-56.071-29.734-72.813-55.841-12.667 1.857-53.295 2.15-89.848-1.931-41.704-4.675-72.632-14.975-67.794-50.319-.846-.213-.87-.37.065-.462l-.065.462c8.752 2.207 105.507 10.447 138.898 14.662 7.857-1.896 19.894-7.077 41.602-14.907 10.788-.491 24.009-1.899 32.029 2.767 11.162 6.494 22.25 23.065 37.649 49.172 4.996 8.468 13.63 15.562 16.377 25.215z" fill="#1F2229"/><path d="m343.475 265.879 46.91-64.88-1.417-2.091-48.021 6.888-51.527 74.694 2.25 2.999 50.475-16.498 1.33-1.112z" stroke="#000" stroke-miterlimit="10"/><path d="m289.419 285.2-86.853-12.008v-4.3l62.163-14.553 39.928 4.066M287.082 280.944l-22.09-2.998" stroke="#000" stroke-miterlimit="10"/><path d="m287.083 277.112-37.342-4.651 41.652-12.285" stroke="#000" stroke-miterlimit="10"/><path d="M283.531 255.231c-4.076-12.534-13.704-14.962-25.873-12.622-3.609-8.512-10.183-21.412-12.725-22.392-2.484-7.912-4.777-29.749-7.48-34.502-5.391-.731-8.882-.19-14.303 1.667-.832 5.266 1.71 24.776 6.998 34.912 7.583 14.523 15.852 20.315 17.327 24.981-2.542 2.969-5.274 5.207-4.441 6.362 6.706 3.057 17.663 11.481 25.172 12.856 9.554.015 4.266-10.267 4.441-15.986.365-.19.672-.453.935-.716 3.302 3.261 5.552 6.084 8.006 9.55 2.001 2.808 4.923-1.126 1.943-4.095v-.015z" fill="#fff"/><path d="M534.214 422.99c16.465-4.71 26.589-22.539 28.269-26.4 1.68-3.861 1.695-8.424 1.023-9.755-.672-1.331-5.713-5.382-6.721-6.055" stroke="#000" stroke-miterlimit="10"/><path d="M534.214 411.186c7.421-4.212 20.029-18.326 21.285-27.043.658-4.564-4.397-4.812-8.312-4.812-3.916 0-48.168.731-52.726-.029-4.558-.761-8.415-2.355-10.869 2.223-2.454 4.563-8.766 21.075-8.24 24.761M480.407 381.744c-9.774-4.198-32.579-10.487-35.603-12.344" stroke="#000" stroke-miterlimit="10"/><path d="M426.893 394.79c-3.726-1.623.759-23.211 13.586-25.375 4.281-.717 6.838 0 1.081-5.353-4.236-3.935-42.352-25.859-46.078-29.822M388.966 329.106c-10.241-9.316-31.045-27.701-34.668-31.445-13.105-13.558-22.571-22.129-30.241-24.454M418.449 347.711c-4.763-8.791-32.009-48.894-36.582-56.032-4.572-7.137-15.369-19.964-24.514-21.061-9.146-1.097-21.681-.848-23.697-.848" stroke="#fff" stroke-miterlimit="10"/><path d="M457.894 409.358c-4.266-3.627-13.178-12.768-29.379-13.602M485.608 457.476c-16.246 11.248-21.11 14.553-31.045 17.478-17.414 5.119-27.626-9.609-8.663-21.251 14.259-8.746 17.94-6.289 27.904-15.898 9.978-9.61 14.858-17.99 28.269-24.572 11.629-5.704 40.833-14.538 26.136 17.932-9.335 20.622-30.65 18.033-42.601 26.311z" stroke="#000" stroke-miterlimit="10"/><path d="M529.962 408.744c-2.557-10.94-21.155-4.9-29.891-.629-13.411 6.581-18.291 14.947-28.269 24.571-9.978 9.609-14.332 6.128-27.904 15.898-3.433 2.472-9.014 7.079-10.037 13.617" stroke="#000" stroke-miterlimit="10"/><path d="M436.198 469.704c-5.902-5.134-3.506-25.361-2.936-31.051M509.319 404.473c-13.104 1.17-27.422 5.616-36.699 3.203-6.603-1.712-11.512-5.105-17.472 6.26-5.961 11.364-14.566 25.975-18.934 24.732M435.717 437.118c-3.141-6.45-6.004-9.083-7.202-9.814M440.48 399.617c-8.342.146-18.583 14.655-13.762 27.687" stroke="#000" stroke-miterlimit="10"/><path d="M429.201 429.498c-4.397-.439-6.881-3.657-11.702-9.814-4.836-6.158-34.098-39.68-36.144-41.303" stroke="#fff" stroke-miterlimit="10"/><path d="M429.202 397.57c-2.922 2.047-5.274 2.34-9.657-.878-4.383-3.217-47.875-22.114-54.581-26.078-8.444-4.987-43.317-26.224-54.741-45.413M308.543 322.539c-38.204 6.567-99.505-2.515-121.799-7.21-15.281-3.218-24.982-10.107-28.824-16.352" stroke="#fff" stroke-miterlimit="10"/><path d="M123.12 87.416c1.593 5.456 6.019 14.099 12.258 18.911 14.185 10.94 24.675 12.008 35.15-2.384 5.61-7.707 8.605-15.81 8.605-26.53M119.38 74.457c-3.974-3.16-11.556 1.17-6.735 9.99 2.557 4.68 8.488 6.2 10.475 6.2" stroke="#000" stroke-miterlimit="10"/><path d="M178.212 71.006c3.229-2.56 9.204 1.682 5.858 7.986-.73 1.375-1.811 3.759-4.938 5.572M114.997 76.417c4.252 1.726 6.136 7.415 6.224 9.185" stroke="#000" stroke-miterlimit="10"/><path d="M114.603 79.444c2.206 0 3.959.205 5.069 1.55" stroke="#000" stroke-miterlimit="10"/><path d="M195.801 79.05c-2.103-4.564-4.178-8.38-4.938-13.441-.803-5.295-1.826-10.034-5.58-14.056 1.081-17.141-15.121-30.67-30.373-33.8a3.658 3.658 0 0 0-.395-.058c0-.922-.146-1.843-.438-2.75-.628-1.96-1.855-3.7-3.652-4.768-.862-.512-1.929-.863-3.025-1.01-1.051-5.484-6.325-9.228-12.081-7.897-4.077.936-7.904 3.803-9.979 7.444-2.191 3.832-2.483 8.03-1.987 12.33.03.278.073.556.132.834-6.253 4.767-10.913 11.32-11.366 18.808-3.463 2.852-5.946 8.41-5.99 18.794-.059 13.441-13.09 9.507-9.365 30.846.687 3.934-.657 8-2.775 11.467-2.09 3.408-4.778 6.391-7.378 9.448-3.916 4.622 6.384 21.266-6.852 17.873 2.001 5.865 6.91 7.254 12.506 6.494 13.776-8.059 18.773-8.674 23.17-10.809 7.407-.804 12.418-.848 12.491-11.627.059-9.361-1.329-20.155-4.792-22.524-2.337-.307-7.728-2.735-9.744-4.71-2.279-4.49-3.375-8.907-.555-11.569 1.022-.965 3.184-.936 4.777-1.433 6.574 1.901 11.074-1.697 15.603-6.918 2.79-3.218 7.363-11.042 9.89-14.523 4.5-4.037 14.142-3.7 15.238-3.247.906.365 10.942 9.887 11.907 10.004.043.585-.161 7.313 10.226 12.008 3.346-.761 4.909 3.948 4.909 4.972 0 2.706-1.841 7.576-5.639 9.142-1.344.555-1.68 3.334-2.323 5.864-.176 1.404-4.986 12.508-12.401 19.645 0 1.253.033 2.363.466 5.053 9.133 1.794 26.295.317 28.637-.085.379-6.099 2.611-16.056 3.78-21.995.979-4.943-.014-9.287-2.104-13.792v-.014z" fill="#000"/><path d="M92.265 135.608c-5.596.76-10.505-.629-12.506-6.494 13.236 3.393 2.936-13.251 6.852-17.873 2.6-3.057 5.288-6.04 7.377-9.448 2.119-3.467 3.463-7.533 2.776-11.467-3.725-21.339 9.306-17.404 9.365-30.846.044-10.384 2.527-15.942 5.99-18.794.453-7.488 5.113-14.04 11.366-18.808a8.295 8.295 0 0 1-.132-.834c-.496-4.3-.204-8.498 1.987-12.33 2.075-3.641 5.902-6.508 9.979-7.444 5.756-1.331 11.03 2.413 12.081 7.898 1.096.146 2.163.497 3.025 1.009 1.797 1.068 3.024 2.808 3.652 4.768.292.907.438 1.828.438 2.75.132.014.263.029.395.058 3.526.724 7.102 2.003 10.505 3.754m29.291 88.915c.38-6.099 2.03-11.627 3.199-17.566.979-4.943-.014-9.287-2.104-13.792v-.014c-2.103-4.564-4.178-8.38-4.938-13.441-.803-5.295-1.826-10.034-5.58-14.056.737-11.684-6.557-21.69-16.106-27.868" stroke="#fff"/><path d="M153.55 77.412c0 2.238.672 4.812 1.753 5.806 1.636 1.507 1.856 3.642.789 5.588M154.179 87.694c-1.52 0-1.534.073-2.25.511M158.007 87.694c.584-.717.643-1.653.643-1.653" stroke="#000" stroke-miterlimit="10"/><path d="M165.429 76.433a2.47 2.47 0 0 0 2.469-2.472 2.47 2.47 0 1 0-4.938 0 2.47 2.47 0 0 0 2.469 2.472z" fill="#000"/><path d="M161.69 73.96c3.74-4.884 6.574-1.477 8.824-1.155" stroke="#000" stroke-miterlimit="10"/><path d="M140.607 79.37a2.47 2.47 0 0 0 2.469-2.471 2.47 2.47 0 1 0-4.938 0 2.47 2.47 0 0 0 2.469 2.472z" fill="#000"/><path d="M144.245 76.021c-4.777-3.86-6.735.117-8.853.966" stroke="#000" stroke-miterlimit="10"/><path d="M172.296 65.916c-3.01.936-4.398-.688-9.351 1.082-.964.337-3.637 1.375-3.637.351s-.424-2.516 4.061-3.612c.891-.22 4.514-.849 8.912 2.179h.015zM131.565 70.786c3.141.073 4.046-1.858 9.291-1.492 1.023.073 3.872.336 3.594-.644-.277-.98-.277-2.53-4.894-2.37-.92.03-4.573.41-7.991 4.52v-.014z" fill="#000"/><path d="M145.198 96.454c5.268 4.601 8.878.775 11.201.82 2.323.043 4.566 1.74 7.265-1.832" stroke="#000" stroke-miterlimit="10"/><path d="M148.76 98.75c5.771-7.956 10.402-5.952 12.126-1.374" stroke="#000" stroke-miterlimit="10"/><path d="M149.548 99.146c3.565 3.583 8.766 3.028 11.118-1.872" stroke="#000" stroke-miterlimit="10"/><path d="M127.37 11.156c2.966 7.138 15.559 6.655 15.384-3.73" stroke="#fff" stroke-miterlimit="10"/><path d="M137.071 15.691c-6.472-1.594-5.654-9.829-.993-11.935M141.177 20.795c3.915-.804 7.758-4.827 6.472-11.452" stroke="#fff" stroke-miterlimit="10"/><path d="M144.815 18.996c2.6-1.36 8.181-1.653 10.182-1.2M122.447 25.885c2.542-2.472 10.271-3.73 12.287-3.276M114.208 54.742c-2.294-2.706-3.492-10.107-1.826-15.752M114.602 66.018c-5.23-3.261-7.188-7.269-7.874-13.105M119.672 95.43c-1.374 2.984-3.989 9.405-10.665 12.433-8.853 4.036-16.173-1.595-19.81 10.75M181.63 87.445c.044 1.945-.015 6.026 2.893 9.229 3.871 4.241 9.145 2.896 8.269 10.443M141.513 27.2c3.623 2.473 6.837 7.11 8.4 10.195M182.155 57.96c1.345-2.311 1.666-6.509 1.739-8.6" stroke="#fff" stroke-miterlimit="10"/><path d="M126.32 95.035c1.811 9.727 2.6 19.818 0 25.683M168.115 126.553c-2.542-4.447-2.119-9.317-2.469-15.094M96.313 207.347c1.446 5.572 10.314 41.361 11.629 45.076 1.84 5.266 3.973 5.997 10.182 8.249M123.12 120.719c-16.392 9.974-29.804 9.067-34.785 20.622-6.867 15.942-8.576 51.965-4.763 74.109M128 202.491c2.747 13.572 5.391 25.2 6.954 35.336M125.078 170.914c2.922 17.39 5.596 24.703 9.102 33.478.394 2.662-.818 5.851-2.615 7.752" stroke="#000" stroke-miterlimit="10"/><path d="M86.522 215.449c10.914-14.772 37.576-15.05 45.041-11.949M84.478 217.526c4.646 2.267 9.862 2.94 15.077 2.604M171.871 114.634c18.875 3.466 30.628 1.684 39.394 10.693 12.097 12.447 26.977 41.638 31.301 63.694" stroke="#000" stroke-miterlimit="10"/><path d="M242.683 188.669c-7.144-4.417-14.77-3.525-19.518-1.287" stroke="#000" stroke-miterlimit="10"/><path d="M248.338 247.275c-12.535-15.021-23.127-23.153-25.085-58.255-1.081-19.291-3.228-30.304-22.878-45.705M242.45 191.273a24.793 24.793 0 0 1-2.659 2.457M125.078 122.547c18.51 26.648 44.559 17.083 42.966 6.435" stroke="#000" stroke-miterlimit="10"/><path d="M118.123 123.98c27.729 36.462 58.116 19.335 52.769 7.181M238.534 189.02l6.399 31.197M246.204 221.197c7.699 11.979 11.454 21.412 11.454 21.412" stroke="#000" stroke-miterlimit="10"/><path d="M244.934 250.244c6.209-6.216 13.265-8.629 20.657-9.054 7.816-.453 9.16 3.35 11.615 4.417 2.44 1.068 6.15 9.595 7.377 11.73 1.228 2.136-2.045 4.081-3.973.805-1.943-3.276-7.144-8.688-7.553-9.2" stroke="#000" stroke-miterlimit="10"/><path d="M272.749 249.527c.614 4.9.935 11.365 1.227 13.544.292 2.179-2.527 4.183-3.404-.512-.876-4.695-3.535-10.516-3.637-11.54" stroke="#000" stroke-miterlimit="10"/><path d="M258.769 251.618c2.965 5.617 5.814 10.311 7.918 13.792 1.052 1.741 6.355 2.896 3.886-2.866-1.855-4.344-6.793-10.619-6.793-12.11" stroke="#000" stroke-miterlimit="10"/><path d="M235.057 254.339c-4.032.951-2.805.6 3.828-5.718 5.201-4.959.263-5.046.935-4.944-1.505.059-11.965 7.547-14.244 8.6-8.342 3.847-17.181 9.492-23.01 8.41-18.364-3.437-44.895-16.878-63.171-20.696-11.922-2.501-26.516 13.997-16.275 20.696 18.778 12.283 61.096 14.114 79.548 16.995 9.482 1.477 16.786 3.642 26.37 4.607 4.31.439 16.465 1.36 21.578 1.492 6.954.19 6.501-4.987-3.229-4.388-8.298.512-13.601-4.504-11.249-5.06 2.469-.585 19.942 1.726 22.104 2.047 6.078.893 10.504-4.636.745-5.367-2.849-.205-16.961-1.77-19.167-3.335 5.098-1.258 20.234-.717 23.024-1.214 9.087-1.623 3.463-6.157-.716-5.792-2.308.205-2.746-.073-2.746-.073 4.061-3.89-1.052-4.914-3.784-5.236-5.873-.673-19.547-1.272-20.556-1.038l.015.014z" fill="#fff"/><path d="M120.723 260.671c18.291 9.156 61.038 16.44 81.944 16.996 1.431.043.087.526 4.558 1.901 4.47 1.375 14.434 2.179 19.284 2.559 4.851.381 14.069.22 17.356 1.01 3.287.789 8.795.131 10.037.146 1.242.014 2.746-3.203-.146-3.583-2.893-.381-11.03-.849-12.623-1.682-1.592-.834-5.931-3.116-6.15-3.759-.219-.644 11.906 1.184 17.94 1.184 6.034 0 8.4.41 9.803.498 1.402.087 3.93-3.818.073-4.33-3.857-.511-11.746-.95-15.325-2.033-3.58-1.082-8.415-1.828-9.379-2.149-.965-.322 21.139-.951 26.077-.995 2.835-.015 6.443-4.373-1.081-5.368-8.415-1.111-26.384-.687-27.29-.599" stroke="#000" stroke-miterlimit="10"/><path d="M229.037 254.324c4.777-.688 25.231.936 27.714 1.477 4.865 1.039 5.084 3.832 2.177 4.753" stroke="#000" stroke-miterlimit="10"/><path d="M207.211 260.672c3.126-.79 6.939-3.422 11.439-5.485 4.5-2.062 14.566-5.367 18.948-10.559 1.637-1.946 4.705-.688 3.755 1.33-2.06 4.388-6.545 8.235-7.801 8.206M202.565 260.672c-10.621 0-45.26-19.482-64.866-20.857M293.582 279.671l49.044-70.715 43.653-6.553" stroke="#000" stroke-miterlimit="10"/><path d="M204.763 259.487c-9.798-3.804-12.444 20.716-3.02 18.894" stroke="#FFAE2A" stroke-miterlimit="10"/><path d="M202.189 259.034c-9.797-3.804-12.444 20.715-3.02 18.893" stroke="#FFAE2A" stroke-miterlimit="10"/></svg>