<svg width="246" height="241" fill="none" xmlns="http://www.w3.org/2000/svg"><path fill="#C882FF" d="M.552 41.894h198.75v199H.552z"/><mask id="a" style="mask-type:alpha" maskUnits="userSpaceOnUse" x="0" y="0" width="246" height="241"><path fill="#D9D9D9" d="M.552.894h245v240h-245z"/></mask><g mask="url(#a)"><path d="M226.34 158.951c4.762-3.229 7.082-3.108 8.28-5.017 3.272-.655 6.809-1.036 7.19-2.484.446-.831-2.296-2.413-5.182-1.813 2.048-3.275 0-5.491-4.846.181-.488.036-.99.08-1.499.132-.602.06 1.897-4.544 0-4.836-2.667.357-3.119 5.217-3.753 5.313-.315.047-1.383.626-1.73.229-.915-1.047-.323-4.047-1.877-3.759-1.554.288-1.356 4.405-2.021 4.553-4.057.895-9.322 0-13.539 0 0-3.935 5.38-3.352 8.708-6.122 2.345-1.951 1.092-4.896-.664-3.042-3.633 1.299-12.084.514-14.023 3.931-7.687 2.173-8.253 6.302-9.749 8.355-7.093 5.16-21.484 33.789-25.105 36.196 1.278-8.531 1.278-20.048 1.278-30.285 2.556-12.583-2.928-31.494-18.283-33.179-7.689-2.416-23.2-6.312-26.46-8.203.529 1.108-3.876-14.119-2.865-14.72 10.675-6.34 26.331-40.552 10.189-48.837-5.91-17.279-37.229-30.78-45.257 6.459-23.291 0-19.084 19.355-.508 32.577.89-2.834 1.778 15.833.508 19.14-2.758.722-7.417 1.615-14.068 3.452-5.787 1.599-1.825.251-11.39 3.53-21.575 2.734-23.587 34.061-14.805 52.236-.411 8.296.76 23.065 4.029 31.303 2.034 5.15 7.1 20.645 12.662 21.046 0 18.063 1.666 15.296-4.871 29.733 26.81 10.879 67.811 14.3 79.428 9.51 2.247-.926 4.783-1.848 3.182-7.759-.737-8.866-.599-20.417 1.601-25.767 2.197 14.664 9.947 22.319 26.635 3.272 11.97-13.662 22.846-49.343 27.742-61.338 1.204-2.951 21.422-4.006 23.764-9.133 3.04-1.434 6.441-3.483 7.299-4.854z" fill="#fff"/><path d="M115.932 90.14c0 .79-1.653 2.707-3.904 3.008-1.954.552-6.109-1.466-6.109-2.256 2.953-1.002 5.324-2.15 6.109-2.15.786 0 2.852.646 3.904 1.398z" fill="#000"/><path d="M115.933 90.14c-2.126.888-5.034.934-9.004.425 2.953-1.002 4.316-1.822 5.101-1.822.785 0 2.852.645 3.903 1.397z" fill="#fff"/><path d="M147.699 74.411c-1.778-4.294-3.555-7.897-4.074-12.603-.551-4.923-1.325-9.34-4.646-13.194 1.616-15.806-12.854-28.896-26.822-32.34-.121-.032-.242-.05-.362-.068a8.289 8.289 0 0 0-.306-2.558c-.509-1.834-1.58-3.487-3.2-4.539-.777-.504-1.749-.867-2.756-1.042-.773-5.108-5.507-8.76-10.87-7.737-3.796.718-7.433 3.23-9.48 6.522-2.16 3.463-2.582 7.332-2.278 11.325.017.258.047.517.09.776-5.944 4.181-10.482 10.07-11.17 16.976-3.3 2.511-5.793 7.559-6.208 17.156-.538 12.423-12.428 8.316-9.757 28.176.492 3.661-.896 7.371-2.976 10.499-2.052 3.075-4.641 5.736-7.152 8.467-3.782 4.131 5.127 19.889-6.97 16.274 1.636 5.494 6.118 6.955 11.311 6.454 7.705-6.125 19.096-8.344 27.206-6.873 3.596-.304 6.046-1.518 7.356-2.093 3.22-4.432 2.415-12.893 1.61-22.23-1.61-1.943-2.817-5.166-4.426-9.195-2.147-.369-6.57-2.133-8.36-4.03-1.943-4.233-3.081-6.544-1.858-10.105.98-.856 2.644-2.089 4.132-2.491 6.001 1.995 10.285-1.169 14.655-5.832 2.692-2.873 7.195-9.941 9.654-13.068 4.3-3.569 13.19-2.91 14.185-2.451.823.37 10.91 9.77 14.219 10.682 2.596 1.938 4.469 12.76 2.596 28.36-.156 1.3-5.101 13.151-12.204 19.482 0 6.849 0 13.698 2.816 15.712 8.368 1.987 14.412 5.474 16.588 5.187 10.902-7.928 4.14-16.051 10.902-36.76 1.082-4.534.321-8.586-1.445-12.825v-.014z" fill="#000"/><path d="M81.063 79.521c1.274 5.1 3.92 14.008 12.9 19.864 16.476 10.741 22.223 8.823 31.035-3.836 5.457-6.923 6.985-13.344 7.371-23.254" stroke="#000" stroke-miterlimit="10"/><path d="M78.843 67.407c-3.555-3.063-10.71.665-6.578 8.991 2.192 4.419 7.613 6.039 9.447 6.11" stroke="#000" stroke-miterlimit="10"/><path d="M74.727 69.06c3.862 1.75 5.397 7.076 5.414 8.716" stroke="#000" stroke-miterlimit="10"/><path d="M74.252 71.845c2.037.08 3.648.332 4.624 1.616" stroke="#000" stroke-miterlimit="10"/><path d="M50.073 122.955c-5.193.501-9.675-.96-11.311-6.454 12.097 3.615 3.188-12.143 6.97-16.274 2.51-2.731 5.1-5.392 7.152-8.467 2.08-3.128 3.468-6.838 2.976-10.5-2.67-19.86 9.219-15.752 9.757-28.175.415-9.597 2.908-14.645 6.207-17.156.689-6.906 5.227-12.795 11.172-16.976a7.648 7.648 0 0 1-.091-.776c-.304-3.992.117-7.862 2.278-11.325C87.23 3.56 90.867 1.048 94.663.33c5.363-1.022 10.097 2.63 10.87 7.737 1.007.175 1.979.538 2.756 1.042 1.62 1.052 2.691 2.705 3.2 4.54.237.848.339 1.705.306 2.557.12.018.241.036.362.068 3.229.796 6.485 2.108 9.563 3.85m23.837 83.248c.57-5.624 2.294-10.675 3.587-16.122 1.082-4.534.321-8.586-1.445-12.825v-.014c-1.778-4.294-3.555-7.897-4.074-12.603-.551-4.923-1.325-9.34-4.646-13.194 1.102-10.773-5.271-20.286-13.864-26.341" stroke="#fff"/><path d="M111.817 71.373c-.081 2.069.447 4.472 1.409 5.43 1.456 1.452 1.582 3.434.527 5.194M112.026 80.9c-1.402-.055-1.419.012-2.095.391M115.561 81.038c.566-.642.653-1.505.653-1.505" stroke="#000" stroke-miterlimit="10"/><path d="M122.051 70.896a2.283 2.283 0 0 0 2.368-2.196 2.283 2.283 0 0 0-2.19-2.374 2.283 2.283 0 0 0-2.368 2.196 2.283 2.283 0 0 0 2.19 2.374z" fill="#000"/><path d="M118.688 68.475c3.629-4.38 6.123-1.128 8.188-.75" stroke="#000" stroke-miterlimit="10"/><path d="M99.03 72.715c1.259.05 2.319-.933 2.368-2.195a2.283 2.283 0 0 0-2.19-2.374 2.284 2.284 0 0 0-2.368 2.195 2.284 2.284 0 0 0 2.19 2.374z" fill="#000"/><path d="M102.51 69.752c-4.272-3.742-6.222-.135-8.209.572" stroke="#000" stroke-miterlimit="10"/><path d="M89.748 63.68c4.59-2.32 5.4-3.78 10.986-3.14 1.089.127 3.819 1.068 4.25 0 .476-1.18-.348-3.636-5.288-3.683-.985-.013-6.872.019-9.948 6.824zM131.399 61.222c-4.912-1.52-5.954-2.823-11.355-1.257-1.053.307-3.091 1.442-4.191.712-.666-1.084-.264-3.644 4.599-4.517.969-.177 6.778-1.131 10.947 5.062z" fill="#000"/><path d="M102.01 88.674c4.697 4.442 8.201-.125 10.344 0 2.143.124 5.042 3.204 7.663 0" stroke="#000" stroke-miterlimit="10"/><path d="M104.691 90.091c6.897-6.05 10.985-4.294 12.411 0M104.692 90.562c3.065 8.44 10.728 7.673 12.26 0" stroke="#000" stroke-miterlimit="10"/><path d="M105.677 90.631c3.74 3.582 8.23 3.626 10.578-.818" stroke="#000" stroke-miterlimit="10"/><path d="M86.97 9.182c2.481 6.705 14.125 6.713 14.338-2.892" stroke="#fff" stroke-miterlimit="10"/><path d="M95.764 13.724c-5.918-1.708-4.866-9.29-.487-11.068M99.37 18.59c3.645-.602 7.337-4.182 6.389-10.353" stroke="#fff" stroke-miterlimit="10"/><path d="M102.793 17.058c2.45-1.164 7.613-1.233 9.444-.741M81.895 22.62c2.436-2.194 9.617-3.078 11.462-2.586M73.248 48.996c-2.02-2.584-2.859-9.468-1.118-14.627M73.206 59.434c-4.711-3.204-6.374-6.979-6.798-12.398M76.825 86.805c-1.375 2.709-4.02 8.55-10.294 11.107-8.319 3.412-14.873-2.057-18.677 9.222M134.315 81.66c-.03 1.8-.231 5.57 2.338 8.635 3.421 4.06 8.339 3.007 7.257 9.952M99.448 24.523c3.256 2.416 6.056 6.818 7.388 9.727M135.862 54.423c1.324-2.087 1.772-5.956 1.915-7.887" stroke="#fff" stroke-miterlimit="10"/><path d="M74.532 115.208c0 3.823-3.759 2.549-5.88 2.549s-2.91 2.124-2.91-1.699c1.03-3.642 4.79-8.073 6.91-8.073.643 0 1.53.142 1.322.832 3.176-1.422 5.968.974.558 6.391z" fill="#fff"/><path d="M86.24 91.909c1.03 9.864 1.412 16.723-1.2 22.051M120.428 117.323c-2.187-4.202-1.62-8.689-1.736-14.042" stroke="#000" stroke-miterlimit="10"/><path d="M62.472 225.28c0 6.987 5.623 25.79-11.076 44.332-8.602 9.551-26.524 3.894-32.455.619-9.785-5.404-24.35-14.451-38.365-23.248-11.024-6.918-5.462-16.302-3.032-19.854 9.34-13.655 26.902-49.615 40.165-77.646 4.28-12.358 16.103-15.176 19.552-15.176 1.118 0 1.782-.147 1.916 0 2.43-4.846 16.729-21.492 37.247-18.459.826 1.517 1.531 2.589 1.63 3.188-14.942-1.585-29.043 10.498-36.431 22.537 3.514 16.54 5.397 43.088 11.475 64.265 1.813 3.989 6.897 16.626 9.374 19.442z" fill="#000"/><path d="M42.01 140.508c8.45 70.908 10.677 65.202 17.68 79.44 13.28 26.994 22.322 14.903 32.19 2.014 9.256-12.086 14.151-42.341 15.401-60.888.786-11.657 3.914-22.51-2.524-26.136-6.438-3.626-10.176-10.785-21.728-12.892-5.634-1.028-5.634 1.209-10.865-2.417-1.046-.726-2.012-3.626-1.207-4.431.805-.806 2.415-2.82 2.817-4.029.402-1.209 0-5.64-3.622-1.612-2.102 2.339-3.621 4.433-4.426 6.447-.472 1.183 1.472 6.53 2.012 7.251 1.207 1.612 9.255 5.64 10.462 6.043m-2.999-10.318c-.402-2.417-1.83-2.574-1.025-3.38 1.207-1.208 2.012-2.014 3.22-4.028.827-1.382 0-4.835-3.22-2.821m-8.45 12.893c.805 4.835 1.207 6.042 2.817 7.654s8.047 6.85 9.657 8.461c1.61 1.612 14.486 5.238 15.29 7.655m0 3.223c-1.61 10.878-13.278 34.648-16.497 39.08-3.22 4.432-10.864 14.101-10.462 18.936m10.462-22.965c0-8.863-2.414-19.338-3.22-23.367m1.077-29.315-5.964-6.745m6.497 51.575c-6.497-5.973-23.781 4.646-26.445 7.852" stroke="#000"/><path d="M121.651 118.824c27.764 8.46 23.74 8.057 30.581 9.266 6.84 1.209 16.095 11.684 16.095 25.382 0 10.958-1.073 26.859-1.61 33.439m-26.154 43.109c2.816 14.503 8.72 22.693 24.142 7.251 15.291-15.309 26.232-58.547 29.451-62.576m-43.132 39.612c13.681-20.547 35.916-55.263 39.135-58.083M84.018 114.855c17.849 17.645 36.457 11.728 39.906 4.663m-43.551-3.887c2.335 2.453 4.671 4.539 6.986 6.295m39.702-1.442c-3.719 6.788-14.64 12.181-27.801 7.86m54.898 48.908c2.639-2.053 11.154-.437 12.559.432" stroke="#000"/><path d="M147.812 158.306c6.84 20.95 6.035 23.367 2.012 35.051-4.024 11.684-14.486 49.152-10.06 65.67s-82.488 2.417-80.074-3.626c2.415-6.043 5.634-15.712 2.817-24.576M191.521 154.612c1.844-1.146 1.33-4.602 7.492-7.248 3.861-1.658 4.378-3.227 8.643-3.686 4.265-.459 6.1-.712 7.586-1.691 2.401-1.581 3.126 1.187.748 3.284-2.379 2.098-6.574 2.908-7.378 3.285-.803.377-1.128 1.612-1.494 2.625m-9.95 19.986c4.723-.175 12.756-2.746 17.629-4.212 1.607-.483 2.671-1.037 3.758-2.583 1.445-1.497 2.235-2.528 2.867-3.149.923-.906 1.741-1.249 2.178-3.111.368-1.573.889-2.967 1.105-3.75.264-.963.08-1.623-.008-3.29-.033-.639-.352-2.106-.43-2.928-.202-2.122-2.551-1.136-2.753.535-.287 2.377-.124 3.253-.119 4.253-1.196 1.108-2.087 3.247-2.329 4.075-1.763.827-4.23 1.984-5.044 2.608-3.507.919-11.346-2.106-15.586-.398M217.509 155.864l2.203-.555" stroke="#000"/><path d="M203.104 151.841c6.127-.071 16.214.243 17.584-.119M219.132 163.829l4.43-2.079c1.761-.826 2.355-2.24 2.837-3.261 1.048-2.218 2.206-3.223 2.68-4.006.474-.783.878-1.503.961-2.523.083-1.02.813-3.964 1.186-5.261.546-1.897-1.876-2.271-3.125-.175-1.337 2.243-1.557 3.586-1.978 5.19-.215.823-.41 1.096-1.274 1.642" stroke="#000"/><path d="M226.864 158.637c3.673-1.724 4.14-2.223 5.058-2.654.918-.431 1.769-.409 2.501-2.434.732-2.026 2.153-4.375 2.971-5.319.818-.945-.602-3.082-2.629-1.43s-3.502 3.886-3.57 4.338c-.069.453-.406.33-.987.883" stroke="#000"/><path d="M234.409 154.116c4.172-1.257 5.198-1.457 6.278-1.544 1.754-.139 1.535-2.402-1.23-2.927-1.421-.269-2.267-.058-2.949-.018m-4.541.168c-.567-.015-1.184-.087-1.632.009m-4.04.77c-.566-.014-1.013.094-1.474.212" stroke="#000"/><path d="M77.308 119.297c-5.602-2.04-24.224 3.839-35.683 22.195" stroke="#fff"/><path d="M39.08 134.353c11.458-18.356 31.944-20.313 37.545-18.273l1.316 3.322M36.905 133.984c-12.944 2.901-15.667 7.24-24.148 25.583-8.482 18.344-27.82 56.05-33.588 64.882-5.767 8.832-6.785 16.305 0 21.74 6.786 5.436 41.052 25.138 47.838 27.516 6.785 2.378 16.285 1.359 23.41-3.057M30.674 139.856c-.17.333-.333.67-.49 1.011m-3.479 26.594c-.202-2.026-1.384-16.025 3.48-26.594m0 0c-1.994-1.553-.23-3.346 1.402-2.564 1.46.699 1.194 3.033-.459 3.033" stroke="#fff"/><path d="m31.815 161.799-1.177 6.892 4.465 5.38-6.892-1.178-5.38 4.466 1.177-6.892-4.465-5.38 6.892 1.177 5.38-4.465z" fill="#FFAE2A"/><path d="M34.471 270.988c8.993 3.675 4.572-130.625-2.055-129.903" stroke="#fff"/></g></svg>