<svg width="74" height="75" fill="none" xmlns="http://www.w3.org/2000/svg"><path fill-rule="evenodd" clip-rule="evenodd" d="M33.376 71.376c-8.318-2.925-19.664-8.795-25.078-16.594-5.414-7.799-2.448-25.72 6.223-33.26 6.565-5.704 12.435-7.23 16.78-4.968 1.058.55 2.075 1.006 3.112 1.493l.083-.176c3.132-6.368 7.716-12.114 15.525-16.117 2.842-1.462 5.59-1.805 7.83-.996 1.224.446 3.734 1.774 6.327 3.32 1.805 1.078-4.428 3.235-2.935 4.293 3.35 2.375 2.064 7.509-.799 15.588-5.953 16.822-24.04 42.73-27.079 47.417h.01z" fill="#000"/><path fill-rule="evenodd" clip-rule="evenodd" d="M38.697 74c-8.318-2.924-19.664-8.794-25.078-16.594-5.414-7.799-2.447-25.72 6.223-33.26 8.1-7.042 15.277-7.955 19.467-2.603C42.45 14.76 47.097 8.599 55.332 4.368c9.283-4.75 17.476 2.344 10.444 22.215-5.953 16.822-24.04 42.73-27.08 47.417z" fill="#fff"/><path fill-rule="evenodd" clip-rule="evenodd" d="m38.697 74 1.856-19.488s-.892-8.214 5.342-8.193c2.883 0 6.056-4.138 7.062-6.275 2.282-4.853-.218-10.029-4.117-7.591-1.535.954-3.288 2.872-4.999 5.206-2.831 3.858-3.163-1.867-3.163-1.867l-1.37-14.26c3.143-6.783 7.79-12.944 16.024-17.175 9.283-4.74 17.476 2.354 10.444 22.226-5.953 16.822-24.04 42.73-27.08 47.417z" fill="#C882FF"/><path d="M39.246 20.91v-.021c.882 4.937 1.1 9.044 1.286 12.331.042.913.094 1.764.145 2.583.135 2.033.674 3.163 1.463 3.122.166 0 .352-.073.539-.177.55-.31 1.203-1.026 1.96-2.136 1.265-1.846 2.78-3.33 4.21-4.149.644-.363 1.266-.601 1.837-.684 1.161-.166 2.655.218 3.184 2.987.394 2.115-.343 4.77-1.981 7.145-1.058 1.515-2.386 2.739-3.744 3.527-1.172.674-2.375 1.037-3.485.995a2.737 2.737 0 0 0-1.473.374 3.405 3.405 0 0 0-.933.809c-.913 1.11-1.473 2.945-1.608 5.31a208.354 208.354 0 0 0-.176 3.599c-.166 3.858-1.017 12.632-1.763 17.475m-1.945-.869c-6.593-2.545-16.487-7.63-22.15-12.902" stroke="#000"/></svg>