<svg width="150" height="180" viewBox="0 0 150 180" fill="none" xmlns="http://www.w3.org/2000/svg">
<path fill-rule="evenodd" clip-rule="evenodd" d="M75.3128 45.1929C75.5801 30.2278 48.5036 26.2237 47.6776 53.9698C47.569 57.6187 47.5062 61.6862 47.4031 64.6113C47.0397 65.1914 46.6471 65.7628 46.3358 66.3727C39.6063 79.5459 68.5754 80.6345 78.8234 66.1857C79.5556 65.1533 80.2201 64.0183 80.9008 62.7137C73.8099 59.562 75.2116 50.8613 75.3128 45.193V45.1929Z" fill="white" stroke="black" stroke-width="1.23334" stroke-miterlimit="22.9256" stroke-linecap="round" stroke-linejoin="round"/>
<path d="M73.6808 45.0941C73.4185 44.9391 73.3315 44.6007 73.4864 44.3385C73.6414 44.0762 73.9798 43.9892 74.242 44.1441C74.8392 44.4977 75.2653 45.005 75.5202 45.6661C75.7607 46.2899 75.8424 47.0402 75.7652 47.9166C75.739 48.2207 75.4712 48.4459 75.1671 48.4197C74.8631 48.3935 74.6379 48.1257 74.6641 47.8217C74.7268 47.109 74.6697 46.5228 74.4925 46.0634C74.3298 45.6412 74.0591 45.3181 73.6808 45.0941Z" fill="black"/>
<path fill-rule="evenodd" clip-rule="evenodd" d="M7.62393 211.787C9.92421 212.629 12.5102 213.309 15.57 213.747C18.4431 206.485 21.2478 199.203 23.9531 191.876C51.4176 200.997 77.1343 200.142 103.925 189.595L102.936 174.307C115.917 170.555 125.733 165.375 132.383 158.766C132.383 143.115 128.133 120.8 125.695 104.692C123.007 86.9175 115.531 81.1342 103.053 74.5361C97.9425 71.8338 92.7792 69.2182 87.6619 66.5132C81.0655 78.1091 63.5121 86.7447 50.284 82.7697C44.4773 81.025 39.3994 76.1175 42.0593 69.6312C30.8439 75.8487 15.7487 82.7458 10.3445 94.9768C4.44937 108.319 10.3892 136.357 11.8022 150.983C9.02409 157.481 8.05066 164.7 7.13775 171.685C5.89427 181.197 4.63064 192.56 1.02979 208.647C3.05553 209.813 5.17821 210.891 7.62393 211.787V211.787Z" fill="white"/>
<path fill-rule="evenodd" clip-rule="evenodd" d="M47.2139 64.7979C46.9572 64.5881 46.4715 64.1386 46.2026 63.9768C45.0603 65.1151 44.1838 66.0659 43.4225 67.1622C38.4052 74.3863 43.1541 80.6269 50.2844 82.7689C63.4835 86.7353 81.1288 78.1281 87.72 66.4105L81.379 61.4424C80.9036 62.3745 80.5399 63.1896 80.1322 63.9916C73.3815 77.2727 51.121 79.7364 46.2648 72.9984C44.3797 70.383 45.688 67.2338 47.2139 64.7979Z" fill="white" stroke="black" stroke-width="1.23334" stroke-miterlimit="22.9256" stroke-linecap="round" stroke-linejoin="round"/>
<path fill-rule="evenodd" clip-rule="evenodd" d="M81.3788 61.4424H78.8062C79.3753 61.9041 80.0296 62.3129 80.7815 62.6583C80.9672 62.2709 81.1613 61.8688 81.3788 61.4424Z" fill="black" stroke="black" stroke-width="1.23334" stroke-miterlimit="22.9256" stroke-linecap="round" stroke-linejoin="round"/>
<path d="M77.8332 67.4678L52.2858 98.0921C47.7671 80.2734 45.5014 71.3458 45.4893 71.3092" stroke="black" stroke-width="1.23334" stroke-miterlimit="22.9256" stroke-linecap="round" stroke-linejoin="round"/>
<path fill-rule="evenodd" clip-rule="evenodd" d="M44.9319 99.1602C44.417 99.2349 44.0602 99.7129 44.1349 100.228L45.3586 108.661H62.281C62.281 108.661 61.7588 105.047 60.7077 97.8236C60.6328 97.3088 60.1545 96.9497 59.6396 97.0245L44.9319 99.1602Z" fill="#A7FC00" stroke="black" stroke-width="1.23334" stroke-miterlimit="22.9256" stroke-linecap="round" stroke-linejoin="round"/>
<path d="M102.701 174.387L103.926 189.596C73.4228 201.603 45.6072 200.548 16.6436 189.233C18.7508 183.088 20.3602 176.565 21.5735 169.947C25.3658 149.257 25.8574 129.858 20.8345 109.272" stroke="black" stroke-width="1.23334" stroke-miterlimit="22.9256" stroke-linecap="round" stroke-linejoin="round"/>
<path fill-rule="evenodd" clip-rule="evenodd" d="M80.3297 183.737C88.9002 183.686 96.563 183.102 103.313 181.983L102.7 174.381C94.3357 176.777 85.7212 178.316 77.0942 179.404C77.0942 181.849 77.2733 183.473 80.3297 183.737V183.737Z" fill="black" stroke="black" stroke-width="1.23334" stroke-miterlimit="22.9256" stroke-linecap="round" stroke-linejoin="round"/>
<path d="M42.0383 69.584C30.6319 76.3161 15.9225 82.3522 10.3445 94.9764C4.59753 107.983 10.3502 135.953 11.8022 150.983C11.8022 150.983 9.58444 156.169 8.45164 162.733C6.4752 174.185 5.82369 187.229 1.02979 208.647C4.96086 210.908 9.25693 212.843 15.57 213.747C19.1507 204.696 20.7744 200.485 23.9531 191.876" stroke="black" stroke-width="1.23334" stroke-miterlimit="22.9256" stroke-linecap="round" stroke-linejoin="round"/>
<path fill-rule="evenodd" clip-rule="evenodd" d="M32.9482 74.6781C40.0922 87.0847 58.9992 86.1862 71.4085 80.5041C64.2638 83.7254 56.2386 84.8347 49.4922 82.5137C44.1225 80.666 39.4484 75.5987 42.0311 69.6235C38.9859 71.2971 36.0186 73.0488 32.9482 74.6781Z" fill="black" stroke="black" stroke-width="1.23334" stroke-miterlimit="22.9256" stroke-linecap="round" stroke-linejoin="round"/>
<path fill-rule="evenodd" clip-rule="evenodd" d="M20.8347 110.684C21.2742 110.468 21.7653 110.306 22.308 110.198L18.2555 104.92C18.084 108.333 18.0383 111.763 18.0922 115.179C18.3277 112.968 19.2426 111.469 20.8346 110.684L20.8347 110.684Z" fill="black" stroke="black" stroke-width="1.23334" stroke-miterlimit="22.9256" stroke-linecap="round" stroke-linejoin="round"/>
<path d="M87.7204 66.4429C106.924 77.5983 121.843 79.2099 125.685 104.625C128.122 120.738 132.383 143.093 132.383 158.765C121.307 169.775 101.443 176.82 72.8013 179.899C69.4546 176.502 66.08 168.931 66.5198 161.269C85.3741 158.651 100.698 145.454 116.154 138.379" stroke="black" stroke-width="1.23334" stroke-miterlimit="22.9256" stroke-linecap="round" stroke-linejoin="round"/>
<path d="M76.4715 158.894C75.8362 162.16 78.1534 173.067 82.7973 178.618" stroke="black" stroke-width="1.23334" stroke-miterlimit="22.9256" stroke-linecap="round" stroke-linejoin="round"/>
<path fill-rule="evenodd" clip-rule="evenodd" d="M106.203 141.705V143.605C106.82 143.251 107.435 142.901 108.05 142.557C108.622 142.548 109.293 142.385 110.064 142.069C110.345 141.953 110.479 141.631 110.364 141.35C110.248 141.068 109.926 140.934 109.645 141.05C108.951 141.335 108.38 141.47 107.933 141.454C107.682 141.445 107.476 141.386 107.317 141.276C107.161 141.169 107.037 141.005 106.946 140.782C106.794 140.414 106.731 139.905 106.754 139.255C106.765 138.951 106.527 138.696 106.223 138.685C105.919 138.675 105.663 138.913 105.653 139.217C105.624 140.025 105.715 140.686 105.927 141.201C106.004 141.388 106.096 141.556 106.203 141.705Z" fill="black"/>
<path fill-rule="evenodd" clip-rule="evenodd" d="M66.5153 163.94C60.6852 163.92 61.4121 158.697 55.1869 158.048C50.249 157.532 43.4034 154.674 43.4034 154.674C42.0391 156.443 42.0242 158.677 44.0393 159.798C46.4603 161.145 50.7766 161.839 52.9484 164.997C50.5325 164.997 44.667 164.997 36.4727 164.997C39.3834 170.119 41.4387 168.974 46.2649 171.373C49.0946 172.784 52.7734 175.861 55.5539 176.571C58.5706 177.341 62.6014 176.041 65.7221 175.475L69.3631 174.815C67.8577 171.738 66.7238 167.917 66.5153 163.94V163.94Z" fill="white" stroke="black" stroke-width="1.23334" stroke-miterlimit="22.9256" stroke-linecap="round" stroke-linejoin="round"/>
<path fill-rule="evenodd" clip-rule="evenodd" d="M65.8224 163.911C65.465 167.98 65.8833 172.054 67.2291 175.202L69.3639 174.815C67.8585 171.738 66.7246 167.917 66.5161 163.94C66.2739 163.939 66.043 163.929 65.8224 163.911Z" fill="black" stroke="black" stroke-width="1.23334" stroke-miterlimit="22.9256" stroke-linecap="round" stroke-linejoin="round"/>
<path fill-rule="evenodd" clip-rule="evenodd" d="M52.8724 65.0814C56.9737 64.4812 61.4084 62.55 64.7017 60.624C68.6118 58.3371 71.2645 56.407 72.1694 51.8069C73.1098 47.0285 72.5811 41.5976 74.527 37.1176C73.1355 36.7353 71.9186 36.1211 70.876 35.2749C71.3307 31.3936 70.5818 27.0616 70.257 26.2657C69.1473 23.5464 62.8457 16.8674 59.6149 16.5086C53.3133 15.8093 46.4996 24.9272 36.686 22.7803C36.8065 25.7879 37.1011 29.4826 37.1872 32.8144C37.2819 36.4893 37.1234 39.9333 37.4643 43.6562C38.1896 51.575 40.5719 61.6938 47.5605 64.6792C49.3057 65.4248 50.7755 65.3883 52.8724 65.0813V65.0814Z" fill="white" stroke="black" stroke-width="1.23334" stroke-miterlimit="22.9256" stroke-linecap="round" stroke-linejoin="round"/>
<path fill-rule="evenodd" clip-rule="evenodd" d="M59.6151 16.5094C62.8459 16.8681 69.1475 23.5471 70.2571 26.2664C70.5819 27.0624 71.3308 31.3945 70.8762 35.2757C71.9188 36.1218 73.1357 36.7361 74.5272 37.1184C75.645 34.545 77.449 33.1631 80.263 33.2675C83.9534 18.0774 81.8981 12.4823 70.0982 5.82809C67.7908 4.52786 51.6985 -3.36696 55.1811 4.31673C47.5699 4.23783 29.7822 5.48998 30.7129 16.6583C31.2035 22.5438 37.7222 23.6591 42.4793 22.8414C47.5458 21.8789 51.765 18.575 55.6342 17.1425C56.9754 16.6355 58.288 16.3621 59.615 16.5094H59.6151Z" fill="black" stroke="black" stroke-width="1.23334" stroke-miterlimit="22.9256" stroke-linecap="round" stroke-linejoin="round"/>
<path fill-rule="evenodd" clip-rule="evenodd" d="M60.4111 49.7434C57.4014 43.211 53.72 46.5718 49.7696 47.0787C45.8965 47.5759 42.4094 45.6811 41.4974 51.3527C39.1179 47.9212 38.0301 44.1259 37.248 39.3908C37.3493 44.9177 38.1441 51.0701 40.227 56.1759C41.5378 59.3824 43.538 62.5221 46.6483 64.2324C47.6687 64.7933 48.6992 65.1653 49.8694 65.2606C52.4322 65.3562 55.4758 64.6703 58.3938 63.6152C60.8038 62.7247 63.0736 61.5991 65.2769 60.284C66.8037 59.3426 69.0211 57.7882 70.1468 56.3924C71.0384 55.3761 71.6964 53.7795 72.0194 52.4804C72.4268 50.6201 72.609 48.3277 72.8252 45.9821C73.1038 42.9609 73.2994 39.9428 74.5266 37.1176C73.1351 36.7353 71.9182 36.1211 70.8756 35.2749C70.8148 35.7939 70.7325 36.3048 70.6248 36.7982C70.0516 39.4239 68.3401 41.7839 66.3461 43.5387C64.4854 45.1771 62.3838 46.5176 60.4111 49.7434Z" fill="black" stroke="black" stroke-width="1.23334" stroke-miterlimit="22.9256" stroke-linecap="round" stroke-linejoin="round"/>
<path d="M49.1333 51.1127C51.4946 51.1909 53.5719 50.4895 55.365 49.0137" stroke="white" stroke-width="1.23334" stroke-miterlimit="22.9256" stroke-linecap="round" stroke-linejoin="round"/>
<path fill-rule="evenodd" clip-rule="evenodd" d="M58.0467 29.037C48.3756 26.8623 46.3156 33.1264 56.6614 32.9077C62.9291 32.7782 64.2109 30.4212 58.0467 29.037Z" fill="black" stroke="black" stroke-width="1.23334" stroke-miterlimit="22.9256" stroke-linecap="round" stroke-linejoin="round"/>
<path fill-rule="evenodd" clip-rule="evenodd" d="M59.3368 36.7098C59.3163 38.5852 57.6725 40.0903 55.6668 40.0898C53.6349 40.0893 52.0155 38.5971 52.0453 36.7043C55.0747 36.6796 56.7175 36.7208 59.3368 36.7098Z" fill="white" stroke="black" stroke-width="1.23334" stroke-miterlimit="22.9256" stroke-linecap="round" stroke-linejoin="round"/>
<path fill-rule="evenodd" clip-rule="evenodd" d="M55.5998 36.7007C54.556 36.6956 53.4497 36.6929 52.0453 36.7043C52.0222 38.1712 52.9898 39.3976 54.3721 39.8753C55.8037 39.5206 57.0759 38.213 56.3283 36.7045C56.328 36.7045 56.3276 36.7045 56.3272 36.7045C56.0862 36.7032 55.8446 36.7019 55.5998 36.7007Z" fill="black" stroke="black" stroke-width="1.23334" stroke-miterlimit="22.9256" stroke-linecap="round" stroke-linejoin="round"/>
<path d="M59.3369 36.711C53.4444 36.7071 50.498 36.7051 50.498 36.7051" stroke="black" stroke-width="1.23334" stroke-miterlimit="22.9256" stroke-linecap="round" stroke-linejoin="round"/>
<path d="M44.4249 31.8721C45.9464 35.2988 46.7283 39.5854 46.1545 43.4386C42.7297 42.4756 42.518 43.6728 45.5312 47.0362" stroke="black" stroke-width="1.23334" stroke-miterlimit="22.9256" stroke-linecap="round" stroke-linejoin="round"/>
<path fill-rule="evenodd" clip-rule="evenodd" d="M37.639 28.922C33.2305 29.2895 31.8258 33.622 38.7746 32.6457C40.7411 32.3683 42.3926 31.9821 44.4559 32.0115C43.1049 29.3764 40.3827 28.693 37.6389 28.9219L37.639 28.922Z" fill="black" stroke="black" stroke-width="1.23334" stroke-miterlimit="22.9256" stroke-linecap="round" stroke-linejoin="round"/>
<path fill-rule="evenodd" clip-rule="evenodd" d="M41.8512 36.7102C39.8897 36.7088 38.3482 36.7078 37.2266 36.707C37.2285 37.3916 37.2309 38.0744 37.2393 38.7591C37.8972 39.572 38.9511 40.0901 40.1483 40.0903C42.1537 40.0909 43.7972 38.5864 43.8184 36.7114C43.7343 36.7113 43.6506 36.7113 43.5678 36.7112C42.9554 36.7131 42.3945 36.7122 41.8529 36.7101C41.8523 36.7101 41.8518 36.7101 41.8512 36.7101V36.7102Z" fill="white" stroke="black" stroke-width="1.23334" stroke-miterlimit="22.9256" stroke-linecap="round" stroke-linejoin="round"/>
<path fill-rule="evenodd" clip-rule="evenodd" d="M40.812 36.7095C39.3371 36.7084 38.142 36.7077 37.2266 36.707C37.2285 37.3916 37.2309 38.0744 37.2393 38.7591C37.646 39.2616 38.204 39.6514 38.8535 39.8759C40.2838 39.5215 41.5548 38.2161 40.8119 36.7095H40.812Z" fill="black" stroke="black" stroke-width="1.23334" stroke-miterlimit="22.9256" stroke-linecap="round" stroke-linejoin="round"/>
<path fill-rule="evenodd" clip-rule="evenodd" d="M73.2427 44.1055C77.4916 47.6126 81.9202 42.7758 82.7366 38.484C83.2545 35.7619 82.3967 33.1442 78.9257 33.3481C74.3107 34.1321 73.5916 40.2576 73.2427 44.1055Z" fill="white" stroke="black" stroke-width="1.23334" stroke-miterlimit="22.9256" stroke-linecap="round" stroke-linejoin="round"/>
<path d="M79.3116 37.8701L76.8081 40.7456" stroke="black" stroke-width="1.23334" stroke-miterlimit="22.9256" stroke-linecap="round" stroke-linejoin="round"/>
<path fill-rule="evenodd" clip-rule="evenodd" d="M20.8353 109.273C19.2431 110.057 18.3282 111.557 18.0928 113.769V159.891C18.4633 162.816 19.9077 164.486 22.435 164.91C22.6797 164.951 22.9347 164.98 23.1996 164.998C33.1163 164.998 43.0329 164.998 52.9495 164.998C50.7776 161.84 46.4613 161.147 44.0404 159.799C42.0252 158.678 42.0401 156.444 43.4045 154.675C43.4045 154.675 50.2501 157.534 55.188 158.049C61.1545 158.671 60.7346 163.495 65.8227 163.912C66.0432 163.93 66.2742 163.94 66.5164 163.941C66.47 163.056 66.4694 162.164 66.5207 161.27C69.9473 160.794 73.2573 159.969 76.4728 158.894C87.1597 155.324 96.8015 149 106.205 143.605C106.205 125.601 106.205 113.769 106.205 113.769C105.765 110.528 104.061 108.829 101.098 108.662H23.1997C22.2922 108.74 21.5041 108.943 20.8353 109.273Z" fill="black" stroke="black" stroke-width="1.23334" stroke-miterlimit="22.9256" stroke-linecap="round" stroke-linejoin="round"/>
<path fill-rule="evenodd" clip-rule="evenodd" d="M62.1537 142.866C65.4876 142.866 68.1908 140.164 68.1908 136.829C68.1908 133.496 65.4876 130.793 62.1537 130.793C58.8199 130.793 56.1172 133.496 56.1172 136.829C56.1172 140.164 58.82 142.866 62.1537 142.866Z" stroke="white" stroke-width="1.23334" stroke-miterlimit="22.9256" stroke-linecap="round" stroke-linejoin="round"/>
</svg>
