<svg width="199" height="250" viewBox="0 0 199 250" fill="none" xmlns="http://www.w3.org/2000/svg">
<path fill-rule="evenodd" clip-rule="evenodd" d="M31.4385 102.949C47.1414 111.806 62.8958 115.899 71.5121 113.244C70.2608 108.213 68.9507 103.584 68.155 98.6448C66.5651 88.7692 68.2287 68.2164 54.0952 67.8081C40.2503 67.4081 40.9548 91.9258 31.4385 102.949V102.949Z" fill="white" stroke="black" stroke-width="2.00424" stroke-miterlimit="22.9256" stroke-linecap="round" stroke-linejoin="round"/>
<path fill-rule="evenodd" clip-rule="evenodd" d="M51.7629 79.2158C55.4678 87.0427 62.7614 95.0765 68.0151 97.6889C67.6656 95.0721 67.5249 92.6375 67.3029 90.0406C61.5962 87.4286 55.9116 83.9647 51.7629 79.2158Z" fill="black" stroke="black" stroke-width="2.00424" stroke-miterlimit="22.9256" stroke-linecap="round" stroke-linejoin="round"/>
<path fill-rule="evenodd" clip-rule="evenodd" d="M30.4379 29.6026C34.2571 18.0963 39.0551 7.85524 51.1281 3.2947C43.0618 -0.63035 35.9662 1.29321 30.4849 7.76728C25.3759 13.8014 23.6965 22.6975 30.4377 29.6026H30.4379Z" fill="black" stroke="black" stroke-width="2.00424" stroke-miterlimit="22.9256" stroke-linecap="round" stroke-linejoin="round"/>
<path fill-rule="evenodd" clip-rule="evenodd" d="M44.257 1.31459C39.9499 3.33993 37.6711 7.64595 37.4209 14.2325C40.6375 9.48521 44.9216 5.63945 51.1283 3.2948C48.7479 2.13644 46.4519 1.48739 44.257 1.31445V1.31459Z" fill="white" stroke="black" stroke-width="2.00424" stroke-miterlimit="22.9256" stroke-linecap="round" stroke-linejoin="round"/>
<path fill-rule="evenodd" clip-rule="evenodd" d="M45.0339 46.4902C47.8464 42.7803 44.3378 26.1645 53.4978 28.473C69.5898 32.5168 84.2899 34.7343 100.915 31.4397C99.5805 17.4573 87.7998 7.39351 74.3664 3.48283C61.0722 -0.387055 46.2573 1.54193 37.9726 13.5486C32.4542 21.5433 29.4486 32.3583 27.0934 40.8394C23.363 54.2734 19.3039 71.6317 18.2171 82.9258C17.7567 87.7107 18.8305 89.7269 22.061 90.8701C27.0302 92.624 31.3054 93.8743 36.5579 94.6115C36.7744 94.1724 36.9744 93.7359 37.1643 93.2851C47.0305 94.0915 50.4214 93.8869 48.0447 82.4667C46.48 74.9493 44.3278 67.5344 42.8021 60.0642C38.7948 60.6276 36.2489 59.217 34.4986 56.1295C28.4444 45.4425 38.2312 35.0703 44.6535 46.5196L45.0337 46.4902H45.0339Z" fill="black" stroke="black" stroke-width="2.00424" stroke-miterlimit="22.9256" stroke-linecap="round" stroke-linejoin="round"/>
<path fill-rule="evenodd" clip-rule="evenodd" d="M100.821 31.4577C84.2345 34.7253 69.5594 32.5085 53.4979 28.4725C44.3379 26.164 47.8466 42.7798 45.034 46.4896L44.6537 46.5191C38.2314 35.0697 28.4446 45.442 34.4988 56.129C36.2492 59.2166 38.7951 60.6271 42.8024 60.0637C46.1189 74.0859 51.5551 81.8365 64.1598 88.4808C68.2037 90.6147 72.9097 92.7206 77.5682 92.5904C82.7336 92.447 86.6999 88.623 89.7059 84.7825C98.0461 74.1215 100.16 65.4465 101.076 53.3916C101.598 46.5313 101.401 38.5211 100.821 31.4577H100.821Z" fill="white" stroke="black" stroke-width="2.00424" stroke-miterlimit="22.9256" stroke-linecap="round" stroke-linejoin="round"/>
<path d="M37.6506 48.9878L41.5253 53.4383" stroke="black" stroke-width="2.00424" stroke-miterlimit="22.9256" stroke-linecap="round" stroke-linejoin="round"/>
<path d="M41.6813 71.8992C45.6252 71.8992 48.8223 68.7021 48.8223 64.7582C48.8223 60.8143 45.6252 57.6172 41.6813 57.6172C37.7374 57.6172 34.5403 60.8143 34.5403 64.7582C34.5403 68.7021 37.7374 71.8992 41.6813 71.8992Z" fill="white" stroke="black" stroke-width="2.00424" stroke-miterlimit="22.9256" stroke-linecap="round" stroke-linejoin="round"/>
<path fill-rule="evenodd" clip-rule="evenodd" d="M70.9714 72.125C74.4819 78.0656 82.548 79.2542 86.5627 73.3393C81.4913 74.2047 76.4899 74.0346 70.9714 72.125Z" stroke="black" stroke-width="2.00424" stroke-miterlimit="22.9256" stroke-linecap="round" stroke-linejoin="round"/>
<path d="M80.1113 76.1932C79.9646 75.6939 79.7679 75.2315 79.5208 74.8086C81.0119 74.8765 82.4844 74.8333 83.9506 74.696C82.788 75.5958 81.4642 76.0784 80.1113 76.1932Z" fill="black" stroke="black" stroke-width="2.00424"/>
<path fill-rule="evenodd" clip-rule="evenodd" d="M66.0627 42.5331C79.8179 38.3411 85.6556 46.779 69.395 46.7553C59.9388 46.7375 57.2956 45.2073 66.0627 42.5331Z" fill="black" stroke="black" stroke-width="2.00424" stroke-miterlimit="22.9256" stroke-linecap="round" stroke-linejoin="round"/>
<path fill-rule="evenodd" clip-rule="evenodd" d="M64.9436 57.8824C64.9779 54.756 67.718 52.2471 71.0616 52.248C74.4488 52.2487 77.1484 54.7362 77.0988 57.8916C72.0488 57.9328 69.3101 57.8641 64.9437 57.8824H64.9436Z" fill="white" stroke="black" stroke-width="2.00424" stroke-miterlimit="22.9256" stroke-linecap="round" stroke-linejoin="round"/>
<path fill-rule="evenodd" clip-rule="evenodd" d="M71.1729 57.8987C72.9129 57.9072 74.7572 57.9117 77.0982 57.8926C77.1367 55.4471 75.5239 53.4028 73.2195 52.6064C70.833 53.1979 68.7124 55.3776 69.9584 57.8922C69.959 57.8922 69.9596 57.8922 69.9602 57.8922C70.362 57.8944 70.7645 57.8967 71.1729 57.8986V57.8987Z" fill="black" stroke="black" stroke-width="2.00424" stroke-miterlimit="22.9256" stroke-linecap="round" stroke-linejoin="round"/>
<path d="M88.5916 46.082C85.4174 51.1759 85.3274 57.4246 86.3531 63.121C91.5415 61.4922 91.921 63.311 87.4739 68.5863" stroke="black" stroke-width="2.00424" stroke-miterlimit="22.9256" stroke-linecap="round" stroke-linejoin="round"/>
<path fill-rule="evenodd" clip-rule="evenodd" d="M91.4071 46.7318C89.5192 46.7362 88.1579 46.8205 88.1584 46.8188C89.6854 43.8207 93.136 42.7596 96.6366 42.5972C102.074 42.3449 104.838 43.8514 104.737 45.1991C104.517 48.1581 94.1828 46.7259 91.4071 46.7318Z" fill="black" stroke="black" stroke-width="2.00424" stroke-miterlimit="22.9256" stroke-linecap="round" stroke-linejoin="round"/>
<path fill-rule="evenodd" clip-rule="evenodd" d="M96.4891 52.2476C93.1455 52.2466 90.4054 54.7555 90.3711 57.8819C94.1649 57.866 96.73 57.9158 100.65 57.9021C100.793 56.6711 100.914 55.4078 101.019 54.1055C99.9165 52.96 98.3011 52.248 96.489 52.2476H96.4891Z" fill="white" stroke="black" stroke-width="2.00424" stroke-miterlimit="22.9256" stroke-linecap="round" stroke-linejoin="round"/>
<path fill-rule="evenodd" clip-rule="evenodd" d="M96.6006 57.8976C97.8422 57.9037 99.1369 57.9078 100.627 57.9026C100.771 56.6366 100.888 55.361 100.989 54.0745C100.354 53.4258 99.5544 52.9189 98.6473 52.6055C96.2607 53.1969 94.1401 55.3766 95.3862 57.8912C95.7887 57.8934 96.1917 57.8957 96.6006 57.8976Z" fill="black" stroke="black" stroke-width="2.00424" stroke-miterlimit="22.9256" stroke-linecap="round" stroke-linejoin="round"/>
<path fill-rule="evenodd" clip-rule="evenodd" d="M102.024 59.426C100.796 68.5368 98.1538 75.9837 91.2698 84.7831C87.6709 89.3808 83.5361 93.0708 77.3543 92.5367C74.8358 92.3191 72.3296 91.53 69.948 90.5183C68.5565 89.9029 69.1145 93.0689 69.1707 93.8843L75.3118 93.8836C123.423 93.9643 102.142 87.3193 102.868 49.2002C102.868 52.3937 102.452 56.2463 102.024 59.426H102.024Z" fill="black" stroke="black" stroke-width="2.00424" stroke-miterlimit="22.9256" stroke-linecap="round" stroke-linejoin="round"/>
<path fill-rule="evenodd" clip-rule="evenodd" d="M1.30218 172.467C1.06243 205.619 0.675084 238.778 2.14679 271.91C8.39426 274.167 16.8484 275.698 22.3778 276.434C23.2318 276.541 24.0797 276.643 24.9213 276.741C25.1644 276.767 25.3959 276.79 25.6148 276.811C25.6164 276.814 25.6181 276.818 25.6198 276.821C29.561 285.304 33.485 293.214 37.1133 300.26C43.8966 299.18 50.7751 297.511 57.5596 294.779C62.7872 292.673 67.9593 289.937 72.9887 286.354C71.9271 283.894 70.9189 281.271 69.9541 278.523C73.7781 278.379 77.4327 278.17 80.9356 277.924C88.2876 277.408 94.9711 276.729 101.148 276.139C101.149 276.147 101.151 276.155 101.153 276.164C105.358 275.266 109.422 273.945 113.239 272.031C109.32 258.589 103.087 240.471 98.6309 221.222C105.874 229.856 115.216 237.22 115.216 237.22C132.557 228.585 150.49 210.247 160.353 198.752C157.041 195.092 154.063 191.558 151.348 187.613C147.797 182.451 144.696 176.585 141.893 168.812C137.152 173.452 130.497 178.958 118.774 186.745C114.15 168.785 111.296 150.194 102.226 133.646C97.1635 124.413 90.8661 118.998 78.1552 114.327C78.3576 115.748 78.6128 117.527 79.0036 120.138C65.6877 130.989 37.7768 117.717 24.5493 110.64C13.9641 121.603 7.05484 128.018 3.82139 143.899C2.03322 152.682 1.37455 162.426 1.30177 172.467L1.30218 172.467Z" fill="black"/>
<path d="M1.30209 172.467C3.36537 197.261 4.51356 213.082 5.96074 227.68C14.6412 254.374 27.02 280.66 37.1134 300.26C49.1233 298.348 61.4318 294.588 72.9888 286.354C64.6543 267.039 59.6086 237.738 53.127 216.08C53.3265 200.923 53.8249 191.205 54.4211 179.268M1.30209 172.467C1.06247 205.619 0.67512 238.778 2.14669 271.91C9.81396 274.681 20.8053 276.356 25.6346 276.813M1.30209 172.467C1.37486 162.426 2.03352 152.682 3.82169 143.899C6.95606 128.505 12.7913 122.818 24.5496 110.64" stroke="black" stroke-width="2.00424" stroke-miterlimit="22.9256" stroke-linecap="round" stroke-linejoin="round"/>
<path fill-rule="evenodd" clip-rule="evenodd" d="M54.0754 186.257C53.8238 189.985 52.8768 212.594 52.7123 215.838C51.0588 248.424 53.7254 256.47 59.7534 237.116C58.3271 231.366 56.8782 223.887 54.7756 213.14C54.7756 213.14 53.7904 190.659 54.0754 186.257V186.257Z" fill="black" stroke="black" stroke-width="2.00424" stroke-miterlimit="22.9256" stroke-linecap="round" stroke-linejoin="round"/>
<path fill-rule="evenodd" clip-rule="evenodd" d="M19.3796 276.046C21.7103 276.415 23.7477 276.672 25.2371 276.813C18.1412 261.515 11.4928 244.692 5.96087 227.68C4.51383 213.083 3.3655 197.261 1.30221 172.467C1.16952 190.826 0.991431 209.188 1.1088 227.545C4.6625 241.842 9.54696 258.074 15.762 275.422C17.0185 275.657 18.2346 275.865 19.3797 276.047L19.3796 276.046Z" fill="black" stroke="black" stroke-width="2.00424" stroke-miterlimit="22.9256" stroke-linecap="round" stroke-linejoin="round"/>
<path fill-rule="evenodd" clip-rule="evenodd" d="M110.129 273.441C83.2843 280.217 68.8867 268.148 59.7477 237.131C59.5443 237.784 59.3446 238.406 59.1489 238.996C60.8483 245.955 64.2872 260.195 67.0187 269.541C67.7129 271.916 69.0806 275.968 69.7095 277.667C81.9702 278.104 98.7354 278.092 110.129 273.441Z" fill="black" stroke="black" stroke-width="2.00424" stroke-miterlimit="22.9256" stroke-linecap="round" stroke-linejoin="round"/>
<path d="M78.1555 114.327C90.8662 118.999 97.1637 124.413 102.226 133.647C111.297 150.195 114.151 168.785 118.774 186.746" stroke="black" stroke-width="2.00424" stroke-miterlimit="22.9256" stroke-linecap="round" stroke-linejoin="round"/>
<path fill-rule="evenodd" clip-rule="evenodd" d="M141.893 168.813C144.697 176.585 147.797 182.451 151.349 187.613C151.404 187.53 151.403 187.556 151.349 187.472C155.003 182.073 158.674 176.696 162.308 171.28C170.997 172.087 176.446 160.881 181.922 155.983C186.503 151.878 191.742 148.307 197.01 145.148C197.382 143.312 197.704 141.256 197.785 138.866C197.817 137.928 197.812 136.939 197.758 135.892C197.663 134.048 197.515 132.506 197.309 131.233C195.88 122.398 191.677 126.445 183.361 131.442C177.876 134.844 172.97 138.869 171.47 137.226C169.181 134.718 182.686 116.938 184.538 114.41C179.084 108.101 177.996 113.298 171.152 123.413C168.998 126.597 161.491 136.438 158.908 138.747C156.737 130.539 162.388 115.718 153.755 117.751C152.571 122.076 151.047 126.625 149.173 131.388C149.39 142.064 147.235 148.865 149.899 160.107C147.454 162.905 145.116 165.658 141.893 168.813H141.893Z" fill="white"/>
<path d="M165.014 148.382C163.854 144.735 159.647 142.742 158.551 137.419C156.947 129.652 162.388 115.718 153.755 117.751C152.571 122.076 151.046 126.625 149.173 131.387C149.389 142.064 147.234 148.865 149.899 160.107C143.641 167.267 138.084 174.137 116.615 188.168" stroke="black" stroke-width="2.00424" stroke-miterlimit="22.9256" stroke-linecap="round" stroke-linejoin="round"/>
<path d="M182.022 155.908C179.772 146.416 174.31 138.906 165.269 131.52" stroke="black" stroke-width="2.00424" stroke-miterlimit="22.9256" stroke-linecap="round" stroke-linejoin="round"/>
<path d="M197.785 138.865L179.774 148.782" stroke="black" stroke-width="2.00424" stroke-miterlimit="22.9256" stroke-linecap="round" stroke-linejoin="round"/>
<path d="M158.908 138.747C163.904 133.555 167.128 129.361 171.152 123.413C177.995 113.298 179.084 108.101 184.538 114.41C182.686 116.938 169.181 134.718 171.47 137.226C172.97 138.869 177.876 134.844 183.361 131.442C192.876 125.725 197.006 121.251 197.758 135.892C197.948 139.608 197.528 142.592 197.01 145.148C190.991 148.757 185.963 152.37 181.922 155.984C176.446 160.881 170.996 172.087 162.308 171.28L151.349 187.613M176.398 143.035C182.45 139.293 190.502 134.877 197.309 131.233" stroke="black" stroke-width="2.00424" stroke-miterlimit="22.9256" stroke-linecap="round" stroke-linejoin="round"/>
<path d="M117.083 188.88C116.69 189.138 116.162 189.029 115.904 188.636C115.646 188.243 115.755 187.714 116.148 187.456C116.651 187.126 116.967 186.59 117.114 185.917C117.291 185.103 117.23 184.102 116.958 183.004C116.845 182.547 117.125 182.084 117.583 181.972C118.04 181.859 118.503 182.139 118.615 182.597C118.949 183.945 119.018 185.209 118.785 186.278C118.544 187.383 117.989 188.285 117.084 188.88L117.083 188.88Z" fill="black"/>
<path d="M141.893 168.812C146.839 182.525 152.708 190.303 160.353 198.752C150.49 210.248 132.557 228.586 115.217 237.22C115.217 237.22 105.875 229.857 98.6311 221.223" stroke="black" stroke-width="2.00424" stroke-miterlimit="22.9256" stroke-linecap="round" stroke-linejoin="round"/>
<path fill-rule="evenodd" clip-rule="evenodd" d="M151.349 187.471C153.973 191.525 157.118 195.175 160.353 198.751C159.993 195.348 157.187 187.613 154.591 182.681L151.349 187.471L151.349 187.471Z" fill="black" stroke="black" stroke-width="2.00424" stroke-miterlimit="22.9256" stroke-linecap="round" stroke-linejoin="round"/>
<path fill-rule="evenodd" clip-rule="evenodd" d="M119.706 234.783C107.798 229.091 100.594 212.385 99.5997 183.778C97.5824 192.526 97.6275 191.98 95.1096 203.016C96.0288 209.123 97.2437 215.228 98.6312 221.223C105.875 229.857 115.217 237.22 115.217 237.22C116.482 236.584 118.48 235.475 119.706 234.783Z" fill="black" stroke="black" stroke-width="2.00424" stroke-miterlimit="22.9256" stroke-linecap="round" stroke-linejoin="round"/>
<path fill-rule="evenodd" clip-rule="evenodd" d="M69.0062 103.168L71.5141 113.252C74.4012 112.364 76.4176 110.795 77.2801 108.52C75.4184 107.357 73.2893 105.813 69.0142 103.168H69.0061H69.0062Z" fill="black" stroke="black" stroke-width="2.00424" stroke-miterlimit="22.9256" stroke-linecap="round" stroke-linejoin="round"/>
<path d="M30.6 112.803C31.0299 112.995 31.2229 113.499 31.0311 113.929C30.8392 114.359 30.3351 114.552 29.9052 114.36C28.0648 113.539 26.4498 113.177 25.061 113.274C23.7496 113.367 22.6289 113.883 21.6997 114.824C21.3694 115.159 20.8292 115.164 20.4934 114.834C20.1575 114.503 20.1531 113.963 20.4833 113.627C21.7172 112.379 23.2053 111.693 24.9474 111.57C26.6119 111.453 28.4963 111.864 30.6 112.803Z" fill="black"/>
<path fill-rule="evenodd" clip-rule="evenodd" d="M71.5137 113.252C62.9037 115.914 47.1421 111.808 31.4383 102.948C28.7303 106.115 27.1743 107.825 24.5491 110.64C54.0943 126.447 70.8067 126.817 79.0034 120.138C78.0034 113.458 77.8914 112.217 77.2798 108.52C76.4265 110.795 74.4009 112.363 71.5137 113.252Z" fill="white" stroke="black" stroke-width="2.00424" stroke-miterlimit="22.9256" stroke-linecap="round" stroke-linejoin="round"/>
<path d="M69.7112 277.669C84.3036 278.187 100.212 278.565 113.24 272.032C108.101 254.403 98.9801 228.732 95.1105 203.017C98.0412 190.171 97.4999 193.016 100.78 178.633L92.0714 147.335" stroke="white" stroke-width="2.00424" stroke-miterlimit="22.9256" stroke-linecap="round" stroke-linejoin="round"/>
</svg>
