<svg width="91" height="201" fill="none" xmlns="http://www.w3.org/2000/svg"><path d="m72.3 50.057 17.425-42.61L76.439 0 36.12 21.241 0 130.008l12.01 6.729 10.279-5.966L3.92 191.747l13.413 7.958L89.645 60.21 72.3 50.057z" fill="#C882FF"/><path d="m47.27 28.154-11.352-6.546" stroke="#fff" stroke-linejoin="bevel"/><path d="m39.847 65.647-.648 1.101 19.372 11.54.648-1.101-19.372-11.54zM26.56 109.384l-.642 1.104 15.04 8.85.643-1.105-15.041-8.849z" fill="#BE88F8"/><path d="M89.244 60.546 62.472 75.358l27.53-68.073-41.19 21.42-35.906 107.598 27.345-16.251-22.111 78.289L89.244 60.546z" fill="#fff"/><path d="M12.063 136.985 47.75 30.863l.763-1.92L88.959 7.32M89.977 7.574l-27.6 67.948 27.26-15.652L17.407 200l22.987-80.275-26.046 15.719" stroke="#000" stroke-linejoin="bevel"/></svg>