<svg width="74" height="74" fill="none" xmlns="http://www.w3.org/2000/svg"><path d="M15.136 42.156c.379.676.758 1.353 1.213 2.03 3.185 4.886 7.963 8.044 13.5 9.096l-9.556 18.946-4.02-12.18L3.987 64.41l11.149-22.254z" fill="#C882FF" stroke="#C882FF" stroke-linejoin="round"/><path d="M9.153 25.813C7.712 32.88 8.925 39.722 12.49 45.06c1.777 2.662 6.368 7.162 9.325 8.001l-2.303-1.89a21.437 21.437 0 0 1-2.92-3.509c-3.564-5.338-4.777-12.18-3.336-19.246C15.683 15.785 25.845 5.86 37.145 4.282c1.668-.226 3.413-.226 5.081-.076 2.586.221 4.99.89 7.16 1.932l-.35-.256c-3.02-2.388-6.726-3.92-10.913-4.277-1.668-.15-3.413-.15-5.081.075-11.3 1.579-21.463 11.503-23.89 24.133z" fill="#000" stroke="#000"/><path d="m59.097 34.892 11.128 19.23-12.264-.91-4.088 13.4-9.463-16.276c6.208-3.028 11.583-8.554 14.687-15.444z" fill="#C882FF" stroke="#C882FF" stroke-linejoin="round"/><path d="M42.226 4.206C55.422 5.334 63.84 18.115 61.034 32.625c-2.503 12.63-12.665 22.479-23.965 24.058-1.668.225-3.413.3-5.081.15-6.37-.601-11.83-3.834-15.395-9.172-3.565-5.338-4.778-12.18-3.337-19.246C15.683 15.785 25.845 5.86 37.145 4.282c1.668-.226 3.413-.226 5.081-.076z" fill="#fff" stroke="#000"/><path d="M48.804 10.99c-2.164-1.328-4.662-2.179-7.412-2.423-1.441-.075-2.882-.075-4.247.075C27.74 9.92 19.247 18.115 17.199 28.64c-2.35 12.104 4.626 22.705 15.623 23.682 1.44.15 2.882.15 4.247-.075 9.404-1.278 17.898-9.473 19.945-19.998 1.203-6.154-.035-11.953-3.004-16.281" stroke="#000"/><path d="M37.145 12.702c.228 0 .455.075.607.3l4.171 8.496c.076.226.304.3.531.3l9.404.151c.531 0 .759.677.38 1.203l-6.826 8.044a1.206 1.206 0 0 0-.228.677l1.593 9.774c.076.45-.303.902-.683.902-.075 0-.227 0-.303-.075l-8.418-3.534c-.076-.075-.227-.075-.303-.075-.076 0-.228.075-.304.15l-8.418 5.864c-.076.076-.227.15-.303.15-.38.076-.759-.3-.683-.751l1.593-10.225c0-.225 0-.45-.228-.601l-6.75-6.165c-.378-.376-.15-1.128.38-1.278l9.404-2.782c.227-.075.38-.225.53-.45l4.248-9.549c.151-.3.379-.45.606-.526z" fill="#C882FF"/></svg>