<svg width="446" height="290" viewBox="0 0 446 290" fill="none" xmlns="http://www.w3.org/2000/svg">
<path fill-rule="evenodd" clip-rule="evenodd" d="M74.029 1.54248H423.953C436.844 1.54248 446.143 12.8589 444.618 26.6846L422.92 223.984C421.394 237.81 409.635 249.126 396.744 249.126H46.9679C34.077 249.126 24.7779 237.81 26.3031 223.984L32.3058 169.124H4.30989C0.816558 169.124 0.127731 165.778 3.07985 162.876L36.6847 129.271L47.9028 26.6846C49.3296 12.8589 61.1381 1.54248 74.029 1.54248Z" fill="white" stroke="black" stroke-width="1.68533" stroke-miterlimit="10" stroke-linecap="round" stroke-linejoin="round"/>
<path d="M46.3284 43.167H442.354" stroke="black" stroke-width="1.68533" stroke-miterlimit="22.9256" stroke-linecap="round" stroke-linejoin="round"/>
<path fill-rule="evenodd" clip-rule="evenodd" d="M416.917 16.4997C419.77 17.1885 421.345 20.1898 420.508 23.1911C419.623 26.1925 416.621 28.0129 413.817 27.3241C410.963 26.6353 409.389 23.634 410.225 20.6326C411.062 17.6313 414.063 15.8109 416.917 16.4997Z" fill="#A7FC00" stroke="black" stroke-width="1.68533" stroke-miterlimit="22.9256" stroke-linecap="round" stroke-linejoin="round"/>
<path fill-rule="evenodd" clip-rule="evenodd" d="M395.662 16.4997C398.515 17.1885 400.09 20.1898 399.253 23.1911C398.368 26.1925 395.367 28.0129 392.562 27.3241C389.708 26.6353 388.134 23.634 388.97 20.6326C389.856 17.6313 392.857 15.8109 395.662 16.4997Z" fill="#A7FC00" stroke="black" stroke-width="1.68533" stroke-miterlimit="22.9256" stroke-linecap="round" stroke-linejoin="round"/>
<ellipse cx="196.588" cy="107.37" rx="3.93211" ry="6.77684" transform="rotate(-11.5527 196.588 107.37)" fill="white" stroke="black" stroke-width="1.659" stroke-miterlimit="22.9256" stroke-linecap="round" stroke-linejoin="round"/>
<path d="M184.592 67.0011L195.803 107.996L196.639 109.67L200.655 107.996L188.775 67.0011L184.592 61.1445V67.0011Z" fill="white" stroke="black" stroke-width="1.659" stroke-miterlimit="22.9256" stroke-linecap="round" stroke-linejoin="round"/>
<path fill-rule="evenodd" clip-rule="evenodd" d="M207.35 111.699C211.595 110.686 215.966 110.314 220.32 110.594C227.002 111.119 260.494 110.627 260.115 111.649C259.737 112.672 260.61 114.453 258.04 115.644C255.471 116.834 242.118 124.058 225.34 120.897C208.562 117.735 207.35 111.699 207.35 111.699Z" fill="white" stroke="black" stroke-width="1.46041" stroke-linecap="round" stroke-linejoin="round"/>
<path fill-rule="evenodd" clip-rule="evenodd" d="M210.992 117.758C226.959 125.572 244.056 124.691 252.384 121.58C250.86 116.701 249.304 112.219 248.237 107.407C246.099 97.7909 246.553 77.4545 232.621 77.8663C218.957 78.2628 219.706 106.353 210.992 117.758Z" fill="white" stroke="black" stroke-width="1.46041" stroke-linecap="round" stroke-linejoin="round"/>
<path fill-rule="evenodd" clip-rule="evenodd" d="M207.115 41.6238C210.21 30.0851 214.344 19.7226 225.961 14.5369C217.798 11.1382 210.926 13.4402 205.903 20.13C201.223 26.3622 200.084 35.2164 207.115 41.6238Z" fill="black" stroke="black" stroke-width="1.46041" stroke-linecap="round" stroke-linejoin="round"/>
<path fill-rule="evenodd" clip-rule="evenodd" d="M219.084 12.9854C214.963 15.2263 212.97 19.5955 213.104 26.0929C215.995 21.2341 219.988 17.2036 225.961 14.537C223.786 13.5925 221.453 13.0661 219.084 12.9854Z" fill="white" stroke="black" stroke-width="1.46041" stroke-linecap="round" stroke-linejoin="round"/>
<path fill-rule="evenodd" clip-rule="evenodd" d="M222.457 57.4007C225.009 53.5881 220.599 37.4382 229.748 39.1806C245.818 42.232 260.413 43.5655 276.585 39.3652C274.468 25.6811 262.292 16.4555 248.844 13.379C235.537 10.3391 221.074 13.0924 213.608 25.3882C208.636 33.5722 206.303 44.3862 204.474 52.8756C201.585 66.3114 198.581 83.6458 198.164 94.8077C197.988 99.5512 199.161 101.466 202.406 102.405C207.399 103.844 211.454 104.811 216.668 105.231C216.856 104.788 217.06 104.294 217.223 103.841C226.98 104.065 230.495 103.739 227.495 92.6342C225.523 85.3262 222.977 78.1421 221.042 70.8873C217.134 71.6756 214.544 70.4337 212.645 67.4947C206.068 57.327 215.104 46.553 222.086 57.4509L222.457 57.4007Z" fill="black" stroke="black" stroke-width="1.46041" stroke-linecap="round" stroke-linejoin="round"/>
<path fill-rule="evenodd" clip-rule="evenodd" d="M277.038 64.5447C276.354 73.5833 274.186 81.0644 267.915 90.1244C264.639 94.8573 260.783 98.7266 254.683 98.557C252.148 98.4274 249.648 97.902 247.276 96.9998C245.874 96.4739 246.606 99.5572 246.707 100.356L252.751 99.9997C300.092 97.3039 278.757 91.991 277.28 54.434C277.41 57.806 277.329 61.1828 277.038 64.5447Z" fill="black" stroke="black" stroke-width="1.46041" stroke-linecap="round" stroke-linejoin="round"/>
<path fill-rule="evenodd" clip-rule="evenodd" d="M276.496 39.3902C260.359 43.5594 245.789 42.2273 229.748 39.181C220.599 37.4386 225.009 53.5885 222.457 57.4011L222.089 57.4515C215.108 46.5536 206.072 57.3276 212.649 67.4953C214.547 70.4343 217.137 71.6762 221.046 70.8878C225.134 84.548 227.895 102.045 249.532 102.682C267.117 103.2 273.753 82.2815 278.016 60.9475C278.129 54.1789 277.472 46.3066 276.496 39.3902Z" fill="white" stroke="black" stroke-width="1.46041" stroke-linecap="round" stroke-linejoin="round"/>
<path d="M215.336 60.286L219.406 64.4415" stroke="black" stroke-width="1.46041" stroke-linecap="round" stroke-linejoin="round"/>
<path d="M219.847 82.6046C215.964 82.4036 212.98 79.0932 213.181 75.2108C213.382 71.3284 216.692 68.344 220.575 68.5451C224.457 68.7462 227.441 72.0565 227.24 75.9389C227.039 79.8214 223.729 82.8057 219.847 82.6046Z" fill="#A7FC00" stroke="black" stroke-width="1.46041" stroke-linecap="round" stroke-linejoin="round"/>
<path fill-rule="evenodd" clip-rule="evenodd" d="M240.211 82.8128C242.289 85.8993 245.625 87.5094 248.812 87.3448C251.453 87.2084 253.991 85.8535 255.628 83.1104C250.551 84.3616 245.236 84.259 240.211 82.8128Z" stroke="black" stroke-width="1.46041" stroke-linecap="round" stroke-linejoin="round"/>
<path d="M254.269 54.1616C251.441 59.3601 251.711 65.5124 253.05 71.062C258.063 69.1572 258.535 70.928 254.468 76.3743" stroke="black" stroke-width="1.46041" stroke-linecap="round" stroke-linejoin="round"/>
<path fill-rule="evenodd" clip-rule="evenodd" d="M233.167 51.8468C245.944 49.3862 250.132 56.6823 239.862 55.0988C237.818 54.7836 235.714 54.8347 233.695 55.28C229.822 56.134 227.929 55.9268 227.062 55.5833C227.062 55.1143 229.023 52.6455 233.167 51.8468Z" fill="black" stroke="black" stroke-width="1.46041" stroke-linecap="round" stroke-linejoin="round"/>
<path fill-rule="evenodd" clip-rule="evenodd" d="M267.054 51.1954C254.277 48.7348 250.089 56.0309 260.359 54.4474C262.402 54.1323 264.507 54.1833 266.526 54.6286C270.399 55.4827 272.292 55.2755 273.159 54.9319C273.159 54.463 271.198 51.9941 267.054 51.1954Z" fill="black" stroke="black" stroke-width="1.46041" stroke-linecap="round" stroke-linejoin="round"/>
<path fill-rule="evenodd" clip-rule="evenodd" d="M232.573 65.7849C232.43 62.7061 234.985 60.0812 238.279 59.8938C241.572 59.7065 244.408 61.9993 244.539 65.1067C239.567 65.4464 236.869 65.519 232.573 65.7849Z" fill="white" stroke="black" stroke-width="1.46041" stroke-linecap="round" stroke-linejoin="round"/>
<path fill-rule="evenodd" clip-rule="evenodd" d="M235.133 61.6595C234.919 63.0515 235.926 64.4986 237.26 64.8389C238.547 64.2902 239.95 62.6706 239.103 61.1444C237.78 61.3177 236.454 61.4695 235.133 61.6595Z" fill="black" stroke="black" stroke-width="1.46041" stroke-linecap="round" stroke-linejoin="round"/>
<path fill-rule="evenodd" clip-rule="evenodd" d="M257.783 64.8235C257.635 61.7449 260.188 59.1169 263.481 58.9255C266.774 58.7341 269.613 61.0235 269.748 64.1307C264.776 64.4765 262.078 64.5524 257.783 64.8235Z" fill="white" stroke="black" stroke-width="1.46041" stroke-linecap="round" stroke-linejoin="round"/>
<path fill-rule="evenodd" clip-rule="evenodd" d="M260.162 60.6453C259.941 62.0847 260.983 63.5811 262.361 63.9329C263.693 63.3655 265.143 61.6908 264.267 60.1127C262.899 60.2919 261.528 60.4489 260.162 60.6453Z" fill="black" stroke="black" stroke-width="1.46041" stroke-linecap="round" stroke-linejoin="round"/>
<path fill-rule="evenodd" clip-rule="evenodd" d="M297.715 335.447L307.387 362.905C282.756 362.122 258.084 361.338 233.485 362.829C207.89 364.378 182.306 368.385 156.722 366.644C154.067 355.805 151.398 344.851 151.383 333.683C151.349 311.214 161.966 290.271 172.342 270.341C172.576 269.782 172.95 269.293 173.428 268.922C173.997 268.544 174.716 268.557 175.396 268.567C199.622 268.969 223.818 270.159 247.985 272.135C257.263 272.896 269.35 272.024 278.127 275.389C285.862 278.353 284.61 290.984 286.124 297.776C288.981 310.618 293.349 323.073 297.715 335.447Z" fill="white" stroke="black" stroke-width="1.46041" stroke-linecap="round" stroke-linejoin="round"/>
<path fill-rule="evenodd" clip-rule="evenodd" d="M283.085 269.421C269.724 271.778 255.367 271.054 241.862 270.259C242.7 272.625 181.14 267.417 181.137 267.417C179.624 267.206 175.699 265.957 173.815 265.626C172.661 268.592 170.647 272.771 169.653 275.521C174.431 276.901 182.976 277.839 188.999 279.03C188.429 277.874 189.912 278.557 188.999 279.03C202.992 280.292 267.713 287.906 284.848 288.704C285.03 288.7 285.688 288.733 286.507 288.758C285.423 282.201 284.283 275.756 283.085 269.421Z" fill="black"/>
<path d="M188.999 279.03C182.976 277.839 174.431 276.901 169.653 275.521C170.647 272.771 172.661 268.592 173.815 265.626C175.699 265.957 179.624 267.206 181.137 267.417C181.14 267.417 242.7 272.625 241.862 270.259C255.367 271.054 269.724 271.778 283.085 269.421C284.283 275.756 285.423 282.201 286.507 288.758C285.688 288.733 285.03 288.7 284.848 288.704C267.713 287.906 202.992 280.292 188.999 279.03ZM188.999 279.03C188.429 277.874 189.912 278.557 188.999 279.03Z" stroke="black" stroke-width="1.46041" stroke-linecap="round" stroke-linejoin="round"/>
<path fill-rule="evenodd" clip-rule="evenodd" d="M316.401 201.426C315.817 196.451 315.373 191.326 313.946 186.89C310.758 166.515 305.69 156.027 300.424 140.972C298.544 135.582 295.244 130.961 291.293 126.862C285.275 120.62 276.046 118.987 267.669 119.532C267.244 119.532 259.699 112.759 259.285 111.687C258.236 111.476 258.355 116.734 235.129 118.466C214.086 120.038 210.589 112.045 206.447 111.743C206.447 111.743 204.432 116.661 202.118 116.593C187.433 116.162 159.38 126.827 159.45 145.291C159.484 165.03 161.87 187.061 164.409 206.678C165.531 215.355 168.641 224.248 168.796 232.955C168.919 239.785 169.418 249.594 169.325 269.068C204.791 283.935 277.335 279.508 287.728 274.883C287.812 273.932 287.889 272.978 287.952 272.028C288.548 262.542 286.505 263.573 287.292 254.099C287.292 254.099 310.604 260.635 312.426 258.808C318.187 252.12 318.606 215.489 316.401 201.426Z" fill="black"/>
<path d="M168.5 243.5C169.667 253.833 170.3 277.6 163.5 290" stroke="white" stroke-width="1.46" stroke-linecap="round" stroke-linejoin="round"/>
<path d="M286.823 243.698C285.547 253.959 283.269 277.618 284.36 290.161" stroke="white" stroke-width="1.46" stroke-linecap="round" stroke-linejoin="round"/>
<path fill-rule="evenodd" clip-rule="evenodd" d="M202.541 117.157C204.32 115.766 205.666 113.896 206.418 111.766C213.384 116.147 225.364 119.024 237.62 118.416C250.306 117.785 257.767 112.987 260.17 111.698C262.253 114.698 265.293 118.357 267.652 119.556C267.652 119.556 255.961 128.091 230.543 126.151C205.125 124.212 202.541 117.157 202.541 117.157Z" stroke="black" stroke-width="1.46041" stroke-linecap="round" stroke-linejoin="round"/>
<path d="M230.75 204.462C234.109 203.657 256.716 204.126 267.599 204.462L268.669 211.898L271.03 219.245L240.066 217.146L228.651 214.391C227.951 211.417 227.391 205.267 230.75 204.462Z" fill="black"/>
<path d="M213.285 172.238C213.435 170.701 214.727 169.528 216.271 169.528H277.427C278.083 169.528 278.721 169.743 279.243 170.14L280.477 171.079C281.3 171.705 281.743 172.711 281.648 173.741L273.777 259.33C273.635 260.874 272.34 262.055 270.789 262.055H207.855C206.083 262.055 204.697 260.528 204.869 258.764L213.285 172.238Z" fill="#A7FC00"/>
<path d="M216.505 174.272C216.651 172.732 217.944 171.555 219.491 171.555H279.229C280.998 171.555 282.383 173.077 282.216 174.838L274.204 259.338C274.058 260.878 272.764 262.055 271.217 262.055H211.48C209.711 262.055 208.326 260.533 208.493 258.772L216.505 174.272Z" fill="#A7FC00" stroke="black" stroke-width="1.46041" stroke-linecap="round" stroke-linejoin="round"/>
<path d="M221.745 204.625C220.324 204.203 222.791 203.874 217.901 199.954C208.962 192.787 223.502 195.203 230.352 206.176C233.627 211.423 242.001 219.795 248.211 222.031C251.473 223.205 245.185 229.385 241.633 232.328L236.097 233.493C222.037 229.702 217.167 225.12 204.899 218.661C197.882 214.966 202.42 201.577 205.566 195.344C205.921 196.68 207.079 199.572 208.867 200.444C210.648 201.313 218.169 203.586 221.745 204.625Z" fill="white" stroke="black" stroke-width="1.659" stroke-miterlimit="22.9256" stroke-linecap="round" stroke-linejoin="round"/>
<path d="M232.252 233.852C235.891 237.693 272.01 249.604 289.615 255.079L308.376 245.678L306.251 226.34C282.938 220.157 263.102 226.34 244.634 217.68C241.602 224.755 235.116 231.41 232.252 233.852Z" fill="black"/>
<path d="M289.615 255.079C272.01 249.604 235.891 237.693 232.252 233.852C235.116 231.41 241.602 224.755 244.634 217.68C263.102 226.34 282.938 220.157 306.251 226.34M285.824 169.92C288.351 179.691 292.236 206.196 289.203 223.582" stroke="white" stroke-width="1.46" stroke-linecap="round" stroke-linejoin="round"/>
<path d="M196.822 142.586C200.658 156.925 195.985 173.599 193.169 180.145L199.334 189.163L217.371 185.168C216.914 181.606 213.583 151.057 213.05 141.81C209.608 133.557 205.901 133.371 206.183 131.399C206.274 130.759 208.504 128.164 209.608 126.946C210.217 127.898 211.96 129.869 214.06 130.143C216.161 130.417 214.935 126.376 214.06 124.321C215.521 121.764 211.701 117.699 209.608 115.987C211.16 114.526 207.363 110.507 205.27 108.681C201.503 103.772 197.849 106.626 192.37 110.165C186.89 113.704 185.863 125.805 186.319 127.517C186.684 128.887 193.473 138.134 196.822 142.586Z" fill="white" stroke="black" stroke-width="1.659" stroke-miterlimit="22.9256" stroke-linecap="round" stroke-linejoin="round"/>
<path d="M206.676 110.358C205.877 109.939 203.553 110.056 201.444 110.87C197.984 112.204 192.623 115.495 192.623 120.48" stroke="black" stroke-width="1.659" stroke-miterlimit="22.9256" stroke-linecap="round" stroke-linejoin="round"/>
<path d="M209.871 116.043C209.578 115.59 208.082 114.744 205.872 115.832C203.662 116.919 198.507 120.038 196.908 125.022" stroke="black" stroke-width="1.659" stroke-miterlimit="22.9256" stroke-linecap="round" stroke-linejoin="round"/>
<path d="M214.302 124.926C213.098 122.911 209.965 120.112 208.246 121.27C206.098 122.717 201.609 127.589 200.951 129.913" stroke="black" stroke-width="1.659" stroke-miterlimit="22.9256" stroke-linecap="round" stroke-linejoin="round"/>
<path d="M217.907 244.112C208.681 253.914 199.407 259.008 195.924 260.329C186.43 248.936 173.848 222.227 164.613 196.834L200.248 165.549C203.708 166.99 211.54 164.948 215.024 163.747C219.829 186.451 227.133 234.31 217.907 244.112Z" fill="black"/>
<path d="M190.462 216.004C190.462 194.628 193.443 182.126 198.248 165.549C201.708 166.99 211.54 164.948 215.024 163.747C219.829 186.451 227.133 234.31 217.907 244.112C208.681 253.914 199.407 259.008 195.924 260.329C186.43 248.936 173.848 222.227 164.613 196.834" stroke="white" stroke-width="1.659" stroke-miterlimit="22.9256" stroke-linecap="round" stroke-linejoin="round"/>
</svg>
