<svg width="70" height="43" viewBox="0 0 70 43" fill="none" xmlns="http://www.w3.org/2000/svg">
<circle cx="7.7562" cy="4.68881" r="4.03207" stroke="black" stroke-width="1.2265"/>
<circle cx="7.75623" cy="4.68885" r="2.07899" fill="black"/>
<path fill-rule="evenodd" clip-rule="evenodd" d="M22.7202 0.764404H65.4158C67.5349 0.764404 69.0261 2.53031 68.7122 4.68863C68.4375 6.84696 66.4361 8.61286 64.317 8.61286H21.4644C19.3454 8.61286 17.8934 6.84696 18.2465 4.68863C18.5997 2.53031 20.6011 0.764404 22.7202 0.764404Z" stroke="black" stroke-width="1.06701" stroke-miterlimit="22.9256" stroke-linecap="round" stroke-linejoin="round"/>
<circle cx="6.30429" cy="21.5255" r="4.03207" stroke="black" stroke-width="1.2265"/>
<path fill-rule="evenodd" clip-rule="evenodd" d="M21.3463 17.6016H46.4222C48.5805 17.6016 50.0717 19.3675 49.6792 21.5258C49.2868 23.6841 47.207 25.45 45.0487 25.45H20.0906C17.9322 25.45 16.4411 23.6841 16.7942 21.5258C17.1082 19.3675 19.188 17.6016 21.3463 17.6016Z" stroke="black" stroke-width="1.06701" stroke-miterlimit="22.9256" stroke-linecap="round" stroke-linejoin="round"/>
<circle cx="5.57871" cy="38.3624" r="4.03207" stroke="black" stroke-width="1.2265"/>
<circle cx="5.57874" cy="38.3629" r="2.07899" fill="black"/>
<path fill-rule="evenodd" clip-rule="evenodd" d="M21.269 34.4387H63.9646C66.0837 34.4387 67.5749 36.2046 67.261 38.3629C66.9863 40.5213 64.9849 42.2872 62.8658 42.2872H20.0133C17.8942 42.2872 16.4422 40.5213 16.7954 38.3629C17.1486 36.2046 19.1499 34.4387 21.269 34.4387Z" stroke="black" stroke-width="1.06701" stroke-miterlimit="22.9256" stroke-linecap="round" stroke-linejoin="round"/>
</svg>
