<svg width="120" height="120" fill="none" xmlns="http://www.w3.org/2000/svg"><path d="M41.692 71.683 26.487 92.54V61.499l91.294-29.101-76.089 39.285z" fill="#C882FF"/><path d="m53 78-11.308-6.318-15.205 20.859L53 78z" fill="#000"/><path fill-rule="evenodd" clip-rule="evenodd" d="M41.288 71.388a.5.5 0 0 1 .648-.142l11.308 6.317a.5.5 0 0 1-.004.875L26.727 92.98a.5.5 0 0 1-.644-.733l15.205-20.859zm.547.947-13.624 18.69 23.757-13.03-10.133-5.66z" fill="#000"/><path fill-rule="evenodd" clip-rule="evenodd" d="M42.096 71.978 26.891 92.836l-.808-.59 15.205-20.858.808.59z" fill="#000"/><path fill-rule="evenodd" clip-rule="evenodd" d="M119.522 31.74a.499.499 0 0 1-.04.556L74.605 89.95a.5.5 0 0 1-.637.13L41.484 72.107a.5.5 0 0 1 .014-.883l71.18-36.514-86.21 27.494a.5.5 0 0 1-.397-.041L.811 47.906a.5.5 0 0 1 .181-.931l66.713-8.75.13.99-65.227 8.556 23.765 13.413 88.038-28.078-34.26 4.494-.13-.991 39.002-5.116a.5.5 0 0 1 .499.247zm-2.209 1.715L74.079 89l-31.29-17.315 74.524-38.23z" fill="#000"/></svg>