<svg width="177" height="221" fill="none" xmlns="http://www.w3.org/2000/svg"><path d="M162.621 188.841H3.091S1 193.486 1 203.979C1 214.473 3.092 220 3.092 220h159.532l-.003-31.159z" fill="#C882FF" stroke="#C882FF" stroke-linecap="square" stroke-linejoin="bevel"/><path d="M174.314 219.98h-16.031c-8.065-5.391-7.241-25.448 0-31.139h16.031v2.733l-2.01.063.05 24.984h1.96v3.359z" fill="#fff" stroke="#000" stroke-linecap="square" stroke-linejoin="bevel"/><path d="M158.605 191.436h15.708M158.52 216.808h15.709M158.32 216.933c-4.132-6.556-3.658-18.854.45-25.347" stroke="#000" stroke-linecap="square" stroke-linejoin="bevel"/><path d="M169.064 194.833h-11.455M172.107 199.125h-11.455M106.465 204.426h33.029M50.586 197.724l-7.703 13.395M42.887 197.724l7.702 13.395M64.563 197.732l-7.703 13.395M56.867 197.732l7.703 13.395" stroke="#000"/><path d="M56.257 126.33h-19.57c-5.331 8.267-5.23 24.793-.002 30.623h19.572V126.33z" fill="#000" stroke="#000" stroke-linecap="square" stroke-linejoin="bevel"/><path d="M168.125 157.202H52.807c-8.066-5.391-7.242-25.448 0-31.139h115.318v2.733l-2.01.062.05 24.984h1.96v3.36z" fill="#fff" stroke="#000" stroke-linecap="square" stroke-linejoin="bevel"/><path d="M53.637 128.658h113.232M67.375 134.951h91.907M70.707 141.344h94.317M53.04 154.03h113.232" stroke="#000" stroke-linecap="square" stroke-linejoin="bevel"/><path d="M52.836 154.156c-4.133-6.556-3.658-18.854.45-25.347l-.45 25.347z" fill="#fff"/><path d="M52.836 154.156c-4.133-6.556-3.658-18.854.45-25.347" stroke="#000" stroke-linecap="square" stroke-linejoin="bevel"/><path d="M55.296 95h-19.57c-5.331 8.267-5.229 24.794-.002 30.624h19.572V95z" fill="#000" stroke="#000" stroke-linecap="square" stroke-linejoin="bevel"/><path d="M166.277 126.139H50.959c-8.066-5.391-7.241-25.448 0-31.139h115.318v2.733l-2.01.063.05 24.983h1.96v3.36z" fill="#C882FF" stroke="#000" stroke-linecap="square" stroke-linejoin="bevel"/><path d="M51.805 97.595h113.22M51.195 122.968h113.233" stroke="#000" stroke-linecap="square" stroke-linejoin="bevel"/><path d="M50.996 123.093c-4.133-6.556-3.658-18.854.45-25.347l-.45 25.347z" fill="#C882FF"/><path d="M50.996 123.093c-4.133-6.556-3.658-18.854.45-25.347" stroke="#000" stroke-linecap="square" stroke-linejoin="bevel"/><path d="M103.345 100.993H50.281" stroke="#000"/><path d="M34.71 126.09H49.8M14.246 157.94H146.85" stroke="#fff"/><path d="M14.246 158.405h159.65S177 163.361 177 173.016c0 9.654-3.104 14.231-3.104 14.231H14.246s2.857-4.283 2.857-14.546c0-9.438-2.857-14.296-2.857-14.296z" fill="#000"/><path d="M28.895 164.878v16.451M33.516 164.878v16.451M38.14 164.878v16.451" stroke="#fff"/><path d="M14.85 186.681H2.691v-2.249h2.526V161.43H2.691v-2.587H14.85s3.243 3.147 3.243 13.712c0 10.566-3.243 14.126-3.243 14.126z" fill="#fff"/><path d="M5.217 161.43H2.691v-2.587H14.85s3.243 3.147 3.243 13.712c0 10.566-3.243 14.126-3.243 14.126H2.691v-2.249h2.526m0-23.002h8.503s1.13 4.263 1.13 11.125c0 4.492-1.13 11.877-1.13 11.877H5.217m0-23.002v23.002M5.285 168.986h7.052M6.867 172.826h5.471" stroke="#000"/><path d="M4.293 188.101h163.225" stroke="#fff"/><path d="M94.446 66.47c-2.98 2.518-.69 5.577-1.993 5.665-1.304.088-2.526-2.305-2.73-5.345-.203-3.04.69-5.576 1.994-5.664 1.304-.088 5.71 2.828 2.729 5.345zM107.365 65.597c3.288 2.094 1.425 5.433 2.729 5.345 1.304-.088 2.196-2.624 1.993-5.664-.203-3.04-1.425-5.433-2.729-5.345-1.304.088-5.282 3.571-1.993 5.664z" fill="#000"/><path d="M89.99 33.55C85.392 34.085 74.6 34.99 69.963 44c-5.797 11.26-1.574 29.138 0 31.858 6.583 11.371 13.359 19.36 22.948 19.36 3.409 0 9.016-2.38 10.957-2.55 3.253-.287 6.786 1.535 10.819 0 7.509-2.858 12.015-9.166 16.065-15.662 8.358-13.406 5.046-26.827 1.589-33.615-5.573-10.944-15.096-14.58-25.176-12.45" stroke="#000"/><path d="M102.508 90.814c-.538.305-1.065.888-1.295 1.179-1.214 1.54 1.405 3.738 3.073 3.973 1.667.236.264-.828.702-1.06.425-.224 1.041.445 1.229 0 .231-.545.549-2.913 0-3.797-.432-.695-1.117-.822-1.931-.794-.752.026-1.123.127-1.778.499z" fill="#000"/><path d="M80.875 35.346c5.827-1.39 17.293 3.686 19.313 6.773 2.78 4.247 1.163 35.494 2.021 39.913.685 3.536 2.071 6.576 2.679 7.654m13.608-55.73c-6.752 0-16.693 3.437-16.693 20.77" stroke="#000"/><path d="M95.585 37.067c-.543-.174-.953-.193-1.417-.347-6.076-1.728-10.968-7.683-12.462-15.173-1.284-6.411-.231-13.007 1.044-19.727L83.115 0l1.484 1.098a69 69 0 0 1 10.583 9.21 28.194 28.194 0 0 1 6.714 12.555c1.059 4.61-.288 11.24-1.229 15.794 0 0-.924-.258-5.082-1.59z" fill="#C882FF"/><path d="M106.88 24.506c-2.59 2.012-8.055 7.423-6.575 17.249 2.367-14.603 8.429-13.754 10.801-14.464 0 0-2.544-3.288-4.226-2.785z" fill="#000" stroke="#000" stroke-linejoin="round"/></svg>