<svg width="74" height="74" fill="none" xmlns="http://www.w3.org/2000/svg"><path d="M3.18 43.584H8.44M44.82 17.007v-6.035c0-1.508.778-4.606 3.891-4.923h3.494S53 6.764 53 9.066c0 2.303-.794 3.177-.794 3.177m-1.117 0c-1.138 0-2.707-.193-3.35-.29v5.277M8.934 45.76c-.03-2.538-.363-5.734 0-6.75.362-1.014 2.038-1.946 3.248-2.316 1.21-.37 4.302-1.308 15.053-2.485 10.752-1.178 32.77-2.756 37.421-1.341 3.82 1.161 5.194 1.865 6.793 4.421.33.528.582 1.058.773 1.589.246.68.392 1.361.478 2.038.465 3.636.105 7.561-1.25 10.96-1.895 4.748-5.754 8.891-10.671 10.54-.458.153-.93.293-1.408.419-.514.135-1.037.255-1.562.362-3.286.667-6.68.798-8.648.73-1.661.18-8.498-.562-22.56-4.984C12.539 54.522 8.964 48.296 8.934 45.76z" stroke="#000"/><circle cx="46.416" cy="23.343" r="2.145" fill="#000"/><path d="M10.521 37.328s-.813-1.462-1.39-2.789c-.517-1.186-1.183-3.256-.178-3.308 4.77-.242 9.323-.42 10.038 0 .715.42 1.972 2.017 3.012 3.595M22.057 57.471s-2.095 3.363-3.756 3.363c-1.26 0-5.825.282-9.084 0-.722-.062-1.009-.966-.79-1.678.53-1.717 1.994-4.747 2.893-6.542M31.729 33.258c-.176-.909-.476-2.493 3.822-3.107 3.943-.564 7.925-1.132 13.155-1.458 3.51-.219 7.789-.214 9.197-.214 1.76 0 2.505 1.746 2.241 3.595M35.648 30.028l3.595-10.604c.479-.72 1.054-2.068 2.246-2.067 1.833 0 7.088.03 10.228 0 1.079.051 3.253.729 3.317 3.032.02.717.03 1.59.034 2.503m-.034 5.371c.012-.736.026-1.908.032-3.187M51.094 7.205v3.821" stroke="#000"/><path fill-rule="evenodd" clip-rule="evenodd" d="M7.073 48.14c0-2.847-3.132-4.556-3.373-4.556-.24 0-3.373 1.709-3.373 4.557 0 2.202 1.51 3.987 3.373 3.987 1.863 0 3.373-1.785 3.373-3.987zm0-9.113c0-2.203-1.51-3.988-3.373-3.988-1.863 0-3.373 1.785-3.373 3.988 0 2.848 3.132 4.556 3.373 4.556.241 0 3.373-1.708 3.373-4.556z" fill="#000"/><path d="M50.04 51.728a5.786 5.786 0 1 0 0-11.573 5.786 5.786 0 0 0 0 11.573z" fill="#C882FF"/><path d="M46.269 46.18a3.777 3.777 0 0 1 3.53-4.008" stroke="#fff" stroke-miterlimit="10"/><path d="M50.04 53.214a7.273 7.273 0 1 0 0-14.545 7.273 7.273 0 0 0 0 14.545z" stroke="#000" stroke-miterlimit="10"/><path d="M3.708 18.495c2.07-.801 6.633-5.173 12.236-5.173 5.472 0 10.122 3.89 12.933 3.89 4.448 0 6.456-3.24 14.518-3.806a35.518 35.518 0 0 1 2.494-.084c.556 0 1.081.02 1.58.058 5.311.401 7.606 2.743 11.452 2.927 3.365.16 9.668-3.517 13.828-2.985M37.922 10.12c-3.884 1.152-5.825 2.849-9.045 2.849-2.811 0-7.461-3.89-12.933-3.89-2.361 0-4.539.777-6.422 1.736" stroke="#C882FF"/></svg>