<svg width="74" height="74" fill="none" xmlns="http://www.w3.org/2000/svg"><path d="m17.512 66.927 3.857-7.63-4.639 1.902 8.331-9.1s2.063 2.66 4.03 3.791c1.967 1.132 6.046 2.008 6.046 2.008l-5.218 13.45-.828-9.954-4.03 2.646.94-4.007-8.489 6.894z" fill="#C882FF"/><path d="M26.506 49.482s3.358 2.711 4.696 3.505c1.404.832 6.036 2.783 6.036 2.783l-1.264 1.625s-2.3.268-6.315-1.971c-3.363-1.886-4.65-4.218-4.65-4.218l1.497-1.724z" fill="#000"/><path d="M24.82 44.908s5.608 3.895 7.667 5.126c2.178 1.292 8.953 4.624 8.953 4.624l-.863 1.68s-3.585.42-9.788-3.068c-5.21-2.918-7.208-6.541-7.208-6.541l1.238-1.821z" fill="#000"/><path d="M45.142 5.673a31.556 31.556 0 0 0-2.856 1.66C39.53 9.166 34.131 13.33 29.883 21.52c-3.255 6.268-5.326 13.78-5.326 13.78M49.788 49.85s5.468-5.548 9.271-11.503c4.958-7.764 5.866-14.523 6.073-17.828.292-4.528-.767-12.073-1.955-15.808a5.31 5.31 0 0 0-6.215-3.585 46.009 46.009 0 0 0-7.358 2.47c-.62.26-1.242.529-1.852.808" stroke="#000" stroke-miterlimit="10"/><path d="M50.943 25.966a6.403 6.403 0 1 0 0-12.805 6.403 6.403 0 0 0 0 12.806z" fill="#C882FF"/><path d="M46.77 19.828a4.18 4.18 0 0 1 3.907-4.436" stroke="#fff" stroke-miterlimit="10"/><path d="M50.944 27.612a8.048 8.048 0 1 0 0-16.096 8.048 8.048 0 0 0 0 16.096zM64.445 10.32c-1.937-.183-4.51-1.07-7.093-2.56-2.657-1.534-4.75-3.375-5.855-4.985M50.337 49.286s-.346.36-.564.572c-3.685-.154-8.818-1.837-14.017-4.831-4.674-2.684-8.412-5.905-10.548-8.792M51.174 54.274c-1.56 2.703-9.796.867-18.404-4.098-8.607-4.965-14.297-11.18-12.725-13.88M24.905 35.073l-3.283-1.807-1.17 2.032" stroke="#000" stroke-miterlimit="10"/><path d="m49.729 49.712 3.02 1.836-1.172 2.028" stroke="#000" stroke-miterlimit="10"/><path d="m42.692 55.651-7.055 11.836 1.15 1.35s10.893-4.133 13.803-6.618c1.38-1.177 3.635-4.218 4.122-5.958.667-2.4-.292-9.11-.617-11.215M55.843 55.57a9.491 9.491 0 0 0 1.127-2.3c.668-2.396-.291-9.106-.62-11.215M22.994 43.976l-6.726 12.028-1.752-.334s-1.863-11.502-1.15-15.263c.33-1.78 1.833-5.253 3.102-6.549 1.74-1.779 8.051-4.302 10.022-5.072M16.482 32.543a9.463 9.463 0 0 1 1.426-2.12c1.741-1.78 8.033-4.302 10.023-5.073" stroke="#000" stroke-miterlimit="10"/><path d="M71.824 29.264 62.4 45.59M28.46 7.498l-4.202 7.281" stroke="#C882FF" stroke-miterlimit="10"/></svg>