<svg width="74" height="74" fill="none" xmlns="http://www.w3.org/2000/svg"><path d="M37.774 72a5.019 5.019 0 1 0 0-10.037 5.019 5.019 0 0 0 0 10.037z" fill="#000" stroke="#000" stroke-miterlimit="10"/><path d="M45.68 64.625c0 2.529-3.538 4.58-7.901 4.58-4.364 0-7.901-2.051-7.901-4.58v-7.532H45.68v7.532z" fill="#fff" stroke="#000" stroke-miterlimit="10"/><path d="M45.676 61.644c0 2.53-3.538 4.58-7.901 4.58-4.364 0-7.902-2.05-7.902-4.58" stroke="#000" stroke-miterlimit="10"/><path d="M45.68 58.425c0 2.663-3.538 4.823-7.901 4.823-4.364 0-7.901-2.16-7.901-4.823v-2.88H45.68v2.88z" fill="#fff" stroke="#000" stroke-miterlimit="10"/><path d="M37.779 60.845c4.363 0 7.9-2.16 7.9-4.823 0-2.664-3.537-4.823-7.9-4.823-4.364 0-7.901 2.16-7.901 4.823 0 2.664 3.537 4.823 7.9 4.823z" fill="#fff"/><path d="M56.282 33.594c0-10.218-8.285-18.503-18.504-18.503-10.218 0-18.503 8.285-18.503 18.503 0 5.38 2.296 10.221 5.96 13.603 3.756 3.353 3.325 6.867 4.14 9.15l.005.01c.233.65.57 1.202 1.135 1.619v-.005c1.507 1.376 4.173 2.29 7.214 2.29 3.219 0 6.021-1.025 7.472-2.537l-.012.028c2.563-2.562.111-5.716 5.23-10.614l-.3.245a18.463 18.463 0 0 0 6.163-13.789z" fill="#fff"/><path d="M37.564 47.006c7.471 0 13.527-6.056 13.527-13.527 0-7.471-6.056-13.527-13.527-13.527-7.47 0-13.527 6.056-13.527 13.527 0 7.47 6.056 13.527 13.527 13.527z" fill="#C882FF"/><path d="M25.474 47.505a18.461 18.461 0 0 1-6.302-13.91c0-10.22 8.285-18.504 18.503-18.504 3.273 0 6.348.85 9.015 2.34m3.326 29.952a18.463 18.463 0 0 0 6.163-13.789c0-4.366-1.513-8.379-4.042-11.543" stroke="#000" stroke-miterlimit="10"/><path d="M30.41 57.976c-2.548-1.877-.443-6.46-5.282-10.78M50.316 47.138c-5.118 4.899-2.669 8.052-5.231 10.614" stroke="#000" stroke-miterlimit="10"/><path d="m35.276 56.575-3.231-15.786c-.353-1.229-.496-4.013 2.083-4.013 1.566 0 4.287 3.769 1.936 4.367-3.942 1.004 0-10.215 4.163-6.233 1.152 1.101 1.27 3.9-.104 4.161-3.112.59-.232-5.862 3.122-5.795m1.058.355c-.204.672-4.18 20.581-4.18 20.581" stroke="#000" stroke-linejoin="bevel"/><path d="M32.242 59.161c-1.918-.897-3.143-2.264-3.143-3.795 0-2.702 3.817-4.893 8.525-4.893 4.709 0 8.526 2.19 8.526 4.893s-3.817 4.894-8.526 4.894c-.904 0-1.776-.08-2.594-.23" stroke="#000" stroke-miterlimit="10"/><path d="M37.624 58.925c3.82 0 6.916-1.593 6.916-3.559 0-1.965-3.096-3.558-6.916-3.558-3.82 0-6.917 1.593-6.917 3.558 0 1.966 3.097 3.559 6.917 3.559z" stroke="#000" stroke-miterlimit="10"/><path d="m9.896 12.943 7.768 7.767M65.557 12.943l-7.768 7.767M37.05 1.044v9.748" stroke="#C882FF"/></svg>