<svg width="1079" height="341" fill="none" xmlns="http://www.w3.org/2000/svg"><path d="M109 257.141h75.465c14.148 0 27.717-4.817 37.721-13.391 10.004-8.575 15.624-20.204 15.624-32.329v-31.059c0-12.126 5.62-23.755 15.624-32.329 10.005-8.574 23.573-13.391 37.721-13.391H459.03c14.148 0 27.716 4.817 37.72 13.391 10.004 8.574 15.625 20.203 15.625 32.329v32.918c0 12.126 5.62 23.755 15.624 32.329 10.004 8.574 23.573 13.391 37.72 13.391H735.02c14.148 0 27.717-4.817 37.721-13.391 10.004-8.574 15.624-20.203 15.624-32.329v-35.56c0-12.126 5.62-23.755 15.624-32.329C813.993 136.817 827.562 132 841.71 132H943" stroke="#000" stroke-width=".86" stroke-miterlimit="10" stroke-linecap="round" stroke-dasharray="4.28 4.28"/><path class="dot1" d="M95 272c7.732 0 14-6.268 14-14s-6.268-14-14-14-14 6.268-14 14 6.268 14 14 14z" fill="#fff" stroke="#000" stroke-width="4.21" stroke-miterlimit="10" stroke-linecap="round"/><path class="dot2" d="M383 148c7.732 0 14-6.268 14-14s-6.268-14-14-14-14 6.268-14 14 6.268 14 14 14z" fill="#fff" stroke="#000" stroke-width="4.21" stroke-miterlimit="10" stroke-linecap="round"/><path class="dot3" d="M658 271c7.732 0 14-6.268 14-14s-6.268-14-14-14-14 6.268-14 14 6.268 14 14 14z" fill="#fff" stroke="#000" stroke-width="4.21" stroke-miterlimit="10" stroke-linecap="round"/><path class="dot4" d="M958 147c7.732 0 14-6.268 14-14s-6.268-14-14-14-14 6.268-14 14 6.268 14 14 14z" fill="#fff" stroke="#000" stroke-width="4.21" stroke-miterlimit="10" stroke-linecap="round"/><path d="M7.546 303.66c4.51 0 6.952-3.344 6.952-8.492 0-5.126-2.42-8.448-6.952-8.448-4.444 0-6.886 3.322-6.886 8.47 0 5.104 2.442 8.47 6.886 8.47zm.044-2.838c-2.354 0-3.608-1.914-3.608-5.632 0-3.74 1.254-5.632 3.608-5.632 2.376 0 3.564 1.914 3.564 5.61 0 3.74-1.188 5.654-3.564 5.654zm16.884 2.618v-2.464h-1.826v-6.16h1.409v2.09h2.552v-4.642H15.585v4.642h2.553v-2.09h1.408v6.16H17.72v2.464h6.753zm9.263-2.464h-1.254v-6.16h2.662v8.624h4.686v-2.464h-1.584v-6.226h1.584v-2.486H27.797v2.486h1.584v6.226h-1.584v2.464h5.94v-2.464zm14.327-.132c-1.188 0-2.134-.748-2.134-2.706v-.704c0-1.848.968-2.574 2.156-2.574 1.144 0 2.156.792 2.156 2.948 0 2.266-1.012 3.036-2.178 3.036zm-.374 8.096v-2.464h-1.76v-2.816l-.11-1.738h.154c.616 1.078 1.606 1.738 3.102 1.738 2.728 0 4.378-2.398 4.378-5.918 0-3.344-1.628-5.698-4.312-5.698-1.606 0-2.64.77-3.168 1.782h-.154v-1.562h-4.598v2.486h1.584v11.726h-1.584v2.464h6.468zm11.322-8.03c-.748 0-1.166-.396-1.166-.946 0-.968.77-1.452 3.058-1.452v.308c0 1.408-.858 2.09-1.892 2.09zm1.87.792h.132v1.738h4.598v-2.464h-1.584v-4.708c0-2.728-1.496-4.224-4.84-4.224-1.364 0-2.706.264-3.762.836v2.838a6.412 6.412 0 0 1 3.366-.946c1.496 0 2.112.506 2.112 1.452v.264c-4.312 0-6.27 1.32-6.27 4.004 0 1.87 1.188 3.168 3.19 3.168 1.716 0 2.442-.902 3.058-1.958zm5.887 1.738h6.248c3.3 0 4.335-1.452 4.335-3.146 0-1.452-.859-2.398-2.288-2.618v-.154c1.188-.264 1.958-1.056 1.958-2.42 0-1.694-1.21-2.838-4.313-2.838h-5.94v2.486h1.584v6.226H66.77v2.464zm4.686-6.776v-2.222h.859c.968 0 1.474.418 1.474 1.056 0 .704-.418 1.166-1.474 1.166h-.858zm0 4.62v-2.486h1.123c.945 0 1.561.418 1.561 1.254 0 .792-.593 1.232-1.561 1.232h-1.123zm7.346 2.156h5.72c3.344 0 4.796-1.628 4.796-3.718 0-2.024-1.452-3.542-4.796-3.542h-1.034v-1.43h1.606v-2.486H78.8v2.486h1.584v6.226H78.8v2.464zm4.686-2.42v-2.42h.968c1.166 0 1.628.506 1.628 1.21s-.462 1.21-1.628 1.21h-.968zm16.689 2.64c3.168 0 4.554-1.474 4.554-3.432 0-1.32-.836-2.244-2.112-2.574v-.154c1.32-.462 1.804-1.452 1.804-2.42 0-1.716-1.232-3.036-4.29-3.036-1.254 0-2.552.22-3.498.616v3.366h2.464v-1.452c.286-.022.594-.044.858-.044.858 0 1.408.352 1.408 1.012 0 .638-.374 1.034-1.21 1.034h-1.408v2.398h1.474c1.034 0 1.452.396 1.452 1.078 0 .77-.55 1.144-1.672 1.144-1.21 0-2.31-.286-3.41-.99v2.684c.99.572 2.508.77 3.586.77zm10.398-2.75c-.748 0-1.166-.396-1.166-.946 0-.968.77-1.452 3.058-1.452v.308c0 1.408-.858 2.09-1.892 2.09zm1.87.792h.132v1.738h4.598v-2.464h-1.584v-4.708c0-2.728-1.496-4.224-4.84-4.224-1.364 0-2.706.264-3.762.836v2.838a6.412 6.412 0 0 1 3.366-.946c1.496 0 2.112.506 2.112 1.452v.264c-4.312 0-6.27 1.32-6.27 4.004 0 1.87 1.188 3.168 3.19 3.168 1.716 0 2.442-.902 3.058-1.958zm10.992-4.356c-1.1 0-1.628-.638-1.628-1.298 0-.682.528-1.342 1.628-1.342h1.012v2.64h-1.012zm-2.178 6.094 2.464-3.828h.726v1.364h-.858v2.464h5.566v-2.464h-1.584v-6.226h1.584v-2.486h-6.182c-3.212 0-4.378 1.892-4.378 3.608 0 1.452.792 2.486 2.178 2.992l-1.386 2.112h-1.232v2.464h3.102zm9.385 0h6.248c3.3 0 4.334-1.452 4.334-3.146 0-1.452-.858-2.398-2.288-2.618v-.154c1.188-.264 1.958-1.056 1.958-2.42 0-1.694-1.21-2.838-4.312-2.838h-5.94v2.486h1.584v6.226h-1.584v2.464zm4.686-6.776v-2.222h.858c.968 0 1.474.418 1.474 1.056 0 .704-.418 1.166-1.474 1.166h-.858zm0 4.62v-2.486h1.122c.946 0 1.562.418 1.562 1.254 0 .792-.594 1.232-1.562 1.232h-1.122zm13.241-.308h-1.21v-1.87l.814-.154 3.08 4.488h3.234v-2.464h-1.144l-2.596-3.696 2.09-2.53h1.364v-2.486h-5.39v2.486h.858l-1.518 1.87-.792.154v-4.51h-4.686v2.486h1.584v6.226h-1.584v2.464h5.896v-2.464zm14.013 7.964v-2.464h-1.254l4.202-11.726h1.122v-2.486h-5.082v2.486h1.056l-1.606 4.708h-.132l-2.53-7.194h-3.454v2.486h1.144l3.366 8.91-1.012 2.816h-1.672v2.464h5.852zM334.96 187.814h6.864c3.982 0 5.83-2.178 5.83-4.752 0-2.024-1.21-3.322-3.014-3.806v-.154c1.408-.528 2.398-1.716 2.398-3.542 0-2.486-1.738-4.246-5.544-4.246h-6.534v2.662h1.914v11.176h-1.914v2.662zm5.148-9.768v-3.938h1.21c1.364 0 2.42.44 2.42 1.87 0 1.43-1.078 2.068-2.42 2.068h-1.21zm0 6.974v-4.18h1.474c1.43 0 2.772.484 2.772 2.112 0 1.562-1.21 2.068-2.728 2.068h-1.518zm20.164 2.794h4.708v-2.464h-1.606v-6.226h1.606v-2.486h-6.292v2.486h1.584v8.69zm-11.242 0h5.72c3.344 0 4.796-1.628 4.796-3.718 0-2.024-1.452-3.542-4.796-3.542h-1.034v-1.43h1.606v-2.486h-6.292v2.486h1.584v6.226h-1.584v2.464zm4.686-2.42v-2.42h.968c1.166 0 1.628.506 1.628 1.21s-.462 1.21-1.628 1.21h-.968zm18.677-.044h-1.254v-6.16h2.662v8.624h4.686v-2.464h-1.584v-6.226h1.584v-2.486h-12.034v2.486h1.584v6.226h-1.584v2.464h5.94v-2.464zm12.942 2.684c3.058 0 5.412-2.112 5.412-5.786 0-3.674-2.398-5.83-5.412-5.83-3.036 0-5.39 2.178-5.39 5.852 0 3.674 2.354 5.764 5.39 5.764zm0-2.816c-1.21 0-2.156-.814-2.156-2.948 0-2.2.946-3.036 2.156-3.036 1.21 0 2.2.836 2.2 3.014 0 2.156-.968 2.97-2.2 2.97zm11.372-5.852h1.848v8.448h4.686v-2.464h-1.584v-6.226h1.584v-2.486h-10.758v2.486h1.54c-.132 4.268-.616 5.984-1.936 5.984-.264 0-.528-.066-.528-.066v2.838s.418.132 1.078.132c3.454 0 4.004-3.762 4.07-8.646zm13.972 5.984h-1.254v-2.002h2.882v4.466h4.686v-2.464h-1.584v-6.226h1.584v-2.486h-5.94v2.486h1.254v1.65h-2.882v-4.136h-4.686v2.486h1.584v6.226h-1.584v2.464h5.94v-2.464zm7.81 2.464h4.422l3.784-6.556h.154v4.092h-1.386v2.464h5.94v-2.464h-1.584v-6.226h1.584v-2.486h-4.444l-3.784 6.578h-.132v-4.092h1.386v-2.486h-5.94v2.486h1.584v6.226h-1.584v2.464zm-100.658 28v-2.464h-1.826v-6.16h1.408v2.09h2.552v-4.642h-11.022v4.642h2.552v-2.09h1.408v6.16h-1.826v2.464h6.754zm9.043.22c1.496 0 2.838-.33 3.586-.836v-2.706c-.924.594-2.134.814-3.124.814-1.848 0-2.706-.88-2.772-2.31h6.116c.11-.308.242-1.1.242-1.98 0-3.058-1.914-4.598-4.686-4.598-3.146 0-5.126 2.222-5.126 5.852 0 3.872 2.112 5.764 5.764 5.764zm-2.42-7.216c.11-1.166.616-1.914 1.716-1.914 1.078 0 1.584.704 1.628 1.914h-3.344zm16.67 6.49v-2.948c-.77.638-1.892.858-2.794.858-1.694 0-2.772-.924-2.772-3.014 0-1.936.968-2.992 2.552-2.992.154 0 .308 0 .462.022v1.892h2.552v-4.07h-.044c-.704-.33-1.804-.638-3.124-.638-3.41 0-5.632 2.222-5.632 5.852 0 3.586 2.024 5.764 5.698 5.764 1.364 0 2.508-.286 3.102-.726zm10.266.506v-2.464h-1.826v-6.16h1.408v2.09h2.552v-4.642h-11.022v4.642h2.552v-2.09h1.408v6.16h-1.826v2.464h6.754zm3.322 0h4.422l3.784-6.556h.154v4.092h-1.386v2.464h5.94v-2.464h-1.584v-6.226h1.584v-2.486h-4.444l-3.784 6.578h-.132v-4.092h1.386v-2.486h-5.94v2.486h1.584v6.226h-1.584v2.464zm21.148-2.596c-1.188 0-2.134-.748-2.134-2.706v-.704c0-1.848.968-2.574 2.156-2.574 1.144 0 2.156.792 2.156 2.948 0 2.266-1.012 3.036-2.178 3.036zm-.374 8.096v-2.464h-1.76v-2.816l-.11-1.738h.154c.616 1.078 1.606 1.738 3.102 1.738 2.728 0 4.378-2.398 4.378-5.918 0-3.344-1.628-5.698-4.312-5.698-1.606 0-2.64.77-3.168 1.782h-.154v-1.562h-4.598v2.486h1.584v11.726h-1.584v2.464h6.468zm12.588-5.28c3.058 0 5.412-2.112 5.412-5.786 0-3.674-2.398-5.83-5.412-5.83-3.036 0-5.39 2.178-5.39 5.852 0 3.674 2.354 5.764 5.39 5.764zm0-2.816c-1.21 0-2.156-.814-2.156-2.948 0-2.2.946-3.036 2.156-3.036 1.21 0 2.2.836 2.2 3.014 0 2.156-.968 2.97-2.2 2.97zm6.857 2.596h6.248c3.3 0 4.334-1.452 4.334-3.146 0-1.452-.858-2.398-2.288-2.618v-.154c1.188-.264 1.958-1.056 1.958-2.42 0-1.694-1.21-2.838-4.312-2.838h-5.94v2.486h1.584v6.226h-1.584v2.464zm4.686-6.776v-2.222h.858c.968 0 1.474.418 1.474 1.056 0 .704-.418 1.166-1.474 1.166h-.858zm0 4.62v-2.486h1.122c.946 0 1.562.418 1.562 1.254 0 .792-.594 1.232-1.562 1.232h-1.122zm11.748-.374c-.748 0-1.166-.396-1.166-.946 0-.968.77-1.452 3.058-1.452v.308c0 1.408-.858 2.09-1.892 2.09zm1.87.792h.132v1.738h4.598v-2.464h-1.584v-4.708c0-2.728-1.496-4.224-4.84-4.224-1.364 0-2.706.264-3.762.836v2.838a6.412 6.412 0 0 1 3.366-.946c1.496 0 2.112.506 2.112 1.452v.264c-4.312 0-6.27 1.32-6.27 4.004 0 1.87 1.188 3.168 3.19 3.168 1.716 0 2.442-.902 3.058-1.958zm11.827-.726h-1.254v-2.002h2.882v4.466h4.686v-2.464h-1.584v-6.226h1.584v-2.486h-5.94v2.486h1.254v1.65h-2.882v-4.136h-4.686v2.486h1.584v6.226h-1.584v2.464h5.94v-2.464zm7.81 2.464h4.422l3.784-6.556h.154v4.092h-1.386v2.464h5.94v-2.464h-1.584v-6.226h1.584v-2.486h-4.444l-3.784 6.578h-.132v-4.092h1.386v-2.486h-5.94v2.486h1.584v6.226h-1.584v2.464zm20.136.22c1.496 0 2.838-.33 3.586-.836v-2.706c-.924.594-2.134.814-3.124.814-1.848 0-2.706-.88-2.772-2.31h6.116c.11-.308.242-1.1.242-1.98 0-3.058-1.914-4.598-4.686-4.598-3.146 0-5.126 2.222-5.126 5.852 0 3.872 2.112 5.764 5.764 5.764zm-2.42-7.216c.11-1.166.616-1.914 1.716-1.914 1.078 0 1.584.704 1.628 1.914h-3.344zM624.917 304.778h-1.936v-10.912h4.576v13.574h5.148v-2.662h-1.914v-11.176h1.914v-2.662h-14.872v2.662h1.914v11.176h-1.914v2.662h7.084v-2.662zm16.124.066c-1.188 0-2.134-.748-2.134-2.706v-.704c0-1.848.968-2.574 2.156-2.574 1.144 0 2.156.792 2.156 2.948 0 2.266-1.012 3.036-2.178 3.036zm-.374 8.096v-2.464h-1.76v-2.816l-.11-1.738h.154c.616 1.078 1.606 1.738 3.102 1.738 2.728 0 4.378-2.398 4.378-5.918 0-3.344-1.628-5.698-4.312-5.698-1.606 0-2.64.77-3.168 1.782h-.154v-1.562h-4.598v2.486h1.584v11.726h-1.584v2.464h6.468zm12.587-5.28c3.058 0 5.412-2.112 5.412-5.786 0-3.674-2.398-5.83-5.412-5.83-3.036 0-5.39 2.178-5.39 5.852 0 3.674 2.354 5.764 5.39 5.764zm0-2.816c-1.21 0-2.156-.814-2.156-2.948 0-2.2.946-3.036 2.156-3.036 1.21 0 2.2.836 2.2 3.014 0 2.156-.968 2.97-2.2 2.97zm6.857 2.596h4.422l3.784-6.556h.154v4.092h-1.386v2.464h5.94v-2.464h-1.584v-6.226h1.584v-2.486h-4.444l-3.784 6.578h-.132v-4.092h1.386v-2.486h-5.94v2.486h1.584v6.226h-1.584v2.464zm6.446-12.122c1.892 0 3.828-.814 3.828-3.542h-2.684c0 .814-.308 1.32-1.144 1.32-.88 0-1.144-.506-1.144-1.32h-2.684c0 2.706 1.914 3.542 3.828 3.542zm11.336 9.57c.946-1.342 1.232-4.598 1.254-6.05h2.178v6.05h-3.432zm-.946 2.552h6.138l.22 2.904h2.794v-5.456h-1.65v-6.138h1.584v-2.486h-11.022v2.486h1.518c-.176 2.838-.616 5.082-1.65 6.138h-.946v5.456h2.794l.22-2.904zm10.621 0h4.422l3.784-6.556h.154v4.092h-1.386v2.464h5.94v-2.464h-1.584v-6.226h1.584v-2.486h-4.444l-3.784 6.578h-.132v-4.092h1.386v-2.486h-5.94v2.486h1.584v6.226h-1.584v2.464zm-138.405 28v-2.464h-1.826v-6.16h1.408v2.09h2.552v-4.642h-11.022v4.642h2.552v-2.09h1.408v6.16h-1.826v2.464h6.754zm9.042.22c1.496 0 2.838-.33 3.586-.836v-2.706c-.924.594-2.134.814-3.124.814-1.848 0-2.706-.88-2.772-2.31h6.116c.11-.308.242-1.1.242-1.98 0-3.058-1.914-4.598-4.686-4.598-3.146 0-5.126 2.222-5.126 5.852 0 3.872 2.112 5.764 5.764 5.764zm-2.42-7.216c.11-1.166.616-1.914 1.716-1.914 1.078 0 1.584.704 1.628 1.914h-3.344zm12.645-1.452h1.848v8.448h4.686v-2.464h-1.584v-6.226h1.584v-2.486h-10.758v2.486h1.54c-.132 4.268-.616 5.984-1.936 5.984-.264 0-.528-.066-.528-.066v2.838s.418.132 1.078.132c3.454 0 4.004-3.762 4.07-8.646zm13.752 8.668c1.496 0 2.838-.33 3.586-.836v-2.706c-.924.594-2.134.814-3.124.814-1.848 0-2.706-.88-2.772-2.31h6.116c.11-.308.242-1.1.242-1.98 0-3.058-1.914-4.598-4.686-4.598-3.146 0-5.126 2.222-5.126 5.852 0 3.872 2.112 5.764 5.764 5.764zm-2.42-7.216c.11-1.166.616-1.914 1.716-1.914 1.078 0 1.584.704 1.628 1.914h-3.344zm18.475 12.496v-2.464h-1.804v-2.86c3.696-.176 5.764-2.53 5.764-5.808 0-3.256-2.09-5.522-5.764-5.698v-5.346h-4.708v2.486h1.606v2.838c-3.718.176-5.764 2.53-5.764 5.808 0 3.256 2.068 5.522 5.764 5.698v2.882h-1.826v2.464h6.732zm-1.804-7.986v-6.182c1.54.066 2.552 1.276 2.552 3.036 0 1.804-.99 3.058-2.552 3.146zm-3.102 0c-1.562-.088-2.552-1.276-2.552-3.058 0-1.782.968-3.058 2.552-3.124v6.182zm15.569 2.706c3.058 0 5.412-2.112 5.412-5.786 0-3.674-2.398-5.83-5.412-5.83-3.036 0-5.39 2.178-5.39 5.852 0 3.674 2.354 5.764 5.39 5.764zm0-2.816c-1.21 0-2.156-.814-2.156-2.948 0-2.2.946-3.036 2.156-3.036 1.21 0 2.2.836 2.2 3.014 0 2.156-.968 2.97-2.2 2.97zm12.797.132h-1.254v-2.002h2.882v4.466h4.686v-2.464h-1.584v-6.226h1.584v-2.486h-5.94v2.486h1.254v1.65h-2.882v-4.136h-4.686v2.486h1.584v6.226h-1.584v2.464h5.94v-2.464zm13.75 0h-1.254v-2.002h2.882v4.466h4.686v-2.464h-1.584v-6.226h1.584v-2.486h-5.94v2.486h1.254v1.65h-2.882v-4.136h-4.686v2.486h1.584v6.226h-1.584v2.464h5.94v-2.464zm13.156 2.684c3.058 0 5.412-2.112 5.412-5.786 0-3.674-2.398-5.83-5.412-5.83-3.036 0-5.39 2.178-5.39 5.852 0 3.674 2.354 5.764 5.39 5.764zm0-2.816c-1.21 0-2.156-.814-2.156-2.948 0-2.2.946-3.036 2.156-3.036 1.21 0 2.2.836 2.2 3.014 0 2.156-.968 2.97-2.2 2.97zm12.577 2.816c1.496 0 2.838-.33 3.586-.836v-2.706c-.924.594-2.134.814-3.124.814-1.848 0-2.706-.88-2.772-2.31h6.116c.11-.308.242-1.1.242-1.98 0-3.058-1.914-4.598-4.686-4.598-3.146 0-5.126 2.222-5.126 5.852 0 3.872 2.112 5.764 5.764 5.764zm-2.42-7.216c.11-1.166.616-1.914 1.716-1.914 1.078 0 1.584.704 1.628 1.914h-3.344zm14.016 6.996h4.422l3.784-6.556h.154v4.092h-1.386v2.464h5.94v-2.464h-1.584v-6.226h1.584v-2.486h-4.444l-3.784 6.578h-.132v-4.092h1.386v-2.486h-5.94v2.486h1.584v6.226h-1.584v2.464zm20.356-2.464h-1.254v-2.002h2.882v4.466h4.686v-2.464h-1.584v-6.226h1.584v-2.486h-5.94v2.486h1.254v1.65h-2.882v-4.136h-4.686v2.486h1.584v6.226h-1.584v2.464h5.94v-2.464zm16.39 2.464v-2.464h-1.826v-6.16h1.408v2.09h2.552v-4.642h-11.022v4.642h2.552v-2.09h1.408v6.16h-1.826v2.464h6.754zm9.043.22c1.496 0 2.838-.33 3.586-.836v-2.706c-.924.594-2.134.814-3.124.814-1.848 0-2.706-.88-2.772-2.31h6.116c.11-.308.242-1.1.242-1.98 0-3.058-1.914-4.598-4.686-4.598-3.146 0-5.126 2.222-5.126 5.852 0 3.872 2.112 5.764 5.764 5.764zm-2.42-7.216c.11-1.166.616-1.914 1.716-1.914 1.078 0 1.584.704 1.628 1.914h-3.344zm14.647 4.4c-1.188 0-2.134-.748-2.134-2.706v-.704c0-1.848.968-2.574 2.156-2.574 1.144 0 2.156.792 2.156 2.948 0 2.266-1.012 3.036-2.178 3.036zm-.374 8.096v-2.464h-1.76v-2.816l-.11-1.738h.154c.616 1.078 1.606 1.738 3.102 1.738 2.728 0 4.378-2.398 4.378-5.918 0-3.344-1.628-5.698-4.312-5.698-1.606 0-2.64.77-3.168 1.782h-.154v-1.562h-4.598v2.486h1.584v11.726h-1.584v2.464h6.468zm7.241-5.5h6.248c3.3 0 4.334-1.452 4.334-3.146 0-1.452-.858-2.398-2.288-2.618v-.154c1.188-.264 1.958-1.056 1.958-2.42 0-1.694-1.21-2.838-4.312-2.838h-5.94v2.486h1.584v6.226h-1.584v2.464zm4.686-6.776v-2.222h.858c.968 0 1.474.418 1.474 1.056 0 .704-.418 1.166-1.474 1.166h-.858zm0 4.62v-2.486h1.122c.946 0 1.562.418 1.562 1.254 0 .792-.594 1.232-1.562 1.232h-1.122zm7.345 2.156h5.72c3.344 0 4.796-1.628 4.796-3.718 0-2.024-1.452-3.542-4.796-3.542h-1.034v-1.43h1.606v-2.486h-6.292v2.486h1.584v6.226h-1.584v2.464zm4.686-2.42v-2.42h.968c1.166 0 1.628.506 1.628 1.21s-.462 1.21-1.628 1.21h-.968zm18.068 2.64c2.948 0 5.236-2.112 5.236-5.786 0-3.674-2.332-5.83-5.236-5.83-2.552 0-4.576 1.606-5.104 4.378h-1.276v-4.158h-4.686v2.486h1.584v6.226h-1.584v2.464h5.72v-2.464h-1.034v-2.002h1.21c.396 2.992 2.508 4.686 5.17 4.686zm0-2.816c-1.144 0-2.002-.814-2.002-2.948 0-2.2.858-3.036 2.002-3.036 1.1 0 2.024.836 2.024 3.014 0 2.156-.902 2.97-2.024 2.97zM894.266 185.152h-1.936V174.24h4.576v13.574h5.148v-2.662h-1.914v-11.176h1.914v-2.662h-14.872v2.662h1.914v11.176h-1.914v2.662h7.084v-2.662zm16.124.066c-1.188 0-2.134-.748-2.134-2.706v-.704c0-1.848.968-2.574 2.156-2.574 1.144 0 2.156.792 2.156 2.948 0 2.266-1.012 3.036-2.178 3.036zm-.374 8.096v-2.464h-1.76v-2.816l-.11-1.738h.154c.616 1.078 1.606 1.738 3.102 1.738 2.728 0 4.378-2.398 4.378-5.918 0-3.344-1.628-5.698-4.312-5.698-1.606 0-2.64.77-3.168 1.782h-.154v-1.562h-4.598v2.486h1.584v11.726h-1.584v2.464h6.468zm12.587-5.28c3.058 0 5.412-2.112 5.412-5.786 0-3.674-2.398-5.83-5.412-5.83-3.036 0-5.39 2.178-5.39 5.852 0 3.674 2.354 5.764 5.39 5.764zm0-2.816c-1.21 0-2.156-.814-2.156-2.948 0-2.2.946-3.036 2.156-3.036 1.21 0 2.2.836 2.2 3.014 0 2.156-.968 2.97-2.2 2.97zm11.747-3.498c-1.1 0-1.628-.638-1.628-1.298 0-.682.528-1.342 1.628-1.342h1.012v2.64h-1.012zm-2.178 6.094 2.464-3.828h.726v1.364h-.858v2.464h5.566v-2.464h-1.584v-6.226h1.584v-2.486h-6.182c-3.212 0-4.378 1.892-4.378 3.608 0 1.452.792 2.486 2.178 2.992l-1.386 2.112h-1.232v2.464h3.102zm9.384 0h6.248c3.3 0 4.334-1.452 4.334-3.146 0-1.452-.858-2.398-2.288-2.618v-.154c1.188-.264 1.958-1.056 1.958-2.42 0-1.694-1.21-2.838-4.312-2.838h-5.94v2.486h1.584v6.226h-1.584v2.464zm4.686-6.776v-2.222h.858c.968 0 1.474.418 1.474 1.056 0 .704-.418 1.166-1.474 1.166h-.858zm0 4.62v-2.486h1.122c.946 0 1.562.418 1.562 1.254 0 .792-.594 1.232-1.562 1.232h-1.122zm7.345 2.156h4.422l3.784-6.556h.154v4.092h-1.386v2.464h5.94v-2.464h-1.584v-6.226h1.584v-2.486h-4.444l-3.784 6.578h-.132v-4.092h1.386v-2.486h-5.94v2.486h1.584v6.226h-1.584v2.464zm29.274-.506v-2.948c-.77.638-1.892.858-2.794.858-1.694 0-2.772-.924-2.772-3.014 0-1.936.968-2.992 2.552-2.992.154 0 .308 0 .462.022v1.892h2.552v-4.07h-.044c-.704-.33-1.804-.638-3.124-.638-3.41 0-5.632 2.222-5.632 5.852 0 3.586 2.024 5.764 5.698 5.764 1.364 0 2.508-.286 3.102-.726zm7.191.726c1.496 0 2.838-.33 3.586-.836v-2.706c-.924.594-2.134.814-3.124.814-1.848 0-2.706-.88-2.772-2.31h6.116c.11-.308.242-1.1.242-1.98 0-3.058-1.914-4.598-4.686-4.598-3.146 0-5.126 2.222-5.126 5.852 0 3.872 2.112 5.764 5.764 5.764zm-2.42-7.216c.11-1.166.616-1.914 1.716-1.914 1.078 0 1.584.704 1.628 1.914h-3.344zm13.258 7.216c3.39 0 5.63-2.288 5.63-5.786 0-3.234-1.91-5.478-4.62-5.478-2.02 0-3.032 1.188-3.384 2.068h-.154c.242-2.97 1.32-4.07 4.308-4.29 1.19-.088 2.56-.132 3.15-.264v-3.85h-2.55v1.232c-.27.022-.53.044-.77.044-4.886.33-6.932 2.816-6.932 8.756 0 6.028 2.486 7.568 5.322 7.568zm.13-2.816c-1.272 0-2.218-.902-2.218-2.86 0-1.958.924-2.794 2.248-2.794 1.29 0 2.24.814 2.24 2.772 0 1.958-.95 2.882-2.27 2.882zm11.86-3.498c-1.1 0-1.63-.638-1.63-1.298 0-.682.53-1.342 1.63-1.342h1.01v2.64h-1.01zm-2.18 6.094 2.46-3.828h.73v1.364h-.86v2.464h5.57v-2.464h-1.59v-6.226h1.59v-2.486h-6.19c-3.21 0-4.37 1.892-4.37 3.608 0 1.452.79 2.486 2.17 2.992l-1.38 2.112h-1.23v2.464h3.1zM852.525 213.35h-1.254v-2.002h2.882v4.466h4.686v-2.464h-1.584v-6.226h1.584v-2.486h-5.94v2.486h1.254v1.65h-2.882v-4.136h-4.686v2.486h1.584v6.226h-1.584v2.464h5.94v-2.464zm12.32-.066c-.748 0-1.166-.396-1.166-.946 0-.968.77-1.452 3.058-1.452v.308c0 1.408-.858 2.09-1.892 2.09zm1.87.792h.132v1.738h4.598v-2.464h-1.584v-4.708c0-2.728-1.496-4.224-4.84-4.224-1.364 0-2.706.264-3.762.836v2.838a6.412 6.412 0 0 1 3.366-.946c1.496 0 2.112.506 2.112 1.452v.264c-4.312 0-6.27 1.32-6.27 4.004 0 1.87 1.188 3.168 3.19 3.168 1.716 0 2.442-.902 3.058-1.958zm17.335 1.958c3.058 0 5.412-2.112 5.412-5.786 0-3.674-2.398-5.83-5.412-5.83-3.036 0-5.39 2.178-5.39 5.852 0 3.674 2.354 5.764 5.39 5.764zm0-2.816c-1.21 0-2.156-.814-2.156-2.948 0-2.2.946-3.036 2.156-3.036 1.21 0 2.2.836 2.2 3.014 0 2.156-.968 2.97-2.2 2.97zm18.307 2.596v-2.464h-1.584v-6.226h1.584v-2.486h-6.138v2.486h1.43v1.716a3.252 3.252 0 0 1-1.364.308c-.968 0-1.43-.462-1.43-1.628v-2.882h-4.708v2.486h1.584v.506c0 2.706 1.276 4.092 3.96 4.092.836 0 1.496-.176 1.958-.374v2.002h-1.804v2.464h6.512zm7.423-2.464h-1.254v-2.002h2.882v4.466h4.686v-2.464h-1.584v-6.226h1.584v-2.486h-5.94v2.486h1.254v1.65h-2.882v-4.136h-4.686v2.486h1.584v6.226h-1.584v2.464h5.94v-2.464zm13.156 2.684c3.058 0 5.412-2.112 5.412-5.786 0-3.674-2.398-5.83-5.412-5.83-3.036 0-5.39 2.178-5.39 5.852 0 3.674 2.354 5.764 5.39 5.764zm0-2.816c-1.21 0-2.156-.814-2.156-2.948 0-2.2.946-3.036 2.156-3.036 1.21 0 2.2.836 2.2 3.014 0 2.156-.968 2.97-2.2 2.97zm6.858 2.596h4.312v-7.722h.132l2.42 7.722h2.706l2.42-7.722h.132v7.722h4.708v-2.464h-1.584v-6.226h1.584v-2.486h-6.116l-2.178 7.128h-.154l-2.134-7.128h-6.248v2.486h1.584v6.226h-1.584v2.464zm24.427 0h4.422l3.784-6.556h.154v4.092h-1.386v2.464h5.94v-2.464h-1.584v-6.226h1.584v-2.486h-4.444l-3.784 6.578h-.132v-4.092h1.386v-2.486h-5.94v2.486h1.584v6.226h-1.584v2.464zm20.356-2.464h-1.254v-2.002h2.882v4.466h4.686v-2.464h-1.584v-6.226h1.584v-2.486h-5.94v2.486h1.254v1.65h-2.882v-4.136h-4.686v2.486h1.584v6.226h-1.584v2.464h5.94v-2.464zm16.39 2.464v-2.464h-1.826v-6.16h1.408v2.09h2.552v-4.642h-11.022v4.642h2.552v-2.09h1.408v6.16h-1.826v2.464h6.754zm9.043.22c1.5 0 2.84-.33 3.59-.836v-2.706c-.93.594-2.14.814-3.13.814-1.846 0-2.704-.88-2.77-2.31h6.12c.11-.308.24-1.1.24-1.98 0-3.058-1.92-4.598-4.688-4.598-3.146 0-5.126 2.222-5.126 5.852 0 3.872 2.112 5.764 5.764 5.764zm-2.42-7.216c.11-1.166.616-1.914 1.716-1.914 1.074 0 1.584.704 1.624 1.914h-3.34zm14.65 4.4c-1.19 0-2.14-.748-2.14-2.706v-.704c0-1.848.97-2.574 2.16-2.574 1.14 0 2.15.792 2.15 2.948 0 2.266-1.01 3.036-2.17 3.036zm-.38 8.096v-2.464h-1.76v-2.816l-.11-1.738h.16c.61 1.078 1.6 1.738 3.1 1.738 2.73 0 4.38-2.398 4.38-5.918 0-3.344-1.63-5.698-4.32-5.698-1.6 0-2.64.77-3.16 1.782h-.16v-1.562h-4.6v2.486h1.59v11.726h-1.59v2.464h6.47zm7.24-5.5h6.25c3.3 0 4.34-1.452 4.34-3.146 0-1.452-.86-2.398-2.29-2.618v-.154c1.19-.264 1.96-1.056 1.96-2.42 0-1.694-1.21-2.838-4.32-2.838h-5.94v2.486h1.59v6.226h-1.59v2.464zm4.69-6.776v-2.222h.86c.97 0 1.47.418 1.47 1.056 0 .704-.42 1.166-1.47 1.166h-.86zm0 4.62v-2.486h1.12c.95 0 1.56.418 1.56 1.254 0 .792-.59 1.232-1.56 1.232h-1.12zm7.35 2.156h5.72c3.34 0 4.79-1.628 4.79-3.718 0-2.024-1.45-3.542-4.79-3.542h-1.04v-1.43h1.61v-2.486h-6.29v2.486h1.58v6.226h-1.58v2.464zm4.68-2.42v-2.42h.97c1.17 0 1.63.506 1.63 1.21s-.46 1.21-1.63 1.21h-.97zm18.07 2.64c2.95 0 5.23-2.112 5.23-5.786 0-3.674-2.33-5.83-5.23-5.83-2.55 0-4.58 1.606-5.11 4.378h-1.27v-4.158h-4.69v2.486h1.59v6.226h-1.59v2.464h5.72v-2.464h-1.03v-2.002h1.21c.39 2.992 2.51 4.686 5.17 4.686zm0-2.816c-1.15 0-2-.814-2-2.948 0-2.2.85-3.036 2-3.036 1.1 0 2.02.836 2.02 3.014 0 2.156-.9 2.97-2.02 2.97z" fill="#000"/><path d="m373.82 61.169-35.174 20.167c-3.997 2.274-5.996 5.471-5.596 8.937.4 3.465 3.088 6.782 7.575 9.353a36.076 36.076 0 0 0 16.308 4.35c5.995.208 11.541-.944 15.498-3.218l35.164-20.206c3.997-2.264 5.996-5.462 5.606-8.937-.39-3.475-3.098-6.792-7.574-9.364" stroke="#000" stroke-linejoin="round"/><path d="m373.823 65.856-35.174 20.168a10.947 10.947 0 0 0-5.266 5.779c.919 2.87 3.447 5.61 7.244 7.784a36.082 36.082 0 0 0 16.308 4.35c5.996.208 11.542-.944 15.499-3.218l35.164-20.167a10.947 10.947 0 0 0 5.266-5.779c-.909-2.87-3.447-5.61-7.234-7.785" stroke="#000" stroke-linejoin="round"/><path fill-rule="evenodd" clip-rule="evenodd" d="m373.852 61.855 3.997 6.136h15.319l8.744-6.106h6.894v8.936c0 3.079-2.098 6.147-6.195 8.5-8.224 4.717-21.544 4.746-29.718 0-4.097-2.353-6.136-5.451-6.096-8.55v-8.936l7.055.02z" fill="#000"/><path d="m367.046 74.972-8.413 4.816 8.413-4.816zm-6.894-28.24 8.353 4.757-8.353-4.757zm49.023 28.091 8.354 4.796-8.354-4.796zM388.331 40v6.802V40zm28.139 6.633-8.454 4.856 8.454-4.856zm11.532 16.155H416.15h11.852zm-39.881 17.496v6.802-6.802zm-27.86-17.406H348.41z" fill="#BE88F8"/><path d="M360.261 62.878H348.41m18.636 12.094-8.413 4.816 8.413-4.816zm-6.894-28.24 8.353 4.757-8.353-4.757zm49.023 28.091 8.354 4.796-8.354-4.796zM388.331 40v6.802V40zm28.139 6.633-8.454 4.856 8.454-4.856zm11.532 16.155H416.15h11.852zm-39.881 17.496v6.802-6.802z" stroke="#BE88F8" stroke-linejoin="round"/><path fill-rule="evenodd" clip-rule="evenodd" d="M372.961 53.474c8.224-4.727 21.534-4.746 29.708-.06 8.174 4.687 8.134 12.333-.09 17.05-8.224 4.716-21.544 4.746-29.718.05-8.174-4.698-8.124-12.323.1-17.04zm13.9 10.923h-8.994v3.614h15.319l.08-14.676h-6.295l-.11 11.062z" fill="#BE88F8"/><path d="m173.233 204.048-.06 7.931-7.694 3.143-6.967-3.289-7.634 3.669-13.288-19.308 13.288-2.832 7.524 10.52 6.709 3.134 8.122-2.968z" fill="#000"/><path d="m180.202 200.496-.06 7.931-7.694 3.144-6.967-3.29-7.634 3.669-13.288-19.307-.129-7.698 13.178 18.393 7.764-3.007 6.708 3.133 8.122-2.968z" fill="#C882FF"/><path d="m165.481 200.234-7.635 3.678-13.287-19.308 36.439 7.932-8.013 3.97 7.505 3.708-8.042 3.319-6.967-3.299z" stroke="#000" stroke-linejoin="bevel"/><path d="m180.202 200.496-.06 7.931-7.694 3.143-6.967-3.289-7.635 3.669-13.287-19.308.029-5.693M180.746 192.186v5.984M172.336 203.62v7.512M165.547 200.7v7.513M157.938 203.834v7.513" stroke="#000" stroke-linejoin="bevel"/><path d="M23 210.642c.044 2.808 2.181 5.53 7.51 7.989 6.485 3.007 15.762 4.784 28.71-.711.305-.128 10.766-5.771 10.766-5.771l52.839-30.564s9.196-5.296 11.225-7.926c3.213-4.165 5.056 1.507 5.624-4.691-2.094 3.767-5.224 3.739-16.849 10.307-25.525 15.687-76.865 42.313-74.754 34.473-13.442 4.976-14.54-4.976-17.56-12.084-3.16 1.422-7.554 6.17-7.51 8.978z" fill="#000"/><path d="M31.006 212.164c.044 2.808 2.181 5.53 7.51 7.99 6.485 3.006 15.762 4.783 28.71-.711.305-.128 10.767-5.772 10.767-5.772l52.838-30.564s9.197-5.296 11.225-7.925c3.213-4.166 1.687-8.8 2.254-14.998-2.094 3.767-.596 5.068-12.221 11.635-25.525 15.688-59.614 33.792-65.176 37.388-13.442 4.976-25.765 4.834-35.776-4.854-.196 2.345-.13 7.811-.13 7.811z" fill="#C882FF"/><path d="M132.468 171.614c20.596-10.207 9.451-19.76 2.479-21.935-8.492-2.651-19.411-2.509-28.869 2.95l-1.665.931c-21.272 11.956-24.951 13.804-48.186 26.911l-1.178.654c-14.278 7.548-35.492 19.632-16.503 28.446 6.485 3.006 15.762 4.783 28.71-.711.305-.128 10.767-5.764 10.767-5.764l52.838-30.565 1.607-.917zM133.785 181.487c8.557-4.535 10.963-8.913 10.411-12.531" stroke="#000" stroke-linejoin="round"/><path d="M31.008 212.166c.043 2.807 2.18 5.53 7.51 7.989 6.484 3.007 15.761 4.784 28.709-.711.305-.128 10.767-5.771 10.767-5.771l52.838-30.565M30.984 206.827v6.078M144.293 159.246v10.52" stroke="#000" stroke-linejoin="round"/><path d="m68.32 194.15-3.732-3.07-1.85 1.121-1.199-.996 5.572-3.343 1.209.985-1.861 1.111 3.71 3.06-1.85 1.132zM57.02 197.452a2.777 2.777 0 0 1-.83-1.048 2.017 2.017 0 0 1-.126-1.048c.087-.389.271-.75.536-1.048a4.124 4.124 0 0 1 1.114-.923l.116-.063a6.017 6.017 0 0 1 1.346-.565 5.718 5.718 0 0 1 1.566-.21 4.846 4.846 0 0 1 1.493.23c.49.167.945.419 1.346.745.357.275.639.635.82 1.048.142.33.178.696.105 1.048a2.21 2.21 0 0 1-.537 1.048 4.442 4.442 0 0 1-1.135.922l-.126.073c-.418.24-.862.43-1.325.566a5.61 5.61 0 0 1-1.545.22 5.144 5.144 0 0 1-1.482-.241 4.212 4.212 0 0 1-1.335-.754zm1.294-2.254c0 .325.168.682.651 1.048.382.35.871.561 1.388.598.424.012.842-.093 1.21-.304.174-.094.328-.222.451-.377a.767.767 0 0 0 .2-.441.912.912 0 0 0-.105-.503 2.254 2.254 0 0 0-.515-.566 2.698 2.698 0 0 0-.715-.429 2.114 2.114 0 0 0-1.367-.105 2.882 2.882 0 0 0-.536.22 1.176 1.176 0 0 0-.641.807M101.654 174.113l-4.92-4.045 1.872-1.122 2.775 2.275.105-.063-.589-3.584 1.735-1.038 4.92 4.035-1.872 1.132-2.785-2.295-.095.073.578 3.605-1.724 1.027zM94.75 178.273l-4.93-4.056 2.576-1.54.231-.136c.39-.225.794-.424 1.209-.598.369-.15.753-.259 1.146-.325.291-.059.592-.059.883 0 .24.066.464.176.662.325a.853.853 0 0 1 .368.786 1.446 1.446 0 0 1-.546.807l.063.063a3.589 3.589 0 0 1 1.46-.346c.421-.006.83.135 1.157.398.181.135.323.316.41.524a.838.838 0 0 1 0 .64 2.1 2.1 0 0 1-.557.765c-.373.34-.782.639-1.22.891l-2.911 1.802zm2.26-3.479a.842.842 0 0 0-.694-.178c-.29.039-.57.139-.819.293l-.862.524 1.051.891.862-.514a1.55 1.55 0 0 0 .6-.555.387.387 0 0 0-.127-.493l-.01.032zm-3.69-1.331-.661.388.977.807.663-.388c.254-.122.463-.319.599-.566a.398.398 0 0 0-.137-.44.753.753 0 0 0-.6-.136c-.275.045-.54.144-.777.293h-.063M85.844 179.992c.232-.379.53-.713.883-.985.538-.441 1.111-.837 1.714-1.184l-.221-.178a1.048 1.048 0 0 0-.788-.231 2.359 2.359 0 0 0-.968.346l-.105.063a6.662 6.662 0 0 0-1.05.776 3.918 3.918 0 0 0-.737.89l-1.209-.985c.226-.34.503-.644.82-.901a10.46 10.46 0 0 1 1.21-.849l.157-.084a5.463 5.463 0 0 1 2.512-.838 3.155 3.155 0 0 1 2.103.712l3.154 2.599-1.809 1.048-.757-.628-.094.063c.016.149.016.3 0 .45a.95.95 0 0 1-.105.461 2 2 0 0 1-.358.472 2.843 2.843 0 0 1-.651.482h-.074a3.39 3.39 0 0 1-1.734.492 2.408 2.408 0 0 1-1.546-.544 1.45 1.45 0 0 1-.505-.703c-.031-.258.024-.52.158-.744zm1.998-.513c-.242.272-.253.503 0 .702a.844.844 0 0 0 .588.178c.255-.004.502-.081.715-.22.141-.081.27-.183.379-.304a.824.824 0 0 0 .2-.377.719.719 0 0 0 0-.419 1.044 1.044 0 0 0-.337-.409l-.179-.147c-.5.287-.96.64-1.366 1.048M82.64 188.984l-7.359-6.026 1.808-1.048.684.566.094-.063c-.05-.311.01-.629.168-.901.256-.396.621-.709 1.052-.901l.094-.063a3.92 3.92 0 0 1 1.188-.451 4.087 4.087 0 0 1 1.377-.073c.457.035.904.145 1.325.325.435.177.84.421 1.198.723.347.27.643.6.873.974.18.302.277.645.284.996a1.727 1.727 0 0 1-.316.954 2.929 2.929 0 0 1-.935.827l-.105.063c-.388.227-.81.386-1.251.472a3.568 3.568 0 0 1-1.335 0H81.4l.83.587 2.323 1.907-1.913 1.132zm-3.606-5.785c.093.199.234.372.41.503l.305.252c.364.32.829.506 1.314.524a2.4 2.4 0 0 0 1.177-.325c.167-.097.316-.221.442-.367a.804.804 0 0 0 .21-.451.774.774 0 0 0-.126-.524 1.823 1.823 0 0 0-.515-.597 2.897 2.897 0 0 0-.694-.419 2.433 2.433 0 0 0-.704-.157 2.208 2.208 0 0 0-1.188.314 2.1 2.1 0 0 0-.463.356.88.88 0 0 0-.23.42.806.806 0 0 0 .073.461M72.928 191.363l-4.92-4.035 5.76-3.458 4.931 4.035-1.871 1.132-3.732-3.06-2.008 1.205 3.721 3.06-1.881 1.121zM110.297 168.926l-3.721-3.06-1.85 1.121-1.199-.996 5.572-3.343 1.198.985-1.86 1.122 3.721 3.06-1.861 1.111zM114.912 166.149l-4.92-4.035 1.871-1.132 1.42 1.163.662-.398.115-.063a7.38 7.38 0 0 1 1.378-.65 5.37 5.37 0 0 1 1.303-.272 2.99 2.99 0 0 1 1.051.126c.313.097.605.249.862.45.232.185.416.422.537.692a1.12 1.12 0 0 1 0 .786c-.114.33-.305.628-.558.87a5.729 5.729 0 0 1-1.23.943l-2.491 1.52zm.095-3.48-.631.378 1.324 1.048.631-.378c.4-.241.62-.461.662-.67a.496.496 0 0 0-.22-.545 1.047 1.047 0 0 0-.726-.241c-.353.024-.693.14-.988.335" fill="#D5D8DC"/><path d="m651.56 160.699-11.311 4.34-.034 13.766 11.311-4.324.034-13.782z" fill="#000"/><path d="M685.899 204.815c-.304.152-.591.304-.929.405a5.975 5.975 0 0 1-1.114.304v-.017c-.169.017-.321.051-.473.068a2.055 2.055 0 0 1-.337.034c-.237.05-.456.067-.692.067h-.608c-.186 0-.389-.034-.591-.034h-.017a6.984 6.984 0 0 1-.591-.067c-.202-.034-.388-.068-.591-.102-.169-.033-.321-.084-.473-.118a128.108 128.108 0 0 1-4.423-1.182c-4.44-1.267-8.543-2.652-12.307-4.138h-.017c-5.116-2.01-9.624-4.206-13.608-6.503-25.544-14.745-29.241-34.118-29.68-41.448v-.135l-.034 13.765v.135c.439 7.347 4.153 26.72 29.697 41.465 3.984 2.298 8.492 4.493 13.608 6.503 3.765 1.487 7.867 2.871 12.307 4.138 1.435.406 2.921.794 4.424 1.183.152.05.32.084.472.118.186.034.389.067.591.101.203.034.389.068.591.068h.017c.186.033.388.033.591.033h.625c.236-.016.456-.033.675-.05.101-.017.219-.051.338-.051.152-.017.304-.034.456-.067h.016a7.862 7.862 0 0 0 1.132-.271 7.566 7.566 0 0 0 1.401-.642l.625-.422 10.3-7.541.034-13.766-11.415 8.184v-.017z" fill="#C882FF"/><path d="M641.823 146.833c5.901 5.305 9.542 14.103 9.742 14.553l-11.139 4.291c.582 7.9 10.357 15.068 18.138 19.559 5.237 3.027 9.36 4.757 9.576 4.84l11.055-4.108 18.122 10.478-11.156 7.967c-.831.598-1.978.997-3.275 1.18a9.985 9.985 0 0 1-3.857-.216c-12.352-3.127-22.128-7.168-29.875-11.642-25.12-14.52-28.778-33.597-29.193-40.832-.05-.831.399-1.663 1.263-2.312.881-.665 2.112-1.147 3.508-1.33l17.091-2.428z" fill="#fff"/><path d="m682.657 188.103 14.432 8.345-11.122 7.944c-.829.597-1.973.995-3.266 1.177a9.943 9.943 0 0 1-3.845-.215c-12.316-3.118-22.063-7.148-29.788-11.609-25.046-14.477-28.693-33.498-29.107-40.711-.05-.829.398-1.659 1.26-2.305.878-.664 2.105-1.144 3.497-1.327l17.04-2.421c5.885 5.29 9.515 14.062 9.714 14.51l-11.106 4.279c.58 7.877 10.327 15.024 18.084 19.501 5.222 3.019 9.333 4.743 9.548 4.826l9.853-3.661" stroke="#000" stroke-linejoin="bevel"/><path d="M669.334 162.119c15.479-8.552 27.952-11.87 31.216-7.455 4.191 5.661-8.218 22.12-28.362 38.367M658.478 203.187c-21.44 14.553-40.832 21.642-45.028 15.975-3.166-4.282 3.145-14.724 15.109-26.578" stroke="#000" stroke-miterlimit="10"/><path d="m665.299 149.135-.299-5.379 3.371 4.26M669.378 148.116l5.396-.201-4.216 3.297M670.306 152.669l.299 5.378-3.371-4.259M666.075 153.481l-5.395.202 4.216-3.297" stroke="#000" stroke-linejoin="round"/><path d="m963.73 21.965 5.932 9.069a1 1 0 0 0 1.608.09l14.057-17.01" stroke="#000" stroke-width="3" stroke-linecap="round"/><path d="m953.115 37.043.212-21.246c-.217-4.252 1.63-7.869 5.389-8.721l26.968-3.739c1.922-.127 3.057-.019 4.267.264-5.106-2.66-7.136-3.932-10.316-3.527l-27.123 3.758c-3.764.852-5.606 4.468-5.394 8.72l-.212 21.246c0 4.069 1.018 4.643 2.935 6.23l4.499 2.251c-1.07-1.55-1.239-4.002-1.225-5.24v.004zM966.609 42.585l-3.543.39 1.63 2.223c.127.175.288.311.462.405.212.118 4.178 2.228 6.124 3.287l-3.547-4.77-1.126-1.535z" fill="#C185FF"/><path d="m992.198 13.607-.01 20.22c-.004 3.366-2.482 6.163-5.874 6.582l-8.304 1.196-4.81 6.814c-.556.791-1.724.8-2.294.024l-4.296-5.858-8.046.89c-3.344 0-5.516-1.257-5.445-6.432l.212-21.247c-.217-4.252 1.63-7.868 5.389-8.72l27.128-3.758c5.026-.64 6.35 2.387 6.35 5.674" stroke="#000"/><path d="M943.251 41.09a14.243 14.243 0 0 1 3.61 4.362c.124.222.234.451.344.694a14.391 14.391 0 0 1 1.375 5.804 14.39 14.39 0 0 1-3.5 9.764l-.268.305c-.289.312-.591.617-.914.916a14.152 14.152 0 0 1-8.939 3.682 14.128 14.128 0 0 1-6.042-1.067c-1.913-.793-3.631-1.999-5.036-3.53l-.268-.306a14.425 14.425 0 0 1-3.5-9.424c0-3.463 1.242-6.81 3.499-9.42a14.177 14.177 0 0 1 8.775-4.782 14.083 14.083 0 0 1 5.727.38 14.155 14.155 0 0 1 5.11 2.636l.027-.014z" stroke="#000" stroke-miterlimit="10"/><path d="M917.034 72.217c1.455-4.135 3.565-7.824 6.593-10.517l.268.306a14.228 14.228 0 0 0 5.035 3.53 14.13 14.13 0 0 0 6.042 1.067 14.147 14.147 0 0 0 9.854-4.597l.268-.306c4.022 3.579 5.631 9.813 6.45 15.18a134.774 134.774 0 0 1 1.21 17.08c.027 1.776.041 3.502-.042 5.118-2.083 2.587-5.425 4.348-8.595 5.361a33.496 33.496 0 0 1-15.925.929 25.472 25.472 0 0 1-8.251-2.913c-2.331-1.366-4.58-3.37-5.501-5.922a7.429 7.429 0 0 1-.44-2.448c0-2.953.113-6.159.44-9.406M999.478 47.168a14.222 14.222 0 0 1 3.612 4.362c.12.222.23.45.34.693a14.397 14.397 0 0 1 1.38 5.805 14.454 14.454 0 0 1-3.5 9.764l-.27.305c-.29.312-.59.617-.92.915a14.129 14.129 0 0 1-8.935 3.683 14.124 14.124 0 0 1-6.041-1.067c-1.913-.794-3.632-1.999-5.036-3.531l-.268-.305a13.797 13.797 0 0 1-1.595-2.254 14.413 14.413 0 0 1-1.905-7.17 14.404 14.404 0 0 1 3.498-9.42 14.182 14.182 0 0 1 8.776-4.783 14.085 14.085 0 0 1 5.727.381 14.152 14.152 0 0 1 5.109 2.636l.028-.014z" stroke="#000" stroke-miterlimit="10"/><path d="M973.261 78.294c1.455-4.134 3.565-7.824 6.592-10.516l.268.305a14.232 14.232 0 0 0 5.036 3.532 14.128 14.128 0 0 0 6.042 1.066 14.163 14.163 0 0 0 8.941-3.682c.32-.299.62-.604.91-.916l.27-.305c4.02 3.578 5.63 9.813 6.45 15.18.77 5.661 1.17 11.367 1.21 17.08.03 1.775.04 3.502-.04 5.118-2.08 2.586-5.43 4.348-8.6 5.36a33.478 33.478 0 0 1-15.921.93 25.479 25.479 0 0 1-8.251-2.913c-2.331-1.366-4.58-3.37-5.501-5.922a7.43 7.43 0 0 1-.44-2.448c0-2.954.113-6.16.44-9.406" stroke="#000" stroke-miterlimit="10"/></svg>
