<svg width="339" height="468" fill="none" xmlns="http://www.w3.org/2000/svg"><path d="m321.217 49.575-.052 6.874-6.72 2.724-6.085-2.85-6.668 3.179-11.606-16.733 11.606-2.455 6.572 9.117 5.859 2.716 7.094-2.572z" fill="#1F2229"/><path d="m327.303 46.496-.052 6.874-6.72 2.724-6.086-2.85-6.668 3.18-11.605-16.734-.113-6.671 11.51 15.94 6.781-2.606 5.859 2.716 7.094-2.573z" fill="#C882FF"/><path d="m314.446 46.27-6.668 3.187-11.606-16.733 31.827 6.874-6.999 3.44 6.555 3.214-7.024 2.876-6.085-2.859z" stroke="#1F2229" stroke-linejoin="bevel"/><path d="m327.303 46.497-.052 6.873-6.72 2.724-6.085-2.85-6.668 3.18-11.606-16.734.026-4.934M327.781 39.295v5.186M320.436 49.204v6.51M314.506 46.674v6.511M307.854 49.39v6.51" stroke="#1F2229" stroke-linejoin="bevel"/><path d="M190 55.29c.038 2.433 1.905 4.792 6.56 6.924 5.664 2.605 13.766 4.145 25.075-.616.267-.111 9.404-5.003 9.404-5.003l46.15-26.489s8.033-4.589 9.804-6.868c2.807-3.61 4.417 1.306 4.912-4.066-1.829 3.265-4.563 3.24-14.716 8.932-22.294 13.596-67.135 36.672-65.291 29.877-11.741 4.313-12.7-4.312-15.338-10.472-2.759 1.232-6.598 5.347-6.56 7.78z" fill="#1F2229"/><path d="M196.994 56.61c.038 2.433 1.904 4.793 6.559 6.924 5.664 2.606 13.766 4.146 25.075-.616.267-.11 9.404-5.002 9.404-5.002l46.15-26.49s8.033-4.589 9.804-6.868c2.807-3.61 1.474-7.626 1.969-12.998-1.829 3.265-.521 4.392-10.674 10.084-22.294 13.596-52.068 29.286-56.926 32.403-11.741 4.313-22.504 4.19-31.247-4.207-.172 2.033-.114 6.77-.114 6.77z" fill="#C882FF"/><path d="M285.614 21.466c17.989-8.846 8.255-17.126 2.166-19.01C280.363.157 270.826.28 262.565 5.011l-1.454.807c-18.58 10.361-21.793 11.963-42.087 23.323l-1.029.566c-12.47 6.542-30.999 17.015-14.414 24.654 5.664 2.605 13.767 4.145 25.076-.616.266-.111 9.404-4.996 9.404-4.996l46.15-26.49 1.403-.794zM286.762 30.022c7.473-3.93 9.575-7.725 9.093-10.86" stroke="#1F2229" stroke-linejoin="round"/><path d="M196.996 56.61c.038 2.433 1.905 4.793 6.559 6.924 5.664 2.606 13.767 4.146 25.076-.616.266-.111 9.404-5.002 9.404-5.002l46.15-26.49M196.975 51.984v5.267M295.938 10.746v9.118" stroke="#1F2229" stroke-linejoin="round"/><path d="m229.582 40.997-3.259-2.661-1.616.971-1.047-.862 4.867-2.898 1.055.854-1.625.963 3.241 2.652-1.616.98zM219.713 43.858a2.4 2.4 0 0 1-.725-.908 1.74 1.74 0 0 1-.11-.908c.075-.337.237-.65.468-.908.274-.322.604-.592.973-.8l.101-.054a5.063 5.063 0 0 1 2.544-.672c.442-.002.882.065 1.304.2.427.144.825.362 1.175.644.312.239.558.551.716.909.124.286.156.603.092.908-.07.339-.232.653-.468.908a3.879 3.879 0 0 1-.992.8l-.11.063a5.395 5.395 0 0 1-1.157.49c-.439.126-.893.19-1.35.191a4.54 4.54 0 0 1-1.295-.209 3.695 3.695 0 0 1-1.166-.654zm1.13-1.952c0 .281.147.59.569.908.333.303.761.486 1.212.517.37.011.736-.08 1.056-.263.152-.081.287-.192.395-.327a.662.662 0 0 0 .174-.381.779.779 0 0 0-.092-.436 1.938 1.938 0 0 0-.449-.49 2.368 2.368 0 0 0-.625-.373 1.849 1.849 0 0 0-1.194-.091 2.532 2.532 0 0 0-.468.19 1.023 1.023 0 0 0-.56.7M258.699 23.631l-4.297-3.505 1.635-.972 2.424 1.97.092-.054-.515-3.106 1.515-.9 4.297 3.498-1.634.98-2.433-1.989-.083.064.505 3.124-1.506.89zM252.67 27.237l-4.307-3.515 2.25-1.335.202-.118c.34-.195.693-.368 1.056-.518.322-.13.657-.225 1.001-.282.254-.05.516-.05.771 0 .209.057.405.153.578.282a.74.74 0 0 1 .322.681c-.073.281-.242.528-.478.7l.055.054c.399-.188.834-.29 1.277-.3.367-.005.724.117 1.01.346.158.116.282.273.358.454a.72.72 0 0 1 0 .554 1.819 1.819 0 0 1-.487.663 6.044 6.044 0 0 1-1.065.772l-2.543 1.562zm1.974-3.015a.744.744 0 0 0-.606-.155 1.859 1.859 0 0 0-.717.255l-.752.454.918.772.753-.445c.214-.112.395-.278.523-.482a.332.332 0 0 0-.11-.427l-.009.027zm-3.223-1.154-.579.336.854.7.579-.337c.222-.105.405-.276.523-.49a.34.34 0 0 0-.119-.382.658.658 0 0 0-.524-.118c-.241.04-.472.126-.679.255h-.055M244.89 28.727c.202-.33.463-.619.771-.854.469-.382.97-.726 1.497-1.026l-.193-.155a.93.93 0 0 0-.689-.2c-.3.037-.589.14-.845.3l-.091.055a5.872 5.872 0 0 0-.919.672 3.398 3.398 0 0 0-.642.772l-1.056-.854c.197-.295.439-.558.716-.781.334-.27.687-.515 1.056-.736l.137-.073a4.806 4.806 0 0 1 2.195-.726 2.771 2.771 0 0 1 1.836.617l2.755 2.253-1.579.908-.661-.545-.083.055c.014.13.014.26 0 .39a.817.817 0 0 1-.092.4c-.083.15-.188.288-.312.409-.169.165-.36.306-.569.418h-.065c-.456.275-.98.422-1.515.426a2.115 2.115 0 0 1-1.349-.472 1.25 1.25 0 0 1-.441-.609 1.007 1.007 0 0 1 .138-.644zm1.744-.445c-.211.236-.22.436 0 .608a.74.74 0 0 0 .514.154c.222-.003.439-.07.625-.19a1.35 1.35 0 0 0 .33-.264.724.724 0 0 0 .175-.327.624.624 0 0 0 0-.363.913.913 0 0 0-.294-.354l-.156-.127a5.64 5.64 0 0 0-1.194.908M242.089 36.52l-6.427-5.223 1.579-.908.597.49.083-.054c-.044-.27.008-.546.147-.782.223-.342.542-.614.918-.78l.083-.055a3.426 3.426 0 0 1 1.037-.39c.395-.09.801-.11 1.203-.064.399.03.789.126 1.157.281.38.154.733.365 1.047.627.303.234.561.52.762.845.156.261.242.559.248.863a1.49 1.49 0 0 1-.276.826c-.217.295-.496.54-.817.718l-.092.054a3.512 3.512 0 0 1-1.092.409 3.15 3.15 0 0 1-1.167 0h-.073l.725.508 2.029 1.653-1.671.981zm-3.149-5.014c.081.172.204.322.358.436l.266.218c.318.278.724.438 1.148.454a2.105 2.105 0 0 0 1.029-.282c.145-.084.275-.191.385-.318a.67.67 0 0 0 .074-.845 1.587 1.587 0 0 0-.45-.517 2.556 2.556 0 0 0-.606-.363 2.142 2.142 0 0 0-.615-.137 1.96 1.96 0 0 0-1.038.273 1.81 1.81 0 0 0-.404.309.76.76 0 0 0-.202.363.69.69 0 0 0 .064.4M233.606 38.58l-4.297-3.496 5.031-2.997 4.307 3.496-1.635.981-3.259-2.652-1.754 1.045 3.25 2.652-1.643.972zM266.247 19.135l-3.25-2.652-1.616.972-1.047-.863 4.866-2.897 1.047.853-1.625.972 3.25 2.652-1.625.963zM270.276 16.729l-4.297-3.497 1.634-.981 1.239 1.008.579-.345.101-.055a6.4 6.4 0 0 1 1.203-.563c.368-.125.75-.204 1.138-.236.31-.018.621.019.918.109.273.084.528.216.753.39.203.16.363.366.469.6a.963.963 0 0 1 0 .681c-.1.286-.267.544-.487.754-.319.32-.68.594-1.074.818l-2.176 1.316zm.082-3.016-.551.327 1.157.908.551-.327c.349-.209.542-.4.579-.58a.433.433 0 0 0-.193-.472.925.925 0 0 0-.634-.21 1.798 1.798 0 0 0-.863.29" fill="#D5D8DC"/><path d="m75.523 127.185-31.471 18.276c-3.577 2.061-5.365 4.958-5.007 8.099.358 3.141 2.763 6.146 6.777 8.477a31.95 31.95 0 0 0 14.591 3.941c5.365.189 10.327-.855 13.868-2.915l31.462-18.313c3.576-2.051 5.365-4.949 5.016-8.098-.349-3.15-2.772-6.156-6.777-8.486" stroke="#000" stroke-linejoin="round"/><path d="m75.523 131.432-31.471 18.276a9.877 9.877 0 0 0-4.712 5.238c.822 2.6 3.084 5.084 6.482 7.055a31.95 31.95 0 0 0 14.591 3.941c5.365.189 10.327-.855 13.867-2.916l31.463-18.276a9.876 9.876 0 0 0 4.712-5.237c-.814-2.601-3.085-5.084-6.473-7.055" stroke="#000" stroke-linejoin="round"/><path fill-rule="evenodd" clip-rule="evenodd" d="m75.551 127.806 3.576 5.561h13.707l7.823-5.534h6.169v8.098c0 2.79-1.878 5.571-5.543 7.703-7.359 4.275-19.277 4.302-26.59 0-3.666-2.132-5.49-4.94-5.454-7.748v-8.098l6.312.018z" fill="#000"/><path d="m69.46 139.693-7.528 4.365 7.528-4.365zm-6.17-25.592 7.475 4.31-7.474-4.31zm43.864 25.457 7.475 4.347-7.475-4.347zM88.504 108v6.164V108zm25.177 6.011-7.564 4.4 7.564-4.4zm10.318 14.641h-10.604 10.604zm-35.683 15.856v6.164-6.164zm-24.927-15.775H52.785 63.39z" fill="#BE88F8"/><path d="M63.389 128.733H52.785m16.675 10.96-7.528 4.365 7.528-4.365zm-6.17-25.592 7.475 4.31-7.474-4.31zm43.864 25.457 7.475 4.347-7.475-4.347zM88.504 108v6.164V108zm25.177 6.011-7.564 4.4 7.564-4.4zm10.318 14.641h-10.604 10.604zm-35.683 15.856v6.164-6.164z" stroke="#BE88F8" stroke-linejoin="round"/><path fill-rule="evenodd" clip-rule="evenodd" d="M74.754 120.21c7.358-4.283 19.267-4.301 26.581-.054 7.313 4.248 7.278 11.177-.081 15.451-7.358 4.275-19.276 4.302-26.59.045-7.313-4.256-7.269-11.167.09-15.442zm12.436 9.899h-8.046v3.275H92.85l.072-13.3h-5.633l-.099 10.025z" fill="#BE88F8"/><path d="m57.466 256.013-9.426 3.68-.029 11.669 9.427-3.665.028-11.684z" fill="#000"/><path d="M86.083 293.411c-.254.129-.493.258-.774.344a4.97 4.97 0 0 1-.929.258v-.015c-.14.015-.267.043-.393.058a1.74 1.74 0 0 1-.282.028c-.197.043-.38.058-.577.058h-.506c-.155 0-.324-.029-.493-.029h-.014a5.887 5.887 0 0 1-.492-.057c-.169-.029-.324-.058-.492-.086-.141-.029-.268-.072-.394-.1-1.267-.315-2.49-.659-3.686-1.003-3.7-1.074-7.12-2.248-10.257-3.508h-.014c-4.263-1.703-8.019-3.565-11.34-5.512-21.285-12.499-24.366-28.922-24.732-35.136v-.115l-.028 11.669v.115c.366 6.228 3.46 22.651 24.747 35.15 3.32 1.948 7.077 3.809 11.34 5.513 3.137 1.26 6.555 2.434 10.255 3.508 1.196.343 2.434.673 3.686 1.002.127.043.268.071.394.1.155.029.324.057.493.086.169.029.323.057.492.057h.014c.155.029.324.029.493.029h.52c.197-.014.38-.029.563-.043.084-.014.183-.043.281-.043.127-.014.254-.029.38-.057h.014c.324-.058.647-.129.943-.229.436-.158.816-.33 1.168-.544l.52-.358 8.584-6.393.028-11.67-9.512 6.938v-.015z" fill="#C882FF"/><path d="M49.349 244.259c4.918 4.498 7.952 11.956 8.118 12.337l-9.282 3.637c.485 6.697 8.63 12.774 15.114 16.581 4.364 2.566 7.8 4.032 7.98 4.103l9.213-3.483 15.1 8.883-9.295 6.753c-.693.508-1.649.846-2.73 1.001a8.184 8.184 0 0 1-3.214-.183c-10.293-2.651-18.44-6.077-24.895-9.869-20.933-12.309-23.981-28.481-24.327-34.614-.042-.705.332-1.41 1.053-1.959.734-.564 1.759-.973 2.923-1.128l14.242-2.059z" fill="#fff"/><path d="m83.376 279.244 12.027 7.074-9.269 6.734c-.69.506-1.643.844-2.72.998a8.137 8.137 0 0 1-3.205-.183c-10.263-2.642-18.386-6.058-24.823-9.84-20.871-12.272-23.91-28.396-24.255-34.511-.042-.703.331-1.406 1.05-1.954.732-.563 1.754-.97 2.914-1.125l14.2-2.052c4.904 4.484 7.929 11.92 8.094 12.3l-9.254 3.627c.483 6.677 8.605 12.736 15.07 16.532 4.35 2.558 7.776 4.02 7.956 4.09l8.21-3.103" stroke="#000" stroke-linejoin="bevel"/><path d="M72.279 257.219c12.899-7.25 23.293-10.063 26.013-6.321 3.492 4.8-6.848 18.752-23.635 32.525M63.231 292.031c-17.867 12.337-34.026 18.346-37.523 13.543-2.638-3.63 2.621-12.482 12.591-22.531" stroke="#000" stroke-miterlimit="10"/><path class="dot1" d="m68.929 246.206-.28-4.553 2.834 3.629" stroke="#000" stroke-linejoin="round"/><path class="dot2" d="m72.31 245.332 4.503-.131-3.502 2.765" stroke="#000" stroke-linejoin="round"/><path class="dot3" d="m73.075 249.216.28 4.552-2.834-3.628" stroke="#000" stroke-linejoin="round"/><path class="dot4" d="m69.576 249.914-4.503.131 3.501-2.765" stroke="#000" stroke-linejoin="round"/><path d="M19.942 34.72h-1.936V23.808h4.576v13.574h5.148V34.72h-1.914V23.544h1.914v-2.662H12.858v2.662h1.914V34.72h-1.914v2.662h7.084V34.72zm14.738 2.882c3.058 0 5.412-2.112 5.412-5.786 0-3.674-2.398-5.83-5.412-5.83-3.036 0-5.39 2.178-5.39 5.852 0 3.674 2.354 5.764 5.39 5.764zm0-2.816c-1.21 0-2.156-.814-2.156-2.948 0-2.2.946-3.036 2.156-3.036 1.21 0 2.2.836 2.2 3.014 0 2.156-.968 2.97-2.2 2.97zm10.223.044c.946-1.342 1.232-4.598 1.254-6.05h2.178v6.05h-3.432zm-.946 2.552h6.138l.22 2.904h2.794V34.83h-1.65v-6.138h1.584v-2.486H42.021v2.486h1.518c-.176 2.838-.616 5.082-1.65 6.138h-.946v5.456h2.794l.22-2.904zm15.131-2.53c-.748 0-1.166-.396-1.166-.946 0-.968.77-1.452 3.058-1.452v.308c0 1.408-.858 2.09-1.892 2.09zm1.87.792h.132v1.738h4.598v-2.464h-1.584V30.21c0-2.728-1.496-4.224-4.84-4.224-1.364 0-2.706.264-3.762.836v2.838a6.412 6.412 0 0 1 3.366-.946c1.496 0 2.112.506 2.112 1.452v.264c-4.312 0-6.27 1.32-6.27 4.004 0 1.87 1.188 3.168 3.19 3.168 1.716 0 2.442-.902 3.058-1.958zm5.888 1.738h4.422l3.784-6.556h.154v4.092H73.82v2.464h5.94v-2.464h-1.584v-6.226h1.584v-2.486h-4.444l-3.784 6.578H71.4v-4.092h1.386v-2.486h-5.94v2.486h1.584v6.226h-1.584v2.464zm6.446-12.122c1.892 0 3.828-.814 3.828-3.542h-2.684c0 .814-.308 1.32-1.144 1.32-.88 0-1.144-.506-1.144-1.32h-2.684c0 2.706 1.914 3.542 3.828 3.542zm17.657 12.342c3.168 0 4.554-1.474 4.554-3.432 0-1.32-.836-2.244-2.112-2.574v-.154c1.32-.462 1.804-1.452 1.804-2.42 0-1.716-1.232-3.036-4.29-3.036-1.254 0-2.552.22-3.498.616v3.366h2.464v-1.452c.286-.022.594-.044.858-.044.858 0 1.408.352 1.408 1.012 0 .638-.374 1.034-1.21 1.034H89.52v2.398h1.474c1.034 0 1.452.396 1.452 1.078 0 .77-.55 1.144-1.672 1.144-1.21 0-2.31-.286-3.41-.99v2.684c.99.572 2.508.77 3.586.77zm10.399-2.75c-.748 0-1.166-.396-1.166-.946 0-.968.77-1.452 3.058-1.452v.308c0 1.408-.858 2.09-1.892 2.09zm1.87.792h.132v1.738h4.598v-2.464h-1.584V30.21c0-2.728-1.496-4.224-4.84-4.224-1.364 0-2.706.264-3.762.836v2.838a6.412 6.412 0 0 1 3.366-.946c1.496 0 2.112.506 2.112 1.452v.264c-4.312 0-6.27 1.32-6.27 4.004 0 1.87 1.188 3.168 3.19 3.168 1.716 0 2.442-.902 3.058-1.958zm10.991-4.356c-1.1 0-1.628-.638-1.628-1.298 0-.682.528-1.342 1.628-1.342h1.012v2.64h-1.012zm-2.178 6.094 2.464-3.828h.726v1.364h-.858v2.464h5.566v-2.464h-1.584v-6.226h1.584v-2.486h-6.182c-3.212 0-4.378 1.892-4.378 3.608 0 1.452.792 2.486 2.178 2.992l-1.386 2.112h-1.232v2.464h3.102zm9.385 0h6.248c3.3 0 4.334-1.452 4.334-3.146 0-1.452-.858-2.398-2.288-2.618v-.154c1.188-.264 1.958-1.056 1.958-2.42 0-1.694-1.21-2.838-4.312-2.838h-5.94v2.486H123v6.226h-1.584v2.464zm4.686-6.776v-2.222h.858c.968 0 1.474.418 1.474 1.056 0 .704-.418 1.166-1.474 1.166h-.858zm0 4.62V32.74h1.122c.946 0 1.562.418 1.562 1.254 0 .792-.594 1.232-1.562 1.232h-1.122zm13.241-.308h-1.21v-1.87l.814-.154 3.08 4.488h3.234v-2.464h-1.144l-2.596-3.696 2.09-2.53h1.364v-2.486h-5.39v2.486h.858l-1.518 1.87-.792.154v-4.51h-4.686v2.486h1.584v6.226h-1.584v2.464h5.896v-2.464zm14.013 7.964v-2.464h-1.254l4.202-11.726h1.122v-2.486h-5.082v2.486h1.056l-1.606 4.708h-.132l-2.53-7.194h-3.454v2.486h1.144l3.366 8.91-1.012 2.816h-1.672v2.464h5.852zM143.858 130h6.864c3.982 0 5.83-2.178 5.83-4.752 0-2.024-1.21-3.322-3.014-3.806v-.154c1.408-.528 2.398-1.716 2.398-3.542 0-2.486-1.738-4.246-5.544-4.246h-6.534v2.662h1.914v11.176h-1.914V130zm5.148-9.768v-3.938h1.21c1.364 0 2.42.44 2.42 1.87 0 1.43-1.078 2.068-2.42 2.068h-1.21zm0 6.974v-4.18h1.474c1.43 0 2.772.484 2.772 2.112 0 1.562-1.21 2.068-2.728 2.068h-1.518zM169.17 130h4.708v-2.464h-1.606v-6.226h1.606v-2.486h-6.292v2.486h1.584V130zm-11.242 0h5.72c3.344 0 4.796-1.628 4.796-3.718 0-2.024-1.452-3.542-4.796-3.542h-1.034v-1.43h1.606v-2.486h-6.292v2.486h1.584v6.226h-1.584V130zm4.686-2.42v-2.42h.968c1.166 0 1.628.506 1.628 1.21s-.462 1.21-1.628 1.21h-.968zm18.678-.044h-1.254v-6.16h2.662V130h4.686v-2.464h-1.584v-6.226h1.584v-2.486h-12.034v2.486h1.584v6.226h-1.584V130h5.94v-2.464zm12.941 2.684c3.058 0 5.412-2.112 5.412-5.786 0-3.674-2.398-5.83-5.412-5.83-3.036 0-5.39 2.178-5.39 5.852 0 3.674 2.354 5.764 5.39 5.764zm0-2.816c-1.21 0-2.156-.814-2.156-2.948 0-2.2.946-3.036 2.156-3.036 1.21 0 2.2.836 2.2 3.014 0 2.156-.968 2.97-2.2 2.97zm11.372-5.852h1.848V130h4.686v-2.464h-1.584v-6.226h1.584v-2.486h-10.758v2.486h1.54c-.132 4.268-.616 5.984-1.936 5.984-.264 0-.528-.066-.528-.066v2.838s.418.132 1.078.132c3.454 0 4.004-3.762 4.07-8.646zm13.972 5.984h-1.254v-2.002h2.882V130h4.686v-2.464h-1.584v-6.226h1.584v-2.486h-5.94v2.486h1.254v1.65h-2.882v-4.136h-4.686v2.486h1.584v6.226h-1.584V130h5.94v-2.464zm7.81 2.464h4.422l3.784-6.556h.154v4.092h-1.386V130h5.94v-2.464h-1.584v-6.226h1.584v-2.486h-4.444l-3.784 6.578h-.132v-4.092h1.386v-2.486h-5.94v2.486h1.584v6.226h-1.584V130zm-75.059 24v-2.464h-1.826v-6.16h1.408v2.09h2.552v-4.642H143.44v4.642h2.552v-2.09h1.408v6.16h-1.826V154h6.754zm9.042.22c1.496 0 2.838-.33 3.586-.836v-2.706c-.924.594-2.134.814-3.124.814-1.848 0-2.706-.88-2.772-2.31h6.116c.11-.308.242-1.1.242-1.98 0-3.058-1.914-4.598-4.686-4.598-3.146 0-5.126 2.222-5.126 5.852 0 3.872 2.112 5.764 5.764 5.764zm-2.42-7.216c.11-1.166.616-1.914 1.716-1.914 1.078 0 1.584.704 1.628 1.914h-3.344zm16.671 6.49v-2.948c-.77.638-1.892.858-2.794.858-1.694 0-2.772-.924-2.772-3.014 0-1.936.968-2.992 2.552-2.992.154 0 .308 0 .462.022v1.892h2.552v-4.07h-.044c-.704-.33-1.804-.638-3.124-.638-3.41 0-5.632 2.222-5.632 5.852 0 3.586 2.024 5.764 5.698 5.764 1.364 0 2.508-.286 3.102-.726zm10.266.506v-2.464h-1.826v-6.16h1.408v2.09h2.552v-4.642h-11.022v4.642h2.552v-2.09h1.408v6.16h-1.826V154h6.754zm8.668.22c3.058 0 5.412-2.112 5.412-5.786 0-3.674-2.398-5.83-5.412-5.83-3.036 0-5.39 2.178-5.39 5.852 0 3.674 2.354 5.764 5.39 5.764zm0-2.816c-1.21 0-2.156-.814-2.156-2.948 0-2.2.946-3.036 2.156-3.036 1.21 0 2.2.836 2.2 3.014 0 2.156-.968 2.97-2.2 2.97zm6.857 2.596h6.248c3.3 0 4.334-1.452 4.334-3.146 0-1.452-.858-2.398-2.288-2.618v-.154c1.188-.264 1.958-1.056 1.958-2.42 0-1.694-1.21-2.838-4.312-2.838h-5.94v2.486h1.584v6.226h-1.584V154zm4.686-6.776v-2.222h.858c.968 0 1.474.418 1.474 1.056 0 .704-.418 1.166-1.474 1.166h-.858zm0 4.62v-2.486h1.122c.946 0 1.562.418 1.562 1.254 0 .792-.594 1.232-1.562 1.232h-1.122zm12.906 2.376c3.058 0 5.412-2.112 5.412-5.786 0-3.674-2.398-5.83-5.412-5.83-3.036 0-5.39 2.178-5.39 5.852 0 3.674 2.354 5.764 5.39 5.764zm0-2.816c-1.21 0-2.156-.814-2.156-2.948 0-2.2.946-3.036 2.156-3.036 1.21 0 2.2.836 2.2 3.014 0 2.156-.968 2.97-2.2 2.97zm12.577 2.816c1.496 0 2.838-.33 3.586-.836v-2.706c-.924.594-2.134.814-3.124.814-1.848 0-2.706-.88-2.772-2.31h6.116c.11-.308.242-1.1.242-1.98 0-3.058-1.914-4.598-4.686-4.598-3.146 0-5.126 2.222-5.126 5.852 0 3.872 2.112 5.764 5.764 5.764zm-2.42-7.216c.11-1.166.616-1.914 1.716-1.914 1.078 0 1.584.704 1.628 1.914h-3.344zm17.603 7.216c3.168 0 4.554-1.474 4.554-3.432 0-1.32-.836-2.244-2.112-2.574v-.154c1.32-.462 1.804-1.452 1.804-2.42 0-1.716-1.232-3.036-4.29-3.036-1.254 0-2.552.22-3.498.616v3.366h2.464v-1.452c.286-.022.594-.044.858-.044.858 0 1.408.352 1.408 1.012 0 .638-.374 1.034-1.21 1.034h-1.408v2.398h1.474c1.034 0 1.452.396 1.452 1.078 0 .77-.55 1.144-1.672 1.144-1.21 0-2.31-.286-3.41-.99v2.684c.99.572 2.508.77 3.586.77zm10.398-2.75c-.748 0-1.166-.396-1.166-.946 0-.968.77-1.452 3.058-1.452v.308c0 1.408-.858 2.09-1.892 2.09zm1.87.792h.132V154h4.598v-2.464h-1.584v-4.708c0-2.728-1.496-4.224-4.84-4.224-1.364 0-2.706.264-3.762.836v2.838a6.412 6.412 0 0 1 3.366-.946c1.496 0 2.112.506 2.112 1.452v.264c-4.312 0-6.27 1.32-6.27 4.004 0 1.87 1.188 3.168 3.19 3.168 1.716 0 2.442-.902 3.058-1.958zm9.469-.814c.946-1.342 1.232-4.598 1.254-6.05h2.178v6.05h-3.432zm-.946 2.552h6.138l.22 2.904h2.794v-5.456h-1.65v-6.138h1.584v-2.486h-11.022v2.486h1.518c-.176 2.838-.616 5.082-1.65 6.138h-.946v5.456h2.794l.22-2.904zm15.131-2.53c-.748 0-1.166-.396-1.166-.946 0-.968.77-1.452 3.058-1.452v.308c0 1.408-.858 2.09-1.892 2.09zm1.87.792h.132V154h4.598v-2.464h-1.584v-4.708c0-2.728-1.496-4.224-4.84-4.224-1.364 0-2.706.264-3.762.836v2.838a6.412 6.412 0 0 1 3.366-.946c1.496 0 2.112.506 2.112 1.452v.264c-4.312 0-6.27 1.32-6.27 4.004 0 1.87 1.188 3.168 3.19 3.168 1.716 0 2.442-.902 3.058-1.958zm11.827-.726h-1.254v-2.002h2.882V154h4.686v-2.464h-1.584v-6.226h1.584v-2.486h-5.94v2.486h1.254v1.65h-2.882v-4.136h-4.686v2.486h1.584v6.226h-1.584V154h5.94v-2.464zm7.81 2.464h4.422l3.784-6.556h.154v4.092h-1.386V154h5.94v-2.464h-1.584v-6.226h1.584v-2.486h-4.444l-3.784 6.578h-.132v-4.092h1.386v-2.486h-5.94v2.486h1.584v6.226h-1.584V154zm20.136.22c1.496 0 2.838-.33 3.586-.836v-2.706c-.924.594-2.134.814-3.124.814-1.848 0-2.706-.88-2.772-2.31h6.116c.11-.308.242-1.1.242-1.98 0-3.058-1.914-4.598-4.686-4.598-3.146 0-5.126 2.222-5.126 5.852 0 3.872 2.112 5.764 5.764 5.764zm-2.42-7.216c.11-1.166.616-1.914 1.716-1.914 1.078 0 1.584.704 1.628 1.914h-3.344zM150.942 272.719h-1.936v-10.912h4.576v13.574h5.148v-2.662h-1.914v-11.176h1.914v-2.662h-14.872v2.662h1.914v11.176h-1.914v2.662h7.084v-2.662zm16.124.066c-1.188 0-2.134-.748-2.134-2.706v-.704c0-1.848.968-2.574 2.156-2.574 1.144 0 2.156.792 2.156 2.948 0 2.266-1.012 3.036-2.178 3.036zm-.374 8.096v-2.464h-1.76v-2.816l-.11-1.738h.154c.616 1.078 1.606 1.738 3.102 1.738 2.728 0 4.378-2.398 4.378-5.918 0-3.344-1.628-5.698-4.312-5.698-1.606 0-2.64.77-3.168 1.782h-.154v-1.562h-4.598v2.486h1.584v11.726h-1.584v2.464h6.468zm12.588-5.28c3.058 0 5.412-2.112 5.412-5.786 0-3.674-2.398-5.83-5.412-5.83-3.036 0-5.39 2.178-5.39 5.852 0 3.674 2.354 5.764 5.39 5.764zm0-2.816c-1.21 0-2.156-.814-2.156-2.948 0-2.2.946-3.036 2.156-3.036 1.21 0 2.2.836 2.2 3.014 0 2.156-.968 2.97-2.2 2.97zm6.857 2.596h4.422l3.784-6.556h.154v4.092h-1.386v2.464h5.94v-2.464h-1.584v-6.226h1.584v-2.486h-4.444l-3.784 6.578h-.132v-4.092h1.386v-2.486h-5.94v2.486h1.584v6.226h-1.584v2.464zm6.446-12.122c1.892 0 3.828-.814 3.828-3.542h-2.684c0 .814-.308 1.32-1.144 1.32-.88 0-1.144-.506-1.144-1.32h-2.684c0 2.706 1.914 3.542 3.828 3.542zm11.336 9.57c.946-1.342 1.232-4.598 1.254-6.05h2.178v6.05h-3.432zm-.946 2.552h6.138l.22 2.904h2.794v-5.456h-1.65v-6.138h1.584v-2.486h-11.022v2.486h1.518c-.176 2.838-.616 5.082-1.65 6.138h-.946v5.456h2.794l.22-2.904zm10.621 0h4.422l3.784-6.556h.154v4.092h-1.386v2.464h5.94v-2.464h-1.584v-6.226h1.584v-2.486h-4.444l-3.784 6.578h-.132v-4.092h1.386v-2.486h-5.94v2.486h1.584v6.226h-1.584v2.464zm-61.09 23.494v-2.948c-.77.638-1.892.858-2.794.858-1.694 0-2.772-.924-2.772-3.014 0-1.936.968-2.992 2.552-2.992.154 0 .308 0 .462.022v1.892h2.552v-4.07h-.044c-.704-.33-1.804-.638-3.124-.638-3.41 0-5.632 2.222-5.632 5.852 0 3.586 2.024 5.764 5.698 5.764 1.364 0 2.508-.286 3.102-.726zm6.817.726c3.058 0 5.412-2.112 5.412-5.786 0-3.674-2.398-5.83-5.412-5.83-3.036 0-5.39 2.178-5.39 5.852 0 3.674 2.354 5.764 5.39 5.764zm0-2.816c-1.21 0-2.156-.814-2.156-2.948 0-2.2.946-3.036 2.156-3.036 1.21 0 2.2.836 2.2 3.014 0 2.156-.968 2.97-2.2 2.97zm12.203 2.816c3.388 0 5.632-2.288 5.632-5.786 0-3.234-1.914-5.478-4.62-5.478-2.024 0-3.036 1.188-3.388 2.068h-.154c.242-2.97 1.32-4.07 4.312-4.29 1.188-.088 2.552-.132 3.146-.264v-3.85H173.9v1.232c-.264.022-.528.044-.77.044-4.884.33-6.93 2.816-6.93 8.756 0 6.028 2.486 7.568 5.324 7.568zm.132-2.816c-1.276 0-2.222-.902-2.222-2.86 0-1.958.924-2.794 2.244-2.794 1.298 0 2.244.814 2.244 2.772 0 1.958-.946 2.882-2.266 2.882zm12.681 2.816c1.496 0 2.838-.33 3.586-.836v-2.706c-.924.594-2.134.814-3.124.814-1.848 0-2.706-.88-2.772-2.31h6.116c.11-.308.242-1.1.242-1.98 0-3.058-1.914-4.598-4.686-4.598-3.146 0-5.126 2.222-5.126 5.852 0 3.872 2.112 5.764 5.764 5.764zm-2.42-7.216c.11-1.166.616-1.914 1.716-1.914 1.078 0 1.584.704 1.628 1.914h-3.344zm16.671 6.49v-2.948c-.77.638-1.892.858-2.794.858-1.694 0-2.772-.924-2.772-3.014 0-1.936.968-2.992 2.552-2.992.154 0 .308 0 .462.022v1.892h2.552v-4.07h-.044c-.704-.33-1.804-.638-3.124-.638-3.41 0-5.632 2.222-5.632 5.852 0 3.586 2.024 5.764 5.698 5.764 1.364 0 2.508-.286 3.102-.726zm7.191.726c1.496 0 2.838-.33 3.586-.836v-2.706c-.924.594-2.134.814-3.124.814-1.848 0-2.706-.88-2.772-2.31h6.116c.11-.308.242-1.1.242-1.98 0-3.058-1.914-4.598-4.686-4.598-3.146 0-5.126 2.222-5.126 5.852 0 3.872 2.112 5.764 5.764 5.764zm-2.42-7.216c.11-1.166.616-1.914 1.716-1.914 1.078 0 1.584.704 1.628 1.914h-3.344zm11.28 4.444c.946-1.342 1.232-4.598 1.254-6.05h2.178v6.05h-3.432zm-.946 2.552h6.138l.22 2.904h2.794v-5.456h-1.65v-6.138h1.584v-2.486h-11.022v2.486h1.518c-.176 2.838-.616 5.082-1.65 6.138h-.946v5.456h2.794l.22-2.904zm15.967.22c3.058 0 5.412-2.112 5.412-5.786 0-3.674-2.398-5.83-5.412-5.83-3.036 0-5.39 2.178-5.39 5.852 0 3.674 2.354 5.764 5.39 5.764zm0-2.816c-1.21 0-2.156-.814-2.156-2.948 0-2.2.946-3.036 2.156-3.036 1.21 0 2.2.836 2.2 3.014 0 2.156-.968 2.97-2.2 2.97zm6.858 2.596h6.248c3.3 0 4.334-1.452 4.334-3.146 0-1.452-.858-2.398-2.288-2.618v-.154c1.188-.264 1.958-1.056 1.958-2.42 0-1.694-1.21-2.838-4.312-2.838h-5.94v2.486h1.584v6.226h-1.584v2.464zm4.686-6.776v-2.222h.858c.968 0 1.474.418 1.474 1.056 0 .704-.418 1.166-1.474 1.166h-.858zm0 4.62v-2.486h1.122c.946 0 1.562.418 1.562 1.254 0 .792-.594 1.232-1.562 1.232h-1.122zm11.747-.374c-.748 0-1.166-.396-1.166-.946 0-.968.77-1.452 3.058-1.452v.308c0 1.408-.858 2.09-1.892 2.09zm1.87.792h.132v1.738h4.598v-2.464h-1.584v-4.708c0-2.728-1.496-4.224-4.84-4.224-1.364 0-2.706.264-3.762.836v2.838a6.412 6.412 0 0 1 3.366-.946c1.496 0 2.112.506 2.112 1.452v.264c-4.312 0-6.27 1.32-6.27 4.004 0 1.87 1.188 3.168 3.19 3.168 1.716 0 2.442-.902 3.058-1.958zm11.828-.726h-1.254v-2.002h2.882v4.466h4.686v-2.464h-1.584v-6.226h1.584v-2.486h-5.94v2.486h1.254v1.65h-2.882v-4.136h-4.686v2.486h1.584v6.226h-1.584v2.464h5.94v-2.464zm7.81 2.464h4.422l3.784-6.556h.154v4.092h-1.386v2.464h5.94v-2.464h-1.584v-6.226h1.584v-2.486h-4.444l-3.784 6.578h-.132v-4.092h1.386v-2.486h-5.94v2.486h1.584v6.226h-1.584v2.464zm20.136.22c1.496 0 2.838-.33 3.586-.836v-2.706c-.924.594-2.134.814-3.124.814-1.848 0-2.706-.88-2.772-2.31h6.116c.11-.308.242-1.1.242-1.98 0-3.058-1.914-4.598-4.686-4.598-3.146 0-5.126 2.222-5.126 5.852 0 3.872 2.112 5.764 5.764 5.764zm-2.42-7.216c.11-1.166.616-1.914 1.716-1.914 1.078 0 1.584.704 1.628 1.914h-3.344z" fill="#1F2229"/><path d="M154.488 70.38H24c-6.627 0-12 5.373-12 12v121.5c0 6.628 5.373 12 12 12h291c6.627 0 12 5.373 12 12v113.501c0 6.627-5.373 12-12 12H24c-6.627 0-12 5.355-12 11.983V421.5" stroke="#1F2229" stroke-dasharray="6 6"/><path d="M170 79.382c5.523 0 10-4.477 10-10s-4.477-10-10-10-10 4.477-10 10 4.477 10 10 10zM12 148.381c5.523 0 10-4.477 10-10s-4.477-10-10-10-10 4.477-10 10 4.477 10 10 10zM327 296.381c5.523 0 10-4.477 10-10s-4.477-10-10-10-10 4.477-10 10 4.477 10 10 10zM14 439.382c5.523 0 10-4.477 10-10s-4.477-10-10-10-10 4.477-10 10 4.477 10 10 10z" fill="#fff" stroke="#000" stroke-width="3" stroke-miterlimit="10" stroke-linecap="round"/><path d="m88.164 392.473 4.245 6.513a1 1 0 0 0 1.61.09l10.285-12.49" stroke="#000" stroke-width="3" stroke-linecap="round"/><path d="m80.234 403.782.158-15.934c-.162-3.19 1.218-5.902 4.028-6.541l20.155-2.804c1.436-.096 2.285-.014 3.19.198-3.817-1.996-5.334-2.949-7.71-2.646l-20.272 2.819c-2.813.639-4.19 3.351-4.03 6.54l-.16 15.935c0 3.051.761 3.482 2.194 4.672l3.362 1.688c-.799-1.161-.926-3.001-.915-3.93v.003zM90.32 407.939l-2.648.293 1.218 1.667c.095.131.215.233.345.304.158.088 3.123 1.67 4.577 2.465l-2.651-3.578-.842-1.151z" fill="#C185FF"/><path d="m109.442 386.205-.007 15.165c-.003 2.525-1.855 4.623-4.39 4.937l-6.207.897-3.594 5.111c-.416.593-1.289.6-1.715.017l-3.21-4.393-6.014.668c-2.5 0-4.122-.943-4.07-4.825l.16-15.934c-.163-3.189 1.217-5.902 4.027-6.541l20.275-2.818c3.756-.481 4.745 1.79 4.745 4.255" stroke="#000"/><path d="M72.863 406.818a10.688 10.688 0 0 1 2.698 3.271c.093.167.175.339.257.521a10.827 10.827 0 0 1 1.028 4.353 10.819 10.819 0 0 1-2.616 7.323l-.2.229a10.551 10.551 0 0 1-7.364 3.448 10.513 10.513 0 0 1-4.516-.8 10.63 10.63 0 0 1-3.764-2.648l-.2-.229a10.846 10.846 0 0 1-2.616-7.068c0-2.598.929-5.107 2.615-7.066a10.585 10.585 0 0 1 6.558-3.586 10.485 10.485 0 0 1 4.28.285 10.586 10.586 0 0 1 3.82 1.977l.02-.01z" stroke="#000" stroke-miterlimit="10"/><path d="M53.268 430.163c1.087-3.101 2.664-5.868 4.927-7.888l.2.229a10.646 10.646 0 0 0 3.764 2.649c1.43.595 2.97.868 4.515.8a10.562 10.562 0 0 0 7.364-3.449l.2-.229c3.007 2.684 4.21 7.36 4.821 11.385.572 4.246.874 8.525.904 12.81.021 1.332.031 2.627-.03 3.839-1.557 1.94-4.055 3.261-6.424 4.02a24.948 24.948 0 0 1-11.902.697 19 19 0 0 1-6.167-2.184c-1.742-1.025-3.422-2.528-4.111-4.442a5.598 5.598 0 0 1-.329-1.836c0-2.215.085-4.619.329-7.054M114.887 411.376a10.695 10.695 0 0 1 2.955 3.792 10.826 10.826 0 0 1 1.027 4.353 10.82 10.82 0 0 1-2.615 7.323l-.201.229a10.554 10.554 0 0 1-7.364 3.448 10.509 10.509 0 0 1-4.515-.8 10.627 10.627 0 0 1-3.764-2.648l-.201-.229a10.846 10.846 0 0 1-2.615-7.068c0-2.598.928-5.107 2.614-7.065a10.583 10.583 0 0 1 6.559-3.587 10.485 10.485 0 0 1 4.28.286 10.554 10.554 0 0 1 3.819 1.977l.021-.011z" stroke="#000" stroke-miterlimit="10"/><path d="M95.291 434.721c1.088-3.101 2.664-5.868 4.927-7.888l.2.229a10.65 10.65 0 0 0 3.764 2.649c1.43.595 2.971.868 4.515.8a10.56 10.56 0 0 0 7.365-3.449l.2-.229c3.006 2.684 4.209 7.36 4.821 11.386.571 4.246.873 8.524.904 12.81.021 1.331.031 2.626-.031 3.838-1.557 1.94-4.055 3.261-6.424 4.02a24.947 24.947 0 0 1-11.902.697 18.997 18.997 0 0 1-6.166-2.184c-1.743-1.025-3.423-2.528-4.112-4.442a5.594 5.594 0 0 1-.329-1.836c0-2.215.085-4.619.33-7.054" stroke="#000" stroke-miterlimit="10"/><path d="M146.22 412.58h-1.76v-9.92h4.16V415h4.68v-2.42h-1.74v-10.16h1.74V400h-13.52v2.42h1.74v10.16h-1.74V415h6.44v-2.42zm14.658.06c-1.08 0-1.94-.68-1.94-2.46v-.64c0-1.68.88-2.34 1.96-2.34 1.04 0 1.96.72 1.96 2.68 0 2.06-.92 2.76-1.98 2.76zm-.34 7.36v-2.24h-1.6v-2.56l-.1-1.58h.14c.56.98 1.46 1.58 2.82 1.58 2.48 0 3.98-2.18 3.98-5.38 0-3.04-1.48-5.18-3.92-5.18-1.46 0-2.4.7-2.88 1.62h-.14v-1.42h-4.18v2.26h1.44v10.66h-1.44V420h5.88zm11.443-4.8c2.78 0 4.92-1.92 4.92-5.26s-2.18-5.3-4.92-5.3c-2.76 0-4.9 1.98-4.9 5.32 0 3.34 2.14 5.24 4.9 5.24zm0-2.56c-1.1 0-1.96-.74-1.96-2.68 0-2 .86-2.76 1.96-2.76s2 .76 2 2.74c0 1.96-.88 2.7-2 2.7zm10.679-3.18c-1 0-1.48-.58-1.48-1.18 0-.62.48-1.22 1.48-1.22h.92v2.4h-.92zm-1.98 5.54 2.24-3.48h.66v1.24h-.78V415h5.06v-2.24h-1.44v-5.66h1.44v-2.26h-5.62c-2.92 0-3.98 1.72-3.98 3.28 0 1.32.72 2.26 1.98 2.72l-1.26 1.92h-1.12V415h2.82zm8.531 0h5.68c3 0 3.94-1.32 3.94-2.86 0-1.32-.78-2.18-2.08-2.38v-.14c1.08-.24 1.78-.96 1.78-2.2 0-1.54-1.1-2.58-3.92-2.58h-5.4v2.26h1.44v5.66h-1.44V415zm4.26-6.16v-2.02h.78c.88 0 1.34.38 1.34.96 0 .64-.38 1.06-1.34 1.06h-.78zm0 4.2v-2.26h1.02c.86 0 1.42.38 1.42 1.14 0 .72-.54 1.12-1.42 1.12h-1.02zm6.678 1.96h4.02l3.44-5.96h.14v3.72h-1.26V415h5.4v-2.24h-1.44v-5.66h1.44v-2.26h-4.04l-3.44 5.98h-.12v-3.72h1.26v-2.26h-5.4v2.26h1.44v5.66h-1.44V415zm26.612-.46v-2.68c-.7.58-1.72.78-2.54.78-1.54 0-2.52-.84-2.52-2.74 0-1.76.88-2.72 2.32-2.72.14 0 .28 0 .42.02v1.72h2.32v-3.7h-.04c-.64-.3-1.64-.58-2.84-.58-3.1 0-5.12 2.02-5.12 5.32 0 3.26 1.84 5.24 5.18 5.24 1.24 0 2.28-.26 2.82-.66zm6.537.66c1.36 0 2.58-.3 3.26-.76v-2.46c-.84.54-1.94.74-2.84.74-1.68 0-2.46-.8-2.52-2.1h5.56c.1-.28.22-1 .22-1.8 0-2.78-1.74-4.18-4.26-4.18-2.86 0-4.66 2.02-4.66 5.32 0 3.52 1.92 5.24 5.24 5.24zm-2.2-6.56c.1-1.06.56-1.74 1.56-1.74.98 0 1.44.64 1.48 1.74h-3.04zm12.055 6.56c3.08 0 5.12-2.08 5.12-5.26 0-2.94-1.74-4.98-4.2-4.98-1.84 0-2.76 1.08-3.08 1.88h-.14c.22-2.7 1.2-3.7 3.92-3.9 1.08-.08 2.32-.12 2.86-.24v-3.5h-2.32v1.12c-.24.02-.48.04-.7.04-4.44.3-6.3 2.56-6.3 7.96 0 5.48 2.26 6.88 4.84 6.88zm.12-2.56c-1.16 0-2.02-.82-2.02-2.6 0-1.78.84-2.54 2.04-2.54 1.18 0 2.04.74 2.04 2.52s-.86 2.62-2.06 2.62zm10.774-3.18c-1 0-1.48-.58-1.48-1.18 0-.62.48-1.22 1.48-1.22h.92v2.4h-.92zm-1.98 5.54 2.24-3.48h.66v1.24h-.78V415h5.06v-2.24h-1.44v-5.66h1.44v-2.26h-5.62c-2.92 0-3.98 1.72-3.98 3.28 0 1.32.72 2.26 1.98 2.72l-1.26 1.92h-1.12V415h2.82zM145.08 438.76h-1.14v-1.82h2.62V441h4.26v-2.24h-1.44v-5.66h1.44v-2.26h-5.4v2.26h1.14v1.5h-2.62v-3.76h-4.26v2.26h1.44v5.66h-1.44V441h5.4v-2.24zm11.2-.06c-.68 0-1.06-.36-1.06-.86 0-.88.7-1.32 2.78-1.32v.28c0 1.28-.78 1.9-1.72 1.9zm1.7.72h.12V441h4.18v-2.24h-1.44v-4.28c0-2.48-1.36-3.84-4.4-3.84-1.24 0-2.46.24-3.42.76v2.58c.98-.6 2.04-.86 3.06-.86 1.36 0 1.92.46 1.92 1.32v.24c-3.92 0-5.7 1.2-5.7 3.64 0 1.7 1.08 2.88 2.9 2.88 1.56 0 2.22-.82 2.78-1.78zm15.759 1.78c2.78 0 4.92-1.92 4.92-5.26s-2.18-5.3-4.92-5.3c-2.76 0-4.9 1.98-4.9 5.32 0 3.34 2.14 5.24 4.9 5.24zm0-2.56c-1.1 0-1.96-.74-1.96-2.68 0-2 .86-2.76 1.96-2.76s2 .76 2 2.74c0 1.96-.88 2.7-2 2.7zm16.643 2.36v-2.24h-1.44v-5.66h1.44v-2.26h-5.58v2.26h1.3v1.56c-.38.18-.82.28-1.24.28-.88 0-1.3-.42-1.3-1.48v-2.62h-4.28v2.26h1.44v.46c0 2.46 1.16 3.72 3.6 3.72.76 0 1.36-.16 1.78-.34v1.82h-1.64V441h5.92zm6.749-2.24h-1.14v-1.82h2.62V441h4.26v-2.24h-1.44v-5.66h1.44v-2.26h-5.4v2.26h1.14v1.5h-2.62v-3.76h-4.26v2.26h1.44v5.66h-1.44V441h5.4v-2.24zm11.96 2.44c2.78 0 4.92-1.92 4.92-5.26s-2.18-5.3-4.92-5.3c-2.76 0-4.9 1.98-4.9 5.32 0 3.34 2.14 5.24 4.9 5.24zm0-2.56c-1.1 0-1.96-.74-1.96-2.68 0-2 .86-2.76 1.96-2.76s2 .76 2 2.74c0 1.96-.88 2.7-2 2.7zm6.234 2.36h3.92v-7.02h.12l2.2 7.02h2.46l2.2-7.02h.12V441h4.28v-2.24h-1.44v-5.66h1.44v-2.26h-5.56l-1.98 6.48h-.14l-1.94-6.48h-5.68v2.26h1.44v5.66h-1.44V441zm22.207 0h4.02l3.44-5.96h.14v3.72h-1.26V441h5.4v-2.24h-1.44v-5.66h1.44v-2.26h-4.04l-3.44 5.98h-.12v-3.72h1.26v-2.26h-5.4v2.26h1.44v5.66h-1.44V441zm18.505-2.24h-1.14v-1.82h2.62V441h4.26v-2.24h-1.44v-5.66h1.44v-2.26h-5.4v2.26h1.14v1.5h-2.62v-3.76h-4.26v2.26h1.44v5.66h-1.44V441h5.4v-2.24zm14.9 2.24v-2.24h-1.66v-5.6h1.28v1.9h2.32v-4.22h-10.02v4.22h2.32v-1.9h1.28v5.6h-1.66V441h6.14zm8.22.2c1.36 0 2.58-.3 3.26-.76v-2.46c-.84.54-1.94.74-2.84.74-1.68 0-2.46-.8-2.52-2.1h5.56c.1-.28.22-1 .22-1.8 0-2.78-1.74-4.18-4.26-4.18-2.86 0-4.66 2.02-4.66 5.32 0 3.52 1.92 5.24 5.24 5.24zm-2.2-6.56c.1-1.06.56-1.74 1.56-1.74.98 0 1.44.64 1.48 1.74h-3.04zm13.316 4c-1.08 0-1.94-.68-1.94-2.46v-.64c0-1.68.88-2.34 1.96-2.34 1.04 0 1.96.72 1.96 2.68 0 2.06-.92 2.76-1.98 2.76zm-.34 7.36v-2.24h-1.6v-2.56l-.1-1.58h.14c.56.98 1.46 1.58 2.82 1.58 2.48 0 3.98-2.18 3.98-5.38 0-3.04-1.48-5.18-3.92-5.18-1.46 0-2.4.7-2.88 1.62h-.14v-1.42h-4.18v2.26h1.44v10.66h-1.44V446h5.88zm6.583-5h5.68c3 0 3.94-1.32 3.94-2.86 0-1.32-.78-2.18-2.08-2.38v-.14c1.08-.24 1.78-.96 1.78-2.2 0-1.54-1.1-2.58-3.92-2.58h-5.4v2.26h1.44v5.66h-1.44V441zm4.26-6.16v-2.02h.78c.88 0 1.34.38 1.34.96 0 .64-.38 1.06-1.34 1.06h-.78zm0 4.2v-2.26h1.02c.86 0 1.42.38 1.42 1.14 0 .72-.54 1.12-1.42 1.12h-1.02zm6.677 1.96h5.2c3.04 0 4.36-1.48 4.36-3.38 0-1.84-1.32-3.22-4.36-3.22h-.94v-1.3h1.46v-2.26h-5.72v2.26h1.44v5.66h-1.44V441zm4.26-2.2v-2.2h.88c1.06 0 1.48.46 1.48 1.1 0 .64-.42 1.1-1.48 1.1h-.88zm16.425 2.4c2.68 0 4.76-1.92 4.76-5.26s-2.12-5.3-4.76-5.3c-2.32 0-4.16 1.46-4.64 3.98h-1.16v-3.78h-4.26v2.26h1.44v5.66h-1.44V441h5.2v-2.24h-.94v-1.82h1.1c.36 2.72 2.28 4.26 4.7 4.26zm0-2.56c-1.04 0-1.82-.74-1.82-2.68 0-2 .78-2.76 1.82-2.76 1 0 1.84.76 1.84 2.74 0 1.96-.82 2.7-1.84 2.7z" fill="#000"/></svg>