<svg width="483" height="976" fill="none" xmlns="http://www.w3.org/2000/svg"><path d="M361.803 522.438c3.946 19.665 28.923 33.438 35.84 44.239-3.404-9.996-18.727-27.454-16.685-44.239 8.825 26.484 27.783 41.198 57.527 47.41-25.496-20.29-19.855-36.116-31.611-55.021 13.048 15.352 19.183 7.611 33.899 27.556-2.348-13.834-17.323-30.735-27.784-40.87 10.162 6.38 15.005 2.827 25.496 15.694-12.42-27.138-29.537-42.327-31.735-42.326-16.153-4.398-37.561 1.276-48.327 11.232-1.903 1.759-3.56 4.616-2.603 7.607 2.611 8.164 2.037 9.054 5.983 28.718z" fill="#FFAE2A"/><path d="M368.565 494.747c1.812 9.03 4.152 19.088 7.328 24.047-1.563-4.59 3.278-15.193 4.216-22.901 4.052 12.162 10.002 27.904 23.661 30.757-11.708-9.318-6.362-25.57-11.76-34.252 5.991 7.05 12.498 6.66 19.256 15.819-1.079-6.353-11.645-17.279-16.448-21.933 4.666 2.93 12.933.206 17.751 6.114-5.704-12.462-19.607-18.344-20.617-18.343-7.417-2.02-17.248.585-22.192 5.157-.874.808-1.634 2.12-1.195 3.493 1.199 3.749-1.812 3.012 0 12.042z" fill="#fff"/><path d="M400.921 424.99c-5.094-25.449-17.156-58.827-26.101-72.807 4.399 12.937 7.264 37.326 4.747 54.229-1.674 11.237-9.909-23.628-14.286-15.443-3.628 6.786-6.065 54.738-20.895 47.952-14.072-6.439-25.872-24.461-30.817-31.873-3.259 7.412 2.674 15.7 12.928 37.459 10.253 21.759 10.475 26.765 11.59 36.121 2.014 5.103 3.591 9.985 6.437 9.985 20.898 5.701 48.605-1.629 62.542-14.505 2.464-2.276 4.609-5.971 3.374-9.842-3.366-10.539-4.419-15.8-9.479-41.08l-.04-.196z" fill="#D8D8D8"/><path d="m334.622 460.469 3.087 11.894c8.07 2.414 21.715 1.773 36.426-2.283 14.834-4.091 26.959-10.607 32.593-16.864 0 0-2.128-11.166-2.842-13.757-6.015 6.323-17.886 14.158-33.109 18.355-14.667 4.044-28.773 3.852-36.155 2.655z" fill="#C882FF"/><path d="M374.82 352.183c8.945 13.98 21.007 47.358 26.101 72.807 5.095 25.449 6.145 30.71 9.519 41.276 1.235 3.871-.91 7.566-3.374 9.842-13.937 12.876-41.644 20.206-62.542 14.505" stroke="#000" stroke-linejoin="bevel"/><path d="M227.319 870.417s-2.483-.741-6.068.36c-4.484 1.372-10.7 4.323-16.256.146-5.391-4.052-8.779-25.492-8.779-25.492s9.684-4.79 12.069-6.359c2.866-1.883 8.944-7.473 8.944-7.473s5.515 11.892 8.165 15.335c2.311 2.994 11.132 10.254 11.132 10.254s-4.825 4.471-5.979 6.124c-1.154 1.652-3.228 7.105-3.228 7.105z" fill="#fff"/><path d="M196.209 845.415c4.124-.804 17.801-9.389 21.025-13.827M237.578 856.36c-2.219.993-5.606 3.447-7.534 7.712" stroke="#000" stroke-miterlimit="10"/><path d="M81.741 899.213c-4.555 11.662-3.02 21.441-10.593 41.31-3.05 7.997-6.146 15.973-10.03 19.641-11.671 10.983-27.54 4.802-34.587 1.792-7.98-3.417-28.218-13.268-12.291-41.51 9.281-16.46 17.573-26.907 22.73-34.663 4.996-7.511 6.972-12.524 8.945-16.489 5.688-4.403 3.136 3.59 3.95 4.986 4.05-3.669 15.87-7.336 20.592-4.986 6.605 3.287 10.198 5.964 11.284 14.762 6.283-3.841 3.793 5.448 0 15.157z" fill="#fff"/><path d="M351.239 426.088c-25.089-15.32-90.911-20.313-123.829-7.783-36.304 13.819-38.614 46.155-38.614 46.155s-37.853 106.937-43.317 178.477c-.793 10.379.645 12.52-13.418 33.903-21.421 32.562-38.427 85.44-52.123 116.204-3.69 6.974-13.365 32.26-13.365 32.26s1.788 8.617 18.048 16.709c15.604 7.765 21.962 3.801 21.962 3.801s15.674-25.031 18.657-30.642l83.57-130.041s22.6-48.864 33.63-69.958c7.82-14.974 25.769-45.198 35.423-54.045 3.349 0 6.583-.996 8.327 2.969 15.045 34.211 22.511 115.967 27.804 126.574-13.815 16.89-36.608 39.629-55.229 78.403-8.337 17.36-35.119 53.349-42.509 57.13 1.378 8.688 3.061 13.206 8.471 20.871 7.59 10.753 17.203 10.753 17.203 10.753s85.629-74.552 117.208-126.571c8.148-13.422 16.976-17.029 20.98-38.964 2.621-21.213 6.186-35.854 6.186-69.732 0-68.712-3.156-87.912-9.262-108.162 1.203-10.119 2.059-18.937 2.588-26.642-7.768-43.694-7.664-53.293-28.391-61.669z" fill="#000"/><path d="m84.775 883.625-4.42 2.826s1.089-11.004-9.54-16.293c-8.512-4.236-21.175 6.052-21.175 6.052v-4.656l20.256-41.917s10.412 10.23 14.713 12.37c13.533 6.735 15.694 5.335 15.694 5.335l-15.528 36.283z" fill="#fff"/><path d="M285.354 562.319c20.194 51.279 20.476 106.548 28.573 128.037M217.353 826.384c12.415-10.675 34.331-43.78 49.175-70.809 20.515-37.354 42.098-53.505 47.535-65.207M195.905 449.237c-11.783 20.968-46.823 157.983-50.013 201.43-.465 8.275-2.752 10.622-3.658 11.554" stroke="#000" stroke-miterlimit="10"/><path d="M286.852 550.554c-3.898 3.915-7.745 8.299-11.517 13.029" stroke="#fff" stroke-miterlimit="10"/><path d="M187.818 501.15c42.641-6.463 42.642-23.266 43.934-29.729M270.759 493.789c-3.459 43.003 12.894 46.845 18.888 49.581M288.978 538.906l1.958-37.54M376.873 509.446c-1.027 1.369-3.387.892-5.259 0-13.968-5.474-24.7-28.735-25.883-34.654" stroke="#fff"/><path d="M69.896 829.637c-3.439 11.122-6.027 8.658-8.645 14.271-2.266 4.86-1.09 7.63-8.742 22.581M100.303 847.342c-4.788 8.071-3.195 7.246-5.615 13.429-1.837 4.695-3.204 1.068-8.782 18.024" stroke="#000" stroke-miterlimit="10"/><path d="M49.465 875.101c.803-8.105-1.246-8.797-3.56-5.813-2.637 3.406-4.44 9.345-8.232 15.184-10.868 16.739-25.928 39.072-29.02 48.628-2.234 6.939 1.02 14.381 4.9 19.534 3.88 5.154 18.202 12.917 24.94 13.712 7.172.844 19.165-1.279 24.14-7.863 9.731-16.622 13.095-31.832 15.689-47.164 1.495-8.838 2.822-11.229 6.069-20.174 3.53-9.725-1.334-9.672-3.247-6.673" stroke="#000" stroke-miterlimit="10" stroke-linejoin="bevel"/><path d="M14.65 926.089c0 9.015 2.503 17.079 6.098 20.555 3.594 3.476 20.056 13.107 29.487 11.355 9.43-1.753 19.862-14.639 21.717-19.787" stroke="#000" stroke-miterlimit="10"/><path d="M220.814 879.472c-7.293 10.176-8.22 20.031-20.462 37.415-4.931 6.997-9.899 13.961-14.568 16.556-14.02 7.76-27.87-2.151-33.956-6.809-6.888-5.283-24.067-19.829-1.663-43.263 13.058-13.658 23.671-21.733 30.583-27.975 6.695-6.045 9.847-10.414 12.737-13.77 6.598-2.862 2.152 4.254 2.597 5.808 4.83-2.554 17.188-3.188 21.183.256 5.59 4.817 8.41 8.299 7.291 17.093 7.035-2.169 2.33 6.218-3.742 14.689z" fill="#fff"/><path d="M195.49 848.131c2.78-7.656.964-8.833-2.014-6.513-3.397 2.649-6.61 7.959-11.725 12.681-14.663 13.536-34.769 31.457-40.124 39.954-3.877 6.172-2.562 14.188-.074 20.141 2.487 5.953 14.448 17.014 20.782 19.45 6.74 2.589 18.885 3.495 25.33-1.656 13.534-13.704 20.547-27.612 26.846-41.83 3.63-8.196 5.506-10.184 10.86-18.05 5.822-8.553 1.096-9.703-1.498-7.269" stroke="#000" stroke-miterlimit="10" stroke-linejoin="bevel"/><path d="M149.123 888.762c-3.826 11.464-1.748 17.344.877 21.6 2.625 4.257 16.199 17.656 25.77 18.288 9.571.631 22.861-9.278 25.93-13.809" stroke="#000" stroke-miterlimit="10"/><path d="M152.57 662.483c-1.761 5.293-.146 18.171 2.904 23.188M331.13 687.675c-3.071 6.522-2.718 16.118.164 24.246M346.414 722.684c6.694-2.67 17.843-10.048 21.283-17.956" stroke="#fff" stroke-miterlimit="10"/><path d="M163.033 513.605c-3.946 19.665-28.923 33.438-35.84 44.239 3.404-9.996 18.727-27.454 16.685-44.239-8.825 26.485-27.783 41.198-57.527 47.41 25.496-20.29 19.855-36.116 31.611-55.02-13.047 15.351-19.182 7.61-33.899 27.555 2.349-13.833 17.324-30.734 27.784-40.87-10.161 6.38-15.004 2.827-25.496 15.694 12.42-27.138 29.537-42.327 31.736-42.326 16.152-4.398 37.56 1.276 48.326 11.232 1.903 1.759 3.56 4.616 2.604 7.607-2.611 8.164-2.038 9.054-5.984 28.718z" fill="#FFAE2A"/><path d="M156.272 485.914c-1.812 9.03-4.153 19.088-7.329 24.047 1.563-4.59-3.277-15.193-4.215-22.901-4.053 12.162-10.003 27.904-23.662 30.757 11.708-9.318 6.362-25.57 11.761-34.252-5.992 7.05-12.498 6.66-19.256 15.819 1.078-6.353 11.644-17.278 16.448-21.933-4.667 2.93-12.934.206-17.752 6.114 5.704-12.462 19.607-18.344 20.617-18.343 7.417-2.02 17.248.586 22.192 5.157.874.808 1.635 2.12 1.196 3.493-1.199 3.749 1.812 3.012 0 12.042z" fill="#fff"/><path d="M123.915 416.157c5.094-25.449 17.157-58.827 26.101-72.807-4.398 12.937-7.264 37.326-4.746 54.229 1.673 11.237 5.562 15.644 9.938 23.83 3.629 6.785 10.413 15.465 25.242 8.679 14.072-6.439 25.873-24.46 30.818-31.873 3.258 7.413-2.675 15.7-12.928 37.459-10.254 21.759-10.475 26.765-11.591 36.121-2.013 5.103-3.591 9.985-6.436 9.985-20.899 5.701-48.605-1.629-62.543-14.505-2.463-2.276-4.609-5.971-3.373-9.842 3.365-10.539 4.418-15.8 9.479-41.08l.039-.196z" fill="#D8D8D8"/><path d="m190.58 451.454-3.452 12.076c-8.07 2.414-21.715 1.773-36.427-2.283-14.834-4.091-26.959-10.607-32.593-16.864 0 0 2.129-11.166 2.843-13.757 6.015 6.323 17.885 14.158 33.108 18.355 14.668 4.044 29.138 3.671 36.521 2.473z" fill="#C882FF"/><path d="M150.016 343.35c-8.944 13.98-21.007 47.358-26.101 72.807-5.094 25.449-6.144 30.71-9.518 41.276-1.236 3.871.91 7.566 3.373 9.842 13.938 12.876 41.644 20.206 62.543 14.505" stroke="#000" stroke-linejoin="bevel"/><path d="M351.975 105.243c2.679 11.023 6.051 38.111-15.682 57.444-4.233 5.632-11.796 11.233-19.464 13.944-18.466 16.234-38.634 0-56.69 0-10.462-3.993-10.998-6.61-20.42-11.989-18.161-10.361-15.682-31.827-12.279-39.592-13.729-12.147-7.573-30.493 1.082-45.96 4.296-22.023 15.504-28.937 24.516-33.98-3.193-5.117-14.222-30.945 18.907-40.349 6.734-5.905 14.654-2.364 20.609-1.797 12.048-1.092 20.199 4.865 23.529 19.208 5.924 0 13.414 10.392 3.939 19.912 9.002 3.089 13.193 12.367 13.624 15.582 1.639 12.44 14.17 30.419 18.35 47.598l-.021-.021z" fill="#000"/><path d="M328.089 133.571c0 7.45-3.12 24.777-12.017 34.275.923 10.763 3.497 26.663 28.332 34.689 6.081 9.572-1.978 17.741-5.906 20.746-28.288 32.3-93.147 16.168-101.876-3.387-3.908-5.443 3.38-15.871 5.197-21.355 13.971-1.797 18.907-13.713 18.907-31.659-6.378-8.433-9.574-12.314-13.466-25.533 4.695-10.747 16.681-28.097 16.838-42.24.2-17.663 13.855-27.183 20.357-27.183 2.5 0 4.202 2.039 8.067 2.417 2.321.231 6.397-2.301 9.023-.031 11.869 10.255 7.227 21.718 12.384 33.886 4.317 10.182 9.706 18.377 14.16 25.375z" fill="#fff"/><path d="M425.587 308.582c0 2.207-7.678 6.252-17.814 11.159-9.065 4.382-19.895 9.908-32.29 8.343-2.502 13.687-1.939 39.552-6.756 69.759-7.124 44.677 10.294 50.875 11.374 88.677-57.31 24.045-136.909 28.927-194.048-15.592 1.564-14.701 9.257-32.654 15.915-42.038 8.534-12.028 8.254-19.364 11.025-31.146 9.847-41.871 7.813-76.545-11.025-75.366-13.172 2.606-27.92-6.178-37.951-11.715-6.702-3.699-12.29-5.622-11.733-8.165.504-2.301 1.313-5.201 1.796-7.449 3.088-14.448 5.599-28.917 8.802-42.083 5.778-23.704 17.836-41.451 52.646-46.179 11.177-2.112 5.147 11.095 23.025 10.707 22.195 25.722 77.541 28.264 100.45 3.761 9.905-10.591 16.197-13.355 26.523-10.833 35.493 8.679 47.257 29.599 50.765 51.728 2.658 16.738 5.977 30.471 9.307 46.443l-.011-.011z" fill="#fff"/><path d="M372.087 277.066c.525 7.629-1.264 26.565 8.766 61.337-6.859-10.662-22.079 18.751-43.067 28.309 0 9.688-48.702-4.292-89.962-14.074-11.982-16.93-17.901-4.689-27.655 8.636 5.326-20.121-20.481 8.428-23.496-7.354 4.729-15.962 5.77-34.933 8.669-61.485 2.561-37.443 5.589-70.518 6.335-78.419.389-4.151 1.219-9.583 4.422-9.993 3.971-.504 17.813-7.576 23.033-7.271 3.13.179 3.834-.305.893 7.271-6.84 13.6-4.308 56.149-6.84 84.008 1.019 3.037 2.943 32.693 6.84 34.311 19.506 8.133 116.095 19.033 117.166 11.604-9.321-10.815-9.237-37.191-10.439-61.537-1.451-29.367.485-43.521.056-56.666-.225-6.884-2.324-9.548-1.507-14.404 4.175 0 9.751 2.822 14.493 4.884 6.148 2.673 11.029 4.898 11.029 6.609 3.193 5.506-.869 33.253 1.264 64.234z" fill="#C882FF"/><path d="M433.132 393.283c1.901 11.957 1.124 31.869-4.086 42.881-6.576 13.911-15.441 10.99-20.977 8.5-10.882-4.886-23.865-11.59-32.867-35.011-2.479-6.441-10.083-24.072-20.398-42.061-13.319.557-13.445-.945-34.79 12.063-6.281 1.345-19.432 1.387-37.32-.21-4.254-1.03-5.347-3.09-4.286-5.8-5.966-.694-15.525-.515-19.821-1.209-10.357-1.67-4.727-8.658-.536-8.742 1.317-.029 2.635-.815 3.931-.89 43.179-2.5 74.323-29.033 72.202-31.756-1.943-.61-7.605.189-11.901-3.373-10.105-8.385.084-11.348 2.532-10.245 7.731 3.467 29.348-3.194 40.671 1.786 3.645 1.608 7.805 5.664 9.969 8.879.446.062 3.351 8.899 4.01 7.634 1.971.395-1.841-7.377-1.417-7.344 7.117.548 15.393-1.274 42.196-15.147 1.775 25.364 10.493 65.061 12.877 80.066l.011-.021z" fill="#fff"/><path d="M252.796 173.3c-6.964-9.856-11.838-23.337-1.26-41.147 10.577-17.81 10.882-23.348 13.771-40.191 2.888-16.844 18.76-24.062 24.054-17.81M328.088 170.431c7.846-4.781 15.693-12.63 0-36.86-15.693-24.23-16.04-28.674-17.059-39.592-1.019-10.917-6.144-23.21-16.039-19.796M341.735 156.435c9.558-13.313 16.722-26.625 10.241-51.202-6.481-24.577-15.01-30.724-17.741-45.056-2.731-14.332-14.674-19.113-20.819-19.796M239.708 164.631c-10.241-6.146-19.789-15.015-12.279-39.591 7.511-24.577 11.261-25.26 9.895-36.524" stroke="#fff" stroke-miterlimit="10"/><path d="M227.429 125.039c-8.834-5.075-9.863-26.626-3.487-36.523 9.38-14.574 4.842-26.952 19.569-37.113 9.212-6.356 17.415-11.673 22.216-15.456 10.84-8.532 38.823-9.215 41.554 4.434M291.702 71.924c3.287-13.67 12.216-23.147 16.964-27.34M252.322 43.765c-7.006-9.205-7.206-33.824 19.611-39.025" stroke="#fff" stroke-miterlimit="10"/><path d="M303.541 13.346c0 9.204-17.395 23.41-43.403-2.207" stroke="#fff" stroke-miterlimit="10"/><path d="M280.537 22.15c-4.601-13.407 11.26-25.816 26.733-16.012M310.148 14.144c9.401 6.61 5.924 20.217-4.811 22.024" stroke="#fff" stroke-miterlimit="10"/><path d="M316.07 22.15c9.895 0 10.042 17.212 3.939 19.912M270.746 19.818c-3.813-12.083 3.792-23.484 21.796-16.875" stroke="#fff" stroke-miterlimit="10"/><path d="M249.215 145.802c5.494 18.829 15.704 24.64 24.863 31.942 8.509 6.788 23.792 7.566 31.932 0 14.107-13.103 21.04-22.128 22.09-44.162M291.703 115.289c-.64 8.553 2.353 15.708 3.288 17.106" stroke="#000" stroke-miterlimit="10"/><path d="M284.32 146.59c1.649-.505 3.077.063 3.298.336M293.532 146.653c1.355-1.082 2.574-1.082 3.12-.945" stroke="#000" stroke-miterlimit="10"/><path d="M273.731 156.078c9.612 6.526 22.668 7.923 31.88.83" stroke="#000" stroke-linejoin="bevel"/><path d="M280.464 159.588c7.742-6.862 8.078-3.111 10.819-2.837 2.479.252 2.017-4.141 9.223 2.364M299.645 162.677c-2.763 6.242-13.582 7.503-17.384 0" stroke="#000" stroke-linejoin="bevel"/><path d="M302.514 124.462c8.912-5.577 10.115-1.093 15.913-1.093" stroke="#000" stroke-miterlimit="10"/><path d="M310.47 128.35c1.728 0 3.13-1.482 3.13-3.31 0-1.829-1.402-3.311-3.13-3.311-1.729 0-3.131 1.482-3.131 3.311 0 1.828 1.402 3.31 3.131 3.31z" fill="#000"/><path d="M274.393 125.659c-3.754-5.241-10.178-.157-15.945.368" stroke="#000" stroke-miterlimit="10"/><path d="M269.716 129.996c1.722-.16 2.981-1.764 2.813-3.585-.169-1.82-1.7-3.167-3.422-3.008-1.721.159-2.98 1.764-2.812 3.585.168 1.82 1.7 3.167 3.421 3.008zM250.811 114.395c6.848-6.115 12.93-11.663 24.789-6.84 3.655 1.492 7.342 2.543 6.208 4.235-3.561 5.274-15.872-5.695-30.997 2.605zM327.198 114.395c-6.849-6.115-12.931-11.663-24.79-6.84-3.655 1.492-7.342 2.543-6.207 4.235 3.56 5.274 15.871-5.695 30.997 2.605z" fill="#000"/><path d="M260.729 167.846c-.904 21.866-6.986 27.719-17.784 30.199M316.073 167.846c.904 21.866 15.912 31.409 26.71 33.889M241.884 291.676c.304 3.047 4.643 4.981 7.51 5.811m101.254 19.989c-3.851-15.41-5.211-77.673-3.911-98.23 0-11.734-4.243-18.56.61-17.688 4.443.799 18.634 7.383 20.588 8.16 3.852 2.167 3.264 5.042 3.852 9.528.588 4.487-3.574 90.707 8.54 116.26" stroke="#000" stroke-linejoin="bevel"/><ellipse cx="280.468" cy="311.843" rx="54.572" ry="54.59" fill="#000"/><path d="M338.746 314.179c0 29.873-24.209 54.089-54.072 54.089-29.862 0-54.071-24.216-54.071-54.089 0-29.873 24.209-54.09 54.071-54.09 29.863 0 54.072 24.217 54.072 54.09z" fill="#fff" stroke="#000"/><path d="M319.894 314.179c0 19.46-15.77 35.233-35.22 35.233s-35.22-15.773-35.22-35.233c0-19.46 15.77-35.233 35.22-35.233s35.22 15.773 35.22 35.233z" fill="#fff" stroke="#000" stroke-width="9"/><path d="m304.838 300.868-10.946 13.728 9.668 14.656-16.433-6.172-10.945 13.728.79-17.542-16.433-6.171 16.921-4.67.789-17.543 9.668 14.656 16.921-4.67z" fill="#FFAE2A" stroke="#fff" stroke-width="4" stroke-linejoin="round"/><path d="M305.619 301.491a1 1 0 0 0-1.047-1.587l-16.22 4.477-9.268-14.05a1 1 0 0 0-1.833.506l-.757 16.816-16.221 4.477a1.001 1.001 0 0 0-.085 1.901l15.752 5.916-.757 16.816a1 1 0 0 0 1.78.669l10.493-13.16 15.752 5.916a1 1 0 0 0 1.186-1.487l-9.267-14.05 10.492-13.16z" stroke="#000" stroke-width="2" stroke-linejoin="round"/><path d="m232.436 212.286-3.869 4.853 3.418 5.181-5.809-2.181-3.87 4.853.279-6.202-5.809-2.182 5.982-1.651.279-6.201 3.418 5.181 5.981-1.651zM367.991 219.127l-3.869 4.853 3.418 5.181-5.81-2.182-3.87 4.853.28-6.201-5.81-2.182 5.982-1.651.279-6.201 3.418 5.181 5.982-1.651zM230.016 236.797l-3.87 4.853 3.418 5.181-5.809-2.182-3.87 4.853.279-6.202-5.809-2.181 5.982-1.651.279-6.201 3.418 5.181 5.982-1.651zM365.57 243.639l-3.869 4.852 3.418 5.181-5.81-2.181-3.869 4.852.279-6.201-5.81-2.182 5.982-1.65.279-6.202 3.418 5.181 5.982-1.65zM227.932 263.789l-3.87 4.852 3.418 5.181-5.809-2.182-3.87 4.853.279-6.201-5.809-2.182 5.982-1.65.279-6.202 3.418 5.181 5.982-1.65zM365.869 270.298l-3.87 4.853 3.418 5.181-5.809-2.182-3.87 4.853.279-6.202-5.809-2.181 5.982-1.651.279-6.201 3.418 5.181 5.982-1.651zM367.991 298.979l-3.869 4.853 3.418 5.181-5.81-2.182-3.87 4.853.28-6.201-5.81-2.182 5.982-1.651.279-6.201 3.418 5.181 5.982-1.651z" fill="#fff"/><path d="M370.573 211.996c6.701 1.797 11.084 2.766 17.617 6.748 14.023 8.553 21.891 17.81 24.674 29.904 2.784 12.094 11.649 54.565 11.87 56.278.22 1.713 2.783 5.359-2.364 7.292-5.147 1.933-31.081 18.661-44.158 15.446" stroke="#000" stroke-linejoin="bevel"/><path d="M379.248 301.26c-1.639 3.047-2.286 9.991-2.517 13.753M420.388 315.013c4.244 50.898 12.899 61.773 13.267 87.526.368 25.554-1.513 26.647-5.189 34.927-5.956 13.418-14.905 11.285-29.59 2.133-19.485-12.146-24.59-33.907-30.524-45.97-5.935-12.062-9.454-19.344-13.54-24.944" stroke="#000" stroke-linejoin="bevel"/><path d="M430.009 404.378c-3.508-17.305-36.995-35.882-50.702-67.541-3.026-6.988-5.284-18.031-22.059-19.47-12.237-1.051-19.222 2.406-27.657.725-8.435-1.681-15.031-.925-9.622 7.26 5.41 8.186 25.651 4.392 34.832 9.289M338.771 369.368c6.197-1.986 21.26-2.722 26.733 0M346.259 361.371c-7.636 2.89-15.997 10.749-19.463 13.481-3.467 2.732-6.114 5.885-13.057 6.147-6.943.263-22.289-.966-28.004-1.219-9.285-.409-10.525-5.411-3.287-8.605 6.113-2.701 14.831-1.061 20.535-1.807 5.704-.746 8.225-2.596 13.077-6.378 4.853-3.783 11.555-11.338 12.542-13.513" stroke="#000" stroke-linejoin="bevel"/><path d="M278.405 373.623c-6.754-.315-14.233-.872-17.846-1.03-9.286-.409-10.525-5.411-3.288-8.605 1.099-.482 2.278-.829 3.508-1.072M212.085 396.813c1.844 23.176-19.633 35.32-25.859 73.929M368.597 396.862c-7.546 52.573 11.222 47.063 11.222 89.145M239.415 219.417c18.308 20.573 73.223 30.555 99.567 1.828" stroke="#000" stroke-linejoin="bevel"/><path d="M255.403 353.68c4.759-1.408 4.065-5.285-1.04-6.746-3.456-.987-8.046-1.544-11.376-3.688 1.271-3.961 1.261-7.912 1.271-10.034 2.406-.095 13.96-.883 17.773-2.049 2.689-.83 4.076-1.356 6.775-2.774 3.603-3.257 3.141-7.324-9.348-5.968-4.517-.358-14.905-.83-19.139-.935-.22-2.186-.367-5.496-.462-6.893 6.796-.925 19.097-1.513 22.825-2.301 9.58-2.028 7.038-10.508-1.859-8.574-4.411.956-7.342-.589-15.409-1.219-2.216-.179-3.677-.274-6.534-.253.956-2.259 1.198-7.082 3.309-11.369.693-1.418 7.763-8.878 9.191-11.925 4.013-8.564-3.014-7.639-4.38-6.525-3.865 3.183-10.809 8.521-11.302 8.542-5.179.21-5.347 13.565-14.821 23.516-1.229 1.691-5.105 4.245-6.986 10.938-.955 3.404-.462 7.828-.745 12.609-.189 3.194-1.734 6.43-2.101 9.898-4.38 5.737-12.432 15.866-14.228 17.347.842-5.751 5.898-34.023 5.142-32.898-11.397 1.408-16.155-.074-44.264-15.247-4.695 24.84-11.166 54.513-13.561 69.517-1.901 11.958 3.131 32.332 10.315 43.385 8.382 12.903 16.87 14.952 25.084 10.424 9.905-5.464 24.39-15.919 34.337-36.303 15.189-31.144 16.796-24.766 26.702-40.906 8.833.957 13.728.788 14.842.452l-.011-.021z" fill="#fff"/><path d="M157.401 308.729c-3.225 27.992-15.493 52.758-12.92 78.375 2.574 25.617 8.046 29.61 12.92 37.249 2.122 3.331 9.044 14.426 26.691 3.656 17.646-10.77 31.617-36.177 37.551-48.229 5.935-12.052 13.687-18.514 17.773-24.114" stroke="#000" stroke-linejoin="bevel"/><path d="M152.265 386.243c9.874-14.648 23.865-14.858 34.201-22.612 10.336-7.755 20.662-18.945 22.384-23.905M215.52 353.513c-2.364-2.586-3.445-5.171-3.225-7.756M211.077 338.833c-.263-2.606 1.775-7.565 2.122-10.822.346-3.258-.567-11.474 1.649-15.12 2.216-3.647 10.682-14.469 12.636-17.863 1.954-3.394 3.803-11.758 8.214-14.08 4.696-2.48 7.689-5.737 10.42-7.954 2.731-2.217 8.729-2.869 5.599 5.086-3.13 7.954-8.781 11.211-9.538 12.777-.756 1.565-1.659 7.039-2.773 9.383" stroke="#000" stroke-linejoin="bevel"/><path d="M222.451 308.73c6.995-1.555 13.098-7.545 26.879-5.99 7.133.81 8.004 1.251 13.803.841 7.636-.546 8.413 7.523-3.309 9.331-7.227 1.113-18.781-2.049-30.882 7.124M220.804 325.1c7.247-1.912 9.989-3.846 18.613-3.636 8.624.211 18.319 1.282 23.245.589 8.141-1.145 11.744 4.476 3.435 7.765-10.304 4.077-20.808 2.973-23.151 3.562-3.729.935-11.113 2.543-18.96 6.357M225.898 343.425c4.307-.662 8.76-1.797 15.315-.61 3.508.641 8.949 3.226 12.3 3.92 8.015 1.66 6.103 7.639-2.405 7.555-4.58-.042-17.437-3.363-22.405 2.364" stroke="#000" stroke-linejoin="bevel"/><path d="M244.248 334.504c0 3.268-.483 7.576-1.271 8.743" stroke="#000" stroke-linejoin="bevel"/><path d="M350.579 319.52c-1.282-.378-1.639-.378-2.994-.378-1.229 0-2.153-.473-2.773-1.187-7.699.189-14.895-.547-19.978-.547-2.69 0-11.372 2.112-2.532 10.245 4.296 3.562 10.303 3.383 12.773 3.383 4.648.905 6.807.379 10.504-.168a23.701 23.701 0 0 1 2.416-5.274 27.901 27.901 0 0 1 2.71-3.667c.273-.326.662-.831.998-1.093.021-.273.021-.536.031-.799-.315-.231-.64-.368-1.145-.515h-.01z" fill="#fff"/><path d="M347.901 317.346c-12.941.987-12.878-.379-25.22.126-2.899.115-4.969 2.984-4.034 5.737 1.733 5.117 9.79 8.133 15.662 8.143l8.09.432M213.198 206.776c-10.179 2.974-23.319 7.209-29.475 11.454-6.155 4.244-16.113 11.663-21.207 37.112-5.095 25.448-8.697 40.295-9.118 43.059-.42 2.763-3.602 4.875 2.973 8.059 6.576 3.184 15.483 9.331 21.838 11.663 6.355 2.333 15.483 6.578 23.749 4.245" stroke="#000" stroke-linejoin="bevel"/><path d="M233.796 282.202c2.5-26.767-1.613-60.14 6.217-78.179 2.132-7.513 3.96-8.143-.893-7.271-4.443.799-20.945 6.494-22.899 7.271-1.953.778-3.508 2.343-4.096 6.83-.357 2.742-3.403 36.825-6.286 79.358-1.595 23.542-2.994 37.397-9.294 63.346" stroke="#000" stroke-linejoin="bevel"/></svg>