<svg width="898" height="1208" fill="none" xmlns="http://www.w3.org/2000/svg"><path d="M285.848 1041.41c-1.331 13.61-2.81 25.18-2.376 36.48.454 11.68 2.249 22.02 21.629 13.79 15.057-6.38 16.031-23.89 30.459-58.76 3.706-8.96 24.833-54.239 24.137-62.815-19.356-20.95-43.708-25.845-43.556-19.582.261 11.368-20.792 27.16-35.243 29.554-10.412 1.73-9.786 6.469-6.906 12.276 14.199 28.717 13.771 29.597 11.87 49.047l-.014.01z" fill="#fff"/><path d="M319.477 1051.05c-3.925 14.78-13.133 31.48-22.867 43.04 0 0 10.471-1.49 16.142-8.4 10.795-13.16 8.835-18.07 23.263-52.93 3.706-8.97 24.378-54.079 23.683-62.655-2.892-4.812-10.291-9.52-20.38-14.9-6.052 11.097-8.743 24.137-8.743 49.435 0 7.97-2.207 25.68-11.098 46.41z" fill="#D8D8D8"/><path d="M438.324 1021.81c2.448 13.47 5.062 31.02 11.503 54.67 2.596 9.52 5.245 19.02 9.287 23.66 12.147 13.92 31.053 8.63 39.48 5.97 9.541-3.01 33.876-12.02 18.798-46.22-17.298-39.23-26.869-52.55-30.556-62.252-6.028-5.694-5.958-3.262-9.37-3.079-4.233-4.667-16.039-7.889-21.722-5.728-7.951 3.023-9.569 9.532-11.81 19.499-7.386 2.06-6.542 8.34-5.605 13.49l-.005-.01z" fill="#fff"/><path d="M491.582 1096.21c-12.856 3.27-23.175 10.77-41.756-19.73 2.596 9.52 5.245 19.02 9.287 23.66 12.148 13.92 31.054 8.63 39.481 5.97 9.541-3.01 33.875-12.02 18.797-46.22 1.331 22.36-12.104 32.83-25.809 36.32z" fill="#D8D8D8"/><path d="M263.483 525.283c23.871-7.015 97.329-38.746 97.329-38.746s39.221 157.537 37.398 240.21c-.264 11.995-2.157 14.287 11.56 40.404 20.893 39.772 34.423 102.346 46.657 139.181 0 0 7.157 1.997 8.209 4.605 3.445 8.417 10.16 26.08 10.16 26.08s-9.711 17.51-29.281 24.951c-22.933 8.719-32.246.61-32.246.61s-9.706-20.71-12.495-27.483c-.964-5.267 1.231-8.087 1.231-8.087l-81.23-159.032s-20.403-58.602-30.672-84.045c-7.279-18.06-24.453-54.757-34.528-65.997-14.312 20.069-57.291 99.395-84.265 140.494-6.624 8.642 3.484 24.144.337 30.486 2.148 2.115 4.434 1.582 4.741 5.359 3.768-.409 7.773 5.305 7.773 5.305l80.731 99.566 2.634-.863 25.446 22.711s1.165 9.771-10.474 31.97c-6.771 12.912-27.695 17.798-27.695 17.798l-28.06-21.794-1.536-9.784L94.061 823.803s-26.201-19.477-20.803-51.625c3.378-20.111 11.223-41.844 19.94-72.169 20.561-71.505 42.205-125.74 61.969-158.494 17.611-3.641 79.89-7.867 108.308-16.214l.008-.018z" fill="#fff"/><path d="M280.886 980.083s2.844-.914 7.004.268c5.201 1.473 12.438 4.723 18.741-.224 6.116-4.798 9.502-29.585 9.502-29.585s-11.278-5.286-14.065-7.036c-3.349-2.101-10.491-8.394-10.491-8.394s-6.069 13.835-9.041 17.866c-2.591 3.505-12.583 12.083-12.583 12.083s5.67 5.036 7.04 6.912c1.37 1.877 3.893 8.11 3.893 8.11zM440.63 1009.68l3.299-1.36s-.983-14.638 11.81-19.502c10.246-3.896 21.722 5.727 21.722 5.727l2.128-.87-15.78-44.235s-13.104 10.555-18.28 12.523c-16.289 6.193-18.611 4.343-18.611 4.343l13.712 43.374z" fill="#fff"/><path d="M155.167 541.515c-9.824 13.654-22.551 43.908-34.879 77.66m139.545 349.684c-7.201-8.058-135.281-118.11-165.754-145.048-30.46-26.943-20.991-48.744-16.555-68.722 3.6-16.225 20.561-73.705 39.192-126.008" stroke="#000" stroke-miterlimit="10" stroke-linejoin="bevel"/><path d="M255.602 617.924c-36.927 57.374-74.269 126.784-84.265 140.494-8.996 12.323 3.909 25.22.338 30.486-4.565 5.706-13.223 8.998-13.223 8.998M269.36 904.149c-14.19-13.065-84.443-112.34-92.941-109.873a11097.168 11097.168 0 0 1-10.059 18.483M362.264 498.872c11.148 25.384 35.851 186.501 34.596 236.694-.402 9.544 1.956 12.495 2.891 13.666M401.563 751.872c17.353 23.391 48.843 140.594 54.872 154.442" stroke="#000" stroke-miterlimit="10" stroke-linejoin="bevel"/><path d="M246.455 604.789c38.832 47.518 67.2 144.379 74.347 163.176 7.147 18.797 85.76 164.352 97.173 195.042M418.645 964.461c21.142 8.691 42.585-11.914 49.802-23.774l-9.638-29.421M259.224 968.859c22.236-4.265 34.6-23.414 32.288-42.949l-17.667-17.667M316.14 950.523c5.869-9.865 40.267 13.381 43.556 19.582 3.289 6.201-25.029 64.725-28.851 75.485-3.816 10.76-11.268 40.12-25.75 46.08-14.483 5.97-21.193 6.67-21.818-18.23-.624-24.89 7.285-43.24 1.407-58.71-5.879-15.458-15.227-26.592-11.793-31.013 3.434-4.421 14.417-4.932 18.334-1.978 3.918 2.954 18.458 2.083 20.903-10.482 2.446-12.564 4.02-20.752 4.02-20.752l-.008.018z" stroke="#000" stroke-miterlimit="10" stroke-linejoin="bevel"/><path d="M339.523 955.559c-13.053 24.141-4.737 33.163-10.091 61.251-5.363 28.1-22.423 72.35-34.894 78.22M310.062 976.502c4.788 12.593 1.385 12.238-8.365 18.281-9.741 6.027-4.026 16.477-6.604 32.787-2.578 16.31-2.216 32.73-11.662 36.32M316.141 950.523c-4.773-.826-20.746-10.389-24.57-15.425M269.947 965.048c8.674 6.108 11.228 14.634 10.938 15.035M463.808 949.44c4.866 16.349 6.154 15.448 9.355 21.784 2.932 5.803 0 10.274 6.426 22.451M428.311 966.56c3.438 9.419 2.963 11.431 5.589 19.914 2.968 9.588 4.728 6.849 6.729 23.206" stroke="#000" stroke-miterlimit="10" stroke-linejoin="bevel"/><path d="M477.615 994.914c1.938-1.531 6.917-.965 9.234 2.719 10.212 16.257 32.195 62.147 35.522 77.407 1.778 8.21-2.797 16.38-7.832 21.85-5.035 5.47-22.344 12.76-30.166 12.9-8.324.16-21.843-3.63-26.806-11.75-8.269-13.51-18.69-72.37-19.723-79.18-1.523-10.11 6.15-10.37 6.15-10.37" stroke="#000" stroke-miterlimit="10" stroke-linejoin="bevel"/><path d="M484.807 1007.72c-11.676-32.111-47.505-22.535-39.136 7.95 4.572 16.65 8.455 31.48 14.149 51.51 3.165 11.14 44.078-5.35 41.673-14.73-3.141-12.19-15.392-41.2-16.673-44.73h-.013z" stroke="#000" stroke-miterlimit="10" stroke-linejoin="bevel"/><path d="M517.4 1059.87c-.369 18.39-5.921 25.75-10.439 29.33-4.517 3.59-24.494 12.77-35.115 9.69-10.622-3.08-21.133-19.04-22.68-25.15M261.009 599.255c-17.02-15.409-34.762-5.045-39.01-4.331M486.977 1013.19c-5.136 1.48-10.342 4.66-15.056 8.51m29.554 30.75c-26.437-16.25-45.673-.98-47.403-5.85-1.051-2.95 4.559-12.18 12.789-20.33" stroke="#000" stroke-miterlimit="10" stroke-linejoin="bevel"/><path d="M448.517 1027.81c15.927-7.63 43.276-1.59 45.29 3.38 1.066 2.63-6.185 4.87-14.429 11.26m-18.297 26.76c3.077-10.2 8.126-17.31 13.353-22.45M291.506 1053.96c-3.511-5.14-5.513-11.77-5.152-17m-.001-22.43s9.69 5.26 9.032 10.96c-.578 5.06-4.676 4.16-7.058 7.11M387.861 748.363c1.422 6.27-1.888 20.858-5.954 26.267M171.472 788.37c2.086.948 3.974 3.345 4.948 5.906" stroke="#000" stroke-miterlimit="10" stroke-linejoin="bevel"/><path d="M449.023 273.091c46.114 76.88 91.826-7.357 122.818-7.357 102.964-71.897 326.139-82.695 326.123 34.5-172.409 0-70.029 216.497-158.152 223.977-167.971 14.257-114.741 207.046-22.811 248.073-250.924 88.393-286.175-46.861-326.997-121.719-8.431-75.57-35.345-173.931-44.869-217.837 22.858-48.106 48.608-121.601 50.421-132.494.648-3.895-35.886-83.033-56.841-106.397 11.187 1.923 86.676 39.856 110.308 79.254zM317.692 78.677c-8.21-4.62-5.865-10.665-41.544 0-3.59 2.85-5.553 14.101-7.475 15.627 22.093.2 30.407-10.424 43.431-1.904 16.475 10.778 9.097-8.663 25.417-2.945 14.919 6.41 30.948 3.001 33.281-4.009-3.086 5.303-14.776 4.009-33.281-4.899-22.665-13.107 6.137 12.742-19.829-1.87z" fill="#000"/><path d="M312.408 102.581c-10.317-9.807-6.959-21.28-33.07-7.418-3.358 2.667-.036 5.591-1.43 12.4 20.666.186 13.57-2.724 25.753 5.246 15.412 10.082 16.277-8.747 25.992 0 7.787 7.011 11.965-.994 14.146-7.551-10.332 12.498-13.332 1.264-20.918-4.926-5.25-4.283 4.786 16.751-10.473 2.249z" fill="#000"/><path d="M273.108 87.93c5.426-2.713 22.851-12.364 12.209 25.774-.02 4.467-12.546 9.534-14.84 10.891-1.254 25.714.221 46.637 1.953 68.463-2.325 15.697-.253 20.859-5.114 31.441 4.738 11.832 96.8 278.438 111.262 325.858-93.261-28.517-227.075 27.46-234.319-7.428-31.617 7.489 40.057-294.337 42.77-314.006-10.235 0 2.128-19.568 0-39.487-.835-7.819 2.647-15.377 3.794-22.261 1.357-10.174.886-13.173.886-20.368-4.069-4.747-9.797-13.692-10.407-20.533-8.987-3.878-12.2-13.951-12.2-22.421.001-6.652-.878-13.079 6.266-11.1 0-26.97 13.587-61.795 46.194-61.795 26.97 0 51.546 10.852 51.546 56.972z" fill="#fff"/><path d="M228.44 373.835a2 2 0 0 1-3.016.027 297397.368 297397.368 0 0 1-78.497-88.552 1.999 1.999 0 0 1-.055-2.587c1.348-1.655 2.689-3.293 4.042-4.943 6.617-8.083 13.271-16.165 19.868-24.267.527-.639 1.053-.827 1.824-.827 31.484.019 62.969.019 94.435.019 3.214 0 6.447-.019 9.662.037.413 0 .921.207 1.203.508 9.078 9.943 18.12 19.906 27.161 29.868.305.305.264.824-.017 1.152-25.525 29.831-51.033 59.663-76.61 89.565zm52.248-105.51-.282.113c-.038.395-.076.789-.076 1.165 0 4.098 0 8.214-.018 12.312 0 1.617-.17 1.786-1.749 1.786h-23.082c-.432 0-.902.019-1.297-.113-.338-.132-.714-.432-.846-.752-.507-1.184-.921-2.387-1.372-3.59-1.278-3.383-3.271-6.335-5.827-8.872-5.094-5.038-11.466-7.256-18.421-7.857-3.571-.32-7.18-.188-10.771-.057-5.47.207-10.77 1.373-15.845 3.44-2.463.996-4.812 2.256-6.617 4.323-1.898 2.181-2.086 4.85-.564 7.275 1.278 2.049 3.027 3.59 5.038 4.831 6.372 3.985 13.44 5.695 20.864 5.996 3.872.15 7.763-.075 11.636-.132 8.176-.131 16.334-.188 24.36 1.692 6.053 1.41 11.617 3.872 16.335 8.026 1.654 1.466 3.252 2.989 4.868 4.493-.075.15.019.075.094-.019 5.733-5.714 11.466-11.447 17.218-17.143.602-.601.526-.996.019-1.56-4.286-4.85-8.553-9.718-12.82-14.586-.244-.263-.564-.508-.845-.771zm-99.699 41.992c.113.245.132.339.188.395 3.665 4.361 7.331 8.703 10.977 13.083.357.413.639.394 1.109.225 1.523-.545 3.064-1.147 4.643-1.428 4.85-.865 9.662-.376 14.417.808 3.797.94 7.481 2.199 10.433 4.868 1.165 1.053 2.424 1.617 3.853 1.974 1.034.263 2.086.489 3.139.583 7.556.676 14.85-.395 21.842-3.346 2.049-.865 3.985-1.974 5.451-3.722.808-.959.827-1.767-.15-2.519-1.354-1.034-2.745-2.105-4.286-2.763-5.451-2.312-11.278-3.289-17.086-4.117a262.381 262.381 0 0 0-13.778-1.597c-6.391-.564-12.782-.978-19.173-1.41-3.684-.244-7.369-.376-11.053-.564-3.477-.15-6.936-.301-10.526-.47zm27.895 32.124c5.883 6.748 11.785 13.496 17.744 20.319 5.789-6.917 11.485-13.703 17.18-20.488-11.654 3.684-23.214 4.041-34.924.169zm-42.181-47.65a.759.759 0 0 1 .17-.094c-.057-.583-.113-1.184-.188-1.767-.076-.62-.188-1.241-.207-1.861-.32-8.026 2.293-14.925 7.857-20.714 2.951-3.064 6.391-5.507 10.037-7.631.245-.132.452-.301.696-.433-3.59-.15-7.087-.113-10.583-.169-1.128-.019-1.861.395-2.556 1.241-2.199 2.669-4.455 5.319-6.692 7.951-2.951 3.477-5.902 6.955-8.909 10.376-.602.695-.452 1.052.075 1.635 1.917 2.086 3.834 4.248 5.752 6.391 1.522 1.692 3.026 3.383 4.548 5.075zm96.917-32.838h-12.03c2.143 2.293 4.267 4.53 6.41 6.842 1.804-2.199 3.627-4.436 5.62-6.842z" fill="#FFAE0F"/><path d="M280.687 268.325c.282.263.621.489.865.789 4.267 4.85 8.534 9.718 12.819 14.587.508.564.583.958-.018 1.56-5.752 5.695-11.485 11.428-17.218 17.143-.094.094-.188.15-.094.018-1.617-1.503-3.215-3.045-4.869-4.492-4.718-4.154-10.282-6.598-16.334-8.026-8.026-1.88-16.203-1.824-24.361-1.692-3.872.056-7.763.282-11.635.132-7.425-.282-14.493-1.993-20.865-5.997-2.011-1.259-3.759-2.8-5.037-4.83-1.523-2.425-1.335-5.113.564-7.275 1.785-2.067 4.135-3.327 6.616-4.323 5.075-2.049 10.376-3.233 15.846-3.44 3.59-.131 7.199-.244 10.771.057 6.954.601 13.326 2.819 18.42 7.857 2.557 2.537 4.549 5.47 5.827 8.872.452 1.203.865 2.406 1.373 3.59.131.319.507.62.845.752.395.15.865.113 1.297.113h23.083c1.579 0 1.748-.17 1.748-1.786 0-4.098 0-8.214.019-12.312 0-.395.056-.79.075-1.165.075-.057.169-.094.263-.132zM180.989 310.317c3.572.169 7.03.32 10.489.489 3.684.169 7.368.319 11.052.564 6.391.432 12.782.846 19.173 1.41 4.605.413 9.211.939 13.778 1.597 5.827.827 11.636 1.805 17.087 4.117 1.541.658 2.932 1.729 4.285 2.763.978.752.959 1.56.151 2.519-1.466 1.748-3.403 2.857-5.451 3.721-6.993 2.933-14.286 4.023-21.842 3.346-1.053-.094-2.106-.338-3.139-.582-1.429-.358-2.688-.921-3.854-1.974-2.951-2.669-6.654-3.929-10.432-4.868-4.756-1.185-9.568-1.655-14.417-.809-1.579.282-3.102.903-4.643 1.429-.489.169-.771.207-1.109-.226-3.647-4.361-7.312-8.721-10.977-13.082-.019-.076-.038-.169-.151-.414zM208.884 342.441c11.71 3.872 23.27 3.534 34.924-.188-5.695 6.786-11.391 13.571-17.18 20.489a12293.702 12293.702 0 0 1-17.744-20.301zM166.704 294.791c-1.523-1.692-3.027-3.383-4.549-5.075-1.918-2.143-3.835-4.305-5.771-6.429-.526-.564-.677-.94-.075-1.635 3.007-3.421 5.959-6.898 8.91-10.376 2.236-2.631 4.492-5.282 6.691-7.951.696-.827 1.429-1.259 2.557-1.241 3.496.057 6.992.019 10.582.17-.225.15-.451.3-.695.432-3.666 2.143-7.087 4.568-10.038 7.631-5.564 5.79-8.176 12.688-7.857 20.715.019.62.151 1.24.207 1.86.075.583.132 1.185.188 1.767-.038.076-.094.094-.15.132z" fill="#fff"/><path d="M263.62 261.953c-1.993 2.425-3.816 4.643-5.62 6.842-2.162-2.293-4.267-4.549-6.41-6.842h12.03z" fill="#fff"/><path d="M241.265 93.43a4.3 4.3 0 1 0 0-8.599 4.3 4.3 0 0 0 0 8.599z" fill="#000"/><path d="M250.432 88.236c-6.28-4.327-13.088-3.391-15.624-1.655" stroke="#000" stroke-miterlimit="10"/><path d="M199.899 94.84a4.3 4.3 0 1 0 .001-8.599 4.3 4.3 0 0 0-.001 8.6z" fill="#000"/><path d="M190.719 89.646c6.28-4.326 13.088-3.39 15.624-1.655" stroke="#000" stroke-miterlimit="10"/><path d="m285.04 307.694.15.028c3.482 1.492-16.171 60.604-19.663 117.576-3.355 54.735 9.588 90.649 9.588 125.406 37.055 16.873 79.067 17.164 102.762 24.578 1.417 5.024 2.051 10.092 3.872 18.012 12.236 0 20.511-.132 32.393-1.84 0-26.367-38.515-79.933-47.329-123.487-12.653-62.52.258-142.376-8.932-160.273-9.153-17.82-58.849 2.571-72.691.028a.371.371 0 0 0-.15-.028z" fill="#C882FF"/><path d="M265.527 425.298c-3.355 54.735 9.588 90.649 9.588 125.406 39.542 16.11 56.447 14.692 79.827 19.139 22.822 4.342 41.978 12.076 56.921 19.377m-48.896-147.345c.894 8.884 2.137 17.646 3.846 26.092 8.814 43.554 47.329 97.12 47.33 123.487-15.884 2.244-19.693 2.653-32.393 2.244-.7-3.4-2.332-11.29-4.153-18.194" stroke="#000"/><path d="M284.362 295.556c-1.565-15.258-16.364-24.826-16.364-45.065 0-20.239-8.974-26.422-5.61-33.395-4.275-8.014 10.194-22.902 10.194-31.462 0-8.559-2.038-20.674-2.038-20.674s1.168-1.879 3.596.549c2.429 2.428 12.996 11.272 12.996 15.125 0 3.852.149 6.999 1.424 6.999s50.286 12.492 60.798 18.272c8.423 1.425 40.681 27.835 45.388 47.382 7.135 29.632 0 34.721 5.122 64.716 6.56 24.253 4.296 39.366 2.013 51.504-5.322 28.291-10.945 48.493-14.371 59.863 0 0-6.284 18.516-28.548 12.111-5.142-5.67-35.019 19.333-89.167-5.485-11.609-4.883 8.71-26.935 9.553-33.002-5.236-12.49-6.329-23.298-5.472-33.572 1.919-23.006 13.618-43.331 10.486-73.866zM187.354 285.935c1.34-21 14.686-43.55 4.714-57.196 0-11.809-2.557-35.43-4.714-40.829 3.484-10.612 3.81-18.969 3.484-20.909-.244-1.492-1.056-2.428-3.484 0-11.363 8.909-13.955 14.555-13.955 14.555v5.16c-1.275 0-55.404 18.24-63.149 21.834-14.807 4.123-34.947 15.056-39.043 38.514-4.707 19.561-8.566 82.786-11.93 94.886 0 30.408 0 44.018 12.016 93.956 7.538 29.522 20.1 16.646 32.35 19.158 26.696-2.512 39.226 7.057 53.078 3.455 13.665-1.427 31.317-58.51 24.44-62.741 4.959-18.621 8.272-31.382 6.193-45.467-2.043-27.835-4.963-43.637 0-64.376z" fill="#C882FF"/><path d="M118.471 343.506c4.707-19.546 31.287 17.672 71.087 17.672 0 85.197-45.397 139.922 0 183.454-17.324 0-30.435 1.631-40.189 5.754-10.711 19.625-16.852 34.364-25.117 57.698-18.069-37.202-21.375-91.859-17.403-119.421 7.71-53.503 0-121.267 11.622-145.157z" fill="#C882FF"/><path d="M124.252 608.084c-18.069-37.202-21.375-91.859-17.403-119.421 1.544-10.713 2.469-21.997 3.056-33.386m63.624 8.242c-6.6 32.045-7.931 58.138 16.029 81.113-17.324 0-30.435 1.631-40.189 5.754-18.345 9.502-28.494 20.102-25.117 49.871" stroke="#000"/><path d="M259.608 368.998c-6.934 10.716-9.455 45.176-6.934 59.044-27.323-12.454-73.121-30.468-79.425-36.351-16.389-2.942-29.837-6.514-43.402-9.692 0-3.632.001-11.8 1.652-18.408 7.742 0 21.833 2.499 44.315-5.676 25.328.28 48.074 7.091 83.794 11.083z" fill="#fff"/><path d="M185.752 399.18c6.934 10.716 2.522 44.696 0 58.564 21.406-2.193 64.535-3.168 95.519-16.661-25.623-12.336-68.509-30.367-95.519-41.903z" fill="#fff"/><path d="M262.325 136.847c-3.716 9.536-17.878 17.241-22.911 22.219-6.877 6.796-22.321 9.792-32.759-.651-8.017-6.308-14.66-10.576-20.084-18.257-5.424-7.681-5.324-18.203-7.745-25.511M177.993 124.408c-6.701-6.213-7.8-9.116-8.519-13.484-.719-4.368 0-9.102 0-14.555 0-5.453 5.453-4.002 6.918-2.184M272.16 123.322c8.152-3.025 13.497-7.813 14.324-12.751.828-4.937 1.967-14.04 1.967-20.211 0-6.172-10.553-8.193-14.474-1.221M272.159 114.627c-2.632 10.934-2.374 55.237 0 68.313" stroke="#000" stroke-miterlimit="10"/><path d="M277.504 84.744c3.487-18.218 10.934-39.46 2.808-48.033-8.125-8.573-14.026-13.389-16.698-17.947-2.672-4.557-20.089-15.002-28.391-16.332-8.302-1.329-21.962-2.414-24.376 0-2.415 2.415-6.43-.8-15.803 4.016-9.374 4.815-19.289 11.516-20.361 19.017-1.072 7.502-6.959 16.075-9.102 22.504-2.143 6.43-3.405 10.066 0 20.89 4.72 14.99 7.366 18.964 8.546 23.685 3.255-.475 5.032-8.655 5.48-15.084.448-6.43.678-13.402 2.428-17.96 1.411-3.676 2.062-7.135 11.842-13.755 9.523-6.43 21.595-4.07 25.353-4.327 3.757-.258 13.47-.746 22.043-1.018 8.573-.271 17.661 4.897 21.08 11.856 3.418 6.959 2.536 11.829 4.951 19.601 2.414 7.773-.76 23.142 3.947 18.855 4.707-4.286 6.281-5.955 6.281-5.955l-.028-.013z" fill="#000"/><path d="M277.546 84.214c3.486-18.217 10.892-38.93 2.766-47.503-8.125-8.573-14.026-13.389-16.698-17.947-2.672-4.557-20.089-15.002-28.391-16.332-8.302-1.329-21.962-2.414-24.376 0-2.415 2.415-6.43-.8-15.803 4.016-9.374 4.815-19.289 11.516-20.361 19.017-1.072 7.502-6.959 16.075-9.102 22.504-2.143 6.43-3.405 10.066 0 20.89 4.058 12.885 6.582 17.63 7.96 21.708" stroke="#fff"/><path d="M202.293 14.891c-.834 18.338 5.002 25.84 11.67 28.341M177.286 34.063c-.001 5.476 9.707 16.492 16.671 15.003M212.348 21.56c-.834 18.338 8.335 26.674 14.17 26.674" stroke="#fff"/><path d="M259.509 74.474c-5.278-3.866-13.579-3.13-23.162-1.289-5.437 1.044-7.487.63-7.311-3.315.782-2.5 2.435-2.465 5.216-3.07 6.716-1.46 8.868-2.763 18.492.618 4.258 1.495 6.752 7.056 6.752 7.056h.013zM181.478 78.64c4.557-4.695 12.519-5.186 22.275-4.974 5.535.12 7.487-.631 6.653-4.492-1.189-2.334-2.812-2.022-5.656-2.153-6.865-.316-8.86-1.413-17.783 3.531-3.947 2.186-5.475 8.085-5.475 8.085l-.014.003z" fill="#000"/><path fill-rule="evenodd" clip-rule="evenodd" d="M174.352 92.916c11.882 15.235 32.001 10.267 39.127 2.512 5.69-6.193 8.198-4.096 11.039-1.722.717.6 1.455 1.216 2.27 1.722 15.654 9.711 29.886 7.756 46.118-3.568 1.955-2.735 6.311-10.031-2.668-13.879-.41-.019-1.468-.272-3.023-.645-8.641-2.07-32.62-7.814-45.834 2.641l-.322.255c-3.399 2.696-4.971 3.944-9.006-.255-9.637-10.027-33.229-.886-37.687 1.584-3.948 2.186-.001 11.353-.001 11.353l-.013.002zm55.993-3.829s2.3-5.543 9.651-6.434c10.616-1.286 19.14 4.182 19.14 4.182s-10.153 7.028-17.049 7.238c-5.762.176-11.742-4.986-11.742-4.986zm-31.764-4.73c8.607 0 13.582 5.38 13.582 5.38s-6.853 6.294-14.792 6.052c-6.896-.211-14.524-6.859-14.524-6.859s4.508-4.572 15.734-4.572z" fill="#000"/><path d="M281.573 90.224c-8.654 7.786-9.577 12.697-9.401 14.718" stroke="#000" stroke-miterlimit="10"/><path d="M282.889 96.151c-1.953-.42-7.027.896-8.451 2.117M172.134 97.59c4.599 5.969 4.612 9.198 4.26 10.459" stroke="#000" stroke-miterlimit="10"/><path d="M171.361 101.538c1.099-.027 3.73 1.194 4.381 1.994M217.943 86.955c2.563 9.97-3.052 14.922-4.45 18.014-.637 1.411-.637 2.727-.325 3.88M219.746 111.128c2.537.339 3.69.909 3.69.909M226.744 107.764c1.438 2.333.76 6.782-1.709 6.578M211.675 113.19c-1.519-.516-2.496-2.374-1.967-3.229M191.829 147.305c.027 11.978-.764 27.803-4.568 40.027M268.333 252.424c0 16.096 16.612 29.952 16.612 51.106 0 21.155-5.662 31.052-10.078 60.96m-.726-198.981c2.428 2.428 10.082 9.1 12.995 15.125 1.107 4.762.504 6.839.504 6.839 1.275 0 53.308 17.008 61.718 18.432 8.424 1.425 40.681 27.835 45.388 47.382 7.911 32.853-.609 30.477 5.917 69.885m-69.912.097c0-9.052-1.301-13.54 0-21.444m2.339-14.113c-.719 2.876-1.397 8.387-2.339 14.113m0 0 5.174-7.795M352.322 365.994c3.731 2.01 7.565 4.763 11.207 8.546M261.511 220.609c-11.456 16.188-55.786 13.698-69.234 0" stroke="#000" stroke-miterlimit="10"/><path d="M268.266 250.224c-1.881-28.768-8.422-27.476-5.905-32.593 2.545-5.118 10.961 6.744 16.964 17.006 2.001-9.3 2.398-11.713 2.453-22.612.056-10.898 6.402-15.742 5.46-28.103" stroke="#000" stroke-miterlimit="10" stroke-linejoin="bevel"/><path d="M275.545 172.082c-1.931 28.965-15.5 28.81-13.69 47.152M176.752 198.938c1.19 9.543 2.198 14.543-7.892 34.723 5.212-5.376 12.975-3.085 22.947-5.447 0-7.61-.008-35.004-7.245-43.856m-8.733 12.176c-1.224-3.261-1.827-6.076-2.43-9.794m11.163-16.829c2.54-3.396 3.833-4.538 5.539-4.428M192.135 228.253c10.442 22.609-8.914 46.469-8.366 76.528.386 21.183 3.948 51.955 3.948 51.955" stroke="#000" stroke-miterlimit="10" stroke-linejoin="bevel"/><path d="M261.429 228.036c-15.894 15.604-49.414 13.003-63.862 2.601M153.119 551.875c9.744 7.016 66.609-2.155 117.195-7.471M135.758 306.807c-1.941-4.332-4.914-9.854-6.41-12.016M137.079 308.354c1.146-8.075-.198-16.703-1.317-21.393" stroke="#000" stroke-miterlimit="10"/><path d="M134.568 186.985c-10.319 2.889-24.608 9.169-29.561 23.616 4.714-2.724 15.839-6.666 25.926-9.542 7.017-.413 35.418 13.908 43.26 20.513 7.763-16.182.229-28.629-.717-35.729-.607-4.557 1.129-7.939 10.623-15.369-11.145 1.922-39.212 13.621-49.531 16.511z" fill="#000"/><path d="M105.372 210.236c4.953-14.446 18.876-20.362 29.195-23.251 10.32-2.89 38.387-14.589 49.531-16.511m-51.624 29.616c-7.965-2.119-12.724-.036-15.067 1.455" stroke="#fff"/><path d="M326.092 186.894c9.791 4.354 81.114 37.148 55.015 42.893-17.528-15.914-26.95-22.617-51.922-29.752-7.017-.413-39.875 16.374-47.718 22.978 0-22.045 4.433-25.236 6.238-36.119.646-3.892-.547-10.941-10.04-18.371 11.144 1.922 35.31 12.537 48.427 18.371z" fill="#000"/><path d="M239.058 127.749c-16.013 0-25.381-4.916-32.75 1.114M220.92 142.909c5.209.6 11.388-3.088 14.284-7.721" stroke="#000"/><path d="M227.325 137.936c4.262-2.307 5.73-2.861 9.736-9.618-4.233.479-27.481-.427-30.294 2.046 1.961 2.473 2.933 3.805 4.694 6.086 3.822 4.948 12.243 3.446 15.864 1.486z" fill="#000"/><path d="M224.46 131.797c2.59-1.084 4.617-1.826 8.024-3.461-4.233.479-20.336.224-23.087 1.376.66.8 1.463 1.59 2.507 2.085 3.525 1.675 10.628.807 12.556 0z" fill="#fff"/><path d="M242.779 126.671c-11.835 3.45-17.402 1.639-28.198 2.219-5.17.278-10.344 3.179-15.534 0" stroke="#000"/><path d="M323.241 95.26c4.767-4.597 5.447-10.298 5.447-10.298M315.248 116.381c4.459-4.299 4.693-7.765 4.693-7.765M373.95 210.247c-20.139-8.906-38.936-15.925-60.301-5.599m66.82 16.908c17.208 10.82 37.301 35.105 45.627 52.831m170.4 47.472c-76.856 52.757-147.192 3.919-165.715-36.48" stroke="#fff"/><path d="M370.646 347.227c1.536 1.741 3.073 3.79.819 7.682-4.199 4.507-10.038 8.502-13.521 10.756-9.827 0-40.934-2.54-56.44 1.434 2.108-5.512 12.395-22.099 19.375-33.732 1.187-1.151 3.085-5.443 6.475-7.27 2.951-1.591 18.599-16.11 22.106-17.488 6.39-4.886 11.652 3.633 6.39 7.893-4.761 6.514-15.14 14.432-13.643 15.459 3.958-.816 24.649-9.522 30.18-9.522 4.507-2.356 9.936 4.379 3.278 10.243 6.453 1.639 6.248 7.58 2.868 10.243-2.253 3.38-7.887 3.362-7.887 4.302z" fill="#fff"/><path d="M301.122 367.764c5.283-11.283 8.919-15.753 12.075-20.419 2.292-3.388 7.01-12.226 9.103-15.914 2.093-3.687 5.535-5.633 8.224-8.109 3.787-3.488 16.246-13.177 18.503-14.849 5.981-4.431 11.746 2.705 7.557 7.311-5.08 5.584-16.875 18.15-16.875 18.15m0 0a34.631 34.631 0 0 0-2.483 1.456c-2.749 1.769-4.087 3.565-13.008 13.526m15.491-14.982c6.79-3.66 17.47-7.945 20.368-8.632 4.489-1.065 9.437-2.296 12.162-2.967 7.167-1.766 10.02 6.355 2.934 10.503m-42.964 23.643c6.301-6.612 12.07-10.655 14.269-11.722 5.89-2.859 13.922-6.403 16.891-7.796 2.396-.866 7.916-2.577 10.394-3.638 6.063-2.596 10.567 6.41 3.378 10.827-3.374 2.073-5.026 2.399-6.441 3.193m-13.187 18.709c3.634-2.211 7.901-6.244 11.689-8.894 6.989-4.888 2.237-13.19-3.501-9.178-1.473 1.03-3.475 1.621-9.117 5.198-5.443 3.451-10.106 7.726-15.775 11.937" stroke="#000"/><path d="M279.568 441.342c-35.564 14.32-103.356 17.984-126.555 17.984-17.445 0-32.638-6.328-55.617-3.664-22.98 2.665-22.304-7.94-26.89-23.417-4.585-15.477-11.482-32.037-10.336-90.505.474-24.193 8.465-69.601 8.465-76.249 0-8.311 2.231-41.745 30.282-52.905 21.213-8.44 31.832-10.801 32.297-11.696m5.917 106.983c1.327 29.86-7.312 51.948-7.312 72.048m-11.496-2.875c11.496 7.391 32.437 8.623 46.808 13.55m236.504-64.874c8.212 28.331-5.041 76.767-10.795 93.207-2.874 8.212-7.462 28.917-30.471 22.413-7.155-2.023-37.405 20.403-96.134-7.908-39.922-19.244-79.988-32.234-91.303-42.838m-37.364-27.446c6.31 1.069 26.972-1.019 32.941-3.329 5.969-2.311 6.546-2.118 16.751-2.118 10.205 0 38.783 5.447 55.633 8.548 15.015 2.764 48.145 3.477 66.333 0 18.188-3.477 45.115 0 59.426 0" stroke="#000"/><path d="M235.603 420.662c9.817-1.636 18.083-39.483 12.995-54.24 4.005-8.531 21.82 0 36.891 0 15.072 0-3.712 75.576-17.031 73.823-13.319-1.752-40.693-10.209-32.855-19.583zM206.69 456.406c-8.966-4.321-11.318-35.853-2.3-48.594-9.092-3.97-19.508-8.11-30.807-15.831-15.455 1.675-20.763 69.451-7.487 71.5 13.277 2.048 46.179 1.118 40.594-7.075z" fill="#C882FF"/><path d="M204.828 407.435c-9.018 12.74-7.103 44.651 1.863 48.972 5.585 8.193-27.317 9.123-40.594 7.075-13.276-2.049-7.635-70.014 7.82-71.69" stroke="#000"/><path d="M167.268 402.378c-1.517 4.83-4.277 18.767-1.104 29.115m40.156 25.253c-3.588 2.346-9.936-7.589-10.626-11.867m3.726-37.533c-4.968 3.173-8.831 14.075-8.831 20.008M245.048 407.595c4.592-12.815 6.807-31.726 3.55-41.173 4.005-8.531 21.82 0 36.891 0 15.072 0-3.712 75.576-17.031 73.823-13.319-1.752-40.693-10.209-32.855-19.583 2.5-.417 4.899-3.181 7.002-7.313m6.3-45.954c2.641 4.561 5.764 13.009 5.086 23.234m20.927 1.262c1.023 9.572-.411 13.33-3.42 22.788 8.79-12.077 10.797-39.546 8.79-45.928" stroke="#000"/></svg>