<svg width="475" height="425" fill="none" xmlns="http://www.w3.org/2000/svg"><path d="M369.099 197.523c0 80.245-76.355 97.796-135.018 149.022-57.731-54.952-129.032-72.863-134.086-132.257-6.657-78.237 66.112-107.11 133.154-178.827 39.11 40.05 141.537 102.453 135.95 162.062z" fill="#fff"/><path d="M232.606 38.44c-90.582 81.277-105.728 92.531-119.735 114.766M233.771 345.809c-89.544-74.37-105.672-69.594-118.669-95.82M354.622 248.203c-12.997 26.236-18.398 22.572-111.689 92.184-12.306 9.178-13.699 9.524-15.651 31.993-1.953 22.469-2.505 51.62-2.505 51.62" stroke="#fff" stroke-miterlimit="10"/><path d="M346.748 261.789c-12.997 26.235-41.998 49.082-86.653 90.132-11.306 10.393-13.38 13.683-14.558 21.59-3.607 24.376-9.045 45.685-9.045 45.685M226.614 38.44c-66.088 52.904-88.436 66.875-117.302 89.228M225.703 1c1.308 1.178 2.766 29.759 11.961 37.974 87.329 78.081 105.335 92.315 119.136 114.233" stroke="#fff" stroke-miterlimit="10"/><path d="M242.625 36.348c74.329 63.379 92.021 70.83 111.575 93.183M196.178 359.697l-36.087-47.021-61.232-44.097M261.434 393.644l55.372-53.77" stroke="#fff" stroke-miterlimit="10"/><path d="M236.495 384.55a4.31 4.31 0 0 0 0-8.618 4.308 4.308 0 0 0-4.307 4.309 4.308 4.308 0 0 0 4.307 4.309zM240.8 33.806a4.308 4.308 0 0 0 4.307-4.308 4.308 4.308 0 1 0-8.615 0 4.309 4.309 0 0 0 4.308 4.308zM300.944 310.6a4.309 4.309 0 1 0-.001-8.617 4.309 4.309 0 0 0 .001 8.617z" fill="#fff"/><path d="M139.9 167.675c9.116 13.927 56.939 74.555 93.87 98.771 28.25-18.627 79.901-82.313 94.599-102.452.421 3.878.309 13.458 0 17.608-1.822 3.149-31.732 56.555-94.599 100.67-38.75-26.441-90.17-80.305-93.16-101.1-.719-7.094-.719-13.497-.719-13.497h.009z" fill="#EFA301"/><path d="M139.184 166.925c12.287-13.519 23.346-27.039 35.634-41.788 24.201 6.757 90.032 9.57 117.961 0 14.726 15.253 27.033 30.727 35.634 39.33-7.449 12.108-39.32 60.225-94.637 102.317-37.591-23.833-88.449-81.422-94.592-99.859z" fill="#C882FF"/><path d="M328.411 165.696c-1.836 3.14-35.634 57.767-94.111 100.785-37.367-25.811-86.517-76.203-93.89-99.556" stroke="#fff" stroke-miterlimit="10"/><path d="M233.797 268.939v12.291" stroke="#fff"/><path d="M139.9 167.674c10.858-14.468 21.248-25.188 34.489-42.236 27.462 7.664 86.731 10.861 118.435 0 16.708 17.31 25.065 28.31 35.545 39.486.421 3.879.309 12.527 0 16.677-1.822 3.149-31.732 56.555-94.599 100.67-38.75-26.441-90.17-80.304-93.16-101.1-.719-7.094-.719-13.497-.719-13.497h.009z" stroke="#fff" stroke-miterlimit="10"/><path d="M54.385 187.278c7.775-10.627 15.492-21.706 20.426-23.192 4.934-1.486 34.844-10.627 38.058-10.88 3.215-.252 14.577-1.233 19.025 0 4.448 1.234 5.438 14.581 2.467 18.534 7.166 1.486 8.904 19.198 2.962 22.002 8.652 3.458 8.764 20.534 2.56 23.198 2.252 5.383 5.905 13.804-6.307 21.506-3.196 2.159-14.297 5.953-14.783 6.701-.485.748-7.905 10.384-10.129 12.609-2.223 2.224-9.886 4.691-17.548 5.439-7.662.748-23.724-1.234-30.639.991-6.914 2.224-9.961 2.782-12.1 4.325-15.418-22.882-20.22-49.562-20.22-49.562 6.372-7.655 21.453-23.721 24.91-29.161 3.458-5.439 10.625-28.675 11.12-31.142.495-2.467 1.98-5.683 6.672-5.935 4.69-.252 21.995-3.711 27.92-12.608 5.924-8.898 9.885-3.458 9.885 1.486s-.738 11.617-5.185 13.589" fill="#fff"/><path d="M54.385 187.278c7.775-10.627 15.492-21.706 20.426-23.192 4.934-1.486 34.844-10.627 38.058-10.88 3.215-.252 14.577-1.233 19.025 0 4.448 1.234 5.438 14.581 2.467 18.534 7.166 1.486 8.904 19.198 2.962 22.002 8.652 3.458 8.764 20.534 2.56 23.198 2.252 5.383 5.905 13.804-6.307 21.506-3.196 2.159-14.297 5.953-14.783 6.701-.485.748-7.905 10.384-10.129 12.609-2.223 2.224-9.886 4.691-17.548 5.439-7.662.748-23.724-1.234-30.639.991-6.914 2.224-9.961 2.782-12.1 4.325-15.418-22.882-20.22-49.562-20.22-49.562 6.372-7.655 21.453-23.721 24.91-29.161 3.458-5.439 10.625-28.675 11.12-31.142.495-2.467 1.98-5.683 6.672-5.935 4.69-.252 21.995-3.711 27.92-12.608 5.924-8.898 9.885-3.458 9.885 1.486s-.738 11.617-5.185 13.589" stroke="#000" stroke-miterlimit="10"/><path d="M98.86 175.442c11.324-5.729 29.48-4.346 32.489-4.019M105.438 196.518c11.324-5.729 27.349-3.673 30.368-3.346M109.562 216.949c11.325-5.729 26.033-5.28 30.331 0M117.883 246.39c3.924-6.636 11.82-10.496 13.474-11.318" stroke="#000" stroke-miterlimit="10"/><path d="M27.768 297.459c13.563-9.6 23.173-16.424 27.4-21.077 1.231-1.924.75-4.402-2-9.418m-18.944-58.745s-4.251-7.716-6.456 0c-3.18 11.127 15.697 56.053 25.4 66.239m-27.413-68.48L1 219.451M474.003 217.703l-31.327-14.96" stroke="#fff" stroke-miterlimit="10"/><path d="M415.541 187.013c-7.775-10.627-15.371-21.441-20.304-22.927-4.934-1.486-34.844-10.627-38.059-10.88-3.214-.252-14.576-1.233-19.024 0-4.448 1.234-5.438 14.581-2.467 18.534-7.167 1.486-8.905 19.198-2.962 22.002-8.653 3.458-8.765 20.534-2.56 23.198-2.252 5.383-5.906 13.804 6.307 21.506 3.196 2.159 14.296 5.953 14.782 6.701.486.748 7.905 10.384 10.129 12.609 2.224 2.224 9.886 4.691 17.548 5.439 7.662.748 23.725-1.234 30.639.991 6.915 2.224 9.83 2.85 11.97 4.393 15.057-20.021 20.351-49.63 20.351-49.63-6.372-7.655-21.454-23.721-24.911-29.161-3.457-5.439-10.624-28.675-11.119-31.142-.496-2.467-1.981-5.683-6.672-5.935-4.691-.252-21.996-3.711-27.92-12.608-5.924-8.898-9.886-3.458-9.886 1.486s.738 11.617 5.186 13.589" fill="#fff"/><path d="M415.541 187.013c-7.775-10.627-15.371-21.441-20.304-22.927-4.934-1.486-34.844-10.627-38.059-10.88-3.214-.252-14.576-1.233-19.024 0-4.448 1.234-5.438 14.581-2.467 18.534-7.167 1.486-8.905 19.198-2.962 22.002-8.653 3.458-8.765 20.534-2.56 23.198-2.252 5.383-5.906 13.804 6.307 21.506 3.196 2.159 14.296 5.953 14.782 6.701.486.748 7.905 10.384 10.129 12.608 2.224 2.225 9.886 4.692 17.548 5.44 7.662.748 23.725-1.234 30.639.991 6.915 2.224 9.83 2.851 11.97 4.393 15.057-20.021 20.351-49.63 20.351-49.63-6.372-7.655-21.454-23.721-24.911-29.161-3.457-5.439-10.624-28.675-11.119-31.142-.496-2.467-1.981-5.683-6.672-5.935-4.691-.252-21.996-3.711-27.92-12.608-5.924-8.898-9.886-3.458-9.886 1.486s.738 11.617 5.186 13.589" stroke="#000" stroke-miterlimit="10"/><path d="M371.188 175.442c-11.325-5.729-29.48-4.346-32.489-4.019M364.614 196.518c-11.325-5.729-27.35-3.673-30.368-3.346M360.487 216.949c-11.325-5.729-26.032-5.28-30.331 0M352.173 246.39c-3.924-6.636-11.82-10.496-13.474-11.318" stroke="#000" stroke-miterlimit="10"/><path d="M442.275 297.459c-15.287-10.819-34.916-18.521-29.579-26.53m2.818 3.115c8.802-2.935 30.284-53.487 26.761-65.815-3.523-12.328-6.457 0-6.457 0" stroke="#fff" stroke-miterlimit="10"/><path d="M242.869 209.673c-6.611 0-11.747-.909-15.409-2.753-3.661-1.893-5.48-5.113-5.48-9.611 0-2.262.467-4.179 1.376-5.801a18.036 18.036 0 0 1 3.588-4.425 35.33 35.33 0 0 1 4.743-3.589 71.703 71.703 0 0 0 4.645-3.368c1.475-1.204 2.679-2.507 3.588-3.908.983-1.401 1.475-3.073 1.475-4.966 0-4.719-2.63-7.079-7.914-7.079-2.039 0-4.153.221-6.34.639v11.086h-13V156.43c1.13-.91 2.457-1.721 4.005-2.434a29.87 29.87 0 0 1 5.063-1.696c1.818-.492 3.735-.836 5.701-1.057a52.864 52.864 0 0 1 5.923-.32c7.102 0 12.632 1.549 16.564 4.646 3.932 3.098 5.922 7.743 5.922 13.938 0 3.024-.491 5.678-1.474 7.915-.983 2.188-2.212 4.081-3.686 5.703a26.087 26.087 0 0 1-4.866 4.007 238.254 238.254 0 0 1-4.743 3.073c-1.475.909-2.704 1.794-3.687 2.63-.983.787-1.474 1.647-1.474 2.63 0 1.131.516 1.967 1.573 2.532 1.13.492 2.433.737 3.907.737v10.939zm-9.289 23.033c-2.605 0-4.793-.885-6.537-2.63-1.696-1.819-2.532-4.007-2.532-6.539s.836-4.67 2.532-6.44c1.769-1.819 3.932-2.753 6.537-2.753 1.204 0 2.359.246 3.489.737a9.122 9.122 0 0 1 2.949 2.016 8.327 8.327 0 0 1 2.016 2.851 8.947 8.947 0 0 1 .737 3.589 8.943 8.943 0 0 1-.737 3.589 9.121 9.121 0 0 1-2.016 2.95c-.835.787-1.818 1.401-2.949 1.893a8.644 8.644 0 0 1-3.489.737z" fill="#fff"/></svg>