<svg width="74" height="74" fill="none" xmlns="http://www.w3.org/2000/svg"><path d="M1.22 47.501v-5.43c0 .972.7 2.123 2.587 3.206 6.643 3.838 17.584 10.136 24.227 13.952 3.126 1.815 7.884 2 10.596.436 6.826-3.93 25.493-15.644 32.32-19.574 1.144-.66 1.744-1.527 1.82-2.445l.008 5.87c.046 1.044-.556 2.04-1.854 2.782-6.885 3.964-25.486 15.026-32.37 18.99-2.736 1.576-7.534 1.39-10.686-.44a13172.008 13172.008 0 0 1-24.431-14.07c-1.692-.95-2.171-2.095-2.218-3.277z" fill="#000" stroke="#000" stroke-miterlimit="1.5"/><path d="m50.96 22.918-4.995-2.87c-3.126-1.816-7.884-2-10.596-.437-6.85 3.93-25.494 15.644-32.32 19.574-2.712 1.563-2.368 4.298.758 6.091 6.643 3.839 17.584 10.137 24.227 13.952 3.126 1.816 7.884 2 10.596.437 6.826-3.93 25.493-15.644 32.32-19.575 2.712-1.563 2.367-4.298-.759-6.09-4.29-2.48-10.373-5.984-15.933-9.184" stroke="#000"/><path d="m40.536 43.562 6.216 4.3-8.523 5.17-5.889-4.116-4.788 2.7-.447-11.978 17.82 1.208-4.389 2.716z" fill="#C882FF" stroke="#C882FF" stroke-linejoin="round"/><path d="m16.963 11.511 8.146 8.146M57 9.83l-8.145 8.146M36.982 3.68v10.223" stroke="#C882FF"/></svg>