<svg width="481" height="608" fill="none" xmlns="http://www.w3.org/2000/svg"><path d="M231.208 84.61c5.222-2.61 21.988-11.892 11.748 24.789-.019 4.296-12.072 9.171-14.279 10.475-1.208 24.733.212 44.856 1.879 65.849-2.238 15.097-12.291 19.83-16.969 30.007 8.784 21.927-22.623 172.448-28.034 185.542-8.741-1.049-16.998-162.058-14.387-180.975-9.849 0-20.74-18.9-22.788-38.058-.803-7.521 2.548-14.79 3.652-21.411 1.305-9.785.852-12.669.852-19.59-3.916-4.566-9.427-13.169-10.014-19.748-8.648-3.73-11.74-13.419-11.739-21.565 0-6.398-.846-12.58 6.028-10.677 0-25.94 13.075-59.434 44.451-59.434 25.952 0 49.6 10.437 49.6 54.796z" fill="#fff"/><path d="M400.165 263.068c44.203 73.879 80.909 39.705 85.675 53.6 0 0 12.596 2.952 7.212 71.354-3.944 50.097-.001 74.493-.001 74.493v93.88L485.84 607c-119.755-80.399-113.936-209.935-166.111-240.356 0-21.203-3.232-139.08-1.494-149.548.621-3.743 0-5.831 3.59-12.334 10.723 1.848 55.687 20.445 78.34 58.306z" fill="#1F2229"/><path d="M485.84 316.668c-4.766-13.895-41.472 20.28-85.675-53.6-22.653-37.861-61.962-51.354-74.975-57.858m-5.461 161.434c24.599 14.343 36.306 50.717 54.361 93.586M485.84 607c-58.648-39.373-87.178-90.532-107.153-136.062m-44.17-257.805c16.559 10.406 35.893 33.764 43.905 50.813M485.84 370.61c-74.058-15.145-85.086-57.236-102.91-96.092" stroke="#fff"/><path d="M200.13 263.261c5.887-16.583 11.504-11.045 12.301-23.784-.93-22.027-.88-32.317 2.357-39.023 3.237-6.706 15.913-13.639 15.913-21.872 0-8.232-1.961-19.884-1.961-19.884s1.124-1.808 3.461.528c2.336 2.335 12.504 10.842 12.504 14.547s.144 6.732 1.371 6.732 50.41 16.204 58.503 17.574c8.105 1.37 39.145 26.772 43.674 45.572 4.53 18.814 6.866 44.439 6.866 67.805 0 23.365-.631 38.604-6.866 64.496-22.112 44.891-36.604 47.519-45.164 56.976 0 0-16.519 10.657-37.561 6.556-7.572-8.346-30.657-35.006-28.317-51.844-14.506 4.522-31.664 14.032-48.104 18.209 0-37.105-1.782-64.621 2.617-94.393 4.399-29.786 8.38-48.221 8.38-48.221l.026.026z" fill="#C882FF"/><path d="M176.508 246.094c1.29-20.198 10.426-30.083-3.332-32.124-7.094-6.876-22.41-28.006-24.485-33.199 3.353-10.206 3.666-18.244 3.353-20.11-.235-1.435-1.017-2.335-3.353 0-10.934 8.569-13.428 13.999-13.428 13.999v4.963c-1.227 0-53.313 17.543-60.766 21-12.126 5.637-30.419 17.01-34.948 35.81-4.53 18.813-10.864 80.857-14.1 92.495 0 29.246-11.373 70.987 23.94 104.158 6.25 1.71 10 1.71 15.194 1.71 51.791-3.95 78.732-17.435 84.108-19.953 1.713 4.08 7.166 4.083 14.755 2.325 13.149-1.372 29.151-6.765 22.534-10.835 4.772-17.909-4.159-58.498-6.16-72.046-1.966-26.771-8.088-68.246-3.312-88.193z" fill="#C882FF"/><path d="M220.832 131.658c-3.576 9.172-17.203 16.583-22.046 21.371-6.618 6.536-21.479 9.418-31.523-.626-7.714-6.067-14.106-10.172-19.326-17.56-5.219-7.388-5.123-17.507-7.453-24.537M139.682 119.694c-6.448-5.975-7.505-8.767-8.197-12.968-.692-4.201 0-8.755 0-14 0-5.244 5.247-3.848 6.657-2.1M230.295 118.651c7.845-2.91 12.987-7.515 13.784-12.264.796-4.749 1.892-13.504 1.892-19.44 0-5.936-10.155-7.88-13.927-1.174M230.295 110.288c-2.533 10.516-2.285 53.126 0 65.703" stroke="#000" stroke-miterlimit="10"/><path d="M235.438 81.545c3.354-17.521 10.52-37.953 2.702-46.198-7.819-8.246-13.497-12.877-16.068-17.261-2.572-4.384-19.331-14.43-27.32-15.708-7.988-1.279-21.132-2.323-23.456 0-2.323 2.322-6.187-.77-15.206 3.861-9.02 4.632-18.561 11.077-19.592 18.292-1.032 7.215-6.696 15.46-8.759 21.645-2.062 6.184-3.276 9.68 0 20.092 4.543 14.416 7.088 18.239 8.223 22.78 3.133-.457 4.843-8.325 5.274-14.509.431-6.184.652-12.89 2.336-17.274 1.358-3.535 1.984-6.862 11.395-13.23 9.163-6.183 20.78-3.913 24.396-4.161 3.616-.248 12.961-.718 21.211-.979 8.249-.26 16.995 4.71 20.284 11.403 3.289 6.693 2.441 11.377 4.764 18.853 2.324 7.476-.314 23.672 4.215 19.55 4.53-4.124 5.627-7.142 5.627-7.142l-.026-.014z" fill="#000"/><path d="M235.478 81.036c3.355-17.522 10.48-37.444 2.662-45.69-5.124-5.402-9.328-9.254-12.341-12.5m-3.727-4.76c-2.572-4.384-19.331-14.43-27.32-15.708-7.988-1.279-21.132-2.323-23.456 0-2.323 2.322-6.187-.77-15.206 3.861-9.02 4.632-18.561 11.077-19.592 18.292-1.032 7.215-6.696 15.46-8.759 21.645-2.062 6.184-3.276 9.68 0 20.092 3.905 12.392 6.334 16.957 7.66 20.878" stroke="#fff"/><path d="M163.066 14.36c-.802 17.639 4.813 24.854 11.229 27.26M139.003 32.8c-.001 5.268 9.34 15.863 16.041 14.431M172.741 20.774c-.803 17.639 8.02 25.656 13.635 25.656" stroke="#fff"/><path d="M214.19 74.093c-5.117-3.667-15.912-4.019-25.114-2.153-5.221 1.057-7.218-.653-7.088-4.45-.349-1.475-.544-4.51.53-4.568.556-.03 2.23 2.729 4.664 3.037 8.056 0 11.135-1.743 20.429 1.415 4.112 1.395 6.565 6.719 6.565 6.719h.014zM147.065 79.918c1.926-1.668 6.027-1.472 7.646-1.668a54.86 54.86 0 0 1 9.371-.287c5.313.287 9.157-4.96 6.723-9.962-1.068-.455-1.178 3.167-2.916 3.54-3.29.705-10.085 1.19-10.986 1.295-1.957.222-4.242.117-6.069.94-1.345.6-3.34 4.187-3.769 6.142z" fill="#000"/><path d="M239.353 86.816c-8.328 7.49-9.216 12.212-9.046 14.156" stroke="#000" stroke-miterlimit="10"/><path d="M240.619 92.517c-1.879-.404-6.761.862-8.132 2.037M134.045 93.902c4.425 5.74 4.438 8.846 4.099 10.059" stroke="#000" stroke-miterlimit="10"/><path d="M133.301 97.698c1.057-.026 3.589 1.149 4.216 1.92M209.089 83.826c-6.044 4.162-12.596 3.262-15.037 1.592M152.025 86.838c6.394 3.6 12.839 2.112 15.119.228M178.124 83.672c2.467 9.59-2.937 14.352-4.281 17.326-.614 1.357-.614 2.623-.314 3.732M179.859 106.922c2.441.326 3.551.874 3.551.874M186.594 103.685c1.383 2.244.731 6.524-1.645 6.328M172.093 108.904c-1.462-.496-2.402-2.283-1.893-3.105M152.997 141.717c.026 11.52-.735 26.741-4.395 38.498M212.129 242.63c-1.874 10.228-6.113 4.049-11.999 20.631 0 0-4.008 18.409-8.406 48.195-4.399 29.773-2.637 56.847-2.637 93.952M232.2 159.226c2.337 2.336 9.702 8.752 12.505 14.547 1.066 4.581.485 6.579.485 6.579 1.227 0 51.295 16.358 59.388 17.727 8.106 1.37 39.146 26.772 43.675 45.573 4.529 18.813 13.69 94.581 0 131.903-6.897 18.802-40.37 70.087-74.669 64.506" stroke="#000" stroke-miterlimit="10"/><path d="M152.042 160.661c-.235-1.435-2.177-1.229-3.406 0-2.337 2.335-13.296 10.842-13.296 14.548v4.593c-2.498.73-53.391 17.364-60.844 20.821-12.126 5.636-33.01 17.196-37.54 35.996-4.53 18.814-3.299 42.945-11.06 93.923-7.761 50.978 1.966 87.528 23.657 102.763m136.005-32.112c0-21.725-1.34-37.12-5.739-66.906M311.64 370.283c-.235-21.709 1.54-50.334 3.616-62.18M212.517 216.946c-8.511 5.306-21.903 6.003-32.456 4.561" stroke="#000" stroke-miterlimit="10"/><path d="M212.53 240.698c-1.81-27.669 1.396-27.415 3.818-32.337 2.449-4.922 15.065 7.483 20.841 17.353 1.926-8.945 2.308-11.266 2.361-21.748.053-10.482 6.16-15.141 5.254-27.03M233.552 165.548c-1.858 27.858-22.951 29.263-21.21 46.904M138.488 191.379c1.145 9.178 11.874 25.965 13.95 43.71 5.016-5.17 12.965-15.501 21.323-20.635-8.372-5.991-20.794-28.585-27.759-37.099m-8.402 11.711c-1.179-3.137-1.759-5.843-2.339-9.42M176.149 215.309c10.301-4.199-3.425 33.225-2.44 54.535.985 21.31 4.685 44.323 4.685 44.323" stroke="#000" stroke-miterlimit="10" stroke-linejoin="bevel"/><path d="M212.518 227.252c-8.888 5.542-23.102 6.056-33.845 4.357M74.447 355.578c.235-21.709-1.54-50.334-3.616-62.181M74.447 308.103c1.827-12.876 0-26.029-1.785-33.508M164.604 123.588c6.727 3.061 6.821.503 13.941 0 9.741-.689 12.79 3.061 17.791-1.77m-17.791 8.004c3.794 0 9.71-.933 12.33-2.691" stroke="#000" stroke-miterlimit="10"/><path d="M97.896 179.881c-9.93 2.779-23.86 9.361-28.627 23.255 4.537-2.619 15.423-6.952 25.13-9.718 6.752-.397 44.395 14.34 51.941 20.692-4.114-15.274-9.63-21.664-11.224-35.294-.664-5.673 1.306-7.669 10.441-14.815-10.723 1.848-37.731 13.101-47.66 15.88z" fill="#1F2229"/><path d="M69.27 203.136c4.766-13.894 18.697-20.476 28.626-23.255 9.93-2.779 36.938-14.032 47.661-15.88m-49.675 28.485c-7.664-2.038-12.244-.035-14.499 1.4" stroke="#fff"/><path d="M282.191 179.794c9.929 2.779 23.86 9.36 28.626 23.255-4.536-2.62-15.423-6.952-25.129-9.718-6.752-.397-38.891 14.851-46.437 21.203 0-21.203 4.265-24.272 6.002-34.74.622-3.743-.527-10.523-9.662-17.669 10.724 1.848 36.67 14.89 46.6 17.669z" fill="#1F2229"/><path d="M310.817 203.049c-4.766-13.895-18.697-20.476-28.626-23.255-9.93-2.779-35.876-15.821-46.6-17.669" stroke="#fff"/><path d="M290.885 383.568c4.554 1.734 6.275-1.693 3.131-5.86-2.132-2.822-5.406-5.98-6.743-9.632 3.316-2.324 5.624-5.401 6.873-7.042 1.935 1.36 11.452 7.617 15.113 8.973 2.592.956 3.984 1.362 6.933 1.877 4.736-.392 6.744-3.829-3.82-10.194-3.327-2.958-11.194-9.505-14.434-12.096 1.104-1.835 2.93-4.484 3.672-5.63 5.862 3.315 15.849 10.171 19.229 11.772 8.687 4.122 11.666-3.985 3.564-7.772-4.018-1.881-5.397-4.817-11.357-10.11-1.633-1.455-2.718-2.399-4.968-4.082 2.071-1.186 5.087-4.786 9.25-6.865 1.379-.687 11.277-2.293 14.174-3.803 8.153-4.266 2.112-7.729.389-7.664-4.899.173-13.448.2-13.846-.078-4.18-2.906-12.122 7.359-25.371 9.468-1.95.592-6.487.268-11.876 4.343-2.74 2.075-4.938 5.813-7.957 9.351-2.017 2.371-5.12 3.978-7.44 6.444-6.789 1.845-12.53 3.666-14.803 3.736-30.574 3.687-86.528 2.409-86.528 2.409-9.071 13.837-1.422 53.453 11.586 58.111 5.1 1.826 52.492-18.634 71.874-26.844 12.758-3.089 14.816-1.32 32.025-7.974 6.364 5.996 10.291 8.771 11.352 9.167l-.022-.005z" fill="#fff"/><path d="M226.588 350.739c-13.48 1.435-37.215.836-45.538.041m1.845 57.455c29.804-10.603 53.056-19.979 64.763-25.822 15.05-4.433 23.061-4.898 29.544-6.819" stroke="#000" stroke-linejoin="bevel"/><path d="M187.073 407.437c3.525 6.34-6.699 8.083-27.688 10.368-6.585.716-6.589 2.105-14.806-5.937-7.681 1.955-48.99 5.744-64.804 3.771-21.228-2.65-23.633-.546-36.66-13.085 7.619-15.667 16.24-40.366 41.71-43.429 38.524-4.632 52.936-8.957 57.351-8.975 7.02-3.958 25.171-5.115 35.141-4.594 3.554 0 8.317 1.964 5.312 4.594-2.18-.117-5.485 1.456-7.387 2.277-7.135 17.892-7.208 48.751 4.273 57.628 2.511 1.193 4.679-2.607 7.558-2.618z" fill="#C882FF"/><path d="M149.309 415.509c-13.667 6.051-71.99 24.911-94.442 18.031" stroke="#000" stroke-linejoin="bevel"/><path d="M140.965 352.891c-18.481 0-39.153-.429-53.723 3.437-14.57 3.866-23.136 12.492-28.502 23.909m-4.267-10.855c4.267-4.452 13.044-6.837 15.272-6.996m1.272 9.54c1.91-3.657 3.659-7.473 7.159-10.653" stroke="#000"/><path d="M186.526 406.403c3.169 5.392-1.46 7.6-5.623 4.596-8.922-6.436-16.47-28.155-4.92-59.604 2.522-6.867 8.072-5.982 7.101-1.624" stroke="#000" stroke-miterlimit="10" stroke-linejoin="bevel"/><path d="M177.474 345.296c-9.811.44-21.823 2.682-29.412 4.429-6.018 1.385-14.818 13.838-13.74 29.652.834 12.245 11.481 40.362 21.317 39.05 6.317-.843 14.041-2.065 26.346-4.059" stroke="#000" stroke-miterlimit="10" stroke-linejoin="bevel"/><path d="M231.072 350.336c12.628.117 27.284-2.442 31.525-5.269M259.757 359.732c-.34-3.413.331-6.058 2.006-7.942M264.858 345.687c1.323-2.175 5.817-4.822 8-7.139 2.181-2.331 6.274-9.243 10.153-10.767 3.879-1.525 16.837-4.89 20.351-6.365 3.515-1.476 9.862-6.871 14.675-6.061 5.123.865 9.381.11 12.82.022s8.519 2.96 1.406 7.28c-6.912 4.196-13.442 3.491-14.955 4.258-1.512.767-5.419 4.486-7.665 5.648" stroke="#000" stroke-linejoin="bevel"/><path d="M291.404 329.057c6.38 2.949 14.676 1.923 24.555 11.321 5.116 4.868 5.535 5.728 10.317 8.85 6.305 4.11 2.187 10.847-8.054 5.293-6.31-3.427-13.504-12.75-28.352-12.818M280.534 340.794c6.801 2.825 10.079 2.951 16.704 8.231 6.625 5.28 13.6 11.884 17.861 14.262 7.046 3.949 6.573 10.453-1.849 8.073-10.459-2.962-18.039-10.05-20.217-10.992-3.474-1.492-10.197-4.63-18.568-6.321M273.783 358.057c3.76 2.046 7.913 3.813 12.346 8.621 2.372 2.583 5.121 7.823 7.334 10.344 5.3 6.057.317 9.561-6.312 4.447-3.566-2.754-11.687-12.973-18.931-11.474" stroke="#000" stroke-linejoin="bevel"/><path d="M293.382 362.03c-1.917 2.543-4.812 5.596-6.117 6.039" stroke="#000" stroke-linejoin="bevel"/><path d="M342.219 185.298c-4.188 2.029-8.881 2.223-11.085 3.139l-25.262 25.01c4.646-.232 8.951.307 12.267-.598 6.518-1.782 9.029-5.573 10.687-6.757 9.754-9.207 22.737-9.236 22.983-14.319.022-.484 4.225-5.57 7.35-9.344 4.182-1.662 3.076-9.893-5.279-6.037-2.965 1.373-10.275 8.233-11.661 8.906z" fill="#fff"/><path d="M320.749 212.072c3.574-2.142 14.146-10.353 17.46-12.236 3.313-1.884 11.462-3.62 13.756-7.926 2.439-4.586 5.131-6.758 7.299-9.428 3.862-1.554 3.484-8.79-3.701-6.914-7.542 2.914-11.677 9.137-13.207 9.867-1.531.73-6.862 1.556-9.153 2.627" stroke="#000" stroke-linejoin="bevel"/><path d="M283.582 189.263c-1.758-4.543 1.661-6.281 5.847-3.159 2.834 2.117 6.01 5.373 9.67 6.691 2.308-3.327 5.375-5.649 7.011-6.906-1.371-1.928-7.679-11.408-9.055-15.06-.969-2.586-1.383-3.976-1.913-6.92.368-4.736 3.797-6.761 10.218 3.765 2.977 3.311 9.567 11.141 12.175 14.367 1.831-1.113 4.471-2.952 5.614-3.7-3.347-5.842-10.256-15.79-11.875-19.16-4.168-8.661 3.927-11.68 7.757-3.601 1.902 4.006 4.847 5.369 10.172 11.3 1.465 1.625 2.414 2.704 4.11 4.944 1.176-2.075 4.762-5.108 6.82-9.28.681-1.383 2.237-11.283 3.733-14.187 4.226-8.171 7.722-2.151 7.665-.428-.147 4.897-.131 13.443.149 13.839 2.929 4.163-7.301 12.154-9.343 25.407-.582 1.953-.235 6.486-4.284 11.892-2.062 2.75-5.791 4.967-9.315 8.001-2.362 2.029-3.953 5.139-6.409 7.47-1.81 6.796-3.603 12.543-3.661 14.815-3.534 30.579-1.969 86.499-1.969 86.499s-15.438 19.002-25.617 29.706c-8.122 8.53-19.609 17.55-32.462 18.467-15 1.066-10.877 5.126-12.285-3.956 2.889-42.337 28.821-107.709 38.657-127.478 3.025-12.767 6.581-32.05 7.814-32.05-6.032-6.33-8.828-10.241-9.229-11.299l.005.021z" fill="#fff"/><path d="M262.275 289.789c-12.919-8.521-18.158 28.645-9.874 34.765-3.111 7.286-16.491 47.406-14.481 65.491 2.361 21.253 17.867 33.665 28.264 48.457 16.658-5.122 28.242-12.471 36.209-28.266 9.929-31.233 15.989-78.121 16.684-82.478 1.816-11.387 9.16-40.25-1.772-36.742-.219 2.171-.255 6.761-1.358 8.513-19.19 9.628-50.224 5.596-56.118-2.649-.793-2.664 1.993-4.25 2.446-7.091z" fill="#C882FF"/><path d="M316.753 253.361c-1.368 13.482-.647 37.202.191 45.518m-51.331 140.919c-11.448-15.118-25.257-28.552-27.427-44.809-3.104-23.266 10.104-54.904 13.241-69.503m8.026-28.159c10.456-29.843 19.717-53.132 25.503-64.864 4.359-15.064 4.783-23.075 6.672-29.564" stroke="#000" stroke-linejoin="bevel"/><path d="M319.011 327.335c-3.32 20.817-5.778 36.473-7.967 48.649m-9.191 35.152c3.613-7.992 6.142-18.197 9.191-35.152m0 0c2.702 4.28 3.852 13.478 3.852 18.488" stroke="#000"/><path d="M261.741 289.065c-5.429-3.107-7.586 1.544-4.536 5.672 6.537 8.846 28.348 16.151 59.682 4.261 6.843-2.597 5.896-8.134 1.547-7.115" stroke="#000" stroke-miterlimit="10" stroke-linejoin="bevel"/><path d="M322.972 297.441c-.332 9.811-2.443 21.841-4.107 29.446-1.32 6.03-13.681 14.962-29.514 14.059-12.258-.699-40.504-11.031-39.3-20.876.774-6.324 1.911-14.057 3.771-26.377" stroke="#000" stroke-miterlimit="10" stroke-linejoin="bevel"/><path d="M317.133 248.878c-.181-12.62 2.304-27.282 5.111-31.536M307.584 220.255c3.416.322 6.059-.362 7.935-2.045M321.611 215.085c2.169-1.334 4.794-5.839 7.101-8.033 2.321-2.192 9.215-6.318 10.72-10.203 1.506-3.885 4.806-16.854 6.264-20.374 1.459-3.52 6.824-9.892 5.989-14.698-.892-5.117-.158-9.376-.087-12.814.07-3.438-3.005-8.501-7.29-1.368-4.163 6.929-3.425 13.453-4.185 14.969-.76 1.515-4.46 5.439-5.61 7.69" stroke="#000" stroke-linejoin="bevel"/><path d="M338.114 188.466c-2.984-6.361-1.999-14.659-11.452-24.486-4.897-5.088-5.759-5.503-8.907-10.266-4.144-6.282-10.863-2.131-5.254 8.076 3.461 6.291 12.825 13.433 12.969 28.274M326.425 199.392c-2.86-6.784-3.004-10.059-8.32-16.655-5.316-6.595-11.958-13.532-14.359-17.78-3.987-7.022-10.492-6.516-8.067 1.89 3.017 10.438 10.146 17.979 11.1 20.151 1.51 3.465 4.684 10.168 6.419 18.527M309.189 206.227c-2.066-3.748-3.855-7.89-8.687-12.297-2.597-2.358-7.853-5.079-10.387-7.277-6.086-5.267-9.566-.269-4.417 6.331 2.774 3.551 13.039 11.615 11.576 18.864" stroke="#000" stroke-linejoin="bevel"/><path d="M305.114 186.659c-2.535 1.928-5.574 4.838-6.011 6.144" stroke="#000" stroke-linejoin="bevel"/><path d="m335.302 108.59-17.167 9.073 3.328 19.122-13.937-13.515-17.167 9.072 8.553-17.425-13.937-13.516 19.223 2.746 8.553-17.425 3.328 19.122 19.223 2.746z" fill="#FFAE2A"/></svg>