<svg width="361" height="471" fill="none" xmlns="http://www.w3.org/2000/svg"><path d="M184.098 159.724c-1.072 8.014-3.33 17.172-18.031 34.494-.109 1.879 0 16.295 2.646 25.69 26.59 8.104 69.469 8.419 85.561 39.054 8.517 16.213 26.777 62.101 32.835 87.02-1.611 2.692-5.376 2.621-6.583 4.11 7.031 29.15-18.887 71.691-18.887 71.691h-49.527c-2.631 2.628-8.829 7.577-16.651 11.062-3.962 1.765-8.694.672-13.238 1.195-4.874.56-10.117 1.64-14.528.564-6.346-2.623-12.493-7.892-17.779-17.093-8.817-3.502-26.45 5.964-43.313 19.289-17.47 18.385-36.651 19.361-46.671 20.459-1.71-6.588-14.051-4.758-18.651-35.64-2.639-14.069-5.147-29.06-7.148-36.945-8.62-.597-25.737-2.734-26.515-8.172-4.188-14.06.014-53.309 9.036-106.067 6.818-39.876 61.58-36.701 79.633-47.265 3.739-6.807 5.076-24.802 2.632-39.288-5.823-8.509-7.788-16.86-9.213-19.672-61.67-3.554-6.413-92.791 49.563-89.566 38.701 2.23 80.43 78.062 44.829 85.08z" fill="#fff"/><path d="M88.102 159.148c2.2 9.526 8.964 24.809 19.227 33.691 23.338 20.194 41.292 23.068 60.754-.607 10.424-12.68 16.384-26.297 17.448-44.707M82.948 136.523c-6.527-5.819-20.011.863-12.586 16.486 3.937 8.291 13.998 11.491 17.419 11.688" stroke="#000" stroke-miterlimit="10"/><path d="M184.583 136.433c5.813-4.075 15.679 3.801 9.294 14.294-1.394 2.289-3.492 6.275-9.054 9.08M75.21 139.454c7.147 3.385 9.828 13.342 9.803 16.39" stroke="#000" stroke-miterlimit="10"/><path d="M74.23 144.613c3.799.219 6.797.745 8.575 3.166" stroke="#000" stroke-miterlimit="10"/><path d="M180.102 172.215c32.657-31.998 25.071-60.281 19.005-67.56 3.563-29.329-16.033-46.623-38.925-58.325-10.462-11.464-28.595-12.608-41.92-3.183-30.098-10.092-43.71 17.1-43.71 19.759-7.021 0-20.094 31.908-16.021 42.932-5.3 13.723-14.442 40.946 27.392 70.13 1.978 1.381-7.079 14.431-23.852 5.27 0 6.95 14.065 17.798 19.733 13.314-49.3 13.294-44.801 29.051-44.8 46.598 6.444-3.014 9.194-4.344 19.893-6.919-3.304 3.106-19.28 33.173-6.517 46.191 18.405 18.775 48.418-1.813 26.63-24.174 4.794 16.849-5.913 16.342-7.868 10.576-5.141-15.162 28.097-31.963 28.097-43.221 5.883-6.281 1.849-39.378 2.159-39.203-4.828-7.258-6.176-10.679-10.405-20.232-3.216-.185-13.8-4.006-17.075-7.596-3.478-7.937-4.927-15.631.192-19.922 1.857-1.557 5.576-1.292 8.367-1.988 8.977 20.224 16.082.683 18.92-9.564 11.217-40.481 42.501-48.016 48.246-37.798 7.052-3.014 17.039 2.416 18.293 16.81.32 20.192 16.681 17.805 18.129 32.945 7.601-5.774 12.92 4.328 11.993 8.36-1.033 4.494-4.454 11.774-11.149 14.085-1.753 3.503-1.828 6.804-4.807 12.715z" fill="#000"/><path d="M85.922 175.968c1.979 1.381-7.078 14.431-23.851 5.27 0 6.95 11.716 16.39 19.733 13.314-49.3 13.294-44.8 29.051-44.8 46.599" stroke="#fff"/><path d="M184.86 167.033c28.415-28.57 19.893-56.024 13.828-63.304 2.428-19.992-7.595-38.07-24.963-49.454M117.893 43.64c13.425-11.706 36.004-6.563 41.886 2.19 2.502.887 7.298 3.634 9.775 5.316M73.342 62.664c-7.989 7.494-17.914 26.349-14.748 43.481-9.547 17.061-9.592 50.046 37.648 76.391" stroke="#fff"/><path d="M141.488 144.987c-.222 3.843.679 8.33 2.442 10.145 2.667 2.749 2.833 6.438.804 9.672M141.549 162.705c-2.616-.151-2.648-.027-3.924.656M148.14 163.086c1.077-1.173 1.27-2.775 1.27-2.775" stroke="#000" stroke-miterlimit="10"/><path d="M163.256 144.431a4.256 4.256 0 0 0 4.496-4 4.253 4.253 0 0 0-4.005-4.49 4.253 4.253 0 1 0-.491 8.49z" fill="#000"/><path d="M154.802 140.321c9.158-9.474 13.226-.817 21.106-.363" stroke="#000" stroke-miterlimit="10"/><path d="M119.008 147.067a4.256 4.256 0 0 0 4.496-4 4.255 4.255 0 0 0-4.006-4.49 4.257 4.257 0 0 0-4.496 4.001 4.254 4.254 0 0 0 4.006 4.489z" fill="#000"/><path d="M83.672 169.765a5.55 5.55 0 0 0 5.865-5.218 5.55 5.55 0 0 0-5.225-5.857 5.552 5.552 0 0 0-5.865 5.218 5.549 5.549 0 0 0 5.225 5.857zM188.424 166.028a5.202 5.202 0 0 0 5.495-4.889 5.198 5.198 0 0 0-4.895-5.487 5.2 5.2 0 0 0-5.495 4.888 5.2 5.2 0 0 0 4.895 5.488z" fill="#FFAE2A"/><path d="M125.604 141.676c-8.092-8.387-13.852.925-20.004.57" stroke="#000" stroke-miterlimit="10"/><path d="M177.425 126.261c-6.891 1.71-9.802-2.112-21.171 1.217-2.212.63-8.36 2.613-8.228.316.133-2.297-.627-5.699 9.604-7.579 2.033-.377 10.263-1.318 19.762 6.044l.033.002zM98.982 130.16c7.595.615 10.058-3.922 22.707-2.307 2.466.32 9.327 1.353 8.792-1.053-.536-2.405-.319-6.15-11.52-6.405-2.233-.058-11.13.351-19.981 9.801l.002-.036z" fill="#000"/><path d="M127.644 179.838c7.769 3.817 12.784-.766 16.778-.46 3.995.306 8.08 2.02 9.67-2.149" stroke="#000" stroke-miterlimit="10"/><path d="M131.122 181.157c10.724-13.092 18.499-9.192 21.013-1.159" stroke="#000" stroke-miterlimit="10"/><path d="M130.666 181.112c7.369 14.928 20.135 13.773 21.202-1.582" stroke="#000" stroke-miterlimit="10"/><path d="M133.873 181.464c5.781 6.508 12.302 6.677 16.838-1.505" stroke="#000" stroke-miterlimit="10"/><path d="M77.957 55.463c16.724-21.141 36.834-13.173 40.26-12.194M65.403 112.955c19.333 31.14 29.624-42.66 58.002-41.103M124.516 51.293c9.864 5.253 16.769 18.386 20.81 27.642M161.094 77.861c21.994 2.708 20.305 45.004 35.225 30.4" stroke="#fff" stroke-miterlimit="10"/><path d="M98.848 183.532c2.154 16.882 2.32 32.952-2.739 42.766M169.163 219.915c-3.935-7.887-2.723-16.209-2.753-26.165" stroke="#000" stroke-miterlimit="10"/><path d="m128.885 273.359-9.949 12.456 8.788 13.299-14.937-5.6-9.95 12.456.718-15.917-14.938-5.6 15.381-4.238.718-15.917 8.788 13.299 15.381-4.238z" fill="#FFAE2A" stroke="#fff" stroke-width="4" stroke-linejoin="round"/><path d="m128.885 273.359-9.949 12.456 8.788 13.299-14.937-5.6-9.95 12.456.718-15.917-14.938-5.6 15.381-4.238.718-15.917 8.788 13.299 15.381-4.238z" stroke="#000" stroke-linejoin="round"/><path d="m247.233 36.854-9.587 5.062 1.858 10.67-7.784-7.541-9.587 5.062 4.777-9.722-7.783-7.541 10.735 1.532 4.777-9.723 1.858 10.67 10.736 1.531z" fill="#FFAE2A"/><path d="M30.049 362.441c1.937 9.713 12.409 67.026 14.304 73.536 2.647 9.225 7.522 13.379 15.441 19.808M96.712 224.259c-29.525 9.948-68.796 7.857-79.255 41.521-5.452 31.11-14.514 70.908-10.147 109.312M85.084 357.245c3.382 23.581 6.78 43.81 8.466 61.371M83.19 302.73c3.305 30.153 7.182 42.976 12.348 58.394.415 4.61-1.99 9.965-5.272 13.052" stroke="#000" stroke-miterlimit="10"/><path d="M12.39 375.385c20.254-24.284 66.186-22.117 78.731-16.052M8.663 378.748c7.774 4.354 16.686 6.027 25.7 5.967M169.648 220.137c32.154 7.825 62.181 11.334 76.379 27.675 19.591 22.574 31.263 65.852 41.835 97.871m-40.759 6.261c34.123-10.499 49.284-9.952 35.908-3.17m-2.97-2.095c.579 4.196 1.361 10.805 1.991 16.233M96.75 227.067c31.273 39.903 74.223 11.047 72.538-7.396" stroke="#000" stroke-miterlimit="10"/><path d="M89.8 229.669c37.356 52.914 84.702 18.216 86.874-8.242" stroke="#000" stroke-miterlimit="10"/><path d="M206.596 207.96c-.487-1.042-3.496-3.841-3.991-5.143-.903-2.347-2.36-3.889-4.063-4.755.384-1.51-1.836-5.098-4.637-5.951-2.45-.746-2.563.052-5.073-.541-.252-.206-.518-.939-.834-1.071-5.871-2.445-8.52-4.776-14.214-7.867-2.208-1.007-4.153-3.035-5.455-1.862-1.253 1.133-.112 4.069 1.058 5.414 2.227 2.577 3.332 3.342 6.029 5.388-.575.328-1.11.706-1.634 1.095-.246.203-.512.38-.768.57 0 0-.205.127-.276.165-2.028 1.193-4.136 1.689-6.351 1.553-1.71-.098-3.298 1.104-3.48 2.86-.161 1.656 1.131 3.374 2.864 3.474 2.711.162 5.44-.105 7.906-1.266 6.499-3.075 8.306-.496 8.839-.275-.917.589-5.865 2.732-6.626 3.585-1.21 1.385-1.475 1.664-2.105 3.376-.386 1.059-.717 2.134-1.07 3.207-.602 1.071-1.772 3.139-1.772 3.139s-.726 1.261-.931 1.388c-1.372.963-1.539 3.262-.435 4.477.368.397.793.687 1.238.877.097.517 1.797-.097 1.949.437.801 2.699-2.319 4.994-2.232 8.403.014.668-.26 3.138-.233 3.796 1.013 4.707 1.29 6.394 1.274 12.482-.014 2.935.557 9.859 1.449 12.668 1.007 3.148 2.369 8.33 5.751 11.482 7.196 11.734 9.987 13.627 15.731 24.125 3.794 6.932 40.431 79.115 57.959 113.681 8.804 17.362 24.516 39.233 52.441 31.247 4.683-9.545 8.89-25.347-12.931-63.367-17.581-24.628-70.52-81.415-79.406-101.991-1.929-4.468-5.378-10.53-3.05-16.789 1.628-4.53 3.302-9.056 4.853-13.605.866-2.503 2.898-5.717 3.203-8.274 1.143-2.793 1.502-4.509 1.532-7.726.06-5.732-3.925-7.83-9.924-12.767-1.768-.894-1.63-4.53-2.61-5.619l.025-.02z" fill="#fff"/><path d="m189.094 191.028-2.93-.942-7.704.206-.625 8.056 4.806.941-5.68 3.184-.716 12.562 6.893-5.549 2.251-1.464-1.908 8.001-2.983 11.545 1.629 2.498 2.447-.345 3.806-22.576.714-16.117z" fill="#fff"/><path d="M209.436 211.601s-8.672-11.223-10.044-12.813c-1.373-1.591-4.224-4.725-7.546-3.025-3.309 1.69-10.989 4.582-12.687 5.525-1.676.944-3.924 1.72-5.197 4.805-1.273 3.085-2.024 5.226-3.705 7.74-3.723 5.592.711 7.344 4.428 3.672 3.631-3.602 4.447-5.014 5.905-6.623 1.457-1.61 7.073-5.381 10.964-4.088" stroke="#000" stroke-miterlimit="10"/><path d="M199.413 198.79c-1.145-2.641-1.832-6.051-5.492-6.689-3.66-.637-11.207-1.437-13.116-1.701-1.909-.264-3.246-.236-6.113 1.44-2.867 1.677-5.554 2.896-8.559 3.203-4.686.494-5.441 6.16 1.516 6.168 6.459.005 7.901-2.024 10.044-2.426 1.255-.228 3.579-.161 5.754.626" stroke="#000" stroke-miterlimit="10"/><path d="M187.991 190.486s-11.888-5.841-13.705-7.395c-5.643-4.795-8.631-2.566-5.32 2.703s6.909 5.381 6.909 5.381M187.581 226.121c.752.762 4.508 1.341 6.181-6.789" stroke="#000" stroke-miterlimit="10"/><path d="M172.792 220.213c-1.693 5.202-3.369 11.027-1.987 14.38 1.372 3.342.207 13.113 1.479 18.41 1.272 5.298.167 8.636 5.743 15.401 20.865 25.317 56.017 105.655 80.537 149.195 5.548 14.14 25.202 24.595 45.777 21.794 7.4-18.272 3.453-27.655-1.548-41.955-16.154-46.302-69.88-81.529-93.328-131.125-3.051-5.153 2.585-21.687 6.365-28.562 3.78-6.874 4.124-12.162 2.059-15.819-2.065-3.657-9.406-9.486-12.717-12.202-3.311-2.716-7.672-6.381-13.029-1.67-3.093 2.727-7.149 7.09-7.848 7.643-.698.554-2.056 4.512-3.451 10.476-1.395 5.965 4.311 3.13 5.358 1.322 1.363-2.376 2.161-5.585 3.541-7.44 2.817-1.862 4.022-2.152 5.841-3.173 3.193-1.78 4.332.353 6.189 3.832 2.412 4.504-.265 6.21-2.382 8.67-1.902 2.222-9.725 13.449-8.946 18.698" stroke="#000" stroke-miterlimit="10"/><path d="M192.746 393.281h-17.859c-4.864 7.503-4.771 22.503-.001 27.794h17.86v-27.794z" fill="#000" stroke="#000" stroke-linecap="square" stroke-linejoin="bevel"/><path d="M294.833 421.3H189.596c-7.361-4.892-6.609-23.096 0-28.262h105.237v2.48l-1.835.057.046 22.676h1.789v3.049z" fill="#fff" stroke="#000" stroke-linecap="square" stroke-linejoin="bevel"/><path d="M190.357 395.394h103.334M202.891 401.106h83.873M205.932 406.908h86.072M189.811 418.422h103.335" stroke="#000" stroke-linecap="square" stroke-linejoin="bevel"/><path d="M189.627 418.536c-3.771-5.95-3.338-17.112.411-23.005l-.411 23.005z" fill="#fff"/><path d="M189.627 418.536c-3.771-5.95-3.338-17.112.411-23.005" stroke="#000" stroke-linecap="square" stroke-linejoin="bevel"/><path d="M191.866 364.845h-17.859c-4.865 7.504-4.772 22.503-.002 27.794h17.861v-27.794z" fill="#000" stroke="#000" stroke-linecap="square" stroke-linejoin="bevel"/><path d="M293.145 393.107H187.908c-7.361-4.892-6.609-23.097 0-28.262h105.237v2.48l-1.835.057.046 22.676h1.789v3.049z" fill="#C882FF" stroke="#000" stroke-linecap="square" stroke-linejoin="bevel"/><path d="M188.682 367.2h103.323M188.125 390.229H291.46" stroke="#000" stroke-linecap="square" stroke-linejoin="bevel"/><path d="M187.943 390.343c-3.772-5.951-3.339-17.112.41-23.006l-.41 23.006z" fill="#C882FF"/><path d="M187.943 390.343c-3.772-5.951-3.339-17.112.41-23.006" stroke="#000" stroke-linecap="square" stroke-linejoin="bevel"/><path d="M235.715 370.284h-48.424" stroke="#000"/><path d="M84.439 410.708c0 4.583 6.003 22.898 25.006 23.542 14.6-24.882 37.581-16.21 40.143-16.21 1.385 0 4.403 11.032 10.312 12.029 5.771 6.463 15.708 5.807 22.764 3.371 7.234 0 15.138-2.184 20.308-4.703 5.657-2.755 8.758-5.113 7.898-6.545-13.416-.794-19.478.515-36.213-.794-6.129-.479-2.867-28.365-2.867-29.544 6.757-4.98-.248-15.904-7.401-15.904-4.621 0-7.466 10.61-13.572 8.462-5.134-4.018-19.184 4.157-19.184 8.203-16.135 7.323-37.2 13.365-47.194 18.093z" fill="#fff"/><path d="M62.922 457.336c6.582-1.995 13.284-1.305 20.803-4.929 27.032-13.026 43.657-39.317 65.037-34.775M147.385 411.68c2.23 2.741 6.53 14.416 8.938 16.643 2.408 2.226 11.682 2.404 14.952 2.226M158.205 415.964c3.26 2.058 11.683 12.012 13.06 12.18 1.377.168 5.182.346 9.899 0 4.716-.346 8.838-5.462 11.236-5.996" stroke="#000" stroke-miterlimit="10"/><path d="M160.097 430.597c2.923 3.206 8.551 4.661 15.21 4.413 6.659-.247 8.224-2.622 13.238-5.076 4.687-2.295 9.433-3.423 11.048-4.601 1.615-1.177 2.785-2.928 1.07-3.176M181.918 433.933c10.146-.06 14.645-1.168 17.885-3.335 4.33-2.899 7.868-4.087 9.483-5.264 1.615-1.178 2.784-2.929 1.07-3.177M149.097 384.034c5.242 1.613 7.531-.119 9.106-2.276 1.576-2.157 3.023-7.896 9.166-5.214 3.666 1.593 8.264 6.649 7.323 11.309-.932 4.66-9.463 1.069-11.059 1.069" stroke="#000" stroke-miterlimit="10"/><path d="M146.374 383.627c-12.542 3.805-12.224 5.39-14.289 8.402-2.064 3.013-46.673 16.342-51.97 19.19" stroke="#000"/><path d="M166.15 380.306c-1.288 4.552-.119 6.65 0 6.877M171.265 392.207c-.267 5.769 0 24.618 0 24.618s-.089 3.948 4.043 4.314c4.132.366 13.466 0 13.466 0" stroke="#000" stroke-miterlimit="10"/></svg>