<svg width="36" height="36" viewBox="0 0 36 36" fill="none" xmlns="http://www.w3.org/2000/svg">
<path d="M12.9697 27.2197C12.6768 27.5126 12.6768 27.9874 12.9697 28.2803C13.2626 28.5732 13.7374 28.5732 14.0303 28.2803L12.9697 27.2197ZM23.25 18L23.7803 18.5303C24.0732 18.2374 24.0732 17.7626 23.7803 17.4697L23.25 18ZM14.0303 7.71967C13.7374 7.42678 13.2626 7.42678 12.9697 7.71967C12.6768 8.01256 12.6768 8.48744 12.9697 8.78033L14.0303 7.71967ZM14.0303 28.2803L23.7803 18.5303L22.7197 17.4697L12.9697 27.2197L14.0303 28.2803ZM23.7803 17.4697L14.0303 7.71967L12.9697 8.78033L22.7197 18.5303L23.7803 17.4697Z" fill="#1F2229"/>
</svg>
