<svg width="74" height="74" viewBox="0 0 74 74" fill="none" xmlns="http://www.w3.org/2000/svg">
<path d="M22.7477 68.5897L28.9082 56.4698L31.1321 57.6261L24.9715 69.746L22.4827 71.9024L22.7477 68.5897Z" fill="white"/>
<path d="M29.2326 56.7976C40.278 62.2064 51.735 60.8505 56.0903 52.9868C58.2881 49.559 58.53 37.6556 51.1905 31.2707C48.8314 28.544 40.7215 25.4104 36.9614 24.1845C28.8696 21.9552 19.7961 27.2179 16.9577 31.9368C11.9649 40.2376 18.1871 51.3889 29.2326 56.7976Z" stroke="white"/>
<path d="M39.2372 37.3834C43.1726 39.302 47.3385 38.8558 48.5422 36.3869L52.065 29.1578C44.1963 28.9327 39.4842 24.3429 38.1117 22.0762L34.291 29.4392C33.0873 31.9081 35.3018 35.4648 39.2372 37.3834Z" fill="white" stroke="white"/>
<path d="M60.1319 21.118L58.0996 25.4718C56.2194 29.3283 50.0205 30.1757 44.2539 27.3644C38.4873 24.553 35.3367 19.1476 37.2169 15.291L38.3516 13.3581" stroke="white"/>
<ellipse cx="50.923" cy="14.1903" rx="12.3356" ry="7.76859" transform="rotate(25.9901 50.923 14.1903)" fill="#C882FF"/>
</svg>
