<svg width="32" height="32" viewBox="0 0 32 32" fill="none" xmlns="http://www.w3.org/2000/svg">
<path fill-rule="evenodd" clip-rule="evenodd" d="M6.79822 15.3762C5.18693 19.7356 6.59492 24.4381 10.3018 27.0777C14.6568 30.1792 20.3846 29.356 23.8052 25.8395C23.8052 25.8395 26.3611 23.1608 26.3611 20.0958C26.3611 17.3197 25.5697 15.3345 23.773 13.1295L21.6533 10.5278L21.7731 14.4354C21.8144 15.7912 21.0055 16.932 19.8832 17.4463C20.3347 15.7471 20.677 14.0839 20.5604 12.295C20.3058 8.38934 17.9641 5.38715 16.2651 3C14.8908 5.94051 13.9768 8.15101 11.2199 10.3121C11.2199 10.3121 7.68131 13.1362 6.79822 15.3762Z" fill="#8ED700"/>
</svg>
