<svg width="32" height="32" viewBox="0 0 32 32" fill="none" xmlns="http://www.w3.org/2000/svg">
<path d="M27.5138 20.4932C28.6568 20.4932 29.5832 19.5902 29.5832 18.476C29.5832 17.3617 28.6568 16.4587 27.5138 16.4587H26.9234V16.4421C28.0664 16.4421 28.9927 15.5391 28.9927 14.4249C28.9927 13.3107 28.0664 12.4076 26.9234 12.4076V12.3957L18.7001 12.4971C20.2897 9.77886 20.2764 6.7018 20.0559 4.82292C19.9386 3.82398 19.0747 3.06763 18.0424 3.06763C17.0262 3.06763 16.1728 3.80276 16.0337 4.78418C15.5776 8.01158 14.0117 9.34073 12.5886 11.31C10.9365 13.5957 10.9167 16.218 10.9167 16.218V23.3452C10.9167 25.3265 12.4296 26.9324 14.4621 26.9324H26.9234C27.7248 26.9324 28.3739 26.2996 28.3739 25.5184C28.3739 24.7371 27.7248 24.1043 26.9234 24.1043C27.9415 24.1043 28.7666 23.3 28.7666 22.3075C28.7666 21.3151 27.9415 20.5107 26.9234 20.5107V20.4941L27.5138 20.4932Z" fill="#8ED700"/>
<path d="M7.03893 12.3333H4.1279C3.459 12.3333 2.91675 12.9306 2.91675 13.6675V25.6656C2.91675 26.4025 3.459 26.9999 4.1279 26.9999H7.03893C7.70783 26.9999 8.25008 26.4025 8.25008 25.6656V13.6675C8.25008 12.9306 7.70783 12.3333 7.03893 12.3333Z" fill="#8ED700"/>
</svg>
