<svg width="32" height="32" viewBox="0 0 32 32" fill="none" xmlns="http://www.w3.org/2000/svg">
<path fill-rule="evenodd" clip-rule="evenodd" d="M2.66675 7.66666C2.66675 6.1939 3.86066 5 5.33341 5H26.6667C28.1395 5 29.3334 6.19391 29.3334 7.66667V21C29.3334 22.4728 28.1395 23.6667 26.6667 23.6667H14.6667L8.85366 28.6777C7.98522 29.4263 6.66675 28.7875 6.66675 27.6181V23.6667H5.33341C3.86065 23.6667 2.66675 22.4728 2.66675 21V7.66666ZM12.0001 11.6667C12.7365 11.6667 13.3334 11.0697 13.3334 10.3333C13.3334 9.59695 12.7365 9 12.0001 9C11.2637 9 10.6667 9.59695 10.6667 10.3333C10.6667 11.0697 11.2637 11.6667 12.0001 11.6667ZM21.3334 10.3333C21.3334 11.0697 20.7365 11.6667 20.0001 11.6667C19.2637 11.6667 18.6667 11.0697 18.6667 10.3333C18.6667 9.59695 19.2637 9 20.0001 9C20.7365 9 21.3334 9.59695 21.3334 10.3333ZM12.8033 14.6024C12.2155 14.1588 11.3794 14.2757 10.9359 14.8635C10.4923 15.4513 10.6092 16.2874 11.197 16.731C12.7714 17.919 16.9288 19.6548 20.8033 16.731C21.3911 16.2874 21.508 15.4513 21.0645 14.8635C20.6209 14.2757 19.7848 14.1588 19.197 14.6024C16.6715 16.5081 13.8956 15.4267 12.8033 14.6024Z" fill="#8ED700"/>
</svg>
