<svg width="32" height="32" viewBox="0 0 32 32" fill="none" xmlns="http://www.w3.org/2000/svg">
<path fill-rule="evenodd" clip-rule="evenodd" d="M18.3429 3.41419L6.64282 15.1143L15.1285 23.6L26.8286 11.8999C27.6097 11.1189 27.6097 9.85252 26.8286 9.07147L21.1713 3.41419C20.3903 2.63314 19.1239 2.63314 18.3429 3.41419ZM15.8357 9.00717C15.4451 9.3977 15.4451 10.0309 15.8357 10.4214C16.2262 10.8119 16.8594 10.8119 17.2499 10.4214L20.4642 7.20703C20.8548 6.8165 20.8548 6.18334 20.4642 5.79281C20.0737 5.40229 19.4405 5.40229 19.05 5.79281L15.8357 9.00717Z" fill="#00BFFF"/>
<path d="M7.30203 24.8436C6.27224 24.7946 5.44846 23.9708 5.39942 22.941L5.10019 16.6571L13.5859 25.1429L7.30203 24.8436Z" fill="#00BFFF"/>
<path d="M5.48047 28.4854L26.6687 28.4854" stroke="#00BFFF" stroke-width="2" stroke-linecap="round" stroke-linejoin="round"/>
</svg>
