<svg width="32" height="32" viewBox="0 0 32 32" fill="none" xmlns="http://www.w3.org/2000/svg">
<path d="M14.6576 3.50145C15.2067 2.38884 16.7932 2.38884 17.3423 3.50145L20.4911 9.88148C20.7091 10.3233 21.1306 10.6295 21.6182 10.7004L28.659 11.7235C29.8868 11.9019 30.3771 13.4108 29.4886 14.2768L24.3939 19.243C24.041 19.5869 23.88 20.0824 23.9633 20.568L25.166 27.5803C25.3758 28.8032 24.0922 29.7357 22.994 29.1584L16.6966 25.8476C16.2605 25.6183 15.7395 25.6183 15.3034 25.8476L9.0059 29.1584C7.90769 29.7357 6.62414 28.8032 6.83388 27.5803L8.03659 20.568C8.11988 20.0824 7.95889 19.5869 7.60607 19.243L2.51132 14.2768C1.62285 13.4108 2.11312 11.9019 3.34095 11.7235L10.3817 10.7004C10.8693 10.6295 11.2908 10.3233 11.5089 9.88148L14.6576 3.50145Z" fill="#8ED700"></path>
</svg>
