<svg width="32" height="32" fill="none" xmlns="http://www.w3.org/2000/svg"><path d="M14.658 3.501c.549-1.112 2.135-1.112 2.684 0l3.15 6.38c.217.442.639.748 1.126.82l7.041 1.022c1.228.179 1.718 1.688.83 2.554l-5.095 4.966c-.353.344-.514.84-.43 1.325l1.202 7.012c.21 1.223-1.074 2.156-2.172 1.578l-6.297-3.31a1.497 1.497 0 0 0-1.394 0l-6.297 3.31c-1.098.578-2.382-.355-2.172-1.578l1.203-7.012a1.497 1.497 0 0 0-.43-1.325L2.51 14.277c-.888-.866-.398-2.375.83-2.553l7.04-1.024c.488-.07.91-.377 1.128-.819l3.149-6.38Z" fill="#8ED700"/></svg>