<svg width="32" height="32" fill="none" xmlns="http://www.w3.org/2000/svg"><path d="M27.514 20.493c1.143 0 2.07-.903 2.07-2.017 0-1.114-.927-2.017-2.07-2.017h-.59v-.017c1.142 0 2.069-.903 2.069-2.017 0-1.114-.927-2.017-2.07-2.017v-.012l-8.223.101c1.59-2.718 1.576-5.795 1.356-7.674-.117-.999-.981-1.755-2.014-1.755-1.016 0-1.87.735-2.008 1.716-.456 3.228-2.022 4.557-3.445 6.526-1.652 2.286-1.672 4.908-1.672 4.908v7.127c0 1.982 1.513 3.587 3.545 3.587h12.461c.802 0 1.45-.632 1.45-1.414 0-.78-.648-1.414-1.45-1.414 1.019 0 1.844-.804 1.844-1.796 0-.993-.825-1.797-1.844-1.797v-.017h.59ZM7.039 12.333H4.128c-.669 0-1.211.598-1.211 1.335v11.998c0 .736.542 1.334 1.21 1.334H7.04c.669 0 1.211-.598 1.211-1.334V13.668c0-.737-.542-1.335-1.211-1.335Z" fill="#8ED700"/></svg>