<svg width="32" height="32" fill="none" xmlns="http://www.w3.org/2000/svg"><path fill-rule="evenodd" clip-rule="evenodd" d="M2.667 7.667A2.667 2.667 0 0 1 5.333 5h21.334a2.667 2.667 0 0 1 2.666 2.667V21a2.667 2.667 0 0 1-2.666 2.667h-12l-5.813 5.01c-.869.75-2.187.11-2.187-1.059v-3.951H5.333A2.667 2.667 0 0 1 2.667 21V7.667Zm9.333 4A1.333 1.333 0 1 0 12 9a1.333 1.333 0 0 0 0 2.667Zm9.333-1.334a1.333 1.333 0 1 1-2.666 0 1.333 1.333 0 0 1 2.666 0Zm-8.53 4.27a1.333 1.333 0 1 0-1.606 2.128c1.574 1.188 5.732 2.924 9.606 0a1.333 1.333 0 0 0-1.606-2.129c-2.525 1.906-5.301.825-6.394 0Z" fill="#8ED700"/></svg>