<svg width="199" height="250" fill="none" xmlns="http://www.w3.org/2000/svg"><path fill-rule="evenodd" clip-rule="evenodd" d="M31.439 102.949c15.702 8.857 31.457 12.95 40.073 10.295-1.251-5.031-2.561-9.66-3.357-14.6-1.59-9.875.074-30.428-14.06-30.836-13.845-.4-13.14 24.118-22.656 35.141v0Z" fill="#fff" stroke="#000" stroke-width="2.004" stroke-miterlimit="22.926" stroke-linecap="round" stroke-linejoin="round"/><path fill-rule="evenodd" clip-rule="evenodd" d="M51.763 79.216c3.705 7.827 10.998 15.86 16.252 18.473-.35-2.617-.49-5.051-.712-7.648-5.707-2.612-11.391-6.076-15.54-10.825ZM30.438 29.603c3.82-11.507 8.617-21.748 20.69-26.308C43.062-.63 35.966 1.293 30.485 7.767c-5.11 6.034-6.788 14.93-.047 21.836h0Z" fill="#000" stroke="#000" stroke-width="2.004" stroke-miterlimit="22.926" stroke-linecap="round" stroke-linejoin="round"/><path fill-rule="evenodd" clip-rule="evenodd" d="M44.257 1.315c-4.307 2.025-6.586 6.33-6.836 12.917 3.217-4.747 7.5-8.593 13.707-10.937-2.38-1.159-4.676-1.808-6.871-1.98v0Z" fill="#fff" stroke="#000" stroke-width="2.004" stroke-miterlimit="22.926" stroke-linecap="round" stroke-linejoin="round"/><path fill-rule="evenodd" clip-rule="evenodd" d="M45.034 46.49c2.812-3.71-.696-20.326 8.464-18.017 16.092 4.044 30.792 6.261 47.417 2.967C99.58 17.457 87.8 7.394 74.366 3.483 61.072-.387 46.257 1.542 37.973 13.549c-5.519 7.994-8.524 18.81-10.88 27.29-3.73 13.434-7.79 30.793-8.876 42.087-.46 4.785.614 6.8 3.844 7.944 4.97 1.754 9.244 3.004 14.497 3.742.216-.44.416-.876.606-1.327 9.867.806 13.257.602 10.88-10.818-1.564-7.518-3.716-14.933-5.242-22.403-4.007.564-6.553-.847-8.303-3.934-6.055-10.688 3.732-21.06 10.154-9.61l.38-.03h0Z" fill="#000" stroke="#000" stroke-width="2.004" stroke-miterlimit="22.926" stroke-linecap="round" stroke-linejoin="round"/><path fill-rule="evenodd" clip-rule="evenodd" d="M100.821 31.458c-16.587 3.267-31.262 1.05-47.323-2.985-9.16-2.309-5.651 14.307-8.464 18.017l-.38.03c-6.423-11.45-16.21-1.078-10.155 9.609 1.75 3.088 4.296 4.498 8.303 3.935C46.12 74.086 51.555 81.837 64.16 88.48c4.044 2.134 8.75 4.24 13.408 4.11 5.166-.144 9.132-3.968 12.138-7.808 8.34-10.662 10.454-19.337 11.37-31.391.522-6.86.325-14.87-.255-21.934h0Z" fill="#fff" stroke="#000" stroke-width="2.004" stroke-miterlimit="22.926" stroke-linecap="round" stroke-linejoin="round"/><path d="m37.65 48.988 3.875 4.45" stroke="#000" stroke-width="2.004" stroke-miterlimit="22.926" stroke-linecap="round" stroke-linejoin="round"/><path d="M41.681 71.9a7.141 7.141 0 1 0 0-14.283 7.141 7.141 0 0 0 0 14.282Z" fill="#fff" stroke="#000" stroke-width="2.004" stroke-miterlimit="22.926" stroke-linecap="round" stroke-linejoin="round"/><path clip-rule="evenodd" d="M70.971 72.125c3.51 5.94 11.577 7.13 15.592 1.214-5.072.866-10.073.696-15.592-1.214Z" stroke="#000" stroke-width="2.004" stroke-miterlimit="22.926" stroke-linecap="round" stroke-linejoin="round"/><path d="M80.111 76.193a6.196 6.196 0 0 0-.59-1.384c1.49.067 2.963.024 4.43-.113a7.219 7.219 0 0 1-3.84 1.497Z" fill="#000" stroke="#000" stroke-width="2.004"/><path fill-rule="evenodd" clip-rule="evenodd" d="M66.063 42.533c13.755-4.192 19.593 4.246 3.332 4.222-9.456-.018-12.1-1.548-3.332-4.222Z" fill="#000" stroke="#000" stroke-width="2.004" stroke-miterlimit="22.926" stroke-linecap="round" stroke-linejoin="round"/><path fill-rule="evenodd" clip-rule="evenodd" d="M64.944 57.882c.034-3.126 2.774-5.635 6.118-5.634 3.387 0 6.086 2.488 6.037 5.644-5.05.04-7.789-.028-12.155-.01h0Z" fill="#fff" stroke="#000" stroke-width="2.004" stroke-miterlimit="22.926" stroke-linecap="round" stroke-linejoin="round"/><path fill-rule="evenodd" clip-rule="evenodd" d="M71.173 57.899c1.74.008 3.584.013 5.925-.006.039-2.446-1.574-4.49-3.879-5.287-2.386.592-4.507 2.772-3.26 5.286h.001l1.213.007v0Z" fill="#000" stroke="#000" stroke-width="2.004" stroke-miterlimit="22.926" stroke-linecap="round" stroke-linejoin="round"/><path d="M88.592 46.082c-3.175 5.094-3.265 11.343-2.239 17.039 5.189-1.629 5.568.19 1.12 5.465" stroke="#000" stroke-width="2.004" stroke-miterlimit="22.926" stroke-linecap="round" stroke-linejoin="round"/><path fill-rule="evenodd" clip-rule="evenodd" d="M91.407 46.732c-1.888.004-3.25.089-3.249.087 1.527-2.998 4.978-4.06 8.479-4.222 5.437-.252 8.201 1.254 8.1 2.602-.22 2.96-10.554 1.527-13.33 1.533Z" fill="#000" stroke="#000" stroke-width="2.004" stroke-miterlimit="22.926" stroke-linecap="round" stroke-linejoin="round"/><path fill-rule="evenodd" clip-rule="evenodd" d="M96.49 52.248c-3.344-.001-6.085 2.508-6.119 5.634 3.794-.016 6.359.034 10.279.02.143-1.23.264-2.494.369-3.797-1.103-1.145-2.718-1.857-4.53-1.857h0Z" fill="#fff" stroke="#000" stroke-width="2.004" stroke-miterlimit="22.926" stroke-linecap="round" stroke-linejoin="round"/><path fill-rule="evenodd" clip-rule="evenodd" d="M96.6 57.898c1.242.006 2.537.01 4.027.005.144-1.266.261-2.542.362-3.828a6.022 6.022 0 0 0-2.342-1.47c-2.386.592-4.507 2.772-3.26 5.286l1.214.007Z" fill="#000" stroke="#000" stroke-width="2.004" stroke-miterlimit="22.926" stroke-linecap="round" stroke-linejoin="round"/><path fill-rule="evenodd" clip-rule="evenodd" d="M102.024 59.426c-1.228 9.11-3.87 16.558-10.754 25.357-3.6 4.598-7.734 8.288-13.916 7.754-2.518-.218-5.024-1.007-7.406-2.019-1.391-.615-.833 2.55-.777 3.366h6.14c48.112.08 26.831-6.565 27.557-44.684 0 3.194-.416 7.046-.844 10.226h0Z" fill="#000" stroke="#000" stroke-width="2.004" stroke-miterlimit="22.926" stroke-linecap="round" stroke-linejoin="round"/><path fill-rule="evenodd" clip-rule="evenodd" d="M1.302 172.467c-.24 33.152-.627 66.311.845 99.443 6.247 2.257 14.701 3.788 20.23 4.524.855.107 1.703.209 2.544.307.243.026.475.049.694.07l.005.01a644.817 644.817 0 0 0 11.493 23.439c6.784-1.08 13.662-2.749 20.447-5.481a74.262 74.262 0 0 0 15.429-8.425 120.974 120.974 0 0 1-3.035-7.831 337.71 337.71 0 0 0 10.982-.599c7.352-.516 14.035-1.195 20.212-1.785l.005.025c4.205-.898 8.269-2.219 12.086-4.133-3.919-13.442-10.152-31.56-14.608-50.809 7.243 8.634 16.585 15.998 16.585 15.998 17.341-8.635 35.274-26.973 45.137-38.468-3.312-3.66-6.29-7.194-9.005-11.139-3.551-5.162-6.652-11.028-9.455-18.801-4.741 4.64-11.396 10.146-23.119 17.933-4.624-17.96-7.478-36.551-16.548-53.099-5.063-9.233-11.36-14.648-24.07-19.319.202 1.421.457 3.2.848 5.811-13.316 10.851-41.227-2.421-54.455-9.498-10.585 10.963-17.494 17.378-20.728 33.259-1.788 8.783-2.446 18.527-2.52 28.568h.001Z" fill="#000"/><path d="M1.302 172.467c2.063 24.794 3.212 40.615 4.659 55.213 8.68 26.694 21.059 52.98 31.152 72.58 12.01-1.912 24.319-5.672 35.876-13.906-8.335-19.315-13.38-48.616-19.862-70.274.2-15.157.698-24.875 1.294-36.812m-53.119-6.801c-.24 33.152-.627 66.311.845 99.443 7.667 2.771 18.658 4.446 23.488 4.903M1.302 172.467c.073-10.041.732-19.785 2.52-28.568 3.134-15.394 8.97-21.081 20.728-33.259" stroke="#000" stroke-width="2.004" stroke-miterlimit="22.926" stroke-linecap="round" stroke-linejoin="round"/><path fill-rule="evenodd" clip-rule="evenodd" d="M54.075 186.257c-.251 3.728-1.198 26.337-1.363 29.581-1.653 32.586 1.013 40.632 7.041 21.278-1.426-5.75-2.875-13.229-4.977-23.976 0 0-.986-22.481-.7-26.883v0ZM19.38 276.046c2.33.369 4.368.626 5.857.767-7.096-15.298-13.744-32.121-19.276-49.133-1.447-14.597-2.596-30.419-4.659-55.213-.132 18.359-.31 36.721-.193 55.078 3.553 14.297 8.438 30.529 14.653 47.877 1.256.235 2.473.443 3.618.625v-.001Z" fill="#000" stroke="#000" stroke-width="2.004" stroke-miterlimit="22.926" stroke-linecap="round" stroke-linejoin="round"/><path fill-rule="evenodd" clip-rule="evenodd" d="M110.129 273.441c-26.845 6.776-41.242-5.293-50.381-36.31-.204.653-.403 1.275-.6 1.865 1.7 6.959 5.14 21.199 7.87 30.545.695 2.375 2.063 6.427 2.692 8.126 12.26.437 29.025.425 40.419-4.226Z" fill="#000" stroke="#000" stroke-width="2.004" stroke-miterlimit="22.926" stroke-linecap="round" stroke-linejoin="round"/><path d="M78.156 114.327c12.71 4.672 19.008 10.086 24.07 19.32 9.071 16.548 11.925 35.138 16.548 53.099" stroke="#000" stroke-width="2.004" stroke-miterlimit="22.926" stroke-linecap="round" stroke-linejoin="round"/><path fill-rule="evenodd" clip-rule="evenodd" d="M141.893 168.813c2.804 7.772 5.904 13.638 9.456 18.8.055-.083.054-.057 0-.141 3.654-5.399 7.325-10.776 10.959-16.192 8.689.807 14.138-10.399 19.614-15.297 4.581-4.105 9.82-7.676 15.088-10.835.372-1.836.694-3.892.775-6.282.032-.938.027-1.927-.027-2.974-.095-1.844-.243-3.386-.449-4.659-1.429-8.835-5.632-4.788-13.948.209-5.485 3.402-10.391 7.427-11.891 5.784-2.289-2.508 11.216-20.288 13.068-22.816-5.454-6.309-6.542-1.112-13.386 9.003-2.154 3.184-9.661 13.025-12.244 15.334-2.171-8.208 3.48-23.029-5.153-20.996-1.184 4.325-2.708 8.874-4.582 13.637.217 10.676-1.938 17.477.726 28.719-2.445 2.798-4.783 5.551-8.006 8.706Z" fill="#fff"/><path d="M165.014 148.382c-1.16-3.647-5.367-5.64-6.463-10.963-1.604-7.767 3.837-21.701-4.796-19.668-1.184 4.325-2.709 8.874-4.582 13.636.216 10.677-1.939 17.478.726 28.72-6.258 7.16-11.815 14.03-33.284 28.061M182.022 155.908c-2.25-9.492-7.712-17.002-16.753-24.388M197.785 138.865l-18.011 9.917" stroke="#000" stroke-width="2.004" stroke-miterlimit="22.926" stroke-linecap="round" stroke-linejoin="round"/><path d="M158.908 138.747c4.996-5.192 8.22-9.386 12.244-15.334 6.843-10.115 7.932-15.312 13.386-9.003-1.852 2.528-15.357 20.308-13.068 22.816 1.5 1.643 6.406-2.382 11.891-5.784 9.515-5.717 13.645-10.191 14.397 4.45.19 3.716-.23 6.7-.748 9.256-6.019 3.609-11.047 7.222-15.088 10.836-5.476 4.897-10.926 16.103-19.614 15.296l-10.959 16.333m25.049-44.578c6.052-3.742 14.104-8.158 20.911-11.802" stroke="#000" stroke-width="2.004" stroke-miterlimit="22.926" stroke-linecap="round" stroke-linejoin="round"/><path d="M117.083 188.88a.851.851 0 1 1-.935-1.424c.503-.33.819-.866.966-1.539.177-.814.116-1.815-.156-2.913a.852.852 0 1 1 1.657-.407c.334 1.348.403 2.612.17 3.681-.241 1.105-.796 2.007-1.701 2.602h-.001Z" fill="#000"/><path d="M141.893 168.812c4.946 13.713 10.815 21.491 18.46 29.94-9.863 11.496-27.796 29.834-45.136 38.468 0 0-9.342-7.363-16.586-15.997" stroke="#000" stroke-width="2.004" stroke-miterlimit="22.926" stroke-linecap="round" stroke-linejoin="round"/><path fill-rule="evenodd" clip-rule="evenodd" d="M151.349 187.471c2.624 4.054 5.769 7.704 9.004 11.28-.36-3.403-3.166-11.138-5.762-16.07l-3.242 4.79h0ZM119.706 234.783c-11.908-5.692-19.112-22.398-20.106-51.005-2.018 8.748-1.972 8.202-4.49 19.238.919 6.107 2.134 12.212 3.521 18.207 7.244 8.634 16.586 15.997 16.586 15.997 1.265-.636 3.263-1.745 4.489-2.437ZM69.006 103.168l2.508 10.084c2.887-.888 4.904-2.457 5.766-4.732-1.862-1.163-3.99-2.707-8.266-5.352h-.008 0Z" fill="#000" stroke="#000" stroke-width="2.004" stroke-miterlimit="22.926" stroke-linecap="round" stroke-linejoin="round"/><path d="M30.6 112.803a.853.853 0 0 1-.695 1.557c-1.84-.821-3.455-1.183-4.844-1.086-1.311.093-2.432.609-3.361 1.55a.854.854 0 0 1-1.217-1.197c1.234-1.248 2.722-1.934 4.464-2.057 1.665-.117 3.55.294 5.653 1.233Z" fill="#000"/><path fill-rule="evenodd" clip-rule="evenodd" d="M71.514 113.252c-8.61 2.662-24.372-1.444-40.076-10.304-2.708 3.167-4.264 4.877-6.889 7.692 29.545 15.807 46.258 16.177 54.454 9.498-1-6.68-1.112-7.921-1.723-11.618-.853 2.275-2.88 3.843-5.766 4.732Z" fill="#fff" stroke="#000" stroke-width="2.004" stroke-miterlimit="22.926" stroke-linecap="round" stroke-linejoin="round"/><path d="M69.711 277.669c14.593.518 30.501.896 43.529-5.637-5.139-17.629-14.26-43.3-18.13-69.015 2.931-12.846 2.39-10.001 5.67-24.384l-8.709-31.298" stroke="#fff" stroke-width="2.004" stroke-miterlimit="22.926" stroke-linecap="round" stroke-linejoin="round"/></svg>