<svg width="150" height="180" fill="none" xmlns="http://www.w3.org/2000/svg"><path fill-rule="evenodd" clip-rule="evenodd" d="M75.313 45.193c.267-14.965-26.81-18.97-27.635 8.777-.109 3.649-.172 7.716-.275 10.641-.363.58-.756 1.152-1.067 1.762-6.73 13.173 22.24 14.261 32.487-.187.733-1.033 1.397-2.168 2.078-3.472-7.091-3.152-5.69-11.853-5.588-17.521v0Z" fill="#fff" stroke="#000" stroke-width="1.233" stroke-miterlimit="22.926" stroke-linecap="round" stroke-linejoin="round"/><path d="M73.68 45.094a.552.552 0 0 1 .562-.95 2.95 2.95 0 0 1 1.278 1.522c.24.624.322 1.374.245 2.25a.553.553 0 0 1-1.1-.094c.062-.713.005-1.3-.172-1.759a1.876 1.876 0 0 0-.812-.969Z" fill="#000"/><path fill-rule="evenodd" clip-rule="evenodd" d="M7.624 211.787c2.3.842 4.886 1.522 7.946 1.96a1016.282 1016.282 0 0 0 8.383-21.871c27.465 9.121 53.181 8.266 79.972-2.281l-.989-15.288c12.981-3.752 22.797-8.932 29.447-15.541 0-15.651-4.25-37.966-6.688-54.074-2.688-17.774-10.164-23.558-22.642-30.156-5.11-2.702-10.274-5.318-15.391-8.023-6.597 11.596-24.15 20.232-37.378 16.257-5.807-1.745-10.885-6.652-8.225-13.139-11.215 6.218-26.31 13.115-31.714 25.346-5.896 13.342.044 41.38 1.457 56.006-2.778 6.498-3.751 13.717-4.664 20.702-1.244 9.512-2.507 20.875-6.108 36.962 2.026 1.166 4.148 2.244 6.594 3.14Z" fill="#fff"/><path fill-rule="evenodd" clip-rule="evenodd" d="M47.214 64.798c-.257-.21-.742-.66-1.011-.821-1.143 1.138-2.02 2.089-2.78 3.185-5.018 7.224-.269 13.465 6.861 15.607 13.2 3.966 30.845-4.64 37.436-16.359l-6.341-4.968c-.475.932-.84 1.748-1.247 2.55-6.75 13.28-29.011 15.744-33.867 9.006-1.885-2.615-.577-5.764.949-8.2Z" fill="#fff" stroke="#000" stroke-width="1.233" stroke-miterlimit="22.926" stroke-linecap="round" stroke-linejoin="round"/><path fill-rule="evenodd" clip-rule="evenodd" d="M81.379 61.442h-2.573c.57.462 1.224.87 1.975 1.216.186-.387.38-.79.598-1.216Z" fill="#000" stroke="#000" stroke-width="1.233" stroke-miterlimit="22.926" stroke-linecap="round" stroke-linejoin="round"/><path d="M77.833 67.468 52.286 98.092a33854.795 33854.795 0 0 0-6.797-26.783" stroke="#000" stroke-width="1.233" stroke-miterlimit="22.926" stroke-linecap="round" stroke-linejoin="round"/><path fill-rule="evenodd" clip-rule="evenodd" d="M44.932 99.16a.942.942 0 0 0-.797 1.068l1.224 8.433H62.28s-.522-3.614-1.573-10.837a.944.944 0 0 0-1.068-.8L44.932 99.16Z" fill="#A7FC00" stroke="#000" stroke-width="1.233" stroke-miterlimit="22.926" stroke-linecap="round" stroke-linejoin="round"/><path d="m102.701 174.387 1.225 15.209c-30.503 12.007-58.319 10.952-87.282-.363 2.107-6.145 3.716-12.668 4.93-19.286 3.792-20.69 4.283-40.089-.74-60.675" stroke="#000" stroke-width="1.233" stroke-miterlimit="22.926" stroke-linecap="round" stroke-linejoin="round"/><path fill-rule="evenodd" clip-rule="evenodd" d="M80.33 183.737c8.57-.051 16.233-.635 22.983-1.754l-.613-7.602c-8.364 2.396-16.979 3.935-25.606 5.023 0 2.445.18 4.069 3.236 4.333v0Z" fill="#000" stroke="#000" stroke-width="1.233" stroke-miterlimit="22.926" stroke-linecap="round" stroke-linejoin="round"/><path d="M42.038 69.584c-11.406 6.732-26.115 12.768-31.693 25.392-5.747 13.007.005 40.977 1.457 56.007 0 0-2.218 5.186-3.35 11.75-1.977 11.452-2.628 24.496-7.422 45.914 3.93 2.261 8.227 4.196 14.54 5.1 3.58-9.051 5.204-13.262 8.383-21.871" stroke="#000" stroke-width="1.233" stroke-miterlimit="22.926" stroke-linecap="round" stroke-linejoin="round"/><path fill-rule="evenodd" clip-rule="evenodd" d="M32.948 74.678C40.092 87.085 59 86.186 71.408 80.504c-7.144 3.221-15.17 4.33-21.916 2.01-5.37-1.848-10.044-6.915-7.46-12.89-3.046 1.673-6.013 3.425-9.084 5.054ZM20.835 110.684c.44-.216.93-.378 1.473-.486l-4.052-5.278a155.713 155.713 0 0 0-.164 10.259c.236-2.211 1.15-3.71 2.743-4.495h0Z" fill="#000" stroke="#000" stroke-width="1.233" stroke-miterlimit="22.926" stroke-linecap="round" stroke-linejoin="round"/><path d="M87.72 66.443c19.204 11.155 34.123 12.767 37.965 38.182 2.437 16.113 6.698 38.468 6.698 54.14-11.076 11.01-30.94 18.055-59.582 21.134-3.346-3.397-6.721-10.968-6.281-18.63 18.854-2.618 34.178-15.815 49.634-22.89" stroke="#000" stroke-width="1.233" stroke-miterlimit="22.926" stroke-linecap="round" stroke-linejoin="round"/><path d="M76.472 158.894c-.636 3.266 1.681 14.173 6.325 19.724" stroke="#000" stroke-width="1.233" stroke-miterlimit="22.926" stroke-linecap="round" stroke-linejoin="round"/><path fill-rule="evenodd" clip-rule="evenodd" d="M106.203 141.705v1.9c.617-.354 1.232-.704 1.847-1.048.572-.009 1.243-.172 2.014-.488a.552.552 0 0 0-.419-1.019c-.694.285-1.265.42-1.712.404-.251-.009-.457-.068-.616-.178a1.065 1.065 0 0 1-.371-.494c-.152-.368-.215-.877-.192-1.527a.55.55 0 1 0-1.101-.038c-.029.808.062 1.469.274 1.984.077.187.169.355.276.504Z" fill="#000"/><path fill-rule="evenodd" clip-rule="evenodd" d="M66.515 163.94c-5.83-.02-5.103-5.243-11.328-5.892-4.938-.516-11.784-3.374-11.784-3.374-1.364 1.769-1.379 4.003.636 5.124 2.421 1.347 6.738 2.041 8.91 5.199H36.472c2.91 5.122 4.966 3.977 9.792 6.376 2.83 1.411 6.508 4.488 9.289 5.198 3.017.77 7.047-.53 10.168-1.096l3.641-.66c-1.505-3.077-2.64-6.898-2.848-10.875v0Z" fill="#fff" stroke="#000" stroke-width="1.233" stroke-miterlimit="22.926" stroke-linecap="round" stroke-linejoin="round"/><path fill-rule="evenodd" clip-rule="evenodd" d="M65.822 163.911c-.357 4.069.061 8.143 1.407 11.291l2.135-.387c-1.505-3.077-2.64-6.898-2.848-10.875a8.982 8.982 0 0 1-.694-.029Z" fill="#000" stroke="#000" stroke-width="1.233" stroke-miterlimit="22.926" stroke-linecap="round" stroke-linejoin="round"/><path fill-rule="evenodd" clip-rule="evenodd" d="M52.872 65.081c4.102-.6 8.536-2.531 11.83-4.457 3.91-2.287 6.563-4.217 7.467-8.817.94-4.779.412-10.21 2.358-14.69-1.392-.382-2.608-.996-3.651-1.842.455-3.881-.294-8.213-.619-9.01-1.11-2.719-7.411-9.398-10.642-9.756-6.302-.7-13.115 8.418-22.929 6.271.12 3.008.415 6.703.501 10.034.095 3.675-.064 7.12.277 10.842.726 7.919 3.108 18.038 10.096 21.023 1.746.746 3.215.71 5.312.402v0Z" fill="#fff" stroke="#000" stroke-width="1.233" stroke-miterlimit="22.926" stroke-linecap="round" stroke-linejoin="round"/><path fill-rule="evenodd" clip-rule="evenodd" d="M59.615 16.51c3.23.358 9.532 7.037 10.642 9.756.325.796 1.074 5.129.62 9.01 1.042.846 2.259 1.46 3.65 1.842 1.118-2.573 2.922-3.955 5.736-3.85 3.69-15.19 1.635-20.786-10.165-27.44-2.307-1.3-18.4-9.195-14.917-1.511-7.611-.08-25.399 1.173-24.468 12.341.49 5.886 7.01 7.001 11.766 6.183 5.067-.962 9.286-4.266 13.155-5.699 1.341-.506 2.654-.78 3.981-.633h0Z" fill="#000" stroke="#000" stroke-width="1.233" stroke-miterlimit="22.926" stroke-linecap="round" stroke-linejoin="round"/><path fill-rule="evenodd" clip-rule="evenodd" d="M60.411 49.743c-3.01-6.532-6.691-3.171-10.641-2.664-3.873.497-7.36-1.398-8.273 4.274-2.38-3.432-3.467-7.227-4.249-11.962.101 5.527.896 11.68 2.979 16.785 1.31 3.206 3.311 6.346 6.421 8.056 1.02.561 2.051.933 3.221 1.029 2.563.095 5.607-.59 8.525-1.646 2.41-.89 4.68-2.016 6.883-3.331 1.527-.941 3.744-2.496 4.87-3.892.891-1.016 1.55-2.613 1.872-3.912.408-1.86.59-4.152.806-6.498.279-3.021.474-6.04 1.702-8.864-1.392-.383-2.609-.997-3.651-1.843a15.76 15.76 0 0 1-.251 1.523c-.573 2.626-2.285 4.986-4.279 6.74-1.86 1.64-3.962 2.98-5.935 6.205Z" fill="#000" stroke="#000" stroke-width="1.233" stroke-miterlimit="22.926" stroke-linecap="round" stroke-linejoin="round"/><path d="M49.133 51.113c2.362.078 4.439-.623 6.232-2.1" stroke="#fff" stroke-width="1.233" stroke-miterlimit="22.926" stroke-linecap="round" stroke-linejoin="round"/><path fill-rule="evenodd" clip-rule="evenodd" d="M58.047 29.037c-9.671-2.175-11.731 4.09-1.386 3.87 6.268-.129 7.55-2.486 1.386-3.87Z" fill="#000" stroke="#000" stroke-width="1.233" stroke-miterlimit="22.926" stroke-linecap="round" stroke-linejoin="round"/><path fill-rule="evenodd" clip-rule="evenodd" d="M59.337 36.71c-.02 1.875-1.665 3.38-3.67 3.38-2.032 0-3.651-1.493-3.622-3.386 3.03-.024 4.672.017 7.292.006Z" fill="#fff" stroke="#000" stroke-width="1.233" stroke-miterlimit="22.926" stroke-linecap="round" stroke-linejoin="round"/><path fill-rule="evenodd" clip-rule="evenodd" d="M55.6 36.7c-1.044-.004-2.15-.007-3.555.004-.023 1.467.945 2.694 2.327 3.171 1.432-.354 2.704-1.662 1.956-3.17 0 0 0 0 0 0L55.6 36.7Z" fill="#000" stroke="#000" stroke-width="1.233" stroke-miterlimit="22.926" stroke-linecap="round" stroke-linejoin="round"/><path d="m59.337 36.711-8.839-.006M44.425 31.872c1.521 3.427 2.303 7.713 1.73 11.567-3.425-.963-3.637.234-.624 3.597" stroke="#000" stroke-width="1.233" stroke-miterlimit="22.926" stroke-linecap="round" stroke-linejoin="round"/><path fill-rule="evenodd" clip-rule="evenodd" d="M37.639 28.922c-4.409.367-5.813 4.7 1.136 3.724 1.966-.278 3.618-.664 5.68-.635-1.35-2.635-4.072-3.318-6.816-3.09v.001Z" fill="#000" stroke="#000" stroke-width="1.233" stroke-miterlimit="22.926" stroke-linecap="round" stroke-linejoin="round"/><path fill-rule="evenodd" clip-rule="evenodd" d="m41.851 36.71-4.624-.003c.002.685.004 1.367.012 2.052.658.813 1.712 1.331 2.91 1.331 2.005 0 3.648-1.504 3.67-3.379h-.251c-.613.002-1.173.001-1.715 0h-.002v0Z" fill="#fff" stroke="#000" stroke-width="1.233" stroke-miterlimit="22.926" stroke-linecap="round" stroke-linejoin="round"/><path fill-rule="evenodd" clip-rule="evenodd" d="m40.812 36.71-3.585-.003c.002.685.004 1.367.012 2.052a3.57 3.57 0 0 0 1.614 1.117c1.43-.354 2.702-1.66 1.959-3.166h0Z" fill="#000" stroke="#000" stroke-width="1.233" stroke-miterlimit="22.926" stroke-linecap="round" stroke-linejoin="round"/><path fill-rule="evenodd" clip-rule="evenodd" d="M73.243 44.105c4.249 3.508 8.677-1.33 9.494-5.621.517-2.722-.34-5.34-3.811-5.136-4.615.784-5.334 6.91-5.683 10.758Z" fill="#fff" stroke="#000" stroke-width="1.233" stroke-miterlimit="22.926" stroke-linecap="round" stroke-linejoin="round"/><path d="m79.312 37.87-2.504 2.876" stroke="#000" stroke-width="1.233" stroke-miterlimit="22.926" stroke-linecap="round" stroke-linejoin="round"/><path fill-rule="evenodd" clip-rule="evenodd" d="M20.835 109.273c-1.592.784-2.507 2.284-2.742 4.496v46.122c.37 2.925 1.815 4.595 4.342 5.019.245.041.5.07.765.088h29.75c-2.172-3.158-6.489-3.851-8.91-5.199-2.015-1.121-2-3.355-.636-5.124 0 0 6.846 2.859 11.784 3.374 5.966.622 5.547 5.446 10.635 5.863.22.018.451.028.693.029a24.362 24.362 0 0 1 .005-2.671c3.426-.476 6.736-1.301 9.952-2.376 10.687-3.57 20.329-9.894 29.732-15.289v-29.836c-.44-3.241-2.144-4.94-5.107-5.107H23.2c-.908.078-1.696.281-2.365.611Z" fill="#000" stroke="#000" stroke-width="1.233" stroke-miterlimit="22.926" stroke-linecap="round" stroke-linejoin="round"/><path clip-rule="evenodd" d="M62.154 142.866a6.037 6.037 0 1 0 0-12.073 6.037 6.037 0 0 0 0 12.073Z" stroke="#fff" stroke-width="1.233" stroke-miterlimit="22.926" stroke-linecap="round" stroke-linejoin="round"/></svg>