<svg width="339" height="250" viewBox="0 0 339 250" fill="none" xmlns="http://www.w3.org/2000/svg">
<path fill-rule="evenodd" clip-rule="evenodd" d="M277.186 119.957C273.421 118.94 269.525 118.492 265.627 118.628C259.644 118.921 229.733 117.6 230.044 118.523C230.355 119.447 229.529 121.016 231.793 122.147C234.058 123.278 245.797 130.083 260.871 127.701C275.944 125.318 277.186 119.957 277.186 119.957Z" fill="white" stroke="black" stroke-width="1.30537" stroke-linecap="round" stroke-linejoin="round"></path>
<path fill-rule="evenodd" clip-rule="evenodd" d="M270.322 128.332C255.851 134.893 240.599 133.656 233.24 130.657C234.73 126.338 236.238 122.374 237.318 118.103C239.481 109.568 239.611 91.3865 252.048 92.1212C264.246 92.8351 262.837 117.913 270.322 128.332Z" fill="white" stroke="black" stroke-width="1.30537" stroke-linecap="round" stroke-linejoin="round"></path>
<path fill-rule="evenodd" clip-rule="evenodd" d="M275.79 60.4116C273.329 50.0209 269.908 40.6537 259.666 35.7147C267.048 32.8931 273.127 35.1306 277.439 41.2399C281.456 46.9313 282.241 54.8721 275.79 60.4116Z" fill="black" stroke="black" stroke-width="1.30537" stroke-linecap="round" stroke-linejoin="round"></path>
<path fill-rule="evenodd" clip-rule="evenodd" d="M265.85 34.5095C269.473 36.6202 271.139 40.5763 270.848 46.3779C268.393 41.9606 264.932 38.2545 259.665 35.7148C261.633 34.9281 263.731 34.5192 265.85 34.5095Z" fill="white" stroke="black" stroke-width="1.30537" stroke-linecap="round" stroke-linejoin="round"></path>
<path fill-rule="evenodd" clip-rule="evenodd" d="M261.667 74.1035C259.488 70.6299 263.853 56.3168 255.634 57.6328C241.195 59.936 228.12 60.7432 213.782 56.5647C216.034 44.3944 227.155 36.4722 239.251 34.0776C251.22 31.7118 264.07 34.5525 270.417 45.7347C274.643 53.1777 276.443 62.9009 277.854 70.5339C280.082 82.6142 282.309 98.1807 282.388 108.164C282.42 112.407 281.322 114.087 278.397 114.84C273.899 115.995 270.25 116.752 265.581 116.99C265.425 116.589 265.255 116.142 265.122 115.734C256.399 115.677 253.266 115.293 256.239 105.45C258.194 98.9729 260.657 92.6212 262.577 86.1903C266.048 86.9975 268.395 85.9562 270.169 83.3803C276.313 74.4691 268.523 64.6051 261.998 74.1581L261.667 74.1035Z" fill="black" stroke="black" stroke-width="1.30537" stroke-linecap="round" stroke-linejoin="round"></path>
<path fill-rule="evenodd" clip-rule="evenodd" d="M212.012 81.1645C212.385 89.258 214.125 95.9991 219.49 104.259C222.292 108.574 225.635 112.132 231.09 112.141C233.359 112.092 235.605 111.689 237.749 110.945C239.015 110.512 238.28 113.248 238.168 113.958L232.778 113.481C190.552 109.826 209.754 105.641 212.062 72.1247C211.857 75.134 211.841 78.1531 212.012 81.1645Z" fill="black" stroke="black" stroke-width="1.30537" stroke-linecap="round" stroke-linejoin="round"></path>
<path fill-rule="evenodd" clip-rule="evenodd" d="M213.86 56.5896C228.169 60.7394 241.221 59.9328 255.633 57.6333C263.853 56.3174 259.488 70.6305 261.667 74.1041L261.995 74.1588C268.519 64.6058 276.309 74.4697 270.165 83.3809C268.391 85.9568 266.045 86.9982 262.573 86.191C258.575 98.2435 253.191 104.628 241.623 109.485C237.908 111.043 233.615 112.526 229.534 112.039C225.011 111.513 221.825 107.85 219.486 104.246C212.989 94.2393 211.804 86.4642 211.935 75.81C212.013 69.7596 212.806 62.7434 213.86 56.5896Z" fill="white" stroke="black" stroke-width="1.30537" stroke-linecap="round" stroke-linejoin="round"></path>
<path d="M267.954 76.8689L264.208 80.4745" stroke="black" stroke-width="1.30537" stroke-linecap="round" stroke-linejoin="round"></path>
<path d="M263.336 96.6908C266.81 96.6133 269.564 93.7343 269.487 90.2602C269.409 86.7861 266.53 84.0326 263.056 84.1101C259.582 84.1875 256.828 87.0666 256.906 90.5406C256.983 94.0147 259.862 96.7682 263.336 96.6908Z" fill="#A7FC00" stroke="black" stroke-width="1.30537" stroke-linecap="round" stroke-linejoin="round"></path>
<path fill-rule="evenodd" clip-rule="evenodd" d="M236.927 94.5964C233.384 99.539 226.212 99.9601 223.145 94.4564C227.647 95.7079 232.4 95.7562 236.927 94.5964Z" stroke="black" stroke-width="1.30537" stroke-linecap="round" stroke-linejoin="round"></path>
<path fill-rule="evenodd" clip-rule="evenodd" d="M231.722 95.3947C230.428 95.9262 229.58 96.9364 229.178 98.4251C227.916 98.3332 226.698 97.9205 225.64 97.226C224.582 96.5315 223.719 95.5783 223.132 94.4567C225.928 95.2199 228.827 95.5365 231.722 95.3947Z" fill="black" stroke="black" stroke-width="1.30537" stroke-linecap="round" stroke-linejoin="round"></path>
<path d="M223.464 70.3723C225.854 75.0914 225.451 80.581 224.108 85.5041C219.68 83.6703 219.211 85.24 222.702 90.2131" stroke="black" stroke-width="1.30537" stroke-linecap="round" stroke-linejoin="round"></path>
<path fill-rule="evenodd" clip-rule="evenodd" d="M220.942 70.7258C222.597 70.8749 223.786 71.0541 223.786 71.0541C222.677 68.3042 219.732 67.1033 216.671 66.6917C211.917 66.0469 209.376 67.1546 209.36 68.3464C209.324 70.9619 218.505 70.5059 220.942 70.7258Z" fill="black" stroke="black" stroke-width="1.30537" stroke-linecap="round" stroke-linejoin="round"></path>
<path fill-rule="evenodd" clip-rule="evenodd" d="M243.515 69.0015C231.766 64.2561 225.986 71.2104 240.262 72.4493C248.563 73.1652 251.002 72.0271 243.515 69.0015Z" fill="black" stroke="black" stroke-width="1.30537" stroke-linecap="round" stroke-linejoin="round"></path>
<path fill-rule="evenodd" clip-rule="evenodd" d="M243.308 82.5626C243.521 79.8158 241.309 77.4006 238.372 77.1429C235.435 76.8852 232.839 78.856 232.636 81.6286C237.069 82.0684 239.478 82.2073 243.308 82.5626Z" fill="white" stroke="black" stroke-width="1.30537" stroke-linecap="round" stroke-linejoin="round"></path>
<path fill-rule="evenodd" clip-rule="evenodd" d="M237.84 82.0937C236.309 81.9678 234.691 81.8374 232.636 81.6286C232.794 79.4805 234.366 77.8101 236.457 77.2999C238.503 78.0018 240.197 80.0826 238.909 82.1906L237.84 82.0937Z" fill="black" stroke="black" stroke-width="1.30537" stroke-linecap="round" stroke-linejoin="round"></path>
<path fill-rule="evenodd" clip-rule="evenodd" d="M216.053 75.1727C218.997 75.4335 221.199 77.8457 220.986 80.5924C217.656 80.2847 215.403 80.1293 211.962 79.8142C211.938 78.7267 211.928 77.6062 211.933 76.4527C212.499 75.975 213.156 75.6156 213.864 75.3958C214.571 75.1759 215.316 75.1001 216.053 75.1727Z" fill="white" stroke="black" stroke-width="1.30537" stroke-linecap="round" stroke-linejoin="round"></path>
<path fill-rule="evenodd" clip-rule="evenodd" d="M215.517 80.1236C214.425 80.0337 213.29 79.9383 211.981 79.8173C211.956 78.6949 211.95 77.5656 211.961 76.4294C212.587 75.8948 213.33 75.5148 214.13 75.3202C216.18 76.0253 217.871 78.1028 216.583 80.2141L215.517 80.1236Z" fill="black" stroke="black" stroke-width="1.30537" stroke-linecap="round" stroke-linejoin="round"></path>
<path fill-rule="evenodd" clip-rule="evenodd" d="M326.035 201.515C325.636 197.055 325.364 192.465 324.197 188.466C321.847 170.184 317.575 160.688 313.238 147.108C311.69 142.246 308.854 138.036 305.424 134.277C300.994 129.424 297.234 128.258 292.221 127.716C292.215 127.736 292.208 127.754 292.2 127.772C291.623 128.98 289.994 126.943 284.495 127.151C280.298 127.307 279.121 120.38 277.195 119.936C276.264 119.722 276.241 124.423 255.447 125.403C236.606 126.293 233.677 119.066 229.983 118.694C229.983 118.694 228.063 123.039 225.997 122.922C220.503 122.61 214.847 123.096 214.43 122.259C206.706 122.507 199.101 124.579 194.11 130.455C189.759 135.579 189.366 142.847 189.208 149.543C188.756 167.18 188.312 184.901 190.101 202.492C190.892 210.272 193.453 218.294 193.379 226.078C193.322 232.183 193.528 240.96 192.969 258.357C224.295 272.508 289.221 270.326 298.62 266.448C298.719 265.6 298.811 264.75 298.89 263.902C299.655 255.441 297.955 250.772 298.89 242.327C298.89 242.327 321.276 243.917 322.948 242.329C324.619 240.741 327.662 214.134 326.035 201.515Z" fill="black"></path>
<path d="M284.486 127.171C293.21 127.538 301.493 129.511 307.208 136.111C309.959 139.291 311.691 143.192 313.238 147.117C319.81 163.72 324.96 186.203 326.743 203.97" stroke="black" stroke-width="1.30537" stroke-linecap="round" stroke-linejoin="round"></path>
<path d="M296.475 201.552C296.736 188.819 295.883 176.187 293.949 164.176" stroke="white" stroke-width="1.30537" stroke-linecap="round" stroke-linejoin="round"></path>
<path fill-rule="evenodd" clip-rule="evenodd" d="M226.361 123.437C227.985 122.237 229.233 120.599 229.957 118.715C236.074 122.799 246.707 125.663 257.673 125.418C269.024 125.165 275 121.05 277.179 119.957C278.967 122.688 282.401 126.042 284.479 127.171C284.479 127.171 273.825 134.512 251.161 132.157C228.497 129.803 226.361 123.437 226.361 123.437Z" stroke="black" stroke-width="1.30537" stroke-linecap="round" stroke-linejoin="round"></path>
<path d="M235.327 120.485L262.055 177.314C265.813 143.817 268.283 121.813 268.295 121.744" stroke="white" stroke-width="1.30537" stroke-linecap="round" stroke-linejoin="round"></path>
<path d="M251.071 176.084L254.158 207.937C254.33 209.709 255.851 211.011 257.557 210.846L276.127 209.046C277.832 208.881 279.076 207.311 278.904 205.54L275.818 173.686C275.646 171.915 274.124 170.613 272.419 170.778L253.849 172.577C252.143 172.743 250.9 174.313 251.071 176.084Z" fill="white"></path>
<path d="M334.026 218.871C332.959 214.161 331.851 209.381 329.731 205.003C329.046 203.6 327.66 200.088 326.302 199.254C325.044 198.47 321.365 199.301 320.022 199.831C314.319 202.076 305.937 203.853 299.901 204.994C304.265 209.551 305.627 217.022 306.099 222.523C313.787 223.263 316.051 220.603 323.759 220.098C323.974 220.098 324.125 220.141 324.382 220.851C324.667 221.635 324.865 223.028 324.885 222.956C324.672 226.783 324.354 228.284 323.96 233.045C328.832 229.703 332.153 223.737 333.638 220.431C333.861 219.916 334.144 219.423 334.026 218.871Z" fill="white"></path>
<path d="M324.885 222.956C324.672 226.783 324.354 228.284 323.96 233.045C328.832 229.703 332.153 223.737 333.638 220.431C333.861 219.916 334.144 219.423 334.026 218.871C332.959 214.161 331.851 209.381 329.731 205.003C329.046 203.6 327.66 200.088 326.302 199.254C325.044 198.47 321.365 199.301 320.022 199.831C314.319 202.076 305.937 203.853 299.901 204.994C304.265 209.551 305.627 217.022 306.099 222.523C313.787 223.263 316.051 220.603 323.759 220.098C323.974 220.098 324.125 220.141 324.382 220.851M324.885 222.956C324.865 223.028 324.667 221.635 324.382 220.851M324.885 222.956L324.382 220.851" stroke="black" stroke-width="1.30501" stroke-linejoin="bevel"></path>
<path d="M250.874 202.339C253.876 201.619 274.083 202.039 283.811 202.339L284.767 208.985L286.878 215.553L259.201 213.676L248.997 211.213C248.372 208.555 247.872 203.059 250.874 202.339Z" fill="black"></path>
<path d="M256.564 180.056L253.874 180.434L254.254 183.14L256.944 182.762L256.564 180.056Z" fill="#FF3495"></path>
<path d="M260.995 186.821L260.787 185.338C260.786 185.335 260.786 185.332 260.785 185.329L260.357 182.282L263.047 181.904L262.667 179.198L259.977 179.576L259.546 176.513L256.84 176.893L258.079 185.709C258.404 188.023 260.552 189.641 262.866 189.316L265.084 189.004L264.704 186.299L260.996 186.82L260.995 186.821Z" fill="black"></path>
<path d="M272.648 185.182L265.41 186.199L265.79 188.906L273.029 187.888L272.648 185.182Z" fill="black"></path>
<path d="M272.221 180.614C271.893 178.281 269.729 176.65 267.397 176.978C265.064 177.306 263.433 179.47 263.761 181.803L266.467 181.422C266.349 180.582 266.937 179.802 267.777 179.684C268.618 179.566 269.398 180.153 269.516 180.994C269.634 181.834 269.046 182.614 268.206 182.733L264.987 183.185L265.368 185.891L267.508 185.59L268.812 185.401C271.023 184.97 272.539 182.871 272.222 180.614L272.221 180.614Z" fill="black"></path>
<path d="M200.428 214.807C206.932 213.772 217.818 217.831 222.448 219.99L220.536 225.987C218.848 228.724 214.983 234.001 213.026 233.213C211.069 232.425 207.137 232.608 205.416 232.798L200.012 232.656L194.926 231.58L192.131 230.107L192.534 228.462L189.698 227.578L188.791 226.003L189.262 223.756L187.732 222.165L188.754 219.69L191.779 218.624C191.815 218.774 191.915 218.816 192.032 217.792C192.178 216.513 192.298 216.101 200.428 214.807Z" fill="white"></path>
<path d="M203.747 232.673C200.616 232.731 197.168 232.482 193.77 231.264C190.827 230.21 192.033 228.476 193.593 227.902C196.512 226.83 202.597 228.081 206.189 228.537" stroke="black" stroke-width="1.30537" stroke-linecap="round" stroke-linejoin="round"></path>
<path d="M209.676 223.998C204.76 223.466 199.863 222.376 194.599 222.277C193.239 222.25 191.344 222.61 190.155 223.321C189.144 223.941 188.404 225.341 188.835 226.476C189.354 227.855 191.681 228.367 192.955 228.215" stroke="black" stroke-width="1.30537" stroke-linecap="round" stroke-linejoin="round"></path>
<path d="M212.929 220.806C209.184 219.774 205.351 219.054 201.469 218.653C199.478 218.463 197.473 218.392 195.466 218.441C193.525 218.491 191.273 218.2 189.441 219.182C187.78 220.058 186.895 223.231 189.349 223.747" stroke="black" stroke-width="1.30537" stroke-linecap="round" stroke-linejoin="round"></path>
<path d="M216.987 217.097C209.663 215.745 201.383 213.407 193.904 215.652C192.609 216.039 191.166 217.188 192.32 218.467" stroke="black" stroke-width="1.30537" stroke-linecap="round" stroke-linejoin="round"></path>
<path d="M253.368 241.728C235.729 242.219 218.1 240.517 200.585 238.364C200.585 238.364 191.93 215.976 190 200.893C187.869 184.246 191.556 157.946 191.556 157.946L216.288 159.522C218.077 164.907 207.987 179.277 209.224 187.448C211.016 199.279 223.765 204.552 223.765 204.552C246.132 200.616 298.256 202.683 298.256 202.683C309.275 210.562 305.944 226.601 304.719 231.679C288.298 238.159 271.007 241.237 253.368 241.728Z" fill="black"></path>
<path d="M216.289 159.522C220.666 172.703 223.765 204.552 223.765 204.552C246.132 200.616 298.256 202.683 298.256 202.683C309.276 210.562 305.945 226.601 304.719 231.679C288.298 238.159 271.007 241.237 253.368 241.728C235.729 242.219 218.1 240.516 200.586 238.364C195.91 226.129 186.749 202.683 189.044 169.537" stroke="white" stroke-width="1.30501" stroke-linecap="round" stroke-linejoin="round"></path>
<path fill-rule="evenodd" clip-rule="evenodd" d="M138.159 97.6573C140.639 100.687 142.949 104.732 140.848 108.591C140.653 108.949 140.429 109.29 140.179 109.612C138.783 111.425 136.484 112.864 133.614 113.874C122.34 117.834 102.25 115.125 93.4846 102.195C93.1321 101.571 92.8481 100.911 92.6377 100.226L92.9209 100.043C96.0981 98.0432 98.3535 94.8135 99.8073 91.3537C101.261 87.8938 102.011 84.182 102.742 80.4999C103.767 75.3544 104.789 70.21 105.809 65.0667C106.284 62.67 105.942 60.7778 106.292 58.3577C119.115 60.6617 131.762 63.8492 144.145 67.8975C145.17 76.9689 143.598 86.1242 141.633 95.0468C141.434 95.9489 141.229 96.8511 141.102 97.7581C140.574 97.3162 140.005 96.8621 139.391 96.3861C138.958 96.7881 138.547 97.2124 138.159 97.6573Z" fill="white" stroke="black" stroke-width="1.30537" stroke-linecap="round" stroke-linejoin="round"></path>
<path fill-rule="evenodd" clip-rule="evenodd" d="M133.625 99.2475C127.78 97.3931 121.762 93.5188 117.422 89.9204C112.254 85.6517 108.841 82.1991 108.608 75.2678C108.373 68.0656 110.438 60.2604 108.663 53.2558C110.692 53.057 112.657 52.4361 114.433 51.433C114.692 45.656 116.817 39.5078 117.482 38.4223C119.749 34.7158 130.543 26.4615 135.344 26.707C144.713 27.1869 152.495 42.1236 167.333 41.3359C166.451 45.697 165.13 51.0243 164.213 55.8693C163.2 61.2126 162.611 66.282 161.229 71.6368C158.284 83.0262 152.395 97.2361 141.478 99.9342C138.763 100.599 136.623 100.193 133.625 99.2475Z" fill="white" stroke="black" stroke-width="1.30537" stroke-linecap="round" stroke-linejoin="round"></path>
<path fill-rule="evenodd" clip-rule="evenodd" d="M135.35 26.7067C130.55 26.4612 119.756 34.7155 117.488 38.422C116.824 39.5075 114.712 45.6652 114.439 51.4327C112.664 52.4358 110.699 53.0567 108.669 53.2555C107.649 49.2305 105.342 46.7815 101.208 46.2633C99.4372 23.2017 103.771 15.5222 122.585 8.61352C126.263 7.265 151.644 -0.433149 144.73 9.95765C155.867 11.6679 181.541 17.7188 177.523 33.8065C175.407 42.2852 165.636 42.3594 158.869 40.0326C151.698 37.4211 146.323 31.5935 141.013 28.5814C139.178 27.5125 137.324 26.8096 135.35 26.7067Z" fill="black" stroke="black" stroke-width="1.30537" stroke-linecap="round" stroke-linejoin="round"></path>
<path fill-rule="evenodd" clip-rule="evenodd" d="M126.276 75.0531C132.226 66.2278 136.804 72.0144 142.45 73.6937C147.99 75.3427 153.542 73.404 153.512 81.9048C157.807 77.4611 160.297 72.1762 162.566 65.447C161.113 73.4964 158.479 82.2902 154.221 89.2498C151.544 93.6216 147.882 97.7313 142.927 99.4869C141.35 100.087 139.661 100.339 137.978 100.224C134.21 99.7531 129.928 98.0271 125.919 95.789C122.638 93.9131 119.539 91.7365 116.66 89.2874C114.663 87.5496 111.787 84.751 110.475 82.443C109.416 80.7464 108.835 78.2589 108.673 76.2811C108.519 73.4675 108.799 70.0762 109.042 66.6009C109.357 62.1219 109.789 57.6696 108.669 53.2519C110.698 53.0532 112.664 52.4323 114.439 51.4292C114.404 52.2003 114.401 52.9675 114.441 53.7141C114.653 57.6852 116.593 61.5362 119.086 64.5752C121.412 67.4057 124.156 69.871 126.276 75.0531Z" fill="black" stroke="black" stroke-width="1.30537" stroke-linecap="round" stroke-linejoin="round"></path>
<path d="M142.421 79.7366C139.089 79.3524 136.023 77.7288 133.833 75.1884" stroke="white" stroke-width="1.30537" stroke-linecap="round" stroke-linejoin="round"></path>
<path fill-rule="evenodd" clip-rule="evenodd" d="M162.75 46.1482C169.289 46.6553 171.39 53.0488 161.103 51.6688C158.193 51.2767 155.745 50.7209 152.691 50.7824C154.654 46.8738 158.688 45.834 162.75 46.1482Z" fill="black" stroke="black" stroke-width="1.30537" stroke-linecap="round" stroke-linejoin="round"></path>
<path d="M154.23 49.2401C151.356 53.9851 149.4 60.1198 149.519 65.8916C154.725 65.1227 154.804 66.9217 149.757 71.2886" stroke="black" stroke-width="1.30537" stroke-linecap="round" stroke-linejoin="round"></path>
<path fill-rule="evenodd" clip-rule="evenodd" d="M135.641 42.3651C150.284 41.4903 151.801 51.1284 136.753 48.3465C127.621 46.6633 126.311 42.9191 135.641 42.3651Z" fill="black" stroke="black" stroke-width="1.30537" stroke-linecap="round" stroke-linejoin="round"></path>
<path fill-rule="evenodd" clip-rule="evenodd" d="M130.491 53.1019C130.075 55.8466 132.118 58.4353 135.047 58.9119C137.975 59.3885 140.733 57.6035 141.141 54.8328C136.721 54.0728 134.314 53.7348 130.491 53.1019Z" fill="white" stroke="black" stroke-width="1.30537" stroke-linecap="round" stroke-linejoin="round"></path>
<path fill-rule="evenodd" clip-rule="evenodd" d="M135.952 53.979C137.475 54.2193 139.093 54.4802 141.141 54.8426C140.824 56.9878 139.119 58.5502 136.989 58.9176C134.982 58.0581 133.434 55.8468 134.887 53.8232L135.952 53.979Z" fill="black" stroke="black" stroke-width="1.30537" stroke-linecap="round" stroke-linejoin="round"></path>
<path d="M130.491 53.1049L143.399 55.2" stroke="black" stroke-width="1.30537" stroke-linecap="round" stroke-linejoin="round"></path>
<path fill-rule="evenodd" clip-rule="evenodd" d="M156.025 57.2659L162.781 58.3623C162.614 59.3616 162.45 60.3608 162.273 61.3571C161.653 61.8923 160.922 62.2824 160.132 62.4988C159.342 62.7152 158.514 62.7524 157.708 62.6079C154.779 62.1313 152.743 59.5424 153.152 56.8011L153.519 56.8615L156.022 57.266L156.025 57.2659Z" fill="white" stroke="black" stroke-width="1.30537" stroke-linecap="round" stroke-linejoin="round"></path>
<path fill-rule="evenodd" clip-rule="evenodd" d="M157.545 57.5126L162.787 58.375C162.62 59.3743 162.456 60.3736 162.28 61.3698C161.539 62.0222 160.63 62.4541 159.657 62.6165C157.646 61.7441 156.099 59.536 157.545 57.5126Z" fill="black" stroke="black" stroke-width="1.30537" stroke-linecap="round" stroke-linejoin="round"></path>
<path fill-rule="evenodd" clip-rule="evenodd" d="M108.881 63.7679C101.84 67.8746 96.5117 59.7577 96.3676 53.2944C96.2762 49.1933 98.1345 45.5776 103.157 46.6995C109.696 48.9431 109.286 58.0628 108.881 63.7679Z" fill="white" stroke="black" stroke-width="1.30537" stroke-linecap="round" stroke-linejoin="round"></path>
<path d="M101.504 53.2128L104.474 58.007" stroke="black" stroke-width="1.30537" stroke-linecap="round" stroke-linejoin="round"></path>
<path d="M188.773 147.364C188.437 143.415 187.916 139.402 186.23 135.816C184.928 133.064 182.978 130.666 180.943 128.4C176.926 123.919 172.45 119.776 167.214 116.837C162.652 114.269 157.602 112.651 153.065 110.04C151.057 108.868 149.145 107.538 147.349 106.061C146.254 108.458 144.283 110.392 142.013 111.964C140.545 113.656 138.729 115.012 136.69 115.941C126.637 120.408 114.196 117.255 104.634 112.96C97.9237 109.947 91.8885 105.72 86.4101 100.842L81.027 103.899L81.1547 104.066C69.0986 108.696 55.459 110.381 45.7472 118.846C36.0355 127.311 32.4745 140.653 29.4469 153.174C25.7795 168.33 19.7868 179.477 15.0749 194.343C13.4952 199.33 15.0681 230.501 17.7535 232.504C18.1187 232.777 28.4753 230.251 33.7844 230.463C36.5125 230.572 39.2344 230.547 41.9441 230.421C40.4769 253.832 41.4712 277.333 44.9107 300.536C45.0068 301.187 45.12 301.87 45.5231 302.383C46.0875 303.099 47.0581 303.296 47.946 303.442C80.4094 308.735 113.442 308.687 146.315 308.627L168.772 308.587C169.366 308.573 170.022 308.559 170.45 308.138C170.811 307.803 170.91 307.246 170.99 306.742C174.562 284.517 176.241 262.029 176.01 239.52C176.01 239.52 173.199 245.171 173.557 244.39C176.981 236.913 183.304 227.701 184.876 221.941C188.777 207.749 188.839 193.261 189.177 178.548C189.415 168.142 189.653 157.721 188.773 147.364Z" fill="white"></path>
<path d="M96.6981 168.496L93.5674 199.159C93.3933 200.864 94.6041 202.384 96.2716 202.555L114.428 204.408C116.096 204.579 117.589 203.334 117.763 201.629L120.893 170.966C121.067 169.261 119.857 167.741 118.189 167.57L100.033 165.717C98.3652 165.546 96.8722 166.791 96.6981 168.496Z" fill="black" stroke="black" stroke-width="1.30537" stroke-linecap="round" stroke-linejoin="round"></path>
<path d="M146.185 208.055C150.128 191.786 154.136 173.182 157.972 153.42" stroke="black" stroke-width="1.30537" stroke-linecap="round" stroke-linejoin="round"></path>
<path d="M40.2762 190.438C37.6746 187.95 35.055 184.947 33.2375 181.168C31.663 177.896 34.009 177.413 35.7336 178.194C38.9587 179.656 42.9438 185.639 45.5177 188.934" stroke="black" stroke-width="1.30537" stroke-linecap="round" stroke-linejoin="round"></path>
<path d="M51.9288 187.936C48.334 183.505 45.1926 178.62 40.973 174.271C39.8837 173.147 38.0544 171.914 36.5252 171.55C35.2128 171.253 33.5088 171.833 32.9699 173.138C32.3098 174.719 33.8075 177.036 34.9669 177.941" stroke="black" stroke-width="1.30537" stroke-linecap="round" stroke-linejoin="round"></path>
<path d="M57.0919 187.883C54.8451 183.98 52.2819 180.269 49.4281 176.786C47.9516 175.012 46.3706 173.328 44.6936 171.743C43.0698 170.213 41.46 168.143 39.1931 167.485C37.1492 166.878 33.935 168.833 35.533 171.256" stroke="black" stroke-width="1.30537" stroke-linecap="round" stroke-linejoin="round"></path>
<path d="M63.3174 188.048C58.4005 180.976 53.4772 172.299 45.6088 168.129C44.2478 167.406 42.1672 167.204 42.1044 169.216" stroke="black" stroke-width="1.30537" stroke-linecap="round" stroke-linejoin="round"></path>
<path d="M27.7169 196.672C35.2279 193.012 42.9498 189.292 51.2703 188.555C54.5118 188.267 57.7767 188.442 61.0263 188.664C81.3437 190.068 101.479 193.427 121.152 198.693C122.024 199.881 122.852 201.727 122.845 203.199C122.847 206.933 123.237 209.474 121.97 212.988" fill="white"></path>
<path d="M27.7169 196.672C35.2279 193.012 42.9498 189.292 51.2703 188.555C54.5118 188.267 57.7767 188.442 61.0263 188.664C81.3437 190.068 101.479 193.427 121.152 198.693C122.024 199.881 122.852 201.727 122.845 203.199C122.847 206.933 123.237 209.474 121.97 212.988" stroke="black" stroke-width="1.30537" stroke-linecap="round" stroke-linejoin="round"></path>
<path d="M164.562 214.618C162.724 211.084 158.797 209.024 154.857 208.443C150.917 207.861 146.911 208.551 142.997 209.285C120.366 213.514 98.0561 219.276 75.611 224.395C61.7788 227.547 17.7762 232.504 17.7762 232.504C17.7762 232.504 11.3917 210.991 15.2212 196.226C19.1281 181.124 25.5517 167.78 29.219 152.621C32.2499 140.1 35.8239 126.761 45.5197 118.309C55.5932 109.526 69.9 108.041 82.2765 102.996" stroke="black" stroke-width="1.30537" stroke-linecap="round" stroke-linejoin="round"></path>
<path d="M136.824 95.6045C141.701 100.741 146.668 105.955 152.802 109.487C157.339 112.102 162.389 113.719 166.95 116.288C172.19 119.236 176.669 123.373 180.683 127.847C182.718 130.116 184.665 132.511 185.967 135.266C187.659 138.849 188.179 142.862 188.509 146.811C189.393 157.172 189.152 167.59 188.913 177.985C188.588 192.682 188.513 207.186 184.615 221.378C182.52 228.998 170.369 250.029 170.369 250.029C170.369 250.029 85.367 248.66 59.0889 227.826" stroke="black" stroke-width="1.30537" stroke-linecap="round" stroke-linejoin="round"></path>
<path d="M145.413 208.235C144.06 207.018 142.694 205.792 141.095 204.924C139.737 204.243 138.316 203.696 136.851 203.291C132.578 201.97 127.177 201.287 122.777 200.56" stroke="black" stroke-width="1.30537" stroke-linecap="round" stroke-linejoin="round"></path>
<path d="M57.8106 144.42C54.4613 153.159 52.4478 162.353 51.8378 171.692" stroke="black" stroke-width="1.30537" stroke-linecap="round" stroke-linejoin="round"></path>
<path fill-rule="evenodd" clip-rule="evenodd" d="M137.08 122.499L136.831 122.606C119.802 129.935 92.2195 118.241 81.1252 103.783L80.7891 103.349L91.6714 97.1658C91.6714 97.1658 92.1188 98.788 92.6275 100.226C92.8379 100.911 93.1218 101.571 93.4744 102.195C102.25 115.125 122.33 117.834 133.604 113.874C136.474 112.864 138.772 111.425 140.168 109.612C140.419 109.29 140.642 108.949 140.838 108.592C142.938 104.729 140.629 100.687 138.149 97.6575C138.537 97.2081 138.948 96.7795 139.38 96.3733C139.995 96.8492 140.563 97.3034 141.092 97.7453C142.015 98.5023 142.882 99.3251 143.686 100.207C151.706 109.123 146.347 118.379 137.08 122.499Z" fill="white" stroke="black" stroke-width="1.30537" stroke-linecap="round" stroke-linejoin="round"></path>
<path fill-rule="evenodd" clip-rule="evenodd" d="M136.819 122.603C134.956 124.418 132.775 125.877 130.386 126.905C113.207 134.535 85.0289 122.485 74.1049 107.758L81.1062 103.783C92.207 118.241 119.786 129.936 136.819 122.603Z" fill="black" stroke="black" stroke-width="1.30537" stroke-linecap="round" stroke-linejoin="round"></path>
<path fill-rule="evenodd" clip-rule="evenodd" d="M91.6665 97.5089L95.0046 96.4258C94.426 97.312 93.7377 98.1214 92.9561 98.8348C92.5516 98.4064 92.1404 97.9716 91.6665 97.5089Z" fill="black" stroke="black" stroke-width="1.30537" stroke-linecap="round" stroke-linejoin="round"></path>
<path d="M96.6946 104.601L106.938 168.75C112.492 149.041 140.898 107.487 140.913 107.444" stroke="black" stroke-width="1.30537" stroke-linecap="round" stroke-linejoin="round"></path>
<path d="M41.6566 230.401C40.2386 253.578 41.1947 276.839 44.5097 299.821C44.5344 300.927 44.9276 302.021 46.0419 302.365C51.2346 304.09 56.3895 303.976 61.5656 304.957C69.3194 305.887 77.0682 306.452 84.8138 307.014C90.3424 307.26 95.5055 307.514 101.034 307.759C122.041 308.394 143.023 307.927 164.021 308.196C166.23 308.147 168.078 308.475 170.27 307.688C174.564 285.497 175.482 263.237 175.63 240.586" stroke="black" stroke-width="1.30537" stroke-linejoin="bevel"></path>
<path d="M101.2 173.837L98.4937 173.601L98.2567 176.324L100.963 176.559L101.2 173.837Z" fill="#FF3495"></path>
<path d="M104 181.424L104.13 179.933C104.13 179.929 104.13 179.926 104.13 179.923L104.397 176.858L107.103 177.093L107.34 174.371L104.634 174.135L104.902 171.054L102.18 170.817L101.408 179.686C101.205 182.014 102.934 184.073 105.262 184.275L107.494 184.47L107.731 181.748L104 181.424L104 181.424Z" fill="white"></path>
<path d="M115.723 182.443L108.441 181.81L108.204 184.532L115.486 185.166L115.723 182.443Z" fill="white"></path>
<path d="M116.332 177.896C116.537 175.549 114.794 173.474 112.447 173.27C110.101 173.066 108.026 174.809 107.821 177.155L110.544 177.392C110.617 176.547 111.365 175.918 112.211 175.992C113.056 176.065 113.685 176.813 113.611 177.659C113.538 178.504 112.79 179.133 111.944 179.059L108.706 178.777L108.469 181.5L110.623 181.687L111.935 181.795C114.186 181.872 116.135 180.167 116.333 177.896L116.332 177.896Z" fill="white"></path>
<path d="M328.083 220.142C328.654 222.845 329.053 228.91 326.076 231.54" stroke="black" stroke-width="1.30501" stroke-linecap="round" stroke-linejoin="bevel"></path>
<path d="M330.442 214.401C331.348 216.962 332.639 222.861 330.564 225.966" stroke="black" stroke-width="1.30501" stroke-linecap="round" stroke-linejoin="bevel"></path>
<path d="M279.215 239.542C279.215 239.542 286.28 241.177 297.93 242.1" stroke="white" stroke-width="1.30501" stroke-linecap="round" stroke-linejoin="round"></path>
</svg>
