<svg width="339" height="250" fill="none" xmlns="http://www.w3.org/2000/svg"><path fill-rule="evenodd" clip-rule="evenodd" d="M277.186 119.957a39.097 39.097 0 0 0-11.559-1.329c-5.983.293-35.894-1.028-35.583-.105.311.924-.515 2.493 1.749 3.624 2.265 1.131 14.004 7.936 29.078 5.554 15.073-2.383 16.315-7.744 16.315-7.744Z" fill="#fff" stroke="#000" stroke-width="1.305" stroke-linecap="round" stroke-linejoin="round"/><path fill-rule="evenodd" clip-rule="evenodd" d="M270.322 128.332c-14.471 6.561-29.723 5.324-37.082 2.325 1.49-4.319 2.998-8.283 4.078-12.554 2.163-8.535 2.293-26.716 14.73-25.982 12.198.714 10.789 25.792 18.274 36.211Z" fill="#fff" stroke="#000" stroke-width="1.305" stroke-linecap="round" stroke-linejoin="round"/><path fill-rule="evenodd" clip-rule="evenodd" d="M275.79 60.412c-2.461-10.391-5.882-19.758-16.124-24.697 7.382-2.822 13.461-.584 17.773 5.525 4.017 5.691 4.802 13.632-1.649 19.172Z" fill="#000" stroke="#000" stroke-width="1.305" stroke-linecap="round" stroke-linejoin="round"/><path fill-rule="evenodd" clip-rule="evenodd" d="M265.85 34.51c3.623 2.11 5.289 6.066 4.998 11.868-2.455-4.417-5.916-8.123-11.183-10.663a16.87 16.87 0 0 1 6.185-1.206Z" fill="#fff" stroke="#000" stroke-width="1.305" stroke-linecap="round" stroke-linejoin="round"/><path fill-rule="evenodd" clip-rule="evenodd" d="M261.667 74.103c-2.179-3.473 2.186-17.786-6.033-16.47-14.439 2.303-27.514 3.11-41.852-1.068 2.252-12.17 13.373-20.093 25.469-22.487 11.969-2.366 24.819.474 31.166 11.657 4.226 7.443 6.026 17.166 7.437 24.799 2.228 12.08 4.455 27.647 4.534 37.63.032 4.243-1.066 5.923-3.991 6.676-4.498 1.155-8.147 1.912-12.816 2.15a24.835 24.835 0 0 1-.459-1.256c-8.723-.057-11.856-.441-8.883-10.284 1.955-6.477 4.418-12.829 6.338-19.26 3.471.808 5.818-.234 7.592-2.81 6.144-8.91-1.646-18.775-8.171-9.222l-.331-.055ZM212.012 81.165c.373 8.093 2.113 14.834 7.478 23.094 2.802 4.315 6.145 7.873 11.6 7.882a21.739 21.739 0 0 0 6.659-1.196c1.266-.433.531 2.303.419 3.013l-5.39-.477c-42.226-3.655-23.024-7.84-20.716-41.356a72.517 72.517 0 0 0-.05 9.04Z" fill="#000" stroke="#000" stroke-width="1.305" stroke-linecap="round" stroke-linejoin="round"/><path fill-rule="evenodd" clip-rule="evenodd" d="M213.86 56.59c14.309 4.15 27.361 3.343 41.773 1.043 8.22-1.316 3.855 12.997 6.034 16.471l.328.055c6.524-9.553 14.314.31 8.17 9.222-1.774 2.576-4.12 3.617-7.592 2.81-3.998 12.052-9.382 18.437-20.95 23.294-3.715 1.558-8.008 3.041-12.089 2.554-4.523-.526-7.709-4.189-10.048-7.793-6.497-10.007-7.682-17.782-7.551-28.436.078-6.05.871-13.067 1.925-19.22Z" fill="#fff" stroke="#000" stroke-width="1.305" stroke-linecap="round" stroke-linejoin="round"/><path d="m267.954 76.869-3.746 3.606" stroke="#000" stroke-width="1.305" stroke-linecap="round" stroke-linejoin="round"/><path d="M263.336 96.69a6.293 6.293 0 1 0-.28-12.582 6.293 6.293 0 0 0 .28 12.583Z" fill="#A7FC00" stroke="#000" stroke-width="1.305" stroke-linecap="round" stroke-linejoin="round"/><path clip-rule="evenodd" d="M236.927 94.596c-3.543 4.943-10.715 5.364-13.782-.14a26.71 26.71 0 0 0 13.782.14Z" stroke="#000" stroke-width="1.305" stroke-linecap="round" stroke-linejoin="round"/><path fill-rule="evenodd" clip-rule="evenodd" d="M231.722 95.395c-1.294.531-2.142 1.541-2.544 3.03a7.431 7.431 0 0 1-6.046-3.968 27.51 27.51 0 0 0 8.59.938Z" fill="#000" stroke="#000" stroke-width="1.305" stroke-linecap="round" stroke-linejoin="round"/><path d="M223.464 70.372c2.39 4.72 1.987 10.209.644 15.132-4.428-1.834-4.897-.264-1.406 4.71" stroke="#000" stroke-width="1.305" stroke-linecap="round" stroke-linejoin="round"/><path fill-rule="evenodd" clip-rule="evenodd" d="M220.942 70.726c1.655.149 2.844.328 2.844.328-1.109-2.75-4.054-3.95-7.115-4.362-4.754-.645-7.295.463-7.311 1.654-.036 2.616 9.145 2.16 11.582 2.38ZM243.515 69.001c-11.749-4.745-17.529 2.21-3.253 3.448 8.301.716 10.74-.422 3.253-3.448Z" fill="#000" stroke="#000" stroke-width="1.305" stroke-linecap="round" stroke-linejoin="round"/><path fill-rule="evenodd" clip-rule="evenodd" d="M243.308 82.563c.213-2.747-1.999-5.162-4.936-5.42s-5.533 1.713-5.736 4.486c4.433.44 6.842.578 10.672.934Z" fill="#fff" stroke="#000" stroke-width="1.305" stroke-linecap="round" stroke-linejoin="round"/><path fill-rule="evenodd" clip-rule="evenodd" d="M237.84 82.094c-1.531-.126-3.149-.257-5.204-.465.158-2.148 1.73-3.819 3.821-4.33 2.046.703 3.74 2.784 2.452 4.892l-1.069-.097Z" fill="#000" stroke="#000" stroke-width="1.305" stroke-linecap="round" stroke-linejoin="round"/><path fill-rule="evenodd" clip-rule="evenodd" d="M216.053 75.173c2.944.26 5.146 2.673 4.933 5.42-3.33-.308-5.583-.464-9.024-.779a127.373 127.373 0 0 1-.029-3.361 5.542 5.542 0 0 1 4.12-1.28Z" fill="#fff" stroke="#000" stroke-width="1.305" stroke-linecap="round" stroke-linejoin="round"/><path fill-rule="evenodd" clip-rule="evenodd" d="M215.517 80.124c-1.092-.09-2.227-.186-3.536-.307a106.048 106.048 0 0 1-.02-3.388 5.251 5.251 0 0 1 2.169-1.109c2.05.705 3.741 2.783 2.453 4.894l-1.066-.09Z" fill="#000" stroke="#000" stroke-width="1.305" stroke-linecap="round" stroke-linejoin="round"/><path fill-rule="evenodd" clip-rule="evenodd" d="M326.035 201.515c-.399-4.46-.671-9.05-1.838-13.049-2.35-18.282-6.622-27.778-10.959-41.358-1.548-4.862-4.384-9.072-7.814-12.831-4.43-4.853-8.19-6.019-13.203-6.561a.463.463 0 0 1-.021.056c-.577 1.208-2.206-.829-7.705-.621-4.197.156-5.374-6.771-7.3-7.215-.931-.214-.954 4.487-21.748 5.467-18.841.89-21.77-6.337-25.464-6.709 0 0-1.92 4.345-3.986 4.228-5.494-.312-11.15.174-11.567-.663-7.724.248-15.329 2.32-20.32 8.196-4.351 5.124-4.744 12.392-4.902 19.088-.452 17.637-.896 35.358.893 52.949.791 7.78 3.352 15.802 3.278 23.586-.057 6.105.149 14.882-.41 32.279 31.326 14.151 96.252 11.969 105.651 8.091.099-.848.191-1.698.27-2.546.765-8.461-.935-13.13 0-21.575 0 0 22.386 1.59 24.058.002 1.671-1.588 4.714-28.195 3.087-40.814Z" fill="#000"/><path d="M284.486 127.171c8.724.367 17.007 2.34 22.722 8.94 2.751 3.18 4.483 7.081 6.03 11.006 6.572 16.603 11.722 39.086 13.505 56.853" stroke="#000" stroke-width="1.305" stroke-linecap="round" stroke-linejoin="round"/><path d="M296.475 201.552c.261-12.733-.592-25.365-2.526-37.376" stroke="#fff" stroke-width="1.305" stroke-linecap="round" stroke-linejoin="round"/><path clip-rule="evenodd" d="M226.361 123.437a10.6 10.6 0 0 0 3.596-4.722c6.117 4.084 16.75 6.948 27.716 6.703 11.351-.253 17.327-4.368 19.506-5.461 1.788 2.731 5.222 6.085 7.3 7.214 0 0-10.654 7.341-33.318 4.986-22.664-2.354-24.8-8.72-24.8-8.72Z" stroke="#000" stroke-width="1.305" stroke-linecap="round" stroke-linejoin="round"/><path d="m235.327 120.485 26.728 56.829c3.758-33.497 6.228-55.501 6.24-55.57" stroke="#fff" stroke-width="1.305" stroke-linecap="round" stroke-linejoin="round"/><path d="m251.071 176.084 3.087 31.853c.172 1.772 1.693 3.074 3.399 2.909l18.57-1.8c1.705-.165 2.949-1.735 2.777-3.506l-3.086-31.854c-.172-1.771-1.694-3.073-3.399-2.908l-18.57 1.799c-1.706.166-2.949 1.736-2.778 3.507ZM334.026 218.871c-1.067-4.71-2.175-9.49-4.295-13.868-.685-1.403-2.071-4.915-3.429-5.749-1.258-.784-4.937.047-6.28.577-5.703 2.245-14.085 4.022-20.121 5.163 4.364 4.557 5.726 12.028 6.198 17.529 7.688.74 9.952-1.92 17.66-2.425.215 0 .366.043.623.753.285.784.483 2.177.503 2.105-.213 3.827-.531 5.328-.925 10.089 4.872-3.342 8.193-9.308 9.678-12.614.223-.515.506-1.008.388-1.56Z" fill="#fff"/><path d="M324.885 222.956c-.213 3.827-.531 5.328-.925 10.089 4.872-3.342 8.193-9.308 9.678-12.614.223-.515.506-1.008.388-1.56-1.067-4.71-2.175-9.49-4.295-13.868-.685-1.403-2.071-4.915-3.429-5.749-1.258-.784-4.937.047-6.28.577-5.703 2.245-14.085 4.022-20.121 5.163 4.364 4.557 5.726 12.028 6.198 17.529 7.688.74 9.952-1.92 17.66-2.425.215 0 .366.043.623.753m.503 2.105c-.02.072-.218-1.321-.503-2.105m.503 2.105-.503-2.105" stroke="#000" stroke-width="1.305" stroke-linejoin="bevel"/><path d="M250.874 202.339c3.002-.72 23.209-.3 32.937 0l.956 6.646 2.111 6.568-27.677-1.877-10.204-2.463c-.625-2.658-1.125-8.154 1.877-8.874Z" fill="#000"/><path d="m256.564 180.056-2.69.378.38 2.706 2.69-.378-.38-2.706Z" fill="#FF3495"/><path d="m260.995 186.821-.208-1.483-.002-.009-.428-3.047 2.69-.378-.38-2.706-2.69.378-.431-3.063-2.706.38 1.239 8.816a4.243 4.243 0 0 0 4.787 3.607l2.218-.312-.38-2.705-3.708.521-.001.001ZM272.648 185.182l-7.238 1.017.38 2.707 7.239-1.018-.381-2.706ZM272.221 180.614a4.276 4.276 0 0 0-4.824-3.636 4.276 4.276 0 0 0-3.636 4.825l2.706-.381c-.118-.84.47-1.62 1.31-1.738a1.54 1.54 0 0 1 1.739 1.31c.118.84-.47 1.62-1.31 1.739l-3.219.452.381 2.706 2.14-.301 1.304-.189a4.277 4.277 0 0 0 3.41-4.787h-.001Z" fill="#000"/><path d="M200.428 214.807c6.504-1.035 17.39 3.024 22.02 5.183l-1.912 5.997c-1.688 2.737-5.553 8.014-7.51 7.226-1.957-.788-5.889-.605-7.61-.415l-5.404-.142-5.086-1.076-2.795-1.473.403-1.645-2.836-.884-.907-1.575.471-2.247-1.53-1.591 1.022-2.475 3.025-1.066c.036.15.136.192.253-.832.146-1.279.266-1.691 8.396-2.985Z" fill="#fff"/><path d="M203.747 232.673c-3.131.058-6.579-.191-9.977-1.409-2.943-1.054-1.737-2.788-.177-3.362 2.919-1.072 9.004.179 12.596.635" stroke="#000" stroke-width="1.305" stroke-linecap="round" stroke-linejoin="round"/><path d="M209.676 223.998c-4.916-.532-9.813-1.622-15.077-1.721-1.36-.027-3.255.333-4.444 1.044-1.011.62-1.751 2.02-1.32 3.155.519 1.379 2.846 1.891 4.12 1.739" stroke="#000" stroke-width="1.305" stroke-linecap="round" stroke-linejoin="round"/><path d="M212.929 220.806a70.34 70.34 0 0 0-11.46-2.153 50.28 50.28 0 0 0-6.003-.212c-1.941.05-4.193-.241-6.025.741-1.661.876-2.546 4.049-.092 4.565" stroke="#000" stroke-width="1.305" stroke-linecap="round" stroke-linejoin="round"/><path d="M216.987 217.097c-7.324-1.352-15.604-3.69-23.083-1.445-1.295.387-2.738 1.536-1.584 2.815" stroke="#000" stroke-width="1.305" stroke-linecap="round" stroke-linejoin="round"/><path d="M253.368 241.728c-17.639.491-35.268-1.211-52.783-3.364 0 0-8.655-22.388-10.585-37.471-2.131-16.647 1.556-42.947 1.556-42.947l24.732 1.576c1.789 5.385-8.301 19.755-7.064 27.926 1.792 11.831 14.541 17.104 14.541 17.104 22.367-3.936 74.491-1.869 74.491-1.869 11.019 7.879 7.688 23.918 6.463 28.996-16.421 6.48-33.712 9.558-51.351 10.049Z" fill="#000"/><path d="M216.289 159.522c4.377 13.181 7.476 45.03 7.476 45.03 22.367-3.936 74.491-1.869 74.491-1.869 11.02 7.879 7.689 23.918 6.463 28.996-16.421 6.48-33.712 9.558-51.351 10.049-17.639.491-35.268-1.212-52.782-3.364-4.676-12.235-13.837-35.681-11.542-68.827" stroke="#fff" stroke-width="1.305" stroke-linecap="round" stroke-linejoin="round"/><path fill-rule="evenodd" clip-rule="evenodd" d="M138.159 97.657c2.48 3.03 4.79 7.075 2.689 10.934a7.568 7.568 0 0 1-.669 1.021c-1.396 1.813-3.695 3.252-6.565 4.262-11.274 3.96-31.364 1.251-40.13-11.679a9.932 9.932 0 0 1-.846-1.969l.283-.183c3.177-2 5.432-5.23 6.886-8.69 1.454-3.46 2.204-7.171 2.935-10.853 1.025-5.146 2.047-10.29 3.067-15.433.475-2.397.133-4.29.483-6.71a282.7 282.7 0 0 1 37.853 9.54c1.025 9.072-.547 18.227-2.512 27.15-.199.902-.404 1.804-.531 2.711a58.903 58.903 0 0 0-1.711-1.372c-.433.402-.844.826-1.232 1.271Z" fill="#fff" stroke="#000" stroke-width="1.305" stroke-linecap="round" stroke-linejoin="round"/><path fill-rule="evenodd" clip-rule="evenodd" d="M133.625 99.248c-5.845-1.855-11.863-5.73-16.203-9.328-5.168-4.268-8.581-7.72-8.814-14.652-.235-7.202 1.83-15.008.055-22.012a14.634 14.634 0 0 0 5.77-1.823c.259-5.777 2.384-11.925 3.049-13.01 2.267-3.707 13.061-11.962 17.862-11.716 9.369.48 17.151 15.417 31.989 14.629-.882 4.361-2.203 9.688-3.12 14.533-1.013 5.344-1.602 10.413-2.984 15.768-2.945 11.39-8.834 25.6-19.751 28.297-2.715.665-4.855.259-7.853-.686Z" fill="#fff" stroke="#000" stroke-width="1.305" stroke-linecap="round" stroke-linejoin="round"/><path fill-rule="evenodd" clip-rule="evenodd" d="M135.35 26.707c-4.8-.246-15.594 8.008-17.862 11.715-.664 1.086-2.776 7.243-3.049 13.01a14.623 14.623 0 0 1-5.77 1.823c-1.02-4.025-3.327-6.474-7.461-6.992-1.77-23.061 2.563-30.74 21.377-37.65 3.678-1.348 29.059-9.046 22.145 1.345 11.137 1.71 36.811 7.76 32.793 23.848-2.116 8.48-11.887 8.553-18.654 6.227-7.171-2.612-12.546-8.44-17.856-11.452-1.835-1.069-3.689-1.771-5.663-1.874Z" fill="#000" stroke="#000" stroke-width="1.305" stroke-linecap="round" stroke-linejoin="round"/><path fill-rule="evenodd" clip-rule="evenodd" d="M126.276 75.053c5.95-8.825 10.528-3.039 16.174-1.36 5.54 1.65 11.092-.289 11.062 8.212 4.295-4.444 6.785-9.729 9.054-16.458-1.453 8.05-4.087 16.843-8.345 23.803-2.677 4.372-6.339 8.481-11.294 10.237a11.68 11.68 0 0 1-4.949.737c-3.768-.47-8.05-2.197-12.059-4.435a61.074 61.074 0 0 1-9.259-6.502c-1.997-1.737-4.873-4.536-6.185-6.844-1.059-1.697-1.64-4.184-1.802-6.162-.154-2.814.126-6.205.369-9.68.315-4.48.747-8.931-.373-13.35a14.627 14.627 0 0 0 5.77-1.822 23.21 23.21 0 0 0 .002 2.285c.212 3.971 2.152 7.822 4.645 10.861 2.326 2.83 5.07 5.296 7.19 10.478Z" fill="#000" stroke="#000" stroke-width="1.305" stroke-linecap="round" stroke-linejoin="round"/><path d="M142.421 79.737a13.36 13.36 0 0 1-8.588-4.549" stroke="#fff" stroke-width="1.305" stroke-linecap="round" stroke-linejoin="round"/><path fill-rule="evenodd" clip-rule="evenodd" d="M162.75 46.148c6.539.507 8.64 6.9-1.647 5.52-2.91-.391-5.358-.947-8.412-.886 1.963-3.908 5.997-4.948 10.059-4.634Z" fill="#000" stroke="#000" stroke-width="1.305" stroke-linecap="round" stroke-linejoin="round"/><path d="M154.23 49.24c-2.874 4.745-4.83 10.88-4.711 16.652 5.206-.77 5.285 1.03.238 5.397" stroke="#000" stroke-width="1.305" stroke-linecap="round" stroke-linejoin="round"/><path fill-rule="evenodd" clip-rule="evenodd" d="M135.641 42.365c14.643-.875 16.16 8.763 1.112 5.981-9.132-1.683-10.442-5.427-1.112-5.98Z" fill="#000" stroke="#000" stroke-width="1.305" stroke-linecap="round" stroke-linejoin="round"/><path fill-rule="evenodd" clip-rule="evenodd" d="M130.491 53.102c-.416 2.745 1.627 5.333 4.556 5.81 2.928.477 5.686-1.309 6.094-4.08-4.42-.76-6.827-1.097-10.65-1.73Z" fill="#fff" stroke="#000" stroke-width="1.305" stroke-linecap="round" stroke-linejoin="round"/><path fill-rule="evenodd" clip-rule="evenodd" d="M135.952 53.979c1.523.24 3.141.501 5.189.864-.317 2.145-2.022 3.707-4.152 4.075-2.007-.86-3.555-3.071-2.102-5.095l1.065.156Z" fill="#000" stroke="#000" stroke-width="1.305" stroke-linecap="round" stroke-linejoin="round"/><path d="m130.491 53.105 12.908 2.095" stroke="#000" stroke-width="1.305" stroke-linecap="round" stroke-linejoin="round"/><path fill-rule="evenodd" clip-rule="evenodd" d="m156.025 57.266 6.756 1.096c-.167 1-.331 1.999-.508 2.995a5.5 5.5 0 0 1-4.565 1.25c-2.929-.476-4.965-3.065-4.556-5.806l.367.06 2.503.405h.003Z" fill="#fff" stroke="#000" stroke-width="1.305" stroke-linecap="round" stroke-linejoin="round"/><path fill-rule="evenodd" clip-rule="evenodd" d="m157.545 57.513 5.242.862c-.167 1-.331 1.999-.507 2.995a5.287 5.287 0 0 1-2.623 1.247c-2.011-.873-3.558-3.081-2.112-5.104Z" fill="#000" stroke="#000" stroke-width="1.305" stroke-linecap="round" stroke-linejoin="round"/><path fill-rule="evenodd" clip-rule="evenodd" d="M108.881 63.768c-7.041 4.107-12.37-4.01-12.513-10.474-.092-4.1 1.767-7.716 6.789-6.594 6.539 2.243 6.129 11.363 5.724 17.068Z" fill="#fff" stroke="#000" stroke-width="1.305" stroke-linecap="round" stroke-linejoin="round"/><path d="m101.504 53.213 2.97 4.794" stroke="#000" stroke-width="1.305" stroke-linecap="round" stroke-linejoin="round"/><path d="M188.773 147.364c-.336-3.949-.857-7.962-2.543-11.548-1.302-2.752-3.252-5.15-5.287-7.416-4.017-4.481-8.493-8.624-13.729-11.563-4.562-2.568-9.612-4.186-14.149-6.797a43.598 43.598 0 0 1-5.716-3.979c-1.095 2.397-3.066 4.331-5.336 5.903a15.621 15.621 0 0 1-5.323 3.977c-10.053 4.467-22.494 1.314-32.056-2.981-6.71-3.013-12.746-7.24-18.224-12.118l-5.383 3.057.128.167c-12.056 4.63-25.696 6.315-35.408 14.78s-13.273 21.807-16.3 34.328c-3.668 15.156-9.66 26.303-14.372 41.169-1.58 4.987-.007 36.158 2.678 38.161.366.273 10.722-2.253 16.031-2.041a94.45 94.45 0 0 0 8.16-.042 335.191 335.191 0 0 0 2.967 70.115c.096.651.209 1.334.612 1.847.564.716 1.535.913 2.423 1.059 32.463 5.293 65.496 5.245 98.369 5.185l22.457-.04c.594-.014 1.25-.028 1.678-.449.361-.335.46-.892.54-1.396a397.891 397.891 0 0 0 5.02-67.222s-2.811 5.651-2.453 4.87c3.424-7.477 9.747-16.689 11.319-22.449 3.901-14.192 3.963-28.68 4.301-43.393.238-10.406.476-20.827-.404-31.184Z" fill="#fff"/><path d="m96.698 168.496-3.13 30.663c-.175 1.705 1.036 3.225 2.704 3.396l18.156 1.853c1.668.171 3.161-1.074 3.335-2.779l3.13-30.663c.174-1.705-1.036-3.225-2.704-3.396l-18.156-1.853c-1.668-.171-3.16 1.074-3.335 2.779Z" fill="#000" stroke="#000" stroke-width="1.305" stroke-linecap="round" stroke-linejoin="round"/><path d="M146.185 208.055c3.943-16.269 7.951-34.873 11.787-54.635M40.276 190.438c-2.601-2.488-5.221-5.491-7.039-9.27-1.574-3.272.772-3.755 2.497-2.974 3.225 1.462 7.21 7.445 9.784 10.74" stroke="#000" stroke-width="1.305" stroke-linecap="round" stroke-linejoin="round"/><path d="M51.929 187.936c-3.595-4.431-6.736-9.316-10.956-13.665-1.09-1.124-2.919-2.357-4.448-2.721-1.312-.297-3.016.283-3.555 1.588-.66 1.581.837 3.898 1.997 4.803" stroke="#000" stroke-width="1.305" stroke-linecap="round" stroke-linejoin="round"/><path d="M57.092 187.883a82.272 82.272 0 0 0-7.664-11.097 57.935 57.935 0 0 0-4.734-5.043c-1.624-1.53-3.234-3.6-5.5-4.258-2.045-.607-5.259 1.348-3.661 3.771" stroke="#000" stroke-width="1.305" stroke-linecap="round" stroke-linejoin="round"/><path d="M63.317 188.048c-4.916-7.072-9.84-15.749-17.708-19.919-1.361-.723-3.442-.925-3.505 1.087" stroke="#000" stroke-width="1.305" stroke-linecap="round" stroke-linejoin="round"/><path d="M27.717 196.672c7.51-3.66 15.233-7.38 23.553-8.117 3.242-.288 6.507-.113 9.756.109a317.065 317.065 0 0 1 60.126 10.029c.872 1.188 1.7 3.034 1.693 4.506.002 3.734.392 6.275-.875 9.789" fill="#fff"/><path d="M27.717 196.672c7.51-3.66 15.233-7.38 23.553-8.117 3.242-.288 6.507-.113 9.756.109a317.065 317.065 0 0 1 60.126 10.029c.872 1.188 1.7 3.034 1.693 4.506.002 3.734.392 6.275-.875 9.789" stroke="#000" stroke-width="1.305" stroke-linecap="round" stroke-linejoin="round"/><path d="M164.562 214.618c-1.838-3.534-5.765-5.594-9.705-6.175-3.94-.582-7.946.108-11.86.842-22.631 4.229-44.94 9.991-67.386 15.11-13.832 3.152-57.835 8.109-57.835 8.109s-6.384-21.513-2.555-36.278c3.907-15.102 10.33-28.446 13.998-43.605 3.03-12.521 6.605-25.86 16.3-34.312 10.074-8.783 24.381-10.268 36.758-15.313" stroke="#000" stroke-width="1.305" stroke-linecap="round" stroke-linejoin="round"/><path d="M136.824 95.605c4.877 5.136 9.844 10.35 15.978 13.882 4.537 2.615 9.587 4.232 14.148 6.801 5.24 2.948 9.719 7.085 13.733 11.559 2.035 2.269 3.982 4.664 5.284 7.419 1.692 3.583 2.212 7.596 2.542 11.545.884 10.361.643 20.779.404 31.174-.325 14.697-.4 29.201-4.298 43.393-2.095 7.62-14.246 28.651-14.246 28.651s-85.002-1.369-111.28-22.203" stroke="#000" stroke-width="1.305" stroke-linecap="round" stroke-linejoin="round"/><path d="M145.413 208.235c-1.353-1.217-2.719-2.443-4.318-3.311a23.34 23.34 0 0 0-4.244-1.633c-4.273-1.321-9.674-2.004-14.074-2.731M57.81 144.42a93.176 93.176 0 0 0-5.972 27.272" stroke="#000" stroke-width="1.305" stroke-linecap="round" stroke-linejoin="round"/><path fill-rule="evenodd" clip-rule="evenodd" d="m137.08 122.499-.249.107c-17.029 7.329-44.611-4.365-55.706-18.823l-.336-.434 10.882-6.183s.448 1.622.956 3.06c.21.685.495 1.345.847 1.969 8.776 12.93 28.856 15.639 40.13 11.679 2.87-1.01 5.168-2.449 6.564-4.262.251-.322.474-.663.67-1.02 2.1-3.863-.209-7.905-2.689-10.934.388-.45.799-.879 1.231-1.285.615.476 1.183.93 1.712 1.372.923.757 1.79 1.58 2.594 2.462 8.02 8.916 2.661 18.172-6.606 22.292Z" fill="#fff" stroke="#000" stroke-width="1.305" stroke-linecap="round" stroke-linejoin="round"/><path fill-rule="evenodd" clip-rule="evenodd" d="M136.819 122.603a21.267 21.267 0 0 1-6.433 4.302c-17.179 7.63-45.357-4.42-56.281-19.147l7.001-3.975c11.101 14.458 38.68 26.153 55.713 18.82ZM91.666 97.509l3.339-1.083a12.553 12.553 0 0 1-2.049 2.409 44.107 44.107 0 0 0-1.29-1.326Z" fill="#000" stroke="#000" stroke-width="1.305" stroke-linecap="round" stroke-linejoin="round"/><path d="m96.695 104.601 10.243 64.149c5.554-19.709 33.96-61.263 33.975-61.306" stroke="#000" stroke-width="1.305" stroke-linecap="round" stroke-linejoin="round"/><path d="M41.657 230.401a340.573 340.573 0 0 0 2.853 69.42c.024 1.106.418 2.2 1.532 2.544 5.193 1.725 10.347 1.611 15.524 2.592 7.753.93 15.502 1.495 23.248 2.057 5.528.246 10.692.5 16.22.745 21.007.635 41.989.168 62.987.437 2.209-.049 4.057.279 6.249-.508 4.294-22.191 5.212-44.451 5.36-67.102" stroke="#000" stroke-width="1.305" stroke-linejoin="bevel"/><path d="m101.2 173.837-2.706-.236-.237 2.723 2.706.235.237-2.722Z" fill="#FF3495"/><path d="m104 181.424.13-1.491v-.01l.267-3.065 2.706.235.237-2.722-2.706-.236.268-3.081-2.722-.237-.772 8.869a4.241 4.241 0 0 0 3.854 4.589l2.232.195.237-2.722-3.731-.324ZM115.723 182.443l-7.282-.633-.237 2.722 7.282.634.237-2.723ZM116.332 177.896a4.275 4.275 0 0 0-3.885-4.626 4.278 4.278 0 0 0-4.626 3.885l2.723.237a1.54 1.54 0 0 1 1.667-1.4 1.54 1.54 0 0 1 1.4 1.667 1.54 1.54 0 0 1-1.667 1.4l-3.238-.282-.237 2.723 2.154.187 1.312.108a4.277 4.277 0 0 0 4.398-3.899h-.001Z" fill="#fff"/><path d="M328.083 220.142c.571 2.703.97 8.768-2.007 11.398M330.442 214.401c.906 2.561 2.197 8.46.122 11.565" stroke="#000" stroke-width="1.305" stroke-linecap="round" stroke-linejoin="bevel"/><path d="M279.215 239.542s7.065 1.635 18.715 2.558" stroke="#fff" stroke-width="1.305" stroke-linecap="round" stroke-linejoin="round"/></svg>