<svg width="533" height="270" viewBox="0 0 533 270" fill="none" xmlns="http://www.w3.org/2000/svg">
<path fill-rule="evenodd" clip-rule="evenodd" d="M153.317 231.466H379.746V134.375C379.746 115.767 364.565 100.542 346.009 100.542H187.054C168.499 100.542 153.317 115.767 153.317 134.375V231.466Z" fill="white" stroke="black" stroke-width="1.659" stroke-miterlimit="22.9256" stroke-linecap="round" stroke-linejoin="round"></path>
<path fill-rule="evenodd" clip-rule="evenodd" d="M325.149 107.832C330.9 103.271 338.152 100.542 346.009 100.542H322.612C323.624 102.844 324.459 105.297 325.149 107.832Z" fill="black" stroke="black" stroke-width="1.659" stroke-miterlimit="22.9256" stroke-linecap="round" stroke-linejoin="round"></path>
<path fill-rule="evenodd" clip-rule="evenodd" d="M304.977 291.232H47.4838C31.2631 291.232 17.9917 277.923 17.9917 261.655V261.043C17.9917 244.775 31.2631 231.466 47.4838 231.466H304.977C308.99 231.466 312.272 234.758 312.272 238.782V283.916C312.272 287.94 308.99 291.232 304.977 291.232V291.232Z" fill="white" stroke="black" stroke-width="1.659" stroke-miterlimit="22.9256" stroke-linecap="round" stroke-linejoin="round"></path>
<path fill-rule="evenodd" clip-rule="evenodd" d="M304.977 231.463C308.989 231.463 312.272 228.171 312.272 224.147V231.463H304.977Z" fill="black" stroke="black" stroke-width="1.659" stroke-miterlimit="22.9256" stroke-linecap="round" stroke-linejoin="round"></path>
<path fill-rule="evenodd" clip-rule="evenodd" d="M304.977 231.466C308.99 231.466 312.273 234.758 312.273 238.782V231.466H304.977Z" fill="black" stroke="black" stroke-width="1.659" stroke-miterlimit="22.9256" stroke-linecap="round" stroke-linejoin="round"></path>
<path fill-rule="evenodd" clip-rule="evenodd" d="M49.4347 249.636L23.9524 279.541C28.4295 285.243 34.9445 289.271 42.3691 290.492C38.6963 286.871 35.3314 282.862 32.3616 278.552C37.6992 268.575 43.5931 259.221 49.4347 249.636Z" fill="black" stroke="black" stroke-width="1.659" stroke-miterlimit="22.9256" stroke-linecap="round" stroke-linejoin="round"></path>
<path fill-rule="evenodd" clip-rule="evenodd" d="M275.309 68.5315C275.309 68.5315 276.888 79.3288 276.888 78.3652C269.377 78.3652 252.026 76.7504 246.769 73.0591C240.473 68.6383 248.192 57.6194 247.816 37.8384C247.816 48.8413 259.916 75.0897 275.309 68.5318L275.309 68.5315Z" fill="black" stroke="black" stroke-width="1.659" stroke-miterlimit="22.9256" stroke-linecap="round" stroke-linejoin="round"></path>
<path fill-rule="evenodd" clip-rule="evenodd" d="M271.656 81.4009C279.763 84.016 286.489 84.7361 294.319 79.4982C293.415 74.8745 291.748 63.5104 291.116 57.4121C290.662 53.0262 289.543 48.1065 283.863 48.6246C276.825 49.2666 278.313 56.2735 277.476 61.5707C276.221 69.5014 273.153 78.3948 271.656 81.4009H271.656Z" fill="white" stroke="white" stroke-width="1.659" stroke-miterlimit="22.9256" stroke-linecap="round" stroke-linejoin="round"></path>
<path fill-rule="evenodd" clip-rule="evenodd" d="M283.23 63.5298C280.25 65.9221 278.375 67.3756 274.55 68.9378C274.348 69.8742 273.7 72.1872 273.521 73.1331C276.723 71.8418 281.151 66.7951 283.23 63.5298Z" fill="black" stroke="black" stroke-width="1.659" stroke-miterlimit="22.9256" stroke-linecap="round" stroke-linejoin="round"></path>
<path fill-rule="evenodd" clip-rule="evenodd" d="M248.187 24.2034C260.898 26.7148 271.353 25.8797 283.662 22.7778C290.682 21.0035 287.822 33.7305 289.977 36.5819L291.23 35.7789C296.152 26.9798 303.652 34.9512 299.012 43.1646C297.671 45.5377 295.72 46.6215 292.649 46.1885C290.107 56.9651 285.941 62.9217 276.282 68.0283C273.183 69.6685 269.577 71.287 266.007 71.1869C262.048 71.0767 259.009 68.1376 256.705 65.1862C250.314 56.9929 248.694 50.3257 247.992 41.0611C247.592 35.7887 247.743 29.6325 248.187 24.204V24.2034Z" fill="white"></path>
<path fill-rule="evenodd" clip-rule="evenodd" d="M302.125 22.7772C299.198 13.934 295.521 6.06329 286.269 2.55832C292.451 -0.45826 297.888 1.02004 302.089 5.99566C306.004 10.6331 307.291 17.4702 302.125 22.7772Z" fill="black" stroke="black" stroke-width="1.659" stroke-miterlimit="22.9256" stroke-linecap="round" stroke-linejoin="round"></path>
<path fill-rule="evenodd" clip-rule="evenodd" d="M291.535 1.03711C294.836 2.59375 296.582 5.90287 296.774 10.9651C294.308 7.3166 291.026 4.36093 286.269 2.55918C288.094 1.66901 289.853 1.17022 291.535 1.03711H291.535Z" fill="white" stroke="black" stroke-width="1.659" stroke-miterlimit="22.9256" stroke-linecap="round" stroke-linejoin="round"></path>
<path fill-rule="evenodd" clip-rule="evenodd" d="M289.977 36.5816C287.822 33.7305 290.682 21.0032 283.662 22.7774C271.33 25.8852 260.856 26.7209 248.115 24.189C249.138 13.4431 258.166 5.70856 268.461 2.703C278.648 -0.271051 290.002 1.21122 296.351 10.4388C300.579 16.583 302.883 24.895 304.688 31.4128C307.547 41.7374 312.873 55.0779 313.706 63.758C314.512 72.1581 300.179 75.5107 294.027 76.3767C292.629 70.6367 290.855 61.3455 290.095 54.0868C289.638 49.7146 292.04 49.1791 292.649 46.1879C295.72 46.6209 297.671 45.5367 299.013 43.164C303.652 34.9506 296.152 26.9792 291.231 35.7783L289.977 36.5813V36.5816Z" fill="black" stroke="black" stroke-width="1.659" stroke-miterlimit="22.9256" stroke-linecap="round" stroke-linejoin="round"></path>
<path d="M247.772 36.0555C247.71 32.1148 247.805 27.9685 248.115 24.1893C260.826 26.7007 271.354 25.8797 283.662 22.7778C290.682 21.0035 287.822 33.7305 289.977 36.5819L291.23 35.7789C296.152 26.9798 303.652 34.9512 299.013 43.1646C297.671 45.5377 295.72 46.6215 292.649 46.1885" stroke="black" stroke-width="1.659" stroke-miterlimit="22.9256" stroke-linecap="round" stroke-linejoin="round"></path>
<path d="M292.649 46.1877C290.107 56.9642 285.942 62.9208 276.282 68.0274C273.183 69.6676 269.577 71.286 266.007 71.186C262.048 71.0758 259.009 68.1367 256.705 65.1853C250.314 56.992 248.694 50.3248 247.992 41.0603C247.91 39.985 247.852 38.8732 247.814 37.7383" stroke="black" stroke-width="1.659" stroke-miterlimit="22.9256"></path>
<path d="M296.596 37.676L293.627 41.0962" stroke="black" stroke-width="1.659" stroke-miterlimit="22.9256" stroke-linecap="round" stroke-linejoin="round"></path>
<path d="M293.507 55.284C296.529 55.284 298.979 52.8268 298.979 49.7958C298.979 46.7647 296.529 44.3076 293.507 44.3076C290.484 44.3076 288.034 46.7647 288.034 49.7958C288.034 52.8268 290.484 55.284 293.507 55.284Z" fill="#00BFFF" stroke="black" stroke-width="1.659" stroke-miterlimit="22.9256" stroke-linecap="round" stroke-linejoin="round"></path>
<path d="M264.602 58.0117C268.463 58.0768 271.164 56.3372 272.084 52.9338" stroke="black" stroke-width="1.659" stroke-miterlimit="22.9256" stroke-linecap="round" stroke-linejoin="round"></path>
<path d="M259.389 37.676C261.821 41.5907 261.89 46.3931 261.104 50.7711C257.128 49.5193 256.838 50.9171 260.245 54.9713" stroke="black" stroke-width="1.659" stroke-miterlimit="22.9256" stroke-linecap="round" stroke-linejoin="round"></path>
<path d="M272.324 52.9371C276.958 52.9371 280.714 49.1701 280.714 44.5232C280.714 39.8764 276.958 36.1094 272.324 36.1094C267.691 36.1094 263.935 39.8764 263.935 44.5232C263.935 49.1701 267.691 52.9371 272.324 52.9371Z" stroke="black" stroke-width="1.659" stroke-miterlimit="22.9256" stroke-linecap="round" stroke-linejoin="round"></path>
<path d="M264.143 42.6511H261.259" stroke="black" stroke-width="1.659" stroke-miterlimit="22.9256" stroke-linecap="round" stroke-linejoin="round"></path>
<path d="M280.506 42.6508L291.23 35.7783C291.854 29.3121 302.598 29.418 301.976 39.3864" stroke="black" stroke-width="1.659" stroke-miterlimit="22.9256" stroke-linecap="round" stroke-linejoin="round"></path>
<path d="M253.036 36.5278C248.739 36.5278 245.197 39.7675 244.704 43.9438C243.787 51.7408 252.067 55.8975 257.845 51.8369" stroke="black" stroke-width="1.659" stroke-miterlimit="22.9256" stroke-linecap="round" stroke-linejoin="round"></path>
<path d="M277.14 42.3892L266.332 42.3818" stroke="black" stroke-width="1.659" stroke-miterlimit="22.9256" stroke-linecap="round" stroke-linejoin="round"></path>
<path fill-rule="evenodd" clip-rule="evenodd" d="M277.14 42.3889C277.114 44.7916 275.014 46.7197 272.452 46.7191C269.856 46.7185 267.787 44.8069 267.825 42.3818C271.695 42.3503 273.794 42.4029 277.14 42.3889Z" fill="white" stroke="black" stroke-width="1.659" stroke-miterlimit="22.9256" stroke-linecap="round" stroke-linejoin="round"></path>
<path fill-rule="evenodd" clip-rule="evenodd" d="M267.998 43.6274C268.545 45.4303 270.321 46.7189 272.452 46.7192C272.898 46.7192 273.33 46.6611 273.739 46.5518C273.754 46.4414 273.761 46.3294 273.761 46.2158C273.761 44.5025 272.098 43.1133 270.046 43.1133C269.289 43.1133 268.585 43.3024 267.998 43.6271V43.6274Z" fill="black" stroke="black" stroke-width="1.659" stroke-miterlimit="22.9256" stroke-linecap="round" stroke-linejoin="round"></path>
<path fill-rule="evenodd" clip-rule="evenodd" d="M275.232 33.2831C264.69 30.0615 260.217 36.5464 272.678 36.528C279.924 36.5142 281.95 35.3383 275.232 33.2831Z" fill="black" stroke="black" stroke-width="1.659" stroke-miterlimit="22.9256" stroke-linecap="round" stroke-linejoin="round"></path>
<path fill-rule="evenodd" clip-rule="evenodd" d="M257.889 42.3891C257.863 44.7918 255.763 46.72 253.201 46.7193C250.605 46.7187 248.536 44.8071 248.574 42.3821C252.444 42.3505 254.543 42.4032 257.889 42.3891Z" fill="white" stroke="black" stroke-width="1.659" stroke-miterlimit="22.9256" stroke-linecap="round" stroke-linejoin="round"></path>
<path fill-rule="evenodd" clip-rule="evenodd" d="M248.748 43.6276C249.295 45.4306 251.071 46.7192 253.202 46.7195C253.648 46.7195 254.08 46.6613 254.489 46.5521C254.504 46.4416 254.511 46.3296 254.511 46.2161C254.511 44.5028 252.848 43.1135 250.796 43.1135C250.039 43.1135 249.335 43.3026 248.748 43.6273V43.6276Z" fill="black" stroke="black" stroke-width="1.659" stroke-miterlimit="22.9256" stroke-linecap="round" stroke-linejoin="round"></path>
<path fill-rule="evenodd" clip-rule="evenodd" d="M256.9 37.6094C258.346 37.6128 259.389 37.6776 259.389 37.6764C258.219 35.3722 255.575 34.5567 252.892 34.4319C248.725 34.2379 246.607 35.3958 246.684 36.4316C246.853 38.7058 254.773 37.6048 256.9 37.6094H256.9Z" fill="black" stroke="black" stroke-width="1.659" stroke-miterlimit="22.9256" stroke-linecap="round" stroke-linejoin="round"></path>
<path fill-rule="evenodd" clip-rule="evenodd" d="M121.467 165.778C125.905 167.607 134.368 173.081 138.832 175.822C142.376 171.359 146.897 167.318 151.141 166.931C158.424 166.266 178.12 179.204 186.034 184.121L180.389 102.091C179.853 93.3468 175.938 90.183 167.884 89.5496C121.349 86.2435 98.0818 84.5905 98.0818 84.5905C91.7843 84.1465 88.2397 85.8243 88.7071 92.1533L94.1417 166.612C94.4593 171.206 96.67 173.946 100.831 174.657C101.582 174.786 102.986 174.848 103.865 174.844C107.065 171.273 109.601 168.594 111.852 167.053C115.256 164.723 118.179 164.424 121.466 165.778L121.467 165.778Z" fill="black" stroke="black" stroke-width="1.659" stroke-miterlimit="22.9256" stroke-linecap="round" stroke-linejoin="round"></path>
<path d="M133.494 141.267C137.423 140.321 139.719 135.614 138.621 130.753C137.524 125.891 133.448 122.717 129.519 123.663C125.589 124.608 123.293 129.316 124.391 134.177C125.489 139.038 129.564 142.213 133.494 141.267Z" stroke="white" stroke-width="1.659" stroke-miterlimit="22.9256" stroke-linecap="round" stroke-linejoin="round"></path>
<path fill-rule="evenodd" clip-rule="evenodd" d="M68.8992 278.02C90.1874 242.887 112.891 209.791 137.793 177.159C138.133 176.715 138.479 176.268 138.833 175.822C134.369 173.081 125.956 167.059 121.467 165.359C113.713 162.421 107.892 169.693 103.277 174.844C96.2692 182.665 87.8047 193.75 81.8886 201.676C63.525 226.281 47.2142 251.809 32.7178 278.906C46.8978 286.919 59.4446 296.38 70.8513 308.015C74.8457 302.408 78.4392 297.236 81.6323 292.5C76.8937 288.289 72.6492 283.463 68.8989 278.02H68.8992Z" fill="#00BFFF" stroke="black" stroke-width="1.659" stroke-miterlimit="22.9256" stroke-linecap="round" stroke-linejoin="round"></path>
<path fill-rule="evenodd" clip-rule="evenodd" d="M68.8998 278.021C75.1106 267.771 81.4417 257.694 87.9125 247.752C88.2859 247.178 88.66 246.605 89.0347 246.032C86.0692 246.796 82.322 249.265 78.074 253.573C83.382 235.117 74.9501 230.253 61.5863 243.81C63.5156 237.101 63.6852 232.138 62.4757 229.192C51.79 245.244 41.8911 261.761 32.7188 278.906C40.9303 283.547 48.4571 288.559 55.5537 294.201C60.858 298.418 65.9221 302.987 70.8526 308.016C74.847 302.409 78.4405 297.237 81.6336 292.501C76.895 288.29 72.6504 283.463 68.9001 278.021H68.8998Z" fill="#00BFFF" stroke="black" stroke-width="1.659" stroke-miterlimit="22.9256" stroke-linecap="round" stroke-linejoin="round"></path>
<path fill-rule="evenodd" clip-rule="evenodd" d="M118.978 202.488C103.177 218.417 75.9678 244.791 37.3518 281.608C49.6959 289.04 60.7573 297.719 70.8517 308.015C74.8461 302.408 78.4396 297.236 81.6327 292.5C76.8941 288.289 72.6496 283.462 68.8993 278.02C75.1101 267.77 81.4411 257.694 87.9119 247.751C97.9096 232.391 108.241 217.351 118.978 202.488Z" fill="black" stroke="black" stroke-width="1.659" stroke-miterlimit="22.9256" stroke-linecap="round" stroke-linejoin="round"></path>
<path d="M135.58 174.689C135.244 174.399 135.206 173.891 135.495 173.554C135.784 173.217 136.29 173.179 136.626 173.469C137.575 174.288 138.086 175.215 138.158 176.25C138.228 177.247 137.873 178.296 137.094 179.398C136.838 179.759 136.339 179.843 135.979 179.586C135.619 179.329 135.534 178.828 135.791 178.467C136.347 177.681 136.603 176.977 136.56 176.356C136.519 175.773 136.193 175.217 135.58 174.689L135.58 174.689Z" fill="black"></path>
<path fill-rule="evenodd" clip-rule="evenodd" d="M197.054 231.466C232.386 231.466 259.479 231.466 278.332 231.466C278.934 230.022 279.462 228.471 279.912 226.808C273.785 222.13 246.983 209.754 236.086 207.649C233.428 207.135 232.344 207.535 232.006 208.342C231.697 209.081 231.931 210.131 233.928 211.824C235.159 212.867 236.776 213.989 238.615 215.088C229.41 209.698 217.616 202.97 208.047 197.407C198.682 191.962 189.547 186.224 180.326 180.578C173.032 176.112 158.468 165.953 150.858 166.648C147.468 166.957 144.08 169.781 141.048 173.179C139.913 174.451 138.828 175.802 137.793 177.159C112.89 209.791 90.1872 242.887 68.8989 278.021C81.975 285.961 97.898 296.277 107.713 307.821C131.976 275.372 151.148 242.89 165.343 210.945C171.888 216.436 183.556 224.345 197.054 231.466Z" fill="#00BFFF" stroke="black" stroke-width="1.659" stroke-miterlimit="22.9256"></path>
<path fill-rule="evenodd" clip-rule="evenodd" d="M87.9125 247.753C81.4414 257.695 75.1104 267.771 68.8999 278.021C81.976 285.962 97.899 296.277 107.714 307.821C116.715 295.693 125.024 283.613 132.641 271.581C132.153 264.394 125.332 264.018 115.056 272.291C122.243 255.025 114.625 249.377 100.187 261C107.001 244.63 100.911 238.416 87.9128 247.753H87.9125Z" fill="#00BFFF" stroke="black" stroke-width="1.659" stroke-miterlimit="22.9256" stroke-linecap="round" stroke-linejoin="round"></path>
<path d="M161.537 219.264C164.655 212.565 167.112 207.035 168.91 202.674" stroke="black" stroke-width="1.659" stroke-miterlimit="22.9256" stroke-linecap="round" stroke-linejoin="round"></path>
<path fill-rule="evenodd" clip-rule="evenodd" d="M197.054 231.466C183.556 224.345 171.889 216.436 165.343 210.945C164.112 213.716 162.843 216.488 161.537 219.263C159.625 223.325 157.632 227.393 155.559 231.466H197.054Z" fill="black" stroke="black" stroke-width="1.659" stroke-miterlimit="22.9256" stroke-linecap="round" stroke-linejoin="round"></path>
<path fill-rule="evenodd" clip-rule="evenodd" d="M282.775 203.742C263.355 201.429 245.06 197.718 226.103 193.202C212.618 189.989 199.305 186.237 185.926 182.542L186.034 184.121C202.344 194.252 222.063 205.395 238.614 215.088C234.757 212.783 232.376 210.632 231.923 209.199C231.564 208.061 232.58 207.375 233.885 207.422C241.331 207.688 271.556 220.558 279.911 226.808C280.95 222.963 281.537 218.508 283.161 214.915C285.033 210.776 288.343 207.673 291.303 204.052C288.495 204.038 285.646 203.93 282.775 203.742V203.742Z" fill="black" stroke="black" stroke-width="1.659" stroke-miterlimit="22.9256" stroke-linecap="round" stroke-linejoin="round"></path>
<path d="M276.276 225.392C275.87 225.215 275.685 224.742 275.862 224.336C276.039 223.929 276.51 223.743 276.915 223.921C278.351 224.549 279.262 225.501 279.704 226.633C280.173 227.837 280.094 229.213 279.537 230.596C279.373 231.007 278.907 231.207 278.496 231.043C278.086 230.878 277.887 230.41 278.051 229.999C278.456 228.993 278.527 228.026 278.212 227.218C277.922 226.475 277.291 225.837 276.276 225.392Z" fill="black"></path>
<path fill-rule="evenodd" clip-rule="evenodd" d="M289.168 178.817C296.303 184.767 287.887 199.064 282.776 203.742C294.996 204.542 308.717 204.081 320.101 199.387C323.95 175.276 329.747 156.257 328.425 131.434C327.531 114.65 324.642 91.5693 308.142 85.832C304.187 84.5618 296.675 83.4113 295.446 74.8823C287.058 76.8441 281.846 77.5195 273.384 77.2838C268.467 77.1471 264.962 77.6223 264.262 85.3002C254.629 91.1929 238.82 93.2805 231.922 101.71C221.548 114.389 224.949 158.131 216.509 173.356L207.472 175.461C211.379 177.752 216.361 180.89 222.415 184.875C228.709 184.585 234.861 184.17 240.998 183.622C257.129 182.182 272.935 179.472 289.168 178.817Z" fill="black" stroke="black" stroke-width="1.659" stroke-miterlimit="22.9256" stroke-linecap="round" stroke-linejoin="round"></path>
<path d="M245.115 113.789L236.598 134.053C238.382 150.833 240.055 168.07 240.998 184.92" stroke="white" stroke-width="1.659" stroke-miterlimit="22.9256" stroke-linecap="round" stroke-linejoin="round"></path>
<path fill-rule="evenodd" clip-rule="evenodd" d="M226.103 193.202C245.059 197.718 263.355 201.429 282.775 203.742C288.215 198.589 296.085 184.899 289.167 178.817C280.734 179.157 270.936 180.065 259.772 181.538C253.442 182.374 247.227 183.066 240.997 183.622C234.86 184.17 228.708 184.586 222.414 184.875C217.397 181.573 212.427 176.943 207.237 173.918C198.686 176.65 196.083 180.066 185.755 180.066L185.926 182.542C199.305 186.237 212.618 189.988 226.103 193.201L226.103 193.202Z" fill="white" stroke="black" stroke-width="1.659" stroke-miterlimit="22.9256" stroke-linecap="round" stroke-linejoin="round"></path>
<path d="M280.367 180.979C284.738 180.644 300.381 179.054 303.713 179.456L297.048 173.663L293.487 148.706" stroke="white" stroke-width="1.659" stroke-miterlimit="22.9256" stroke-linecap="round" stroke-linejoin="round"></path>
<path fill-rule="evenodd" clip-rule="evenodd" d="M324.763 108.144C317.154 114.361 312.273 123.825 312.273 134.376V201.906V224.355V231.466V238.782V283.915V283.917V291.234V298.549V351H326.042V231.466V166.655V134.376C326.042 130.572 326.676 126.909 327.844 123.489C331.664 112.304 343.623 101.659 361.652 100.543C354.703 100.543 349.257 100.542 346.252 100.542C338.388 100.491 330.859 103.167 324.763 108.144Z" fill="white" stroke="black" stroke-width="1.659" stroke-miterlimit="22.9256" stroke-linecap="round" stroke-linejoin="round"></path>
<path fill-rule="evenodd" clip-rule="evenodd" d="M326.04 350.999H393.514V134.376C393.514 115.767 378.332 100.542 359.777 100.542C341.222 100.542 326.04 115.767 326.04 134.376V350.999Z" fill="white" stroke="black" stroke-width="1.659" stroke-miterlimit="22.9256" stroke-linecap="round" stroke-linejoin="round"></path>
<path d="M408.414 176.402C408.414 174.743 409.759 173.398 411.418 173.398H492.547C494.206 173.398 495.551 174.743 495.551 176.402V185.792C495.551 187.452 494.206 188.797 492.547 188.797H411.418C409.759 188.797 408.414 187.452 408.414 185.792V176.402Z" fill="white"></path>
<path fill-rule="evenodd" clip-rule="evenodd" d="M492.547 174.9H411.418C410.589 174.9 409.916 175.573 409.916 176.402V185.792C409.916 186.622 410.589 187.295 411.418 187.295H492.547C493.376 187.295 494.049 186.622 494.049 185.792V176.402C494.049 175.573 493.376 174.9 492.547 174.9ZM411.418 173.398C409.759 173.398 408.414 174.743 408.414 176.402V185.792C408.414 187.452 409.759 188.797 411.418 188.797H492.547C494.206 188.797 495.551 187.452 495.551 185.792V176.402C495.551 174.743 494.206 173.398 492.547 173.398H411.418Z" fill="black"></path>
<path d="M494.425 176.402C494.425 174.743 495.771 173.398 497.43 173.398H528.98C530.639 173.398 531.985 174.743 531.985 176.402V185.792C531.985 187.452 530.639 188.797 528.98 188.797H497.43C495.771 188.797 494.425 187.452 494.425 185.792V176.402Z" fill="white"></path>
<path fill-rule="evenodd" clip-rule="evenodd" d="M528.98 174.9H497.43C496.6 174.9 495.928 175.573 495.928 176.402V185.792C495.928 186.622 496.6 187.295 497.43 187.295H528.98C529.81 187.295 530.482 186.622 530.482 185.792V176.402C530.482 175.573 529.81 174.9 528.98 174.9ZM497.43 173.398C495.771 173.398 494.425 174.743 494.425 176.402V185.792C494.425 187.452 495.771 188.797 497.43 188.797H528.98C530.639 188.797 531.985 187.452 531.985 185.792V176.402C531.985 174.743 530.639 173.398 528.98 173.398H497.43Z" fill="black"></path>
<path fill-rule="evenodd" clip-rule="evenodd" d="M494.988 176.778C494.988 175.332 494.059 174.149 492.923 174.149H497.054C495.918 174.149 494.988 175.332 494.988 176.778Z" fill="black" stroke="black" stroke-width="1.659" stroke-miterlimit="22.9256" stroke-linecap="round" stroke-linejoin="round"></path>
<path d="M489.398 188.05L489.398 350.999L416.801 350.999L416.801 188.05L489.398 188.05Z" fill="white" stroke="black" stroke-width="1.659" stroke-miterlimit="22.9256" stroke-linecap="round" stroke-linejoin="round"></path>
<path d="M523.062 188.05L523.062 350.999L489.396 350.999L489.396 188.05L523.062 188.05Z" fill="white" stroke="black" stroke-width="1.659" stroke-miterlimit="22.9256" stroke-linecap="round" stroke-linejoin="round"></path>
<path fill-rule="evenodd" clip-rule="evenodd" d="M489.397 188.051V193.28L523.064 199.531V188.051H489.397Z" fill="black"></path>
<path fill-rule="evenodd" clip-rule="evenodd" d="M489.397 193.28V188.051H416.801L489.397 193.28Z" fill="black"></path>
<path fill-rule="evenodd" clip-rule="evenodd" d="M447.995 174.025H468.144C468.748 174.025 469.274 173.528 469.313 172.916L471.44 139.574C471.498 138.67 470.938 137.925 470.196 137.925H445.441C444.698 137.925 444.149 138.67 444.219 139.574L446.81 172.916C446.858 173.528 447.391 174.025 447.995 174.025Z" fill="white" stroke="black" stroke-width="1.659" stroke-miterlimit="22.9256" stroke-linecap="round" stroke-linejoin="round"></path>
<path fill-rule="evenodd" clip-rule="evenodd" d="M444.636 144.943C439.309 145.778 435.234 150.399 435.234 155.976C435.234 162.14 440.214 167.138 446.361 167.143L445.913 161.384C443.138 161.152 440.957 158.819 440.957 155.976C440.957 153.423 442.715 151.282 445.083 150.703L444.636 144.943V144.943Z" fill="black" stroke="black" stroke-width="1.659" stroke-miterlimit="22.9256" stroke-linecap="round" stroke-linejoin="round"></path>
</svg>
