<svg width="533" height="270" fill="none" xmlns="http://www.w3.org/2000/svg"><path fill-rule="evenodd" clip-rule="evenodd" d="M153.317 231.466h226.429v-97.091c0-18.608-15.181-33.833-33.737-33.833H187.054c-18.555 0-33.737 15.225-33.737 33.833v97.091Z" fill="#fff" stroke="#000" stroke-width="1.659" stroke-miterlimit="22.926" stroke-linecap="round" stroke-linejoin="round"/><path fill-rule="evenodd" clip-rule="evenodd" d="M325.149 107.832c5.751-4.561 13.003-7.29 20.86-7.29h-23.397c1.012 2.302 1.847 4.755 2.537 7.29Z" fill="#000" stroke="#000" stroke-width="1.659" stroke-miterlimit="22.926" stroke-linecap="round" stroke-linejoin="round"/><path fill-rule="evenodd" clip-rule="evenodd" d="M304.977 291.232H47.484c-16.22 0-29.492-13.309-29.492-29.577v-.612c0-16.268 13.271-29.577 29.492-29.577h257.493c4.013 0 7.295 3.292 7.295 7.316v45.134c0 4.024-3.282 7.316-7.295 7.316v0Z" fill="#fff" stroke="#000" stroke-width="1.659" stroke-miterlimit="22.926" stroke-linecap="round" stroke-linejoin="round"/><path fill-rule="evenodd" clip-rule="evenodd" d="M304.977 231.463c4.012 0 7.295-3.292 7.295-7.316v7.316h-7.295ZM304.977 231.466c4.013 0 7.296 3.292 7.296 7.316v-7.316h-7.296ZM49.435 249.636l-25.483 29.905c4.477 5.702 10.992 9.73 18.417 10.951a82.624 82.624 0 0 1-10.007-11.94c5.337-9.977 11.231-19.331 17.073-28.916ZM275.309 68.531s1.579 10.798 1.579 9.834c-7.511 0-24.862-1.615-30.119-5.306-6.296-4.42 1.423-15.44 1.047-35.22 0 11.002 12.1 37.25 27.493 30.693h0Z" fill="#000" stroke="#000" stroke-width="1.659" stroke-miterlimit="22.926" stroke-linecap="round" stroke-linejoin="round"/><path fill-rule="evenodd" clip-rule="evenodd" d="M271.656 81.4c8.107 2.616 14.833 3.336 22.663-1.902-.904-4.624-2.571-15.988-3.203-22.086-.454-4.386-1.573-9.306-7.253-8.787-7.038.642-5.55 7.648-6.387 12.946-1.255 7.93-4.323 16.824-5.82 19.83h0Z" fill="#fff" stroke="#fff" stroke-width="1.659" stroke-miterlimit="22.926" stroke-linecap="round" stroke-linejoin="round"/><path fill-rule="evenodd" clip-rule="evenodd" d="M283.23 63.53c-2.98 2.392-4.855 3.846-8.68 5.408-.202.936-.85 3.25-1.029 4.195 3.202-1.291 7.63-6.338 9.709-9.603Z" fill="#000" stroke="#000" stroke-width="1.659" stroke-miterlimit="22.926" stroke-linecap="round" stroke-linejoin="round"/><path fill-rule="evenodd" clip-rule="evenodd" d="M248.187 24.203c12.711 2.512 23.166 1.677 35.475-1.425 7.02-1.774 4.16 10.953 6.315 13.804l1.253-.803c4.922-8.8 12.422-.828 7.782 7.386-1.341 2.373-3.292 3.456-6.363 3.023-2.542 10.777-6.708 16.734-16.367 21.84-3.099 1.64-6.705 3.259-10.275 3.159-3.959-.11-6.998-3.05-9.302-6-6.391-8.194-8.011-14.861-8.713-24.126-.4-5.272-.249-11.428.195-16.857Z" fill="#fff"/><path fill-rule="evenodd" clip-rule="evenodd" d="M302.125 22.777c-2.927-8.843-6.604-16.714-15.856-20.219 6.182-3.016 11.619-1.538 15.82 3.438 3.915 4.637 5.202 11.474.036 16.781Z" fill="#000" stroke="#000" stroke-width="1.659" stroke-miterlimit="22.926" stroke-linecap="round" stroke-linejoin="round"/><path fill-rule="evenodd" clip-rule="evenodd" d="M291.535 1.037c3.301 1.557 5.047 4.866 5.239 9.928-2.466-3.648-5.748-6.604-10.505-8.406 1.825-.89 3.584-1.389 5.266-1.522h0Z" fill="#fff" stroke="#000" stroke-width="1.659" stroke-miterlimit="22.926" stroke-linecap="round" stroke-linejoin="round"/><path fill-rule="evenodd" clip-rule="evenodd" d="M289.977 36.582c-2.155-2.852.705-15.579-6.315-13.805-12.332 3.108-22.806 3.944-35.547 1.412 1.023-10.746 10.051-18.48 20.346-21.486 10.187-2.974 21.541-1.492 27.89 7.736 4.228 6.144 6.532 14.456 8.337 20.974 2.859 10.324 8.185 23.665 9.018 32.345.806 8.4-13.527 11.753-19.679 12.619-1.398-5.74-3.172-15.031-3.932-22.29-.457-4.372 1.945-4.908 2.554-7.9 3.071.434 5.022-.65 6.364-3.023 4.639-8.213-2.861-16.185-7.782-7.386l-1.254.803v0Z" fill="#000" stroke="#000" stroke-width="1.659" stroke-miterlimit="22.926" stroke-linecap="round" stroke-linejoin="round"/><path d="M247.772 36.056c-.062-3.941.033-8.087.343-11.867 12.711 2.512 23.239 1.69 35.547-1.411 7.02-1.774 4.16 10.953 6.315 13.804l1.253-.803c4.922-8.8 12.422-.828 7.783 7.386-1.342 2.373-3.293 3.456-6.364 3.023" stroke="#000" stroke-width="1.659" stroke-miterlimit="22.926" stroke-linecap="round" stroke-linejoin="round"/><path d="M292.649 46.188c-2.542 10.776-6.707 16.733-16.367 21.84-3.099 1.64-6.705 3.258-10.275 3.158-3.959-.11-6.998-3.05-9.302-6-6.391-8.194-8.011-14.861-8.713-24.126a78.278 78.278 0 0 1-.178-3.322" stroke="#000" stroke-width="1.659" stroke-miterlimit="22.926"/><path d="m296.596 37.676-2.969 3.42" stroke="#000" stroke-width="1.659" stroke-miterlimit="22.926" stroke-linecap="round" stroke-linejoin="round"/><path d="M293.507 55.284c3.022 0 5.472-2.457 5.472-5.488 0-3.031-2.45-5.488-5.472-5.488-3.023 0-5.473 2.457-5.473 5.488 0 3.03 2.45 5.488 5.473 5.488Z" fill="#00BFFF" stroke="#000" stroke-width="1.659" stroke-miterlimit="22.926" stroke-linecap="round" stroke-linejoin="round"/><path d="M264.602 58.012c3.861.065 6.562-1.675 7.482-5.078M259.389 37.676c2.432 3.915 2.501 8.717 1.715 13.095-3.976-1.252-4.266.146-.859 4.2" stroke="#000" stroke-width="1.659" stroke-miterlimit="22.926" stroke-linecap="round" stroke-linejoin="round"/><path d="M272.324 52.937c4.634 0 8.39-3.767 8.39-8.414s-3.756-8.414-8.39-8.414c-4.633 0-8.389 3.767-8.389 8.414s3.756 8.414 8.389 8.414ZM264.143 42.651h-2.884" stroke="#000" stroke-width="1.659" stroke-miterlimit="22.926" stroke-linecap="round" stroke-linejoin="round"/><path d="m280.506 42.65 10.724-6.872c.624-6.466 11.368-6.36 10.746 3.608M253.036 36.528c-4.297 0-7.839 3.24-8.332 7.416-.917 7.797 7.363 11.953 13.141 7.893M277.14 42.39l-10.808-.008" stroke="#000" stroke-width="1.659" stroke-miterlimit="22.926" stroke-linecap="round" stroke-linejoin="round"/><path fill-rule="evenodd" clip-rule="evenodd" d="M277.14 42.389c-.026 2.403-2.126 4.33-4.688 4.33-2.596 0-4.665-1.912-4.627-4.337 3.87-.032 5.969.02 9.315.007Z" fill="#fff" stroke="#000" stroke-width="1.659" stroke-miterlimit="22.926" stroke-linecap="round" stroke-linejoin="round"/><path fill-rule="evenodd" clip-rule="evenodd" d="M267.998 43.627c.547 1.803 2.323 3.092 4.454 3.092.446 0 .878-.058 1.287-.167.015-.11.022-.223.022-.336 0-1.714-1.663-3.103-3.715-3.103-.757 0-1.461.19-2.048.514v0ZM275.232 33.283c-10.542-3.222-15.015 3.263-2.554 3.245 7.246-.014 9.272-1.19 2.554-3.245Z" fill="#000" stroke="#000" stroke-width="1.659" stroke-miterlimit="22.926" stroke-linecap="round" stroke-linejoin="round"/><path fill-rule="evenodd" clip-rule="evenodd" d="M257.889 42.39c-.026 2.402-2.126 4.33-4.688 4.33-2.596-.001-4.665-1.913-4.627-4.338 3.87-.032 5.969.021 9.315.007Z" fill="#fff" stroke="#000" stroke-width="1.659" stroke-miterlimit="22.926" stroke-linecap="round" stroke-linejoin="round"/><path fill-rule="evenodd" clip-rule="evenodd" d="M248.748 43.628c.547 1.803 2.323 3.091 4.454 3.091.446 0 .878-.058 1.287-.167.015-.11.022-.222.022-.336 0-1.713-1.663-3.102-3.715-3.102-.757 0-1.461.189-2.048.513v0ZM256.9 37.61c1.446.003 2.489.068 2.489.066-1.17-2.304-3.814-3.12-6.497-3.244-4.167-.194-6.285.964-6.208 2 .169 2.274 8.089 1.173 10.216 1.177h0ZM121.467 165.778c4.438 1.829 12.901 7.303 17.365 10.044 3.544-4.463 8.065-8.504 12.309-8.891 7.283-.665 26.979 12.273 34.893 17.19l-5.645-82.03c-.536-8.744-4.451-11.908-12.505-12.541l-69.802-4.96c-6.298-.444-9.842 1.234-9.375 7.563l5.435 74.459c.317 4.594 2.528 7.334 6.689 8.045.751.129 2.155.191 3.034.187 3.2-3.571 5.736-6.25 7.987-7.791 3.404-2.33 6.327-2.629 9.614-1.275h.001Z" fill="#000" stroke="#000" stroke-width="1.659" stroke-miterlimit="22.926" stroke-linecap="round" stroke-linejoin="round"/><path d="M133.494 141.267c3.929-.946 6.225-5.653 5.127-10.514-1.097-4.862-5.173-8.036-9.102-7.09-3.93.945-6.226 5.653-5.128 10.514 1.098 4.861 5.173 8.036 9.103 7.09Z" stroke="#fff" stroke-width="1.659" stroke-miterlimit="22.926" stroke-linecap="round" stroke-linejoin="round"/><path fill-rule="evenodd" clip-rule="evenodd" d="M68.9 278.02c21.287-35.133 43.991-68.229 68.893-100.861.34-.444.686-.891 1.04-1.337-4.464-2.741-12.877-8.763-17.366-10.463-7.754-2.938-13.575 4.334-18.19 9.485-7.008 7.821-15.472 18.906-21.388 26.832-18.364 24.605-34.675 50.133-49.171 77.23 14.18 8.013 26.727 17.474 38.133 29.109A737.41 737.41 0 0 0 81.632 292.5c-4.738-4.211-8.983-9.037-12.733-14.48h0Z" fill="#00BFFF" stroke="#000" stroke-width="1.659" stroke-miterlimit="22.926" stroke-linecap="round" stroke-linejoin="round"/><path fill-rule="evenodd" clip-rule="evenodd" d="M68.9 278.021a1109.19 1109.19 0 0 1 20.135-31.989c-2.966.764-6.713 3.233-10.961 7.541 5.308-18.456-3.124-23.32-16.488-9.763 1.93-6.709 2.1-11.672.89-14.618a601.982 601.982 0 0 0-29.757 49.714c8.211 4.641 15.738 9.653 22.835 15.295a166.156 166.156 0 0 1 15.299 13.815 737.41 737.41 0 0 0 10.78-15.515c-4.738-4.211-8.983-9.038-12.733-14.48h0Z" fill="#00BFFF" stroke="#000" stroke-width="1.659" stroke-miterlimit="22.926" stroke-linecap="round" stroke-linejoin="round"/><path fill-rule="evenodd" clip-rule="evenodd" d="M118.978 202.488c-15.801 15.929-43.01 42.303-81.626 79.12 12.344 7.432 23.405 16.111 33.5 26.407a737.41 737.41 0 0 0 10.78-15.515c-4.738-4.211-8.982-9.038-12.733-14.48a1110.725 1110.725 0 0 1 19.013-30.269 1127.95 1127.95 0 0 1 31.066-45.263Z" fill="#000" stroke="#000" stroke-width="1.659" stroke-miterlimit="22.926" stroke-linecap="round" stroke-linejoin="round"/><path d="M135.58 174.689a.806.806 0 0 1-.085-1.135.8.8 0 0 1 1.131-.085c.949.819 1.46 1.746 1.532 2.781.07.997-.285 2.046-1.064 3.148a.798.798 0 0 1-1.115.188.803.803 0 0 1-.188-1.119c.556-.786.812-1.49.769-2.111-.041-.583-.367-1.139-.98-1.667Z" fill="#000"/><path fill-rule="evenodd" clip-rule="evenodd" d="M197.054 231.466h81.278a37.651 37.651 0 0 0 1.58-4.658c-6.127-4.678-32.929-17.054-43.826-19.159-2.658-.514-3.742-.114-4.08.693-.309.739-.075 1.789 1.922 3.482 1.231 1.043 2.848 2.165 4.687 3.264-9.205-5.39-20.999-12.118-30.568-17.681-9.365-5.445-18.5-11.183-27.721-16.829-7.294-4.466-21.858-14.625-29.468-13.93-3.39.309-6.778 3.133-9.81 6.531a67.177 67.177 0 0 0-3.255 3.98c-24.903 32.632-47.606 65.728-68.894 100.862 13.076 7.94 28.999 18.256 38.814 29.8 24.263-32.449 43.435-64.931 57.63-96.876 6.545 5.491 18.213 13.4 31.711 20.521Z" fill="#00BFFF" stroke="#000" stroke-width="1.659" stroke-miterlimit="22.926"/><path fill-rule="evenodd" clip-rule="evenodd" d="M87.912 247.753A1107.664 1107.664 0 0 0 68.9 278.021c13.076 7.941 28.999 18.256 38.814 29.8 9.001-12.128 17.31-24.208 24.927-36.24-.488-7.187-7.309-7.563-17.585.71 7.187-17.266-.431-22.914-14.869-11.291 6.814-16.37.724-22.584-12.274-13.247h0Z" fill="#00BFFF" stroke="#000" stroke-width="1.659" stroke-miterlimit="22.926" stroke-linecap="round" stroke-linejoin="round"/><path d="M161.537 219.264c3.118-6.699 5.575-12.229 7.373-16.59" stroke="#000" stroke-width="1.659" stroke-miterlimit="22.926" stroke-linecap="round" stroke-linejoin="round"/><path fill-rule="evenodd" clip-rule="evenodd" d="M197.054 231.466c-13.498-7.121-25.165-15.03-31.711-20.521a419.208 419.208 0 0 1-3.806 8.318 440.465 440.465 0 0 1-5.978 12.203h41.495ZM282.775 203.742c-19.42-2.313-37.715-6.024-56.672-10.54-13.485-3.213-26.798-6.965-40.177-10.66l.108 1.579c16.31 10.131 36.029 21.274 52.58 30.967-3.857-2.305-6.238-4.456-6.691-5.889-.359-1.138.657-1.824 1.962-1.777 7.446.266 37.671 13.136 46.026 19.386 1.039-3.845 1.626-8.3 3.25-11.893 1.872-4.139 5.182-7.242 8.142-10.863a141.488 141.488 0 0 1-8.528-.31v0Z" fill="#000" stroke="#000" stroke-width="1.659" stroke-miterlimit="22.926" stroke-linecap="round" stroke-linejoin="round"/><path d="M276.276 225.392a.802.802 0 0 1 .639-1.471c1.436.628 2.347 1.58 2.789 2.712.469 1.204.39 2.58-.167 3.963a.801.801 0 1 1-1.486-.597c.405-1.006.476-1.973.161-2.781-.29-.743-.921-1.381-1.936-1.826Z" fill="#000"/><path fill-rule="evenodd" clip-rule="evenodd" d="M289.168 178.817c7.135 5.95-1.281 20.247-6.392 24.925 12.22.8 25.941.339 37.325-4.355 3.849-24.111 9.646-43.13 8.324-67.953-.894-16.784-3.783-39.865-20.283-45.602-3.955-1.27-11.467-2.42-12.696-10.95-8.388 1.962-13.6 2.637-22.062 2.402-4.917-.137-8.422.338-9.122 8.016-9.633 5.893-25.442 7.98-32.34 16.41-10.374 12.679-6.973 56.421-15.413 71.646l-9.037 2.105c3.907 2.291 8.889 5.429 14.943 9.414 6.294-.29 12.446-.705 18.583-1.253 16.131-1.44 31.937-4.15 48.17-4.805Z" fill="#000" stroke="#000" stroke-width="1.659" stroke-miterlimit="22.926" stroke-linecap="round" stroke-linejoin="round"/><path d="m245.115 113.789-8.517 20.264c1.784 16.78 3.457 34.017 4.4 50.867" stroke="#fff" stroke-width="1.659" stroke-miterlimit="22.926" stroke-linecap="round" stroke-linejoin="round"/><path fill-rule="evenodd" clip-rule="evenodd" d="M226.103 193.202c18.956 4.516 37.252 8.227 56.672 10.54 5.44-5.153 13.31-18.843 6.392-24.925-8.433.34-18.231 1.248-29.395 2.721a445.105 445.105 0 0 1-18.775 2.084c-6.137.548-12.289.964-18.583 1.253-5.017-3.302-9.987-7.932-15.177-10.957-8.551 2.732-11.154 6.148-21.482 6.148l.171 2.476c13.379 3.695 26.692 7.446 40.177 10.659v.001Z" fill="#fff" stroke="#000" stroke-width="1.659" stroke-miterlimit="22.926" stroke-linecap="round" stroke-linejoin="round"/><path d="M280.367 180.979c4.371-.335 20.014-1.925 23.346-1.523l-6.665-5.793-3.561-24.957" stroke="#fff" stroke-width="1.659" stroke-miterlimit="22.926" stroke-linecap="round" stroke-linejoin="round"/><path fill-rule="evenodd" clip-rule="evenodd" d="M324.763 108.144c-7.609 6.217-12.49 15.681-12.49 26.232V351h13.769V134.376c0-3.804.634-7.467 1.802-10.887 3.82-11.185 15.779-21.83 33.808-22.946l-15.4-.001c-7.864-.051-15.393 2.625-21.489 7.602Z" fill="#fff" stroke="#000" stroke-width="1.659" stroke-miterlimit="22.926" stroke-linecap="round" stroke-linejoin="round"/><path fill-rule="evenodd" clip-rule="evenodd" d="M326.04 350.999h67.474V134.376c0-18.609-15.182-33.834-33.737-33.834s-33.737 15.225-33.737 33.834v216.623Z" fill="#fff" stroke="#000" stroke-width="1.659" stroke-miterlimit="22.926" stroke-linecap="round" stroke-linejoin="round"/><path d="M408.414 176.402a3.004 3.004 0 0 1 3.004-3.004h81.129a3.004 3.004 0 0 1 3.004 3.004v9.39a3.004 3.004 0 0 1-3.004 3.005h-81.129a3.004 3.004 0 0 1-3.004-3.005v-9.39Z" fill="#fff"/><path fill-rule="evenodd" clip-rule="evenodd" d="M492.547 174.9h-81.129c-.829 0-1.502.673-1.502 1.502v9.39c0 .83.673 1.503 1.502 1.503h81.129c.829 0 1.502-.673 1.502-1.503v-9.39c0-.829-.673-1.502-1.502-1.502Zm-81.129-1.502a3.004 3.004 0 0 0-3.004 3.004v9.39a3.004 3.004 0 0 0 3.004 3.005h81.129a3.004 3.004 0 0 0 3.004-3.005v-9.39a3.004 3.004 0 0 0-3.004-3.004h-81.129Z" fill="#000"/><path d="M494.425 176.402a3.005 3.005 0 0 1 3.005-3.004h31.55a3.005 3.005 0 0 1 3.005 3.004v9.39a3.005 3.005 0 0 1-3.005 3.005h-31.55a3.005 3.005 0 0 1-3.005-3.005v-9.39Z" fill="#fff"/><path fill-rule="evenodd" clip-rule="evenodd" d="M528.98 174.9h-31.55c-.83 0-1.502.673-1.502 1.502v9.39c0 .83.672 1.503 1.502 1.503h31.55c.83 0 1.502-.673 1.502-1.503v-9.39c0-.829-.672-1.502-1.502-1.502Zm-31.55-1.502a3.005 3.005 0 0 0-3.005 3.004v9.39a3.005 3.005 0 0 0 3.005 3.005h31.55a3.005 3.005 0 0 0 3.005-3.005v-9.39a3.005 3.005 0 0 0-3.005-3.004h-31.55Z" fill="#000"/><path fill-rule="evenodd" clip-rule="evenodd" d="M494.988 176.778c0-1.446-.929-2.629-2.065-2.629h4.131c-1.136 0-2.066 1.183-2.066 2.629Z" fill="#000" stroke="#000" stroke-width="1.659" stroke-miterlimit="22.926" stroke-linecap="round" stroke-linejoin="round"/><path d="M489.398 188.05v162.949h-72.597V188.05h72.597Z" fill="#fff" stroke="#000" stroke-width="1.659" stroke-miterlimit="22.926" stroke-linecap="round" stroke-linejoin="round"/><path d="M523.062 188.05v162.949h-33.666V188.05h33.666Z" fill="#fff" stroke="#000" stroke-width="1.659" stroke-miterlimit="22.926" stroke-linecap="round" stroke-linejoin="round"/><path fill-rule="evenodd" clip-rule="evenodd" d="M489.397 188.051v5.229l33.667 6.251v-11.48h-33.667Z" fill="#000"/><path fill-rule="evenodd" clip-rule="evenodd" d="M489.397 193.28v-5.229h-72.596l72.596 5.229Z" fill="#000"/><path fill-rule="evenodd" clip-rule="evenodd" d="M447.995 174.025h20.149c.604 0 1.13-.497 1.169-1.109l2.127-33.342c.058-.904-.502-1.649-1.244-1.649h-24.755c-.743 0-1.292.745-1.222 1.649l2.591 33.342c.048.612.581 1.109 1.185 1.109Z" fill="#fff" stroke="#000" stroke-width="1.659" stroke-miterlimit="22.926" stroke-linecap="round" stroke-linejoin="round"/><path fill-rule="evenodd" clip-rule="evenodd" d="M444.636 144.943c-5.327.835-9.402 5.456-9.402 11.033 0 6.164 4.98 11.162 11.127 11.167l-.448-5.759a5.422 5.422 0 0 1-4.956-5.408 5.427 5.427 0 0 1 4.126-5.273l-.447-5.76v0Z" fill="#000" stroke="#000" stroke-width="1.659" stroke-miterlimit="22.926" stroke-linecap="round" stroke-linejoin="round"/></svg>