<svg width="32" height="32" fill="none" xmlns="http://www.w3.org/2000/svg"><path fill-rule="evenodd" clip-rule="evenodd" d="m18.343 3.414-11.7 11.7 8.486 8.486 11.7-11.7a2 2 0 0 0 0-2.829L21.17 3.414a2 2 0 0 0-2.828 0Zm-2.507 5.593a1 1 0 1 0 1.414 1.414l3.214-3.214a1 1 0 1 0-1.414-1.414l-3.214 3.214Z" fill="#00BFFF"/><path d="M7.302 24.844a2 2 0 0 1-1.903-1.903L5.1 16.657l8.486 8.486-6.284-.3Z" fill="#00BFFF"/><path d="M5.48 28.485H26.67" stroke="#00BFFF" stroke-width="2" stroke-linecap="round" stroke-linejoin="round"/></svg>