<svg width="446" height="290" fill="none" xmlns="http://www.w3.org/2000/svg"><path fill-rule="evenodd" clip-rule="evenodd" d="M74.029 1.542h349.924c12.891 0 22.19 11.317 20.665 25.143L422.92 223.984c-1.526 13.826-13.285 25.142-26.176 25.142H46.968c-12.891 0-22.19-11.316-20.665-25.142l6.003-54.86H4.31c-3.493 0-4.182-3.346-1.23-6.248l33.605-33.605L47.903 26.685C49.33 12.859 61.138 1.542 74.029 1.542Z" fill="#fff" stroke="#000" stroke-width="1.685" stroke-miterlimit="10" stroke-linecap="round" stroke-linejoin="round"/><path d="M46.328 43.167h396.026" stroke="#000" stroke-width="1.685" stroke-miterlimit="22.926" stroke-linecap="round" stroke-linejoin="round"/><path fill-rule="evenodd" clip-rule="evenodd" d="M416.917 16.5c2.853.689 4.428 3.69 3.591 6.691-.885 3.002-3.887 4.822-6.691 4.133-2.854-.689-4.428-3.69-3.592-6.691.837-3.002 3.838-4.822 6.692-4.133ZM395.662 16.5c2.853.689 4.428 3.69 3.591 6.691-.885 3.002-3.886 4.822-6.691 4.133-2.854-.689-4.428-3.69-3.592-6.691.886-3.002 3.887-4.822 6.692-4.133Z" fill="#A7FC00" stroke="#000" stroke-width="1.685" stroke-miterlimit="22.926" stroke-linecap="round" stroke-linejoin="round"/><ellipse cx="196.588" cy="107.37" rx="3.932" ry="6.777" transform="rotate(-11.553 196.588 107.37)" fill="#fff" stroke="#000" stroke-width="1.659" stroke-miterlimit="22.926" stroke-linecap="round" stroke-linejoin="round"/><path d="m184.592 67.001 11.211 40.995.836 1.674 4.016-1.674-11.88-40.995-4.183-5.857v5.857Z" fill="#fff" stroke="#000" stroke-width="1.659" stroke-miterlimit="22.926" stroke-linecap="round" stroke-linejoin="round"/><path fill-rule="evenodd" clip-rule="evenodd" d="M207.35 111.699a43.77 43.77 0 0 1 12.97-1.105c6.682.525 40.174.033 39.795 1.055-.378 1.023.495 2.804-2.075 3.995-2.569 1.19-15.922 8.414-32.7 5.253-16.778-3.162-17.99-9.198-17.99-9.198Z" fill="#fff" stroke="#000" stroke-width="1.46" stroke-linecap="round" stroke-linejoin="round"/><path fill-rule="evenodd" clip-rule="evenodd" d="M210.992 117.758c15.967 7.814 33.064 6.933 41.392 3.822-1.524-4.879-3.08-9.361-4.147-14.173-2.138-9.616-1.684-29.953-15.616-29.54-13.664.396-12.915 28.486-21.629 39.891Z" fill="#fff" stroke="#000" stroke-width="1.46" stroke-linecap="round" stroke-linejoin="round"/><path fill-rule="evenodd" clip-rule="evenodd" d="M207.115 41.624c3.095-11.539 7.229-21.901 18.846-27.087-8.163-3.399-15.035-1.097-20.058 5.593-4.68 6.232-5.819 15.086 1.212 21.494Z" fill="#000" stroke="#000" stroke-width="1.46" stroke-linecap="round" stroke-linejoin="round"/><path fill-rule="evenodd" clip-rule="evenodd" d="M219.084 12.985c-4.121 2.241-6.114 6.61-5.98 13.108 2.891-4.859 6.884-8.89 12.857-11.556a18.879 18.879 0 0 0-6.877-1.552Z" fill="#fff" stroke="#000" stroke-width="1.46" stroke-linecap="round" stroke-linejoin="round"/><path fill-rule="evenodd" clip-rule="evenodd" d="M222.457 57.4c2.552-3.812-1.858-19.962 7.291-18.22 16.07 3.052 30.665 4.386 46.837.185-2.117-13.684-14.293-22.91-27.741-25.986-13.307-3.04-27.77-.287-35.236 12.01-4.972 8.183-7.305 18.997-9.134 27.487-2.889 13.435-5.893 30.77-6.31 41.932-.176 4.743.997 6.658 4.242 7.597 4.993 1.439 9.048 2.406 14.262 2.826.188-.443.392-.937.555-1.39 9.757.224 13.272-.102 10.272-11.207-1.972-7.308-4.518-14.492-6.453-21.747-3.908.789-6.498-.453-8.397-3.392-6.577-10.168 2.459-20.942 9.441-10.044l.371-.05ZM277.038 64.545c-.684 9.038-2.852 16.52-9.123 25.58-3.276 4.732-7.132 8.602-13.232 8.432A24.332 24.332 0 0 1 247.276 97c-1.402-.526-.67 2.557-.569 3.356l6.044-.356c47.341-2.696 26.006-8.009 24.529-45.566.13 3.372.049 6.749-.242 10.11Z" fill="#000" stroke="#000" stroke-width="1.46" stroke-linecap="round" stroke-linejoin="round"/><path fill-rule="evenodd" clip-rule="evenodd" d="M276.496 39.39c-16.137 4.17-30.707 2.837-46.748-.209-9.149-1.742-4.739 14.408-7.291 18.22l-.368.05c-6.981-10.897-16.017-.123-9.44 10.044 1.898 2.94 4.488 4.181 8.397 3.393 4.088 13.66 6.849 31.157 28.486 31.794 17.585.518 24.221-20.4 28.484-41.735.113-6.768-.544-14.64-1.52-21.557Z" fill="#fff" stroke="#000" stroke-width="1.46" stroke-linecap="round" stroke-linejoin="round"/><path d="m215.336 60.286 4.07 4.156" stroke="#000" stroke-width="1.46" stroke-linecap="round" stroke-linejoin="round"/><path d="M219.847 82.605a7.039 7.039 0 1 1 .727-14.06 7.039 7.039 0 0 1-.727 14.06Z" fill="#A7FC00" stroke="#000" stroke-width="1.46" stroke-linecap="round" stroke-linejoin="round"/><path clip-rule="evenodd" d="M240.211 82.813c2.078 3.086 5.414 4.696 8.601 4.532 2.641-.137 5.179-1.492 6.816-4.235a29.883 29.883 0 0 1-15.417-.297Z" stroke="#000" stroke-width="1.46" stroke-linecap="round" stroke-linejoin="round"/><path d="M254.269 54.162c-2.828 5.198-2.558 11.35-1.219 16.9 5.013-1.905 5.485-.134 1.418 5.312" stroke="#000" stroke-width="1.46" stroke-linecap="round" stroke-linejoin="round"/><path fill-rule="evenodd" clip-rule="evenodd" d="M233.167 51.847c12.777-2.46 16.965 4.835 6.695 3.252a16.818 16.818 0 0 0-6.167.181c-3.873.854-5.766.647-6.633.303 0-.469 1.961-2.938 6.105-3.736ZM267.054 51.195c-12.777-2.46-16.965 4.836-6.695 3.252a16.82 16.82 0 0 1 6.167.182c3.873.854 5.766.647 6.633.303 0-.469-1.961-2.938-6.105-3.737Z" fill="#000" stroke="#000" stroke-width="1.46" stroke-linecap="round" stroke-linejoin="round"/><path fill-rule="evenodd" clip-rule="evenodd" d="M232.573 65.785c-.143-3.079 2.412-5.704 5.706-5.891 3.293-.188 6.129 2.105 6.26 5.213-4.972.34-7.67.412-11.966.678Z" fill="#fff" stroke="#000" stroke-width="1.46" stroke-linecap="round" stroke-linejoin="round"/><path fill-rule="evenodd" clip-rule="evenodd" d="M235.133 61.66c-.214 1.392.793 2.839 2.127 3.179 1.287-.549 2.69-2.168 1.843-3.695-1.323.174-2.649.325-3.97.516Z" fill="#000" stroke="#000" stroke-width="1.46" stroke-linecap="round" stroke-linejoin="round"/><path fill-rule="evenodd" clip-rule="evenodd" d="M257.783 64.823c-.148-3.078 2.405-5.706 5.698-5.897 3.293-.192 6.132 2.097 6.267 5.205-4.972.346-7.67.421-11.965.692Z" fill="#fff" stroke="#000" stroke-width="1.46" stroke-linecap="round" stroke-linejoin="round"/><path fill-rule="evenodd" clip-rule="evenodd" d="M260.162 60.645c-.221 1.44.821 2.936 2.199 3.288 1.332-.568 2.782-2.242 1.906-3.82-1.368.179-2.739.336-4.105.532Z" fill="#000" stroke="#000" stroke-width="1.46" stroke-linecap="round" stroke-linejoin="round"/><path fill-rule="evenodd" clip-rule="evenodd" d="m297.715 335.447 9.672 27.458c-24.631-.783-49.303-1.567-73.902-.076-25.595 1.549-51.179 5.556-76.763 3.815-2.655-10.839-5.324-21.793-5.339-32.961-.034-22.469 10.583-43.412 20.959-63.342a3.513 3.513 0 0 1 1.086-1.419c.569-.378 1.288-.365 1.968-.355 24.226.402 48.422 1.592 72.589 3.568 9.278.761 21.365-.111 30.142 3.254 7.735 2.964 6.483 15.595 7.997 22.387 2.857 12.842 7.225 25.297 11.591 37.671Z" fill="#fff" stroke="#000" stroke-width="1.46" stroke-linecap="round" stroke-linejoin="round"/><path fill-rule="evenodd" clip-rule="evenodd" d="M283.085 269.421c-13.361 2.357-27.718 1.633-41.223.838.838 2.366-60.722-2.842-60.725-2.842-1.513-.211-5.438-1.46-7.322-1.791-1.154 2.966-3.168 7.145-4.162 9.895 4.778 1.38 13.323 2.318 19.346 3.509-.57-1.156.913-.473 0 0 13.993 1.262 78.714 8.876 95.849 9.674.182-.004.84.029 1.659.054a851.59 851.59 0 0 0-3.422-19.337Z" fill="#000"/><path d="M188.999 279.03c-6.023-1.191-14.568-2.129-19.346-3.509.994-2.75 3.008-6.929 4.162-9.895 1.884.331 5.809 1.58 7.322 1.791.003 0 61.563 5.208 60.725 2.842 13.505.795 27.862 1.519 41.223-.838a851.59 851.59 0 0 1 3.422 19.337c-.819-.025-1.477-.058-1.659-.054-17.135-.798-81.856-8.412-95.849-9.674Zm0 0c-.57-1.156.913-.473 0 0Z" stroke="#000" stroke-width="1.46" stroke-linecap="round" stroke-linejoin="round"/><path fill-rule="evenodd" clip-rule="evenodd" d="M316.401 201.426c-.584-4.975-1.028-10.1-2.455-14.536-3.188-20.375-8.256-30.863-13.522-45.918-1.88-5.39-5.18-10.011-9.131-14.11-6.018-6.242-15.247-7.875-23.624-7.33-.425 0-7.97-6.773-8.384-7.845-1.049-.211-.93 5.047-24.156 6.779-21.043 1.572-24.54-6.421-28.682-6.723 0 0-2.015 4.918-4.329 4.85-14.685-.431-42.738 10.234-42.668 28.698.034 19.739 2.42 41.77 4.959 61.387 1.122 8.677 4.232 17.57 4.387 26.277.123 6.83.622 16.639.529 36.113 35.466 14.867 108.01 10.44 118.403 5.815.084-.951.161-1.905.224-2.855.596-9.486-1.447-8.455-.66-17.929 0 0 23.312 6.536 25.134 4.709 5.761-6.688 6.18-43.319 3.975-57.382Z" fill="#000"/><path d="M168.5 243.5c1.167 10.333 1.8 34.1-5 46.5M286.823 243.698c-1.276 10.261-3.554 33.92-2.463 46.463" stroke="#fff" stroke-width="1.46" stroke-linecap="round" stroke-linejoin="round"/><path clip-rule="evenodd" d="M202.541 117.157a11.854 11.854 0 0 0 3.877-5.391c6.966 4.381 18.946 7.258 31.202 6.65 12.686-.631 20.147-5.429 22.55-6.718 2.083 3 5.123 6.659 7.482 7.858 0 0-11.691 8.535-37.109 6.595-25.418-1.939-28.002-8.994-28.002-8.994Z" stroke="#000" stroke-width="1.46" stroke-linecap="round" stroke-linejoin="round"/><path d="M230.75 204.462c3.359-.805 25.966-.336 36.849 0l1.07 7.436 2.361 7.347-30.964-2.099-11.415-2.755c-.7-2.974-1.26-9.124 2.099-9.929Z" fill="#000"/><path d="M213.285 172.238a3.001 3.001 0 0 1 2.986-2.71h61.156a3 3 0 0 1 1.816.612l1.234.939a2.999 2.999 0 0 1 1.171 2.662l-7.871 85.589a3 3 0 0 1-2.988 2.725h-62.934a3 3 0 0 1-2.986-3.291l8.416-86.526Z" fill="#A7FC00"/><path d="M216.505 174.272a3 3 0 0 1 2.986-2.717h59.738a3 3 0 0 1 2.987 3.283l-8.012 84.5a3 3 0 0 1-2.987 2.717H211.48a3 3 0 0 1-2.987-3.283l8.012-84.5Z" fill="#A7FC00" stroke="#000" stroke-width="1.46" stroke-linecap="round" stroke-linejoin="round"/><path d="M221.745 204.625c-1.421-.422 1.046-.751-3.844-4.671-8.939-7.167 5.601-4.751 12.451 6.222 3.275 5.247 11.649 13.619 17.859 15.855 3.262 1.174-3.026 7.354-6.578 10.297l-5.536 1.165c-14.06-3.791-18.93-8.373-31.198-14.832-7.017-3.695-2.479-17.084.667-23.317.355 1.336 1.513 4.228 3.301 5.1 1.781.869 9.302 3.142 12.878 4.181Z" fill="#fff" stroke="#000" stroke-width="1.659" stroke-miterlimit="22.926" stroke-linecap="round" stroke-linejoin="round"/><path d="M232.252 233.852c3.639 3.841 39.758 15.752 57.363 21.227l18.761-9.401-2.125-19.338c-23.313-6.183-43.149 0-61.617-8.66-3.032 7.075-9.518 13.73-12.382 16.172Z" fill="#000"/><path d="M289.615 255.079c-17.605-5.475-53.724-17.386-57.363-21.227 2.864-2.442 9.35-9.097 12.382-16.172 18.468 8.66 38.304 2.477 61.617 8.66m-20.427-56.42c2.527 9.771 6.412 36.276 3.379 53.662" stroke="#fff" stroke-width="1.46" stroke-linecap="round" stroke-linejoin="round"/><path d="M196.822 142.586c3.836 14.339-.837 31.013-3.653 37.559l6.165 9.018 18.037-3.995c-.457-3.562-3.788-34.111-4.321-43.358-3.442-8.253-7.149-8.439-6.867-10.411.091-.64 2.321-3.235 3.425-4.453.609.952 2.352 2.923 4.452 3.197 2.101.274.875-3.767 0-5.822 1.461-2.557-2.359-6.622-4.452-8.334 1.552-1.461-2.245-5.48-4.338-7.306-3.767-4.909-7.421-2.055-12.9 1.484-5.48 3.539-6.507 15.64-6.051 17.352.365 1.37 7.154 10.617 10.503 15.069Z" fill="#fff" stroke="#000" stroke-width="1.659" stroke-miterlimit="22.926" stroke-linecap="round" stroke-linejoin="round"/><path d="M206.676 110.358c-.799-.419-3.123-.302-5.232.512-3.46 1.334-8.821 4.625-8.821 9.61M209.871 116.043c-.293-.453-1.789-1.299-3.999-.211-2.21 1.087-7.365 4.206-8.964 9.19M214.302 124.926c-1.204-2.015-4.337-4.814-6.056-3.656-2.148 1.447-6.637 6.319-7.295 8.643" stroke="#000" stroke-width="1.659" stroke-miterlimit="22.926" stroke-linecap="round" stroke-linejoin="round"/><path d="M217.907 244.112c-9.226 9.802-18.5 14.896-21.983 16.217-9.494-11.393-22.076-38.102-31.311-63.495l35.635-31.285c3.46 1.441 11.292-.601 14.776-1.802 4.805 22.704 12.109 70.563 2.883 80.365Z" fill="#000"/><path d="M190.462 216.004c0-21.376 2.981-33.878 7.786-50.455 3.46 1.441 13.292-.601 16.776-1.802 4.805 22.704 12.109 70.563 2.883 80.365-9.226 9.802-18.5 14.896-21.983 16.217-9.494-11.393-22.076-38.102-31.311-63.495" stroke="#fff" stroke-width="1.659" stroke-miterlimit="22.926" stroke-linecap="round" stroke-linejoin="round"/></svg>