<svg width="70" height="43" fill="none" xmlns="http://www.w3.org/2000/svg"><circle cx="7.756" cy="4.689" r="4.032" stroke="#000" stroke-width="1.226"/><circle cx="7.756" cy="4.689" r="2.079" fill="#000"/><path clip-rule="evenodd" d="M22.72.764h42.696c2.119 0 3.61 1.766 3.296 3.925-.275 2.158-2.276 3.924-4.395 3.924H21.464c-2.119 0-3.57-1.766-3.217-3.924C18.6 2.53 20.6.764 22.72.764Z" stroke="#000" stroke-width="1.067" stroke-miterlimit="22.926" stroke-linecap="round" stroke-linejoin="round"/><circle cx="6.304" cy="21.526" r="4.032" stroke="#000" stroke-width="1.226"/><path clip-rule="evenodd" d="M21.346 17.602h25.076c2.159 0 3.65 1.765 3.257 3.924-.392 2.158-2.472 3.924-4.63 3.924H20.09c-2.159 0-3.65-1.766-3.297-3.924.314-2.159 2.394-3.924 4.552-3.924Z" stroke="#000" stroke-width="1.067" stroke-miterlimit="22.926" stroke-linecap="round" stroke-linejoin="round"/><circle cx="5.579" cy="38.362" r="4.032" stroke="#000" stroke-width="1.226"/><circle cx="5.579" cy="38.363" r="2.079" fill="#000"/><path clip-rule="evenodd" d="M21.269 34.439h42.696c2.119 0 3.61 1.766 3.296 3.924-.275 2.158-2.276 3.924-4.395 3.924H20.013c-2.119 0-3.57-1.766-3.218-3.924.354-2.158 2.355-3.924 4.474-3.924Z" stroke="#000" stroke-width="1.067" stroke-miterlimit="22.926" stroke-linecap="round" stroke-linejoin="round"/></svg>